%TF.GenerationSoftware,KiCad,Pcbnew,10.0.2*%
%TF.CreationDate,2026-06-01T22:34:59+02:00*%
%TF.ProjectId,RP2350,52503233-3530-42e6-9b69-6361645f7063,rev?*%
%TF.SameCoordinates,Original*%
%TF.FileFunction,Profile,NP*%
%FSLAX46Y46*%
G04 Gerber Fmt 4.6, Leading zero omitted, Abs format (unit mm)*
G04 Created by KiCad (PCBNEW 10.0.2) date 2026-06-01 22:34:59*
%MOMM*%
%LPD*%
G01*
G04 APERTURE LIST*
%TA.AperFunction,Profile*%
%ADD10C,0.050000*%
%TD*%
%TA.AperFunction,Profile*%
%ADD11C,0.000000*%
%TD*%
G04 APERTURE END LIST*
D10*
X170990000Y-78105000D02*
X125560000Y-78105000D01*
X122555000Y-81105000D02*
G75*
G02*
X125555000Y-78104992I3000007J1D01*
G01*
X122555000Y-106547781D02*
X122555000Y-81110000D01*
X125555000Y-109547781D02*
G75*
G02*
X122555026Y-106547781I7J2999981D01*
G01*
X125560000Y-109547781D02*
X170990000Y-109547781D01*
X170990000Y-78105000D02*
G75*
G02*
X173989947Y-81105000I7J-2999940D01*
G01*
X173990000Y-81110000D02*
X173990000Y-106547781D01*
X173990000Y-106547781D02*
G75*
G02*
X170990000Y-109547793I-2999993J-19D01*
G01*
D11*
%TA.AperFunction,Profile*%
%TO.C,J3*%
G36*
X147238121Y-81747006D02*
G01*
X147317249Y-81792690D01*
X147381856Y-81857297D01*
X147427540Y-81936425D01*
X147451188Y-82024680D01*
X147451188Y-82116048D01*
X147427540Y-82204303D01*
X147381856Y-82283431D01*
X147317249Y-82348038D01*
X147238121Y-82393722D01*
X147149866Y-82417370D01*
X147058498Y-82417370D01*
X146970243Y-82393722D01*
X146891115Y-82348038D01*
X146826508Y-82283431D01*
X146780824Y-82204303D01*
X146757176Y-82116048D01*
X146757176Y-82024680D01*
X146780824Y-81936425D01*
X146826508Y-81857297D01*
X146891115Y-81792690D01*
X146970243Y-81747006D01*
X147058498Y-81723358D01*
X147149866Y-81723358D01*
X147238121Y-81747006D01*
G37*
%TD.AperFunction*%
%TA.AperFunction,Profile*%
G36*
X140004182Y-81770364D02*
G01*
X140004182Y-81770364D01*
G75*
G02*
X140004182Y-82370364I18J-300036D01*
G01*
X139204182Y-82370364D01*
G75*
G02*
X139204182Y-81770364I18J299964D01*
G01*
X140004182Y-81770364D01*
G37*
%TD.AperFunction*%
%TD*%
M02*
