%TF.GenerationSoftware,KiCad,Pcbnew,10.0.2*%
%TF.CreationDate,2026-06-01T22:34:59+02:00*%
%TF.ProjectId,RP2350,52503233-3530-42e6-9b69-6361645f7063,rev?*%
%TF.SameCoordinates,Original*%
%TF.FileFunction,Soldermask,Top*%
%TF.FilePolarity,Negative*%
%FSLAX46Y46*%
G04 Gerber Fmt 4.6, Leading zero omitted, Abs format (unit mm)*
G04 Created by KiCad (PCBNEW 10.0.2) date 2026-06-01 22:34:59*
%MOMM*%
%LPD*%
G01*
G04 APERTURE LIST*
G04 Aperture macros list*
%AMRoundRect*
0 Rectangle with rounded corners*
0 $1 Rounding radius*
0 $2 $3 $4 $5 $6 $7 $8 $9 X,Y pos of 4 corners*
0 Add a 4 corners polygon primitive as box body*
4,1,4,$2,$3,$4,$5,$6,$7,$8,$9,$2,$3,0*
0 Add four circle primitives for the rounded corners*
1,1,$1+$1,$2,$3*
1,1,$1+$1,$4,$5*
1,1,$1+$1,$6,$7*
1,1,$1+$1,$8,$9*
0 Add four rect primitives between the rounded corners*
20,1,$1+$1,$2,$3,$4,$5,0*
20,1,$1+$1,$4,$5,$6,$7,0*
20,1,$1+$1,$6,$7,$8,$9,0*
20,1,$1+$1,$8,$9,$2,$3,0*%
G04 Aperture macros list end*
%ADD10R,0.280000X0.505000*%
%ADD11R,2.400000X0.840000*%
%ADD12C,2.500000*%
%ADD13RoundRect,0.140000X-0.170000X0.140000X-0.170000X-0.140000X0.170000X-0.140000X0.170000X0.140000X0*%
%ADD14RoundRect,0.250000X-0.250000X-0.475000X0.250000X-0.475000X0.250000X0.475000X-0.250000X0.475000X0*%
%ADD15RoundRect,0.225000X0.225000X0.250000X-0.225000X0.250000X-0.225000X-0.250000X0.225000X-0.250000X0*%
%ADD16R,1.072000X0.532000*%
%ADD17RoundRect,0.135000X0.135000X0.185000X-0.135000X0.185000X-0.135000X-0.185000X0.135000X-0.185000X0*%
%ADD18RoundRect,0.135000X-0.185000X0.135000X-0.185000X-0.135000X0.185000X-0.135000X0.185000X0.135000X0*%
%ADD19RoundRect,0.150000X-0.587500X-0.150000X0.587500X-0.150000X0.587500X0.150000X-0.587500X0.150000X0*%
%ADD20R,1.400000X2.120000*%
%ADD21RoundRect,0.225000X-0.225000X-0.250000X0.225000X-0.250000X0.225000X0.250000X-0.225000X0.250000X0*%
%ADD22RoundRect,0.218750X0.218750X0.256250X-0.218750X0.256250X-0.218750X-0.256250X0.218750X-0.256250X0*%
%ADD23RoundRect,0.250000X0.475000X-0.250000X0.475000X0.250000X-0.475000X0.250000X-0.475000X-0.250000X0*%
%ADD24RoundRect,0.135000X0.185000X-0.135000X0.185000X0.135000X-0.185000X0.135000X-0.185000X-0.135000X0*%
%ADD25RoundRect,0.150000X-0.825000X-0.150000X0.825000X-0.150000X0.825000X0.150000X-0.825000X0.150000X0*%
%ADD26RoundRect,0.250000X-0.262500X-0.450000X0.262500X-0.450000X0.262500X0.450000X-0.262500X0.450000X0*%
%ADD27RoundRect,0.140000X0.140000X0.170000X-0.140000X0.170000X-0.140000X-0.170000X0.140000X-0.170000X0*%
%ADD28RoundRect,0.250000X0.900000X-1.000000X0.900000X1.000000X-0.900000X1.000000X-0.900000X-1.000000X0*%
%ADD29RoundRect,0.140000X-0.140000X-0.170000X0.140000X-0.170000X0.140000X0.170000X-0.140000X0.170000X0*%
%ADD30RoundRect,0.250000X0.450000X-0.262500X0.450000X0.262500X-0.450000X0.262500X-0.450000X-0.262500X0*%
%ADD31R,1.050000X0.400000*%
%ADD32O,1.050000X0.400000*%
%ADD33O,0.200000X0.600000*%
%ADD34R,0.700000X1.050000*%
%ADD35RoundRect,0.250000X-0.475000X0.250000X-0.475000X-0.250000X0.475000X-0.250000X0.475000X0.250000X0*%
%ADD36R,1.700000X1.700000*%
%ADD37C,1.700000*%
%ADD38R,1.700000X0.600000*%
%ADD39R,2.800000X1.000000*%
%ADD40RoundRect,0.150000X-0.150000X0.512500X-0.150000X-0.512500X0.150000X-0.512500X0.150000X0.512500X0*%
%ADD41RoundRect,0.200000X0.200000X0.275000X-0.200000X0.275000X-0.200000X-0.275000X0.200000X-0.275000X0*%
%ADD42RoundRect,0.135000X-0.135000X-0.185000X0.135000X-0.185000X0.135000X0.185000X-0.135000X0.185000X0*%
%ADD43RoundRect,0.140000X0.170000X-0.140000X0.170000X0.140000X-0.170000X0.140000X-0.170000X-0.140000X0*%
%ADD44C,1.200000*%
%ADD45R,0.300000X1.000000*%
%ADD46RoundRect,0.250000X0.250000X0.475000X-0.250000X0.475000X-0.250000X-0.475000X0.250000X-0.475000X0*%
%ADD47RoundRect,0.200000X0.275000X-0.200000X0.275000X0.200000X-0.275000X0.200000X-0.275000X-0.200000X0*%
%ADD48R,1.000000X1.600000*%
%ADD49RoundRect,0.218750X-0.218750X-0.381250X0.218750X-0.381250X0.218750X0.381250X-0.218750X0.381250X0*%
%ADD50R,0.458000X1.314399*%
%ADD51R,1.314399X0.458000*%
%ADD52RoundRect,0.250000X-0.312500X-1.450000X0.312500X-1.450000X0.312500X1.450000X-0.312500X1.450000X0*%
%ADD53RoundRect,0.225000X-0.250000X0.225000X-0.250000X-0.225000X0.250000X-0.225000X0.250000X0.225000X0*%
%ADD54RoundRect,0.250000X-1.000000X-0.650000X1.000000X-0.650000X1.000000X0.650000X-1.000000X0.650000X0*%
%ADD55O,1.275500X0.581000*%
%ADD56R,3.400000X4.300000*%
%ADD57RoundRect,0.250000X0.325000X0.650000X-0.325000X0.650000X-0.325000X-0.650000X0.325000X-0.650000X0*%
%ADD58RoundRect,0.050000X-0.350000X-0.050000X0.350000X-0.050000X0.350000X0.050000X-0.350000X0.050000X0*%
%ADD59RoundRect,0.050000X-0.050000X-0.350000X0.050000X-0.350000X0.050000X0.350000X-0.050000X0.350000X0*%
%ADD60R,3.400000X3.400000*%
G04 APERTURE END LIST*
D10*
%TO.C,U_BUCK1*%
X164131751Y-81729521D03*
X163631751Y-81729521D03*
X163131751Y-81729521D03*
X162631751Y-81729521D03*
X162131751Y-81729521D03*
X164131751Y-83584521D03*
X163631751Y-83584521D03*
X163131751Y-83584521D03*
X162631751Y-83584521D03*
X162131751Y-83584521D03*
D11*
X163131751Y-82657021D03*
%TD*%
D12*
%TO.C,REF\u002A\u002A*%
X156696278Y-93828891D03*
%TD*%
%TO.C,REF\u002A\u002A*%
X136691632Y-93828891D03*
%TD*%
D13*
%TO.C,C22*%
X144069026Y-92483914D03*
X144069026Y-91523914D03*
%TD*%
%TO.C,C20*%
X143020519Y-92483914D03*
X143020519Y-91523914D03*
%TD*%
D14*
%TO.C,C18*%
X158975057Y-88737798D03*
X157075057Y-88737798D03*
%TD*%
D15*
%TO.C,C17*%
X157200000Y-86825032D03*
X158750000Y-86825032D03*
%TD*%
D16*
%TO.C,U5*%
X145929000Y-87315923D03*
X145929000Y-88265923D03*
X145929000Y-89215923D03*
X143631000Y-89215923D03*
X143631000Y-88265923D03*
X143631000Y-87315923D03*
%TD*%
D17*
%TO.C,R24*%
X141054475Y-108132113D03*
X142074475Y-108132113D03*
%TD*%
D18*
%TO.C,R14*%
X156135281Y-79494785D03*
X156135281Y-80514785D03*
%TD*%
D19*
%TO.C,D4*%
X156572303Y-99880900D03*
X156572303Y-101780900D03*
X158447303Y-100830900D03*
%TD*%
D18*
%TO.C,R3*%
X149099023Y-80973976D03*
X149099023Y-81993976D03*
%TD*%
D20*
%TO.C,L2*%
X161044000Y-87189109D03*
X165100000Y-87189109D03*
%TD*%
D21*
%TO.C,C26*%
X148844232Y-91528489D03*
X150394232Y-91528489D03*
%TD*%
D22*
%TO.C,D3*%
X131082227Y-94592326D03*
X129507227Y-94592326D03*
%TD*%
D23*
%TO.C,C16*%
X155056326Y-89045875D03*
X155056326Y-87145875D03*
%TD*%
D24*
%TO.C,R5*%
X160536358Y-81486453D03*
X160536358Y-80466453D03*
%TD*%
D25*
%TO.C,U2*%
X147371136Y-104204870D03*
X147371136Y-105474870D03*
X147371136Y-106744870D03*
X147371136Y-108014870D03*
X152321136Y-108014870D03*
X152321136Y-106744870D03*
X152321136Y-105474870D03*
X152321136Y-104204870D03*
%TD*%
D26*
%TO.C,R21*%
X155609956Y-103992786D03*
X157434956Y-103992786D03*
%TD*%
D27*
%TO.C,C25*%
X149508637Y-90170000D03*
X148548637Y-90170000D03*
%TD*%
D28*
%TO.C,D2*%
X171030492Y-92787816D03*
X171030492Y-88487816D03*
%TD*%
D29*
%TO.C,C30*%
X130204286Y-107029200D03*
X131164286Y-107029200D03*
%TD*%
D30*
%TO.C,R_SHIELD_0R1*%
X168536733Y-108101609D03*
X168536733Y-106276609D03*
%TD*%
D13*
%TO.C,C13*%
X157273205Y-80749227D03*
X157273205Y-81709227D03*
%TD*%
D31*
%TO.C,U4*%
X153254272Y-81680768D03*
D32*
X153254272Y-82380768D03*
D33*
X153179272Y-83180768D03*
X153679272Y-83180768D03*
X154179272Y-83180768D03*
X154679272Y-83180768D03*
D32*
X154604272Y-82380768D03*
X154604272Y-81680768D03*
D33*
X154679272Y-80880768D03*
X154179272Y-80880768D03*
X153679272Y-80880768D03*
X153179272Y-80880768D03*
%TD*%
D29*
%TO.C,C37*%
X132080000Y-99164926D03*
X133040000Y-99164926D03*
%TD*%
D34*
%TO.C,SW1*%
X130165274Y-85829101D03*
X130165274Y-90029101D03*
X128015274Y-85829101D03*
X128015274Y-90029101D03*
%TD*%
D24*
%TO.C,R2*%
X149099023Y-84187690D03*
X149099023Y-83167690D03*
%TD*%
D35*
%TO.C,C15*%
X148536365Y-86873054D03*
X148536365Y-88773054D03*
%TD*%
D36*
%TO.C,JP1*%
X155836733Y-107016721D03*
D37*
X158376733Y-107016721D03*
%TD*%
D15*
%TO.C,C5*%
X167615413Y-81397910D03*
X166065413Y-81397910D03*
%TD*%
D38*
%TO.C,J_OUT1*%
X160985413Y-97349109D03*
X160985413Y-98599109D03*
X160985413Y-99849609D03*
X160985413Y-101099109D03*
X160985413Y-102349109D03*
D39*
X164335413Y-104199109D03*
X164335413Y-95499109D03*
%TD*%
D40*
%TO.C,U6*%
X152633447Y-87446945D03*
X151683447Y-87446945D03*
X150733447Y-87446945D03*
X150733447Y-89721945D03*
X152633447Y-89721945D03*
%TD*%
D18*
%TO.C,R4*%
X159266358Y-80456453D03*
X159266358Y-81476453D03*
%TD*%
D41*
%TO.C,R12*%
X137495795Y-80444249D03*
X135845795Y-80444249D03*
%TD*%
D42*
%TO.C,R_PR1_TOP1*%
X152817016Y-84738761D03*
X153837016Y-84738761D03*
%TD*%
D43*
%TO.C,C19*%
X139792063Y-98096050D03*
X139792063Y-97136050D03*
%TD*%
D41*
%TO.C,R20*%
X131123515Y-96272409D03*
X129473515Y-96272409D03*
%TD*%
D18*
%TO.C,R7*%
X159345648Y-83028078D03*
X159345648Y-84048078D03*
%TD*%
D44*
%TO.C,J3*%
X145754182Y-84220364D03*
X145754182Y-79920364D03*
X140954182Y-84220364D03*
X140954182Y-79920364D03*
D45*
X146119182Y-82830364D03*
X145329182Y-82830364D03*
X144539182Y-82830364D03*
X143749182Y-82830364D03*
X142959182Y-82830364D03*
X142169182Y-82830364D03*
X141379182Y-82830364D03*
X140589182Y-82830364D03*
X140589182Y-81310364D03*
X141379182Y-81310364D03*
X142169182Y-81310364D03*
X142959182Y-81310364D03*
X143749182Y-81310364D03*
X144539182Y-81310364D03*
X145329182Y-81310364D03*
X146119182Y-81310364D03*
%TD*%
D14*
%TO.C,C29*%
X150453390Y-102176445D03*
X152353390Y-102176445D03*
%TD*%
D46*
%TO.C,C4*%
X171145413Y-81443582D03*
X169245413Y-81443582D03*
%TD*%
D47*
%TO.C,R22*%
X144475413Y-105851374D03*
X144475413Y-104201374D03*
%TD*%
%TO.C,R_SHIELD1*%
X165996733Y-108014109D03*
X165996733Y-106364109D03*
%TD*%
D40*
%TO.C,U8*%
X126557313Y-98991983D03*
X125607313Y-98991983D03*
X124657313Y-98991983D03*
X124657313Y-101266983D03*
X126557313Y-101266983D03*
%TD*%
D21*
%TO.C,C14*%
X151119936Y-79464121D03*
X152669936Y-79464121D03*
%TD*%
D23*
%TO.C,C27*%
X152317136Y-93744608D03*
X152317136Y-91844608D03*
%TD*%
D48*
%TO.C,L3*%
X149901170Y-93476962D03*
X147901170Y-93476962D03*
%TD*%
D15*
%TO.C,C28*%
X151894428Y-100089878D03*
X150344428Y-100089878D03*
%TD*%
D43*
%TO.C,C_IN1*%
X154958020Y-85670998D03*
X154958020Y-84710998D03*
%TD*%
D27*
%TO.C,C35*%
X142044475Y-106999576D03*
X141084475Y-106999576D03*
%TD*%
D49*
%TO.C,FB1*%
X128336735Y-101159109D03*
X130461735Y-101159109D03*
%TD*%
D43*
%TO.C,C24*%
X131221206Y-92639101D03*
X131221206Y-91679101D03*
%TD*%
D35*
%TO.C,C_OUT1*%
X156662781Y-83149822D03*
X156662781Y-85049822D03*
%TD*%
D42*
%TO.C,R_ILM1*%
X153992752Y-79510466D03*
X155012752Y-79510466D03*
%TD*%
D27*
%TO.C,C21*%
X150700520Y-96088371D03*
X149740520Y-96088371D03*
%TD*%
D50*
%TO.C,U3*%
X138125413Y-101049101D03*
X136855413Y-101049101D03*
X135585413Y-101049101D03*
X134315413Y-101049101D03*
D51*
X133353413Y-102646101D03*
X133353413Y-103916101D03*
X133353413Y-105186101D03*
D50*
X134315413Y-106783101D03*
X135585413Y-106783101D03*
X136855413Y-106783101D03*
X138125413Y-106783101D03*
D51*
X139087413Y-105186101D03*
X139087413Y-103916101D03*
X139087413Y-102646101D03*
%TD*%
D52*
%TO.C,F1*%
X163134093Y-92269109D03*
X167409093Y-92269109D03*
%TD*%
D23*
%TO.C,C_SHIELD1*%
X163456733Y-108139109D03*
X163456733Y-106239109D03*
%TD*%
D38*
%TO.C,J_IN1*%
X167335413Y-97349109D03*
X167335413Y-98599109D03*
X167335413Y-99849609D03*
X167335413Y-101099109D03*
X167335413Y-102349109D03*
D39*
X170685413Y-104199109D03*
X170685413Y-95499109D03*
%TD*%
D23*
%TO.C,C31*%
X124899707Y-105378359D03*
X124899707Y-103478359D03*
%TD*%
D42*
%TO.C,R23*%
X130174286Y-108299200D03*
X131194286Y-108299200D03*
%TD*%
D53*
%TO.C,C36*%
X128471851Y-103428603D03*
X128471851Y-104978603D03*
%TD*%
D54*
%TO.C,D1*%
X167924154Y-84511362D03*
X171924154Y-84511362D03*
%TD*%
D24*
%TO.C,R10*%
X146160017Y-92533914D03*
X146160017Y-91513914D03*
%TD*%
D35*
%TO.C,C_USB_BULK1*%
X151242651Y-83187901D03*
X151242651Y-85087901D03*
%TD*%
%TO.C,C33*%
X130665965Y-103431526D03*
X130665965Y-105331526D03*
%TD*%
D29*
%TO.C,C_IN2*%
X150816929Y-81749823D03*
X151776929Y-81749823D03*
%TD*%
D35*
%TO.C,C7*%
X161290000Y-91319109D03*
X161290000Y-93219109D03*
%TD*%
%TO.C,C6*%
X167409423Y-87266581D03*
X167409423Y-89166581D03*
%TD*%
D21*
%TO.C,C23*%
X150023070Y-97556432D03*
X151573070Y-97556432D03*
%TD*%
D42*
%TO.C,R_PR1_BOT1*%
X152817016Y-85826371D03*
X153837016Y-85826371D03*
%TD*%
D18*
%TO.C,R6*%
X160536358Y-83021108D03*
X160536358Y-84041108D03*
%TD*%
D24*
%TO.C,R9*%
X145120053Y-92533914D03*
X145120053Y-91513914D03*
%TD*%
%TO.C,R27*%
X142222108Y-105685196D03*
X142222108Y-104665196D03*
%TD*%
D55*
%TO.C,U7*%
X138937906Y-89862824D03*
X138937906Y-88592824D03*
X138937906Y-87322824D03*
X138937906Y-86052824D03*
X132912906Y-86052824D03*
X132912906Y-87322824D03*
X132912906Y-88592824D03*
X132912906Y-89862824D03*
D56*
X135925406Y-87957824D03*
%TD*%
D43*
%TO.C,C34*%
X126797818Y-104113603D03*
X126797818Y-103153603D03*
%TD*%
D14*
%TO.C,C32*%
X128399235Y-99024352D03*
X130299235Y-99024352D03*
%TD*%
D57*
%TO.C,C11*%
X137388025Y-82662076D03*
X134438025Y-82662076D03*
%TD*%
D24*
%TO.C,R17*%
X152439482Y-96265943D03*
X152439482Y-95245943D03*
%TD*%
D58*
%TO.C,U1*%
X141260413Y-96069101D03*
X141260413Y-96469101D03*
X141260413Y-96869101D03*
X141260413Y-97269101D03*
X141260413Y-97669101D03*
X141260413Y-98069101D03*
X141260413Y-98469101D03*
X141260413Y-98869101D03*
X141260413Y-99269101D03*
X141260413Y-99669101D03*
X141260413Y-100069101D03*
X141260413Y-100469101D03*
X141260413Y-100869101D03*
X141260413Y-101269101D03*
X141260413Y-101669101D03*
D59*
X141910413Y-102319101D03*
X142310413Y-102319101D03*
X142710413Y-102319101D03*
X143110413Y-102319101D03*
X143510413Y-102319101D03*
X143910413Y-102319101D03*
X144310413Y-102319101D03*
X144710413Y-102319101D03*
X145110413Y-102319101D03*
X145510413Y-102319101D03*
X145910413Y-102319101D03*
X146310413Y-102319101D03*
X146710413Y-102319101D03*
X147110413Y-102319101D03*
X147510413Y-102319101D03*
D58*
X148160413Y-101669101D03*
X148160413Y-101269101D03*
X148160413Y-100869101D03*
X148160413Y-100469101D03*
X148160413Y-100069101D03*
X148160413Y-99669101D03*
X148160413Y-99269101D03*
X148160413Y-98869101D03*
X148160413Y-98469101D03*
X148160413Y-98069101D03*
X148160413Y-97669101D03*
X148160413Y-97269101D03*
X148160413Y-96869101D03*
X148160413Y-96469101D03*
X148160413Y-96069101D03*
D59*
X147510413Y-95419101D03*
X147110413Y-95419101D03*
X146710413Y-95419101D03*
X146310413Y-95419101D03*
X145910413Y-95419101D03*
X145510413Y-95419101D03*
X145110413Y-95419101D03*
X144710413Y-95419101D03*
X144310413Y-95419101D03*
X143910413Y-95419101D03*
X143510413Y-95419101D03*
X143110413Y-95419101D03*
X142710413Y-95419101D03*
X142310413Y-95419101D03*
X141910413Y-95419101D03*
D60*
X144710413Y-98869101D03*
%TD*%
M02*
