%TF.GenerationSoftware,KiCad,Pcbnew,10.0.2*%
%TF.CreationDate,2026-06-01T22:34:58+02:00*%
%TF.ProjectId,RP2350,52503233-3530-42e6-9b69-6361645f7063,rev?*%
%TF.SameCoordinates,Original*%
%TF.FileFunction,Copper,L3,Inr*%
%TF.FilePolarity,Positive*%
%FSLAX46Y46*%
G04 Gerber Fmt 4.6, Leading zero omitted, Abs format (unit mm)*
G04 Created by KiCad (PCBNEW 10.0.2) date 2026-06-01 22:34:58*
%MOMM*%
%LPD*%
G01*
G04 APERTURE LIST*
%TA.AperFunction,ComponentPad*%
%ADD10R,1.700000X1.700000*%
%TD*%
%TA.AperFunction,ComponentPad*%
%ADD11C,1.700000*%
%TD*%
%TA.AperFunction,ComponentPad*%
%ADD12C,1.200000*%
%TD*%
%TA.AperFunction,ViaPad*%
%ADD13C,0.600000*%
%TD*%
%TA.AperFunction,ViaPad*%
%ADD14C,0.500000*%
%TD*%
%TA.AperFunction,Conductor*%
%ADD15C,0.500000*%
%TD*%
%TA.AperFunction,Conductor*%
%ADD16C,0.200000*%
%TD*%
G04 APERTURE END LIST*
D10*
%TO.N,/RS485_B*%
%TO.C,JP1*%
X155836733Y-107016721D03*
D11*
%TO.N,Net-(JP1-B)*%
X158376733Y-107016721D03*
%TD*%
D12*
%TO.N,Net-(J3-SHELL)*%
%TO.C,J3*%
X145754182Y-84220364D03*
X145754182Y-79920364D03*
X140954182Y-84220364D03*
X140954182Y-79920364D03*
%TD*%
D13*
%TO.N,Net-(J3-SHELL)*%
X147320000Y-83820000D03*
X147122803Y-79846286D03*
%TO.N,GND*%
X154305000Y-98425000D03*
X162181751Y-82657021D03*
X163131751Y-82657021D03*
X164081751Y-82657021D03*
X159385000Y-79375000D03*
X158750000Y-97790000D03*
X170180000Y-98425000D03*
X156845000Y-100830900D03*
X143673153Y-90474074D03*
X133985000Y-91440000D03*
X135925406Y-87957824D03*
X135925406Y-87957824D03*
X147260459Y-96530864D03*
X140274448Y-87055552D03*
X133985000Y-80645000D03*
X139593397Y-80970364D03*
%TO.N,/USB_VBUS*%
X151537933Y-80872068D03*
X147104957Y-87641482D03*
X144145000Y-80010000D03*
%TO.N,GND*%
X147320000Y-80645000D03*
D14*
X158406563Y-85174068D03*
X154161781Y-91544165D03*
X149860000Y-107315000D03*
X143510000Y-107315000D03*
X132080000Y-92710000D03*
X139065000Y-97790000D03*
X132080000Y-97790000D03*
X126634400Y-105410000D03*
%TO.N,/5V_SYS*%
X125730000Y-97155000D03*
D13*
%TO.N,GND*%
X144710413Y-98869101D03*
X159988929Y-82328078D03*
X135925406Y-87957824D03*
X165250685Y-82968334D03*
X172415413Y-82109109D03*
X170441733Y-107509109D03*
%TO.N,/ADXL_CS*%
X142327757Y-101379149D03*
X139152757Y-101379149D03*
X142962757Y-103919149D03*
D14*
%TO.N,/5V_SYS*%
X153757757Y-86774149D03*
X156297757Y-81694149D03*
D13*
%TO.N,/5V_BUCK*%
X158445413Y-83379109D03*
X162255413Y-86554109D03*
%TO.N,/USB_VBUS*%
X142240000Y-80010000D03*
D14*
%TO.N,GND*%
X149947757Y-98839149D03*
X153757757Y-90584149D03*
X157567757Y-79789149D03*
D13*
X142055791Y-100095913D03*
X143517429Y-101538350D03*
X144780000Y-96269101D03*
X146432377Y-96669583D03*
X140335000Y-95250000D03*
%TD*%
%TO.N,GND*%
D15*
X153757757Y-90584149D02*
X153122757Y-91219149D01*
X153122757Y-91219149D02*
X153122757Y-97702243D01*
X153122757Y-97702243D02*
X151985851Y-98839149D01*
X151985851Y-98839149D02*
X149947757Y-98839149D01*
X135255000Y-96520000D02*
X139700000Y-96520000D01*
X133985000Y-91440000D02*
X133985000Y-95250000D01*
X133985000Y-95250000D02*
X135255000Y-96520000D01*
X139700000Y-96520000D02*
X140335000Y-95885000D01*
X140335000Y-95885000D02*
X140335000Y-95250000D01*
%TO.N,/USB_VBUS*%
X151537933Y-83208506D02*
X151537933Y-80872068D01*
X147104957Y-87641482D02*
X151537933Y-83208506D01*
X144145000Y-80010000D02*
X144145000Y-84681525D01*
X144145000Y-84681525D02*
X147104957Y-87641482D01*
X142240000Y-80010000D02*
X144145000Y-80010000D01*
%TO.N,/5V_SYS*%
X125730000Y-97155000D02*
X125730000Y-84455000D01*
X125730000Y-84455000D02*
X131330000Y-78855000D01*
X131330000Y-78855000D02*
X153458608Y-78855000D01*
X153458608Y-78855000D02*
X156297757Y-81694149D01*
X153757757Y-84234149D02*
X153757757Y-86774149D01*
X156297757Y-81694149D02*
X153757757Y-84234149D01*
%TO.N,/5V_BUCK*%
X159080413Y-83379109D02*
X162255413Y-86554109D01*
X158445413Y-83379109D02*
X159080413Y-83379109D01*
%TO.N,GND*%
X157567757Y-79789149D02*
X157567757Y-86774149D01*
X157567757Y-86774149D02*
X153757757Y-90584149D01*
D16*
X143498228Y-101538350D02*
X143517429Y-101538350D01*
%TD*%
%TA.AperFunction,Conductor*%
%TO.N,GND*%
G36*
X146058059Y-93981061D02*
G01*
X146198163Y-93999506D01*
X146229431Y-94007884D01*
X146352418Y-94058827D01*
X146380451Y-94075012D01*
X146421238Y-94106309D01*
X146486063Y-94156050D01*
X146508951Y-94178938D01*
X146589987Y-94284548D01*
X146606172Y-94312581D01*
X146657115Y-94435568D01*
X146665493Y-94466835D01*
X146683939Y-94606939D01*
X146685000Y-94623125D01*
X146685000Y-95250000D01*
X151443448Y-95250000D01*
X151451528Y-95250264D01*
X151729503Y-95268483D01*
X151745559Y-95270598D01*
X152014760Y-95324145D01*
X152030411Y-95328339D01*
X152290322Y-95416567D01*
X152305300Y-95422771D01*
X152551460Y-95544164D01*
X152565506Y-95552274D01*
X152793713Y-95704756D01*
X152806582Y-95714630D01*
X153012934Y-95895596D01*
X153024403Y-95907065D01*
X153205369Y-96113417D01*
X153215243Y-96126286D01*
X153367725Y-96354493D01*
X153375835Y-96368539D01*
X153497228Y-96614699D01*
X153503435Y-96629684D01*
X153591657Y-96889577D01*
X153595855Y-96905245D01*
X153649400Y-97174435D01*
X153651517Y-97190516D01*
X153669468Y-97464390D01*
X153669468Y-97480610D01*
X153651517Y-97754483D01*
X153649400Y-97770564D01*
X153595855Y-98039754D01*
X153591657Y-98055422D01*
X153503435Y-98315315D01*
X153497228Y-98330300D01*
X153375835Y-98576460D01*
X153367725Y-98590506D01*
X153215243Y-98818713D01*
X153205369Y-98831582D01*
X153024403Y-99037934D01*
X153012934Y-99049403D01*
X152806582Y-99230369D01*
X152793713Y-99240243D01*
X152565506Y-99392725D01*
X152551460Y-99400835D01*
X152305300Y-99522228D01*
X152290315Y-99528435D01*
X152030422Y-99616657D01*
X152014754Y-99620855D01*
X151745564Y-99674400D01*
X151729483Y-99676517D01*
X151451558Y-99694734D01*
X151443448Y-99695000D01*
X149225000Y-99695000D01*
X148157500Y-100812500D01*
X148103662Y-100868860D01*
X147978732Y-100999641D01*
X147973640Y-101004672D01*
X147728303Y-101233476D01*
X147717293Y-101242615D01*
X147450121Y-101439500D01*
X147438129Y-101447311D01*
X147150058Y-101612097D01*
X147137248Y-101618474D01*
X146832099Y-101748981D01*
X146818639Y-101753839D01*
X146500502Y-101848315D01*
X146486572Y-101851591D01*
X146159647Y-101908788D01*
X146145432Y-101910436D01*
X145810540Y-101929793D01*
X145803385Y-101930000D01*
X144171462Y-101930000D01*
X144163764Y-101929761D01*
X143895995Y-101913105D01*
X143880717Y-101911197D01*
X143620868Y-101862202D01*
X143605945Y-101858415D01*
X143354185Y-101777601D01*
X143339846Y-101771995D01*
X143177370Y-101696525D01*
X143124863Y-101650431D01*
X143105611Y-101583266D01*
X143107991Y-101559873D01*
X143128257Y-101457993D01*
X143128257Y-101300304D01*
X143128256Y-101300302D01*
X143097495Y-101145659D01*
X143097494Y-101145652D01*
X143039099Y-101004672D01*
X143037154Y-100999976D01*
X143037147Y-100999963D01*
X142949546Y-100868860D01*
X142949543Y-100868856D01*
X142838049Y-100757362D01*
X142838045Y-100757359D01*
X142706942Y-100669758D01*
X142706929Y-100669751D01*
X142561258Y-100609413D01*
X142561246Y-100609410D01*
X142406602Y-100578649D01*
X142406599Y-100578649D01*
X142248915Y-100578649D01*
X142248910Y-100578649D01*
X142158945Y-100596544D01*
X142134795Y-100594383D01*
X142110647Y-100596561D01*
X142100620Y-100591325D01*
X142089353Y-100590317D01*
X142070204Y-100575441D01*
X142048714Y-100564219D01*
X142037954Y-100550388D01*
X142034176Y-100547453D01*
X142027043Y-100536362D01*
X141973107Y-100441798D01*
X141966439Y-100428252D01*
X141837841Y-100121103D01*
X141832868Y-100106847D01*
X141742549Y-99786337D01*
X141739347Y-99771590D01*
X141688074Y-99438728D01*
X141687153Y-99431238D01*
X141605000Y-98540000D01*
X139778367Y-97817058D01*
X139723277Y-97774084D01*
X139700165Y-97708148D01*
X139700000Y-97701760D01*
X139700000Y-95889427D01*
X139700316Y-95880581D01*
X139718757Y-95622734D01*
X139721273Y-95605230D01*
X139775282Y-95356956D01*
X139780259Y-95340005D01*
X139869053Y-95101939D01*
X139876403Y-95085847D01*
X139998166Y-94862853D01*
X140007722Y-94847984D01*
X140159987Y-94644582D01*
X140171561Y-94631225D01*
X140351225Y-94451561D01*
X140364582Y-94439987D01*
X140567984Y-94287722D01*
X140582853Y-94278166D01*
X140805847Y-94156402D01*
X140821940Y-94149053D01*
X141060005Y-94060259D01*
X141076956Y-94055282D01*
X141325230Y-94001273D01*
X141342727Y-93998757D01*
X141600582Y-93980316D01*
X141609428Y-93980000D01*
X146041874Y-93980000D01*
X146058059Y-93981061D01*
G37*
%TD.AperFunction*%
%TD*%
M02*
