%TF.GenerationSoftware,KiCad,Pcbnew,10.0.2*%
%TF.CreationDate,2026-06-01T22:34:58+02:00*%
%TF.ProjectId,RP2350,52503233-3530-42e6-9b69-6361645f7063,rev?*%
%TF.SameCoordinates,Original*%
%TF.FileFunction,Copper,L4,Bot*%
%TF.FilePolarity,Positive*%
%FSLAX46Y46*%
G04 Gerber Fmt 4.6, Leading zero omitted, Abs format (unit mm)*
G04 Created by KiCad (PCBNEW 10.0.2) date 2026-06-01 22:34:58*
%MOMM*%
%LPD*%
G01*
G04 APERTURE LIST*
%TA.AperFunction,ComponentPad*%
%ADD10R,1.700000X1.700000*%
%TD*%
%TA.AperFunction,ComponentPad*%
%ADD11C,1.700000*%
%TD*%
%TA.AperFunction,ComponentPad*%
%ADD12C,1.200000*%
%TD*%
%TA.AperFunction,ViaPad*%
%ADD13C,0.600000*%
%TD*%
%TA.AperFunction,ViaPad*%
%ADD14C,0.500000*%
%TD*%
%TA.AperFunction,Conductor*%
%ADD15C,0.200000*%
%TD*%
G04 APERTURE END LIST*
D10*
%TO.P,JP1,1,A_1*%
%TO.N,/RS485_B*%
X155836733Y-107016721D03*
D11*
%TO.P,JP1,2,B_2*%
%TO.N,Net-(JP1-B)*%
X158376733Y-107016721D03*
%TD*%
D12*
%TO.P,J3,0,SHELL_0*%
%TO.N,Net-(J3-SHELL)*%
X145754182Y-84220364D03*
X145754182Y-79920364D03*
X140954182Y-84220364D03*
X140954182Y-79920364D03*
%TD*%
D13*
%TO.N,Net-(J3-SHELL)*%
X147320000Y-83820000D03*
X147122803Y-79846286D03*
%TO.N,GND*%
X154305000Y-98425000D03*
X162181751Y-82657021D03*
X163131751Y-82657021D03*
X164081751Y-82657021D03*
X159385000Y-79375000D03*
X158750000Y-97790000D03*
X170180000Y-98425000D03*
X156845000Y-100830900D03*
X143673153Y-90474074D03*
X133985000Y-91440000D03*
X135925406Y-87957824D03*
X135925406Y-87957824D03*
X147260459Y-96530864D03*
X140274448Y-87055552D03*
X133985000Y-80645000D03*
X139593397Y-80970364D03*
%TO.N,/USB_VBUS*%
X151537933Y-80872068D03*
X147104957Y-87641482D03*
X144145000Y-80010000D03*
%TO.N,GND*%
X147320000Y-80645000D03*
D14*
X158406563Y-85174068D03*
X154161781Y-91544165D03*
X149860000Y-107315000D03*
X143510000Y-107315000D03*
X132080000Y-92710000D03*
X139065000Y-97790000D03*
X132080000Y-97790000D03*
X126634400Y-105410000D03*
%TO.N,/5V_SYS*%
X125730000Y-97155000D03*
D13*
%TO.N,GND*%
X144710413Y-98869101D03*
X159988929Y-82328078D03*
X135925406Y-87957824D03*
X165250685Y-82968334D03*
X172415413Y-82109109D03*
X170441733Y-107509109D03*
%TO.N,/ADXL_CS*%
X142327757Y-101379149D03*
X139152757Y-101379149D03*
X142962757Y-103919149D03*
D14*
%TO.N,/5V_SYS*%
X153757757Y-86774149D03*
X156297757Y-81694149D03*
D13*
%TO.N,/5V_BUCK*%
X158445413Y-83379109D03*
X162255413Y-86554109D03*
%TO.N,/USB_VBUS*%
X142240000Y-80010000D03*
D14*
%TO.N,GND*%
X149947757Y-98839149D03*
X153757757Y-90584149D03*
X157567757Y-79789149D03*
D13*
X142055791Y-100095913D03*
X143517429Y-101538350D03*
X144780000Y-96269101D03*
X146432377Y-96669583D03*
X140335000Y-95250000D03*
%TD*%
%TO.N,Net-(J3-SHELL)*%
D15*
X146919636Y-84220364D02*
X140954182Y-84220364D01*
X147320000Y-83820000D02*
X146919636Y-84220364D01*
X147122803Y-79846286D02*
X146686517Y-79410000D01*
X141464546Y-79410000D02*
X140954182Y-79920364D01*
X146686517Y-79410000D02*
X141464546Y-79410000D01*
%TO.N,/ADXL_CS*%
X142327757Y-101379149D02*
X142327757Y-103284149D01*
X139152757Y-101379149D02*
X142327757Y-101379149D01*
X142327757Y-103284149D02*
X142962757Y-103919149D01*
%TD*%
M02*
