%TF.GenerationSoftware,KiCad,Pcbnew,10.0.2*%
%TF.CreationDate,2026-06-01T22:34:58+02:00*%
%TF.ProjectId,RP2350,52503233-3530-42e6-9b69-6361645f7063,rev?*%
%TF.SameCoordinates,Original*%
%TF.FileFunction,Copper,L1,Top*%
%TF.FilePolarity,Positive*%
%FSLAX46Y46*%
G04 Gerber Fmt 4.6, Leading zero omitted, Abs format (unit mm)*
G04 Created by KiCad (PCBNEW 10.0.2) date 2026-06-01 22:34:58*
%MOMM*%
%LPD*%
G01*
G04 APERTURE LIST*
G04 Aperture macros list*
%AMRoundRect*
0 Rectangle with rounded corners*
0 $1 Rounding radius*
0 $2 $3 $4 $5 $6 $7 $8 $9 X,Y pos of 4 corners*
0 Add a 4 corners polygon primitive as box body*
4,1,4,$2,$3,$4,$5,$6,$7,$8,$9,$2,$3,0*
0 Add four circle primitives for the rounded corners*
1,1,$1+$1,$2,$3*
1,1,$1+$1,$4,$5*
1,1,$1+$1,$6,$7*
1,1,$1+$1,$8,$9*
0 Add four rect primitives between the rounded corners*
20,1,$1+$1,$2,$3,$4,$5,0*
20,1,$1+$1,$4,$5,$6,$7,0*
20,1,$1+$1,$6,$7,$8,$9,0*
20,1,$1+$1,$8,$9,$2,$3,0*%
G04 Aperture macros list end*
%TA.AperFunction,SMDPad,CuDef*%
%ADD10R,0.280000X0.505000*%
%TD*%
%TA.AperFunction,SMDPad,CuDef*%
%ADD11R,2.400000X0.840000*%
%TD*%
%TA.AperFunction,SMDPad,CuDef*%
%ADD12RoundRect,0.140000X-0.170000X0.140000X-0.170000X-0.140000X0.170000X-0.140000X0.170000X0.140000X0*%
%TD*%
%TA.AperFunction,SMDPad,CuDef*%
%ADD13RoundRect,0.250000X-0.250000X-0.475000X0.250000X-0.475000X0.250000X0.475000X-0.250000X0.475000X0*%
%TD*%
%TA.AperFunction,SMDPad,CuDef*%
%ADD14RoundRect,0.225000X0.225000X0.250000X-0.225000X0.250000X-0.225000X-0.250000X0.225000X-0.250000X0*%
%TD*%
%TA.AperFunction,SMDPad,CuDef*%
%ADD15R,1.072000X0.532000*%
%TD*%
%TA.AperFunction,SMDPad,CuDef*%
%ADD16RoundRect,0.135000X0.135000X0.185000X-0.135000X0.185000X-0.135000X-0.185000X0.135000X-0.185000X0*%
%TD*%
%TA.AperFunction,SMDPad,CuDef*%
%ADD17RoundRect,0.135000X-0.185000X0.135000X-0.185000X-0.135000X0.185000X-0.135000X0.185000X0.135000X0*%
%TD*%
%TA.AperFunction,SMDPad,CuDef*%
%ADD18RoundRect,0.150000X-0.587500X-0.150000X0.587500X-0.150000X0.587500X0.150000X-0.587500X0.150000X0*%
%TD*%
%TA.AperFunction,SMDPad,CuDef*%
%ADD19R,1.400000X2.120000*%
%TD*%
%TA.AperFunction,SMDPad,CuDef*%
%ADD20RoundRect,0.225000X-0.225000X-0.250000X0.225000X-0.250000X0.225000X0.250000X-0.225000X0.250000X0*%
%TD*%
%TA.AperFunction,SMDPad,CuDef*%
%ADD21RoundRect,0.218750X0.218750X0.256250X-0.218750X0.256250X-0.218750X-0.256250X0.218750X-0.256250X0*%
%TD*%
%TA.AperFunction,SMDPad,CuDef*%
%ADD22RoundRect,0.250000X0.475000X-0.250000X0.475000X0.250000X-0.475000X0.250000X-0.475000X-0.250000X0*%
%TD*%
%TA.AperFunction,SMDPad,CuDef*%
%ADD23RoundRect,0.135000X0.185000X-0.135000X0.185000X0.135000X-0.185000X0.135000X-0.185000X-0.135000X0*%
%TD*%
%TA.AperFunction,SMDPad,CuDef*%
%ADD24RoundRect,0.150000X-0.825000X-0.150000X0.825000X-0.150000X0.825000X0.150000X-0.825000X0.150000X0*%
%TD*%
%TA.AperFunction,SMDPad,CuDef*%
%ADD25RoundRect,0.250000X-0.262500X-0.450000X0.262500X-0.450000X0.262500X0.450000X-0.262500X0.450000X0*%
%TD*%
%TA.AperFunction,SMDPad,CuDef*%
%ADD26RoundRect,0.140000X0.140000X0.170000X-0.140000X0.170000X-0.140000X-0.170000X0.140000X-0.170000X0*%
%TD*%
%TA.AperFunction,SMDPad,CuDef*%
%ADD27RoundRect,0.250000X0.900000X-1.000000X0.900000X1.000000X-0.900000X1.000000X-0.900000X-1.000000X0*%
%TD*%
%TA.AperFunction,SMDPad,CuDef*%
%ADD28RoundRect,0.140000X-0.140000X-0.170000X0.140000X-0.170000X0.140000X0.170000X-0.140000X0.170000X0*%
%TD*%
%TA.AperFunction,SMDPad,CuDef*%
%ADD29RoundRect,0.250000X0.450000X-0.262500X0.450000X0.262500X-0.450000X0.262500X-0.450000X-0.262500X0*%
%TD*%
%TA.AperFunction,SMDPad,CuDef*%
%ADD30R,1.050000X0.400000*%
%TD*%
%TA.AperFunction,SMDPad,CuDef*%
%ADD31O,1.050000X0.400000*%
%TD*%
%TA.AperFunction,SMDPad,CuDef*%
%ADD32O,0.200000X0.600000*%
%TD*%
%TA.AperFunction,SMDPad,CuDef*%
%ADD33R,0.700000X1.050000*%
%TD*%
%TA.AperFunction,SMDPad,CuDef*%
%ADD34RoundRect,0.250000X-0.475000X0.250000X-0.475000X-0.250000X0.475000X-0.250000X0.475000X0.250000X0*%
%TD*%
%TA.AperFunction,ComponentPad*%
%ADD35R,1.700000X1.700000*%
%TD*%
%TA.AperFunction,ComponentPad*%
%ADD36C,1.700000*%
%TD*%
%TA.AperFunction,SMDPad,CuDef*%
%ADD37R,1.700000X0.600000*%
%TD*%
%TA.AperFunction,SMDPad,CuDef*%
%ADD38R,2.800000X1.000000*%
%TD*%
%TA.AperFunction,SMDPad,CuDef*%
%ADD39RoundRect,0.150000X-0.150000X0.512500X-0.150000X-0.512500X0.150000X-0.512500X0.150000X0.512500X0*%
%TD*%
%TA.AperFunction,SMDPad,CuDef*%
%ADD40RoundRect,0.200000X0.200000X0.275000X-0.200000X0.275000X-0.200000X-0.275000X0.200000X-0.275000X0*%
%TD*%
%TA.AperFunction,SMDPad,CuDef*%
%ADD41RoundRect,0.135000X-0.135000X-0.185000X0.135000X-0.185000X0.135000X0.185000X-0.135000X0.185000X0*%
%TD*%
%TA.AperFunction,SMDPad,CuDef*%
%ADD42RoundRect,0.140000X0.170000X-0.140000X0.170000X0.140000X-0.170000X0.140000X-0.170000X-0.140000X0*%
%TD*%
%TA.AperFunction,ComponentPad*%
%ADD43C,1.200000*%
%TD*%
%TA.AperFunction,SMDPad,CuDef*%
%ADD44R,0.300000X1.000000*%
%TD*%
%TA.AperFunction,SMDPad,CuDef*%
%ADD45RoundRect,0.250000X0.250000X0.475000X-0.250000X0.475000X-0.250000X-0.475000X0.250000X-0.475000X0*%
%TD*%
%TA.AperFunction,SMDPad,CuDef*%
%ADD46RoundRect,0.200000X0.275000X-0.200000X0.275000X0.200000X-0.275000X0.200000X-0.275000X-0.200000X0*%
%TD*%
%TA.AperFunction,SMDPad,CuDef*%
%ADD47R,1.000000X1.600000*%
%TD*%
%TA.AperFunction,SMDPad,CuDef*%
%ADD48RoundRect,0.218750X-0.218750X-0.381250X0.218750X-0.381250X0.218750X0.381250X-0.218750X0.381250X0*%
%TD*%
%TA.AperFunction,SMDPad,CuDef*%
%ADD49R,0.458000X1.314399*%
%TD*%
%TA.AperFunction,SMDPad,CuDef*%
%ADD50R,1.314399X0.458000*%
%TD*%
%TA.AperFunction,SMDPad,CuDef*%
%ADD51RoundRect,0.250000X-0.312500X-1.450000X0.312500X-1.450000X0.312500X1.450000X-0.312500X1.450000X0*%
%TD*%
%TA.AperFunction,SMDPad,CuDef*%
%ADD52RoundRect,0.225000X-0.250000X0.225000X-0.250000X-0.225000X0.250000X-0.225000X0.250000X0.225000X0*%
%TD*%
%TA.AperFunction,SMDPad,CuDef*%
%ADD53RoundRect,0.250000X-1.000000X-0.650000X1.000000X-0.650000X1.000000X0.650000X-1.000000X0.650000X0*%
%TD*%
%TA.AperFunction,SMDPad,CuDef*%
%ADD54O,1.275500X0.581000*%
%TD*%
%TA.AperFunction,SMDPad,CuDef*%
%ADD55R,3.400000X4.300000*%
%TD*%
%TA.AperFunction,SMDPad,CuDef*%
%ADD56RoundRect,0.250000X0.325000X0.650000X-0.325000X0.650000X-0.325000X-0.650000X0.325000X-0.650000X0*%
%TD*%
%TA.AperFunction,SMDPad,CuDef*%
%ADD57RoundRect,0.050000X-0.350000X-0.050000X0.350000X-0.050000X0.350000X0.050000X-0.350000X0.050000X0*%
%TD*%
%TA.AperFunction,SMDPad,CuDef*%
%ADD58RoundRect,0.050000X-0.050000X-0.350000X0.050000X-0.350000X0.050000X0.350000X-0.050000X0.350000X0*%
%TD*%
%TA.AperFunction,HeatsinkPad*%
%ADD59R,3.400000X3.400000*%
%TD*%
%TA.AperFunction,ViaPad*%
%ADD60C,0.600000*%
%TD*%
%TA.AperFunction,ViaPad*%
%ADD61C,0.500000*%
%TD*%
%TA.AperFunction,Conductor*%
%ADD62C,0.200000*%
%TD*%
%TA.AperFunction,Conductor*%
%ADD63C,0.400000*%
%TD*%
%TA.AperFunction,Conductor*%
%ADD64C,0.600000*%
%TD*%
%TA.AperFunction,Conductor*%
%ADD65C,0.500000*%
%TD*%
%TA.AperFunction,Conductor*%
%ADD66C,0.250000*%
%TD*%
G04 APERTURE END LIST*
D10*
%TO.P,U_BUCK1,1,PGND_1*%
%TO.N,GND*%
X164131751Y-81729521D03*
%TO.P,U_BUCK1,2,VIN_2*%
%TO.N,Net-(D1-K)*%
X163631751Y-81729521D03*
%TO.P,U_BUCK1,3,EN_3*%
X163131751Y-81729521D03*
%TO.P,U_BUCK1,4,NC_4*%
%TO.N,unconnected-(U_BUCK1-NC-Pad4)*%
X162631751Y-81729521D03*
%TO.P,U_BUCK1,5,FB_5*%
%TO.N,Net-(U_BUCK1-FB)*%
X162131751Y-81729521D03*
%TO.P,U_BUCK1,10,VOS_10*%
%TO.N,/5V_BUCK*%
X164131751Y-83584521D03*
%TO.P,U_BUCK1,9,SW_9*%
%TO.N,Net-(U_BUCK1-SW)*%
X163631751Y-83584521D03*
%TO.P,U_BUCK1,8,~{SLEEP}_8*%
%TO.N,Net-(U_BUCK1-~{SLEEP})*%
X163131751Y-83584521D03*
%TO.P,U_BUCK1,7,PG_7*%
%TO.N,Net-(U_BUCK1-PG)*%
X162631751Y-83584521D03*
%TO.P,U_BUCK1,6,AGND_6*%
%TO.N,GND*%
X162131751Y-83584521D03*
D11*
%TO.P,U_BUCK1,11,PAD_11*%
X163131751Y-82657021D03*
%TD*%
D12*
%TO.P,C22,2*%
%TO.N,GND*%
X144069026Y-92483914D03*
%TO.P,C22,1*%
X144069026Y-91523914D03*
%TD*%
%TO.P,C20,2*%
%TO.N,GND*%
X143020519Y-92483914D03*
%TO.P,C20,1*%
X143020519Y-91523914D03*
%TD*%
D13*
%TO.P,C18,2*%
%TO.N,GND*%
X158975057Y-88737798D03*
%TO.P,C18,1*%
X157075057Y-88737798D03*
%TD*%
D14*
%TO.P,C17,2*%
%TO.N,GND*%
X157200000Y-86825032D03*
%TO.P,C17,1*%
X158750000Y-86825032D03*
%TD*%
D15*
%TO.P,U5,6,I/O1_6*%
%TO.N,Net-(R9-Pad2)*%
X145929000Y-87315923D03*
%TO.P,U5,5,VBUS_5*%
%TO.N,/USB_VBUS*%
X145929000Y-88265923D03*
%TO.P,U5,4,I/O2_4*%
%TO.N,Net-(R10-Pad2)*%
X145929000Y-89215923D03*
%TO.P,U5,3,I/O2_3*%
%TO.N,/USB DN*%
X143631000Y-89215923D03*
%TO.P,U5,2,GND_2*%
%TO.N,GND*%
X143631000Y-88265923D03*
%TO.P,U5,1,I/O1_1*%
%TO.N,/USB DP*%
X143631000Y-87315923D03*
%TD*%
D16*
%TO.P,R24,2*%
%TO.N,Net-(U3-V1P8ANA)*%
X141054475Y-108132113D03*
%TO.P,R24,1*%
%TO.N,GND*%
X142074475Y-108132113D03*
%TD*%
D17*
%TO.P,R14,1*%
%TO.N,Net-(U4-ST)*%
X156135281Y-79494785D03*
%TO.P,R14,2*%
%TO.N,GND*%
X156135281Y-80514785D03*
%TD*%
D18*
%TO.P,D4,1,A1_1*%
%TO.N,/RS485_B*%
X156572303Y-99880900D03*
%TO.P,D4,2,A2_2*%
%TO.N,/RS485_A*%
X156572303Y-101780900D03*
%TO.P,D4,3,common_3*%
%TO.N,GND*%
X158447303Y-100830900D03*
%TD*%
D17*
%TO.P,R3,1*%
%TO.N,Net-(J3-CC2)*%
X149099023Y-80973976D03*
%TO.P,R3,2*%
%TO.N,GND*%
X149099023Y-81993976D03*
%TD*%
D19*
%TO.P,L2,1,1_1*%
%TO.N,Net-(U_BUCK1-SW)*%
X161044000Y-87189109D03*
%TO.P,L2,2,2_2*%
%TO.N,/5V_BUCK*%
X165100000Y-87189109D03*
%TD*%
D20*
%TO.P,C26,1*%
%TO.N,/1V1_CORE*%
X148844232Y-91528489D03*
%TO.P,C26,2*%
%TO.N,GND*%
X150394232Y-91528489D03*
%TD*%
D21*
%TO.P,D3,1,K_1*%
%TO.N,GND*%
X131082227Y-94592326D03*
%TO.P,D3,2,A_2*%
%TO.N,Net-(D3-A)*%
X129507227Y-94592326D03*
%TD*%
D22*
%TO.P,C16,1*%
%TO.N,GND*%
X155056326Y-89045875D03*
%TO.P,C16,2*%
X155056326Y-87145875D03*
%TD*%
D23*
%TO.P,R5,1*%
%TO.N,GND*%
X160536358Y-81486453D03*
%TO.P,R5,2*%
%TO.N,Net-(U_BUCK1-FB)*%
X160536358Y-80466453D03*
%TD*%
D24*
%TO.P,U2,1,RO_1*%
%TO.N,Net-(U1-GPIO16)*%
X147371136Y-104204870D03*
%TO.P,U2,2,~{RE}_2*%
%TO.N,Net-(U1-GPIO15)*%
X147371136Y-105474870D03*
%TO.P,U2,3,DE_3*%
X147371136Y-106744870D03*
%TO.P,U2,4,DI_4*%
%TO.N,Net-(U1-GPIO17)*%
X147371136Y-108014870D03*
%TO.P,U2,5,GND_5*%
%TO.N,GND*%
X152321136Y-108014870D03*
%TO.P,U2,6,A_6*%
%TO.N,/RS485_A*%
X152321136Y-106744870D03*
%TO.P,U2,7,B_7*%
%TO.N,/RS485_B*%
X152321136Y-105474870D03*
%TO.P,U2,8,VCC_8*%
%TO.N,GND*%
X152321136Y-104204870D03*
%TD*%
D25*
%TO.P,R21,1*%
%TO.N,/RS485_A*%
X155609956Y-103992786D03*
%TO.P,R21,2*%
%TO.N,Net-(JP1-B)*%
X157434956Y-103992786D03*
%TD*%
D26*
%TO.P,C25,1*%
%TO.N,GND*%
X149508637Y-90170000D03*
%TO.P,C25,2*%
%TO.N,/1V1_CORE*%
X148548637Y-90170000D03*
%TD*%
D27*
%TO.P,D2,1,A1_1*%
%TO.N,GND*%
X171030492Y-92787816D03*
%TO.P,D2,2,A2_2*%
%TO.N,Net-(D1-A)*%
X171030492Y-88487816D03*
%TD*%
D28*
%TO.P,C30,1*%
%TO.N,GND*%
X130204286Y-107029200D03*
%TO.P,C30,2*%
%TO.N,Net-(U3-V1P8DIG)*%
X131164286Y-107029200D03*
%TD*%
D29*
%TO.P,R_SHIELD_0R1,1*%
%TO.N,GND*%
X168536733Y-108101609D03*
%TO.P,R_SHIELD_0R1,2*%
%TO.N,/SHIELD*%
X168536733Y-106276609D03*
%TD*%
D12*
%TO.P,C13,1*%
%TO.N,GND*%
X157273205Y-80749227D03*
%TO.P,C13,2*%
%TO.N,/5V_SYS*%
X157273205Y-81709227D03*
%TD*%
D30*
%TO.P,U4,1,OUT_1*%
%TO.N,/5V_SYS*%
X153254272Y-81680768D03*
D31*
%TO.P,U4,2,IN2_2*%
%TO.N,/USB_VBUS*%
X153254272Y-82380768D03*
D32*
%TO.P,U4,3,CP2_3*%
%TO.N,GND*%
X153179272Y-83180768D03*
%TO.P,U4,4,OV2_4*%
X153679272Y-83180768D03*
%TO.P,U4,5,OV1_5*%
X154179272Y-83180768D03*
%TO.P,U4,6,PR1_6*%
%TO.N,Net-(U4-PR1)*%
X154679272Y-83180768D03*
D31*
%TO.P,U4,7,IN1_7*%
%TO.N,/5V_BUCK*%
X154604272Y-82380768D03*
%TO.P,U4,8,OUT_8*%
%TO.N,/5V_SYS*%
X154604272Y-81680768D03*
D32*
%TO.P,U4,9,ST_9*%
%TO.N,Net-(U4-ST)*%
X154679272Y-80880768D03*
%TO.P,U4,10,ILM_10*%
%TO.N,Net-(U4-ILM)*%
X154179272Y-80880768D03*
%TO.P,U4,11,SS_11*%
%TO.N,Net-(U4-SS)*%
X153679272Y-80880768D03*
%TO.P,U4,12,GND_12*%
%TO.N,GND*%
X153179272Y-80880768D03*
%TD*%
D28*
%TO.P,C37,1*%
%TO.N,GND*%
X132080000Y-99164926D03*
%TO.P,C37,2*%
%TO.N,/3V3_ADXL*%
X133040000Y-99164926D03*
%TD*%
D33*
%TO.P,SW1,1,1_1*%
%TO.N,GND*%
X130165274Y-85829101D03*
%TO.P,SW1,2,2_2*%
%TO.N,/CS*%
X130165274Y-90029101D03*
%TO.P,SW1,3*%
%TO.N,N/C*%
X128015274Y-85829101D03*
%TO.P,SW1,4*%
X128015274Y-90029101D03*
%TD*%
D23*
%TO.P,R2,1*%
%TO.N,Net-(J3-CC1)*%
X149099023Y-84187690D03*
%TO.P,R2,2*%
%TO.N,GND*%
X149099023Y-83167690D03*
%TD*%
D34*
%TO.P,C15,1*%
%TO.N,/5V_SYS*%
X148536365Y-86873054D03*
%TO.P,C15,2*%
%TO.N,GND*%
X148536365Y-88773054D03*
%TD*%
D35*
%TO.P,JP1,1,A_1*%
%TO.N,/RS485_B*%
X155836733Y-107016721D03*
D36*
%TO.P,JP1,2,B_2*%
%TO.N,Net-(JP1-B)*%
X158376733Y-107016721D03*
%TD*%
D14*
%TO.P,C5,1*%
%TO.N,GND*%
X167615413Y-81397910D03*
%TO.P,C5,2*%
%TO.N,Net-(D1-K)*%
X166065413Y-81397910D03*
%TD*%
D37*
%TO.P,J_OUT1,1,12V_1*%
%TO.N,/12V*%
X160985413Y-97349109D03*
%TO.P,J_OUT1,2,GND_2*%
%TO.N,GND*%
X160985413Y-98599109D03*
%TO.P,J_OUT1,3,B_3*%
%TO.N,/RS485_B*%
X160985413Y-99849609D03*
%TO.P,J_OUT1,4,A_4*%
%TO.N,/RS485_A*%
X160985413Y-101099109D03*
%TO.P,J_OUT1,5,SHIELD_5*%
%TO.N,/SHIELD*%
X160985413Y-102349109D03*
D38*
%TO.P,J_OUT1,6*%
%TO.N,N/C*%
X164335413Y-104199109D03*
%TO.P,J_OUT1,7*%
X164335413Y-95499109D03*
%TD*%
D39*
%TO.P,U6,1,IN_1*%
%TO.N,/5V_SYS*%
X152633447Y-87446945D03*
%TO.P,U6,2,GND_2*%
%TO.N,GND*%
X151683447Y-87446945D03*
%TO.P,U6,3,EN_3*%
%TO.N,/5V_SYS*%
X150733447Y-87446945D03*
%TO.P,U6,4,NC_4*%
%TO.N,unconnected-(U6-NC-Pad4)*%
X150733447Y-89721945D03*
%TO.P,U6,5,OUT_5*%
%TO.N,GND*%
X152633447Y-89721945D03*
%TD*%
D17*
%TO.P,R4,1*%
%TO.N,Net-(U_BUCK1-FB)*%
X159266358Y-80456453D03*
%TO.P,R4,2*%
%TO.N,/5V_BUCK*%
X159266358Y-81476453D03*
%TD*%
D40*
%TO.P,R12,1*%
%TO.N,Net-(J3-SHELL)*%
X137495795Y-80444249D03*
%TO.P,R12,2*%
%TO.N,GND*%
X135845795Y-80444249D03*
%TD*%
D41*
%TO.P,R_PR1_TOP1,1*%
%TO.N,Net-(U4-PR1)*%
X152817016Y-84738761D03*
%TO.P,R_PR1_TOP1,2*%
%TO.N,/5V_BUCK*%
X153837016Y-84738761D03*
%TD*%
D42*
%TO.P,C19,1*%
%TO.N,GND*%
X139792063Y-98096050D03*
%TO.P,C19,2*%
X139792063Y-97136050D03*
%TD*%
D40*
%TO.P,R20,1*%
%TO.N,Net-(U1-GPIO5)*%
X131123515Y-96272409D03*
%TO.P,R20,2*%
%TO.N,Net-(D3-A)*%
X129473515Y-96272409D03*
%TD*%
D17*
%TO.P,R7,1*%
%TO.N,/5V_BUCK*%
X159345648Y-83028078D03*
%TO.P,R7,2*%
%TO.N,Net-(U_BUCK1-~{SLEEP})*%
X159345648Y-84048078D03*
%TD*%
D43*
%TO.P,J3,0,SHELL_0*%
%TO.N,Net-(J3-SHELL)*%
X145754182Y-84220364D03*
X145754182Y-79920364D03*
X140954182Y-84220364D03*
X140954182Y-79920364D03*
D44*
%TO.P,J3,A1,GND_A1*%
%TO.N,GND*%
X146119182Y-82830364D03*
%TO.P,J3,A4,VBUS_A4*%
%TO.N,/USB_VBUS*%
X145329182Y-82830364D03*
%TO.P,J3,A5,CC1_A5*%
%TO.N,Net-(J3-CC1)*%
X144539182Y-82830364D03*
%TO.P,J3,A6,DP1_A6*%
%TO.N,/USB DP*%
X143749182Y-82830364D03*
%TO.P,J3,A7,DN1_A7*%
%TO.N,/USB DN*%
X142959182Y-82830364D03*
%TO.P,J3,A8,SBU1_A8*%
%TO.N,unconnected-(J3-SBU1-PadA8)*%
X142169182Y-82830364D03*
%TO.P,J3,A9,VBUS_A9*%
%TO.N,/USB_VBUS*%
X141379182Y-82830364D03*
%TO.P,J3,A12,GND_A12*%
%TO.N,GND*%
X140589182Y-82830364D03*
%TO.P,J3,B1,GND_B1*%
X140589182Y-81310364D03*
%TO.P,J3,B4,VBUS_B4*%
%TO.N,/USB_VBUS*%
X141379182Y-81310364D03*
%TO.P,J3,B5,CC2_B5*%
%TO.N,Net-(J3-CC2)*%
X142169182Y-81310364D03*
%TO.P,J3,B6,DP2_B6*%
%TO.N,unconnected-(J3-DP2-PadB6)*%
X142959182Y-81310364D03*
%TO.P,J3,B7,DN2_B7*%
%TO.N,unconnected-(J3-DN2-PadB7)*%
X143749182Y-81310364D03*
%TO.P,J3,B8,SBU2_B8*%
%TO.N,unconnected-(J3-SBU2-PadB8)*%
X144539182Y-81310364D03*
%TO.P,J3,B9,VBUS_B9*%
%TO.N,/USB_VBUS*%
X145329182Y-81310364D03*
%TO.P,J3,B12,GND_B12*%
%TO.N,GND*%
X146119182Y-81310364D03*
%TD*%
D13*
%TO.P,C29,1*%
%TO.N,GND*%
X150453390Y-102176445D03*
%TO.P,C29,2*%
X152353390Y-102176445D03*
%TD*%
D45*
%TO.P,C4,1*%
%TO.N,GND*%
X171145413Y-81443582D03*
%TO.P,C4,2*%
%TO.N,Net-(D1-K)*%
X169245413Y-81443582D03*
%TD*%
D46*
%TO.P,R22,1*%
%TO.N,GND*%
X144475413Y-105851374D03*
%TO.P,R22,2*%
%TO.N,Net-(U1-GPIO15)*%
X144475413Y-104201374D03*
%TD*%
%TO.P,R_SHIELD1,1*%
%TO.N,GND*%
X165996733Y-108014109D03*
%TO.P,R_SHIELD1,2*%
%TO.N,/SHIELD*%
X165996733Y-106364109D03*
%TD*%
D39*
%TO.P,U8,1,IN_1*%
%TO.N,/5V_SYS*%
X126557313Y-98991983D03*
%TO.P,U8,2,GND_2*%
%TO.N,GND*%
X125607313Y-98991983D03*
%TO.P,U8,3,EN_3*%
%TO.N,/5V_SYS*%
X124657313Y-98991983D03*
%TO.P,U8,4,NC_4*%
%TO.N,unconnected-(U8-NC-Pad4)*%
X124657313Y-101266983D03*
%TO.P,U8,5,OUT_5*%
%TO.N,Net-(U8-OUT)*%
X126557313Y-101266983D03*
%TD*%
D20*
%TO.P,C14,1*%
%TO.N,GND*%
X151119936Y-79464121D03*
%TO.P,C14,2*%
%TO.N,Net-(U4-SS)*%
X152669936Y-79464121D03*
%TD*%
D22*
%TO.P,C27,1*%
%TO.N,Net-(U1-VREG_AVDD)*%
X152317136Y-93744608D03*
%TO.P,C27,2*%
%TO.N,GND*%
X152317136Y-91844608D03*
%TD*%
D47*
%TO.P,L3,1,1_1*%
%TO.N,Net-(U1-VREG_LX)*%
X149901170Y-93476962D03*
%TO.P,L3,2,2_2*%
%TO.N,/1V1_CORE*%
X147901170Y-93476962D03*
%TD*%
D14*
%TO.P,C28,1*%
%TO.N,GND*%
X151894428Y-100089878D03*
%TO.P,C28,2*%
X150344428Y-100089878D03*
%TD*%
D42*
%TO.P,C_IN1,1*%
%TO.N,GND*%
X154958020Y-85670998D03*
%TO.P,C_IN1,2*%
%TO.N,/5V_BUCK*%
X154958020Y-84710998D03*
%TD*%
D26*
%TO.P,C35,1*%
%TO.N,GND*%
X142044475Y-106999576D03*
%TO.P,C35,2*%
%TO.N,Net-(U3-V1P8ANA)*%
X141084475Y-106999576D03*
%TD*%
D48*
%TO.P,FB1,1*%
%TO.N,Net-(U8-OUT)*%
X128336735Y-101159109D03*
%TO.P,FB1,2*%
%TO.N,/3V3_ADXL*%
X130461735Y-101159109D03*
%TD*%
D42*
%TO.P,C24,1*%
%TO.N,GND*%
X131221206Y-92639101D03*
%TO.P,C24,2*%
X131221206Y-91679101D03*
%TD*%
D34*
%TO.P,C_OUT1,1*%
%TO.N,/5V_SYS*%
X156662781Y-83149822D03*
%TO.P,C_OUT1,2*%
%TO.N,GND*%
X156662781Y-85049822D03*
%TD*%
D41*
%TO.P,R_ILM1,1*%
%TO.N,Net-(U4-ILM)*%
X153992752Y-79510466D03*
%TO.P,R_ILM1,2*%
%TO.N,GND*%
X155012752Y-79510466D03*
%TD*%
D26*
%TO.P,C21,1*%
%TO.N,GND*%
X150700520Y-96088371D03*
%TO.P,C21,2*%
X149740520Y-96088371D03*
%TD*%
D49*
%TO.P,U3,1,\u002ACS/SCL_1*%
%TO.N,/ADXL_CS*%
X138125413Y-101049101D03*
%TO.P,U3,2,SCLK/VSSIO_2*%
%TO.N,/ADXL_SCLK*%
X136855413Y-101049101D03*
%TO.P,U3,3,MOSI/SDA_3*%
%TO.N,/ADXL_MOSI*%
X135585413Y-101049101D03*
%TO.P,U3,4,MISO/ASEL_4*%
%TO.N,/ADXL_MISO*%
X134315413Y-101049101D03*
D50*
%TO.P,U3,5,VDDIO_5*%
%TO.N,/3V3_ADXL*%
X133353413Y-102646101D03*
%TO.P,U3,6,VSSIO_6*%
%TO.N,GND*%
X133353413Y-103916101D03*
%TO.P,U3,7,RESERVED_7*%
%TO.N,unconnected-(U3-RESERVED-Pad7)*%
X133353413Y-105186101D03*
D49*
%TO.P,U3,8,V1P8DIG_8*%
%TO.N,Net-(U3-V1P8DIG)*%
X134315413Y-106783101D03*
%TO.P,U3,9,VSS_9*%
%TO.N,GND*%
X135585413Y-106783101D03*
%TO.P,U3,10,V1P8ANA_10*%
%TO.N,Net-(U3-V1P8ANA)*%
X136855413Y-106783101D03*
%TO.P,U3,11,VSUPPLY_11*%
%TO.N,/3V3_ADXL*%
X138125413Y-106783101D03*
D50*
%TO.P,U3,12,INT1_12*%
%TO.N,/ADXL_INT1*%
X139087413Y-105186101D03*
%TO.P,U3,13,INT2_13*%
%TO.N,/ADXL_INT2*%
X139087413Y-103916101D03*
%TO.P,U3,14,DRDY_14*%
%TO.N,/ADXL_DRDY*%
X139087413Y-102646101D03*
%TD*%
D51*
%TO.P,F1,1*%
%TO.N,/12V*%
X163134093Y-92269109D03*
%TO.P,F1,2*%
%TO.N,Net-(D1-A)*%
X167409093Y-92269109D03*
%TD*%
D22*
%TO.P,C_SHIELD1,1*%
%TO.N,GND*%
X163456733Y-108139109D03*
%TO.P,C_SHIELD1,2*%
%TO.N,/SHIELD*%
X163456733Y-106239109D03*
%TD*%
D37*
%TO.P,J_IN1,1,12V_1*%
%TO.N,/12V*%
X167335413Y-97349109D03*
%TO.P,J_IN1,2,GND_2*%
%TO.N,GND*%
X167335413Y-98599109D03*
%TO.P,J_IN1,3,B_3*%
%TO.N,/RS485_B*%
X167335413Y-99849609D03*
%TO.P,J_IN1,4,A_4*%
%TO.N,/RS485_A*%
X167335413Y-101099109D03*
%TO.P,J_IN1,5,SHIELD_5*%
%TO.N,/SHIELD*%
X167335413Y-102349109D03*
D38*
%TO.P,J_IN1,6*%
%TO.N,N/C*%
X170685413Y-104199109D03*
%TO.P,J_IN1,7*%
X170685413Y-95499109D03*
%TD*%
D22*
%TO.P,C31,1*%
%TO.N,/5V_SYS*%
X124899707Y-105378359D03*
%TO.P,C31,2*%
%TO.N,GND*%
X124899707Y-103478359D03*
%TD*%
D41*
%TO.P,R23,1*%
%TO.N,GND*%
X130174286Y-108299200D03*
%TO.P,R23,2*%
%TO.N,Net-(U3-V1P8DIG)*%
X131194286Y-108299200D03*
%TD*%
D52*
%TO.P,C36,1*%
%TO.N,/3V3_ADXL*%
X128471851Y-103428603D03*
%TO.P,C36,2*%
%TO.N,GND*%
X128471851Y-104978603D03*
%TD*%
D53*
%TO.P,D1,1,K_1*%
%TO.N,Net-(D1-K)*%
X167924154Y-84511362D03*
%TO.P,D1,2,A_2*%
%TO.N,Net-(D1-A)*%
X171924154Y-84511362D03*
%TD*%
D23*
%TO.P,R10,1*%
%TO.N,/USB_DM*%
X146160017Y-92533914D03*
%TO.P,R10,2*%
%TO.N,Net-(R10-Pad2)*%
X146160017Y-91513914D03*
%TD*%
D34*
%TO.P,C_USB_BULK1,1*%
%TO.N,/USB_VBUS*%
X151242651Y-83187901D03*
%TO.P,C_USB_BULK1,2*%
%TO.N,GND*%
X151242651Y-85087901D03*
%TD*%
%TO.P,C33,1*%
%TO.N,/3V3_ADXL*%
X130665965Y-103431526D03*
%TO.P,C33,2*%
%TO.N,GND*%
X130665965Y-105331526D03*
%TD*%
D28*
%TO.P,C_IN2,1*%
%TO.N,GND*%
X150816929Y-81749823D03*
%TO.P,C_IN2,2*%
%TO.N,/USB_VBUS*%
X151776929Y-81749823D03*
%TD*%
D34*
%TO.P,C7,1*%
%TO.N,/5V_BUCK*%
X161290000Y-91319109D03*
%TO.P,C7,2*%
%TO.N,GND*%
X161290000Y-93219109D03*
%TD*%
%TO.P,C6,1*%
%TO.N,Net-(D1-K)*%
X167409423Y-87266581D03*
%TO.P,C6,2*%
%TO.N,GND*%
X167409423Y-89166581D03*
%TD*%
D20*
%TO.P,C23,1*%
%TO.N,GND*%
X150023070Y-97556432D03*
%TO.P,C23,2*%
X151573070Y-97556432D03*
%TD*%
D41*
%TO.P,R_PR1_BOT1,1*%
%TO.N,Net-(U4-PR1)*%
X152817016Y-85826371D03*
%TO.P,R_PR1_BOT1,2*%
%TO.N,GND*%
X153837016Y-85826371D03*
%TD*%
D17*
%TO.P,R6,1*%
%TO.N,/5V_BUCK*%
X160536358Y-83021108D03*
%TO.P,R6,2*%
%TO.N,Net-(U_BUCK1-PG)*%
X160536358Y-84041108D03*
%TD*%
D23*
%TO.P,R9,1*%
%TO.N,/USB_DP*%
X145120053Y-92533914D03*
%TO.P,R9,2*%
%TO.N,Net-(R9-Pad2)*%
X145120053Y-91513914D03*
%TD*%
%TO.P,R27,1*%
%TO.N,/3V3_ADXL*%
X142222108Y-105685196D03*
%TO.P,R27,2*%
%TO.N,/ADXL_CS*%
X142222108Y-104665196D03*
%TD*%
D54*
%TO.P,U7,1,#CS_1*%
%TO.N,/CS*%
X138937906Y-89862824D03*
%TO.P,U7,2,DO/IO1_2*%
%TO.N,/DO*%
X138937906Y-88592824D03*
%TO.P,U7,3,#WP/IO2_3*%
%TO.N,/WP*%
X138937906Y-87322824D03*
%TO.P,U7,4,GND_4*%
%TO.N,GND*%
X138937906Y-86052824D03*
%TO.P,U7,5,DI/IO0_5*%
%TO.N,Net-(U1-QSPI_SD0)*%
X132912906Y-86052824D03*
%TO.P,U7,6,CLK_6*%
%TO.N,Net-(U1-QSPI_SCLK)*%
X132912906Y-87322824D03*
%TO.P,U7,7,#HOLD-OR-#REST/IO3_7*%
%TO.N,Net-(U1-QSPI_SD3)*%
X132912906Y-88592824D03*
%TO.P,U7,8,VCC_8*%
%TO.N,GND*%
X132912906Y-89862824D03*
D55*
%TO.P,U7,9,EP_9*%
X135925406Y-87957824D03*
%TD*%
D42*
%TO.P,C34,1*%
%TO.N,GND*%
X126797818Y-104113603D03*
%TO.P,C34,2*%
%TO.N,/3V3_ADXL*%
X126797818Y-103153603D03*
%TD*%
D13*
%TO.P,C32,1*%
%TO.N,Net-(U8-OUT)*%
X128399235Y-99024352D03*
%TO.P,C32,2*%
%TO.N,GND*%
X130299235Y-99024352D03*
%TD*%
D56*
%TO.P,C11,1*%
%TO.N,Net-(J3-SHELL)*%
X137388025Y-82662076D03*
%TO.P,C11,2*%
%TO.N,GND*%
X134438025Y-82662076D03*
%TD*%
D23*
%TO.P,R17,1*%
%TO.N,GND*%
X152439482Y-96265943D03*
%TO.P,R17,2*%
%TO.N,Net-(U1-VREG_AVDD)*%
X152439482Y-95245943D03*
%TD*%
D57*
%TO.P,U1,1,IOVDD_1*%
%TO.N,GND*%
X141260413Y-96069101D03*
%TO.P,U1,2,GPIO0_2*%
%TO.N,unconnected-(U1-GPIO0-Pad2)*%
X141260413Y-96469101D03*
%TO.P,U1,3,GPIO1_3*%
%TO.N,unconnected-(U1-GPIO1-Pad3)*%
X141260413Y-96869101D03*
%TO.P,U1,4,GPIO2_4*%
%TO.N,unconnected-(U1-GPIO2-Pad4)*%
X141260413Y-97269101D03*
%TO.P,U1,5,GPIO3_5*%
%TO.N,unconnected-(U1-GPIO3-Pad5)*%
X141260413Y-97669101D03*
%TO.P,U1,6,DVDD_6*%
%TO.N,/1V1_CORE*%
X141260413Y-98069101D03*
%TO.P,U1,7,GPIO4_7*%
%TO.N,unconnected-(U1-GPIO4-Pad7)*%
X141260413Y-98469101D03*
%TO.P,U1,8,GPIO5_8*%
%TO.N,Net-(U1-GPIO5)*%
X141260413Y-98869101D03*
%TO.P,U1,9,GPIO6_9*%
%TO.N,unconnected-(U1-GPIO6-Pad9)*%
X141260413Y-99269101D03*
%TO.P,U1,10,GPIO7_10*%
%TO.N,unconnected-(U1-GPIO7-Pad10)*%
X141260413Y-99669101D03*
%TO.P,U1,11,IOVDD_11*%
%TO.N,GND*%
X141260413Y-100069101D03*
%TO.P,U1,12,GPIO8_12*%
%TO.N,/ADXL_MISO*%
X141260413Y-100469101D03*
%TO.P,U1,13,GPIO9_13*%
%TO.N,/ADXL_CS*%
X141260413Y-100869101D03*
%TO.P,U1,14,GPIO10_14*%
%TO.N,/ADXL_SCLK*%
X141260413Y-101269101D03*
%TO.P,U1,15,GPIO11_15*%
%TO.N,/ADXL_MOSI*%
X141260413Y-101669101D03*
D58*
%TO.P,U1,16,GPIO12_16*%
%TO.N,/ADXL_DRDY*%
X141910413Y-102319101D03*
%TO.P,U1,17,GPIO13_17*%
%TO.N,/ADXL_INT2*%
X142310413Y-102319101D03*
%TO.P,U1,18,GPIO14_18*%
%TO.N,/ADXL_INT1*%
X142710413Y-102319101D03*
%TO.P,U1,19,GPIO15_19*%
%TO.N,Net-(U1-GPIO15)*%
X143110413Y-102319101D03*
%TO.P,U1,20,IOVDD_20*%
%TO.N,GND*%
X143510413Y-102319101D03*
%TO.P,U1,21,XIN_21*%
%TO.N,unconnected-(U1-XIN-Pad21)*%
X143910413Y-102319101D03*
%TO.P,U1,22,XOUT_22*%
%TO.N,unconnected-(U1-XOUT-Pad22)*%
X144310413Y-102319101D03*
%TO.P,U1,23,DVDD_23*%
%TO.N,/1V1_CORE*%
X144710413Y-102319101D03*
%TO.P,U1,24,SWCLK_24*%
%TO.N,unconnected-(U1-SWCLK-Pad24)*%
X145110413Y-102319101D03*
%TO.P,U1,25,SWDIO_25*%
%TO.N,unconnected-(U1-SWDIO-Pad25)*%
X145510413Y-102319101D03*
%TO.P,U1,26,RUN_26*%
%TO.N,unconnected-(U1-RUN-Pad26)*%
X145910413Y-102319101D03*
%TO.P,U1,27,GPIO16_27*%
%TO.N,Net-(U1-GPIO16)*%
X146310413Y-102319101D03*
%TO.P,U1,28,GPIO17_28*%
%TO.N,Net-(U1-GPIO17)*%
X146710413Y-102319101D03*
%TO.P,U1,29,GPIO18_29*%
%TO.N,unconnected-(U1-GPIO18-Pad29)*%
X147110413Y-102319101D03*
%TO.P,U1,30,IOVDD_30*%
%TO.N,GND*%
X147510413Y-102319101D03*
D57*
%TO.P,U1,31,GPIO19_31*%
%TO.N,unconnected-(U1-GPIO19-Pad31)*%
X148160413Y-101669101D03*
%TO.P,U1,32,GPIO20_32*%
%TO.N,unconnected-(U1-GPIO20-Pad32)*%
X148160413Y-101269101D03*
%TO.P,U1,33,GPIO21_33*%
%TO.N,unconnected-(U1-GPIO21-Pad33)*%
X148160413Y-100869101D03*
%TO.P,U1,34,GPIO22_34*%
%TO.N,unconnected-(U1-GPIO22-Pad34)*%
X148160413Y-100469101D03*
%TO.P,U1,35,GPIO23_35*%
%TO.N,unconnected-(U1-GPIO23-Pad35)*%
X148160413Y-100069101D03*
%TO.P,U1,36,GPIO24_36*%
%TO.N,unconnected-(U1-GPIO24-Pad36)*%
X148160413Y-99669101D03*
%TO.P,U1,37,GPIO25_37*%
%TO.N,unconnected-(U1-GPIO25-Pad37)*%
X148160413Y-99269101D03*
%TO.P,U1,38,IOVDD_38*%
%TO.N,GND*%
X148160413Y-98869101D03*
%TO.P,U1,39,DVDD_39*%
%TO.N,/1V1_CORE*%
X148160413Y-98469101D03*
%TO.P,U1,40,GPIO26/ADC0_40*%
%TO.N,unconnected-(U1-GPIO26{slash}ADC0-Pad40)*%
X148160413Y-98069101D03*
%TO.P,U1,41,GPIO27/ADC1_41*%
%TO.N,unconnected-(U1-GPIO27{slash}ADC1-Pad41)*%
X148160413Y-97669101D03*
%TO.P,U1,42,GPIO28/ADC2_42*%
%TO.N,unconnected-(U1-GPIO28{slash}ADC2-Pad42)*%
X148160413Y-97269101D03*
%TO.P,U1,43,GPIO29/ADC3_43*%
%TO.N,unconnected-(U1-GPIO29{slash}ADC3-Pad43)*%
X148160413Y-96869101D03*
%TO.P,U1,44,ADC_AVDD_44*%
%TO.N,GND*%
X148160413Y-96469101D03*
%TO.P,U1,45,IOVDD_45*%
X148160413Y-96069101D03*
D58*
%TO.P,U1,46,VREG_AVDD_46*%
%TO.N,Net-(U1-VREG_AVDD)*%
X147510413Y-95419101D03*
%TO.P,U1,47,VREG_PGND_47*%
%TO.N,GND*%
X147110413Y-95419101D03*
%TO.P,U1,48,VREG_LX_48*%
%TO.N,Net-(U1-VREG_LX)*%
X146710413Y-95419101D03*
%TO.P,U1,49,VREG_VIN_49*%
%TO.N,GND*%
X146310413Y-95419101D03*
%TO.P,U1,50,VREG_FB_50*%
%TO.N,/1V1_CORE*%
X145910413Y-95419101D03*
%TO.P,U1,51,USB_DM_51*%
%TO.N,/USB_DM*%
X145510413Y-95419101D03*
%TO.P,U1,52,USB_DP_52*%
%TO.N,/USB_DP*%
X145110413Y-95419101D03*
%TO.P,U1,53,USB_OTP_VDD_53*%
%TO.N,GND*%
X144710413Y-95419101D03*
%TO.P,U1,54,QSPI_IOVDD_54*%
X144310413Y-95419101D03*
%TO.P,U1,55,QSPI_SD3_55*%
%TO.N,Net-(U1-QSPI_SD3)*%
X143910413Y-95419101D03*
%TO.P,U1,56,QSPI_SCLK_56*%
%TO.N,Net-(U1-QSPI_SCLK)*%
X143510413Y-95419101D03*
%TO.P,U1,57,QSPI_SD0_57*%
%TO.N,Net-(U1-QSPI_SD0)*%
X143110413Y-95419101D03*
%TO.P,U1,58,QSPI_SD2_58*%
%TO.N,/WP*%
X142710413Y-95419101D03*
%TO.P,U1,59,QSPI_SD1_59*%
%TO.N,/DO*%
X142310413Y-95419101D03*
%TO.P,U1,60,~{QSPI_SS}_60*%
%TO.N,/CS*%
X141910413Y-95419101D03*
D59*
%TO.P,U1,61,GND_61*%
%TO.N,GND*%
X144710413Y-98869101D03*
%TD*%
D60*
%TO.N,Net-(J3-SHELL)*%
X147320000Y-83820000D03*
X147122803Y-79846286D03*
%TO.N,GND*%
X154305000Y-98425000D03*
X162181751Y-82657021D03*
X163131751Y-82657021D03*
X164081751Y-82657021D03*
X159385000Y-79375000D03*
X158750000Y-97790000D03*
X170180000Y-98425000D03*
X156845000Y-100830900D03*
X143673153Y-90474074D03*
X133985000Y-91440000D03*
X135925406Y-87957824D03*
X135925406Y-87957824D03*
X147260459Y-96530864D03*
X140274448Y-87055552D03*
X133985000Y-80645000D03*
X139593397Y-80970364D03*
%TO.N,/USB_VBUS*%
X151537933Y-80872068D03*
X147104957Y-87641482D03*
X144145000Y-80010000D03*
%TO.N,GND*%
X147320000Y-80645000D03*
D61*
X158406563Y-85174068D03*
X154161781Y-91544165D03*
X149860000Y-107315000D03*
X143510000Y-107315000D03*
X132080000Y-92710000D03*
X139065000Y-97790000D03*
X132080000Y-97790000D03*
X126634400Y-105410000D03*
%TO.N,/5V_SYS*%
X125730000Y-97155000D03*
D60*
%TO.N,GND*%
X144710413Y-98869101D03*
X159988929Y-82328078D03*
X135925406Y-87957824D03*
X165250685Y-82968334D03*
X172415413Y-82109109D03*
X170441733Y-107509109D03*
%TO.N,/ADXL_CS*%
X142327757Y-101379149D03*
X139152757Y-101379149D03*
X142962757Y-103919149D03*
D61*
%TO.N,/5V_SYS*%
X153757757Y-86774149D03*
X156297757Y-81694149D03*
D60*
%TO.N,/5V_BUCK*%
X158445413Y-83379109D03*
X162255413Y-86554109D03*
%TO.N,/USB_VBUS*%
X142240000Y-80010000D03*
D61*
%TO.N,GND*%
X149947757Y-98839149D03*
X153757757Y-90584149D03*
X157567757Y-79789149D03*
D60*
X142055791Y-100095913D03*
X143517429Y-101538350D03*
X144780000Y-96269101D03*
X146432377Y-96669583D03*
X140335000Y-95250000D03*
%TD*%
%TO.N,Net-(J3-SHELL)*%
D62*
X146919636Y-84220364D02*
X147320000Y-83820000D01*
X145754182Y-84220364D02*
X146919636Y-84220364D01*
X145754182Y-79920364D02*
X147048725Y-79920364D01*
X147048725Y-79920364D02*
X147122803Y-79846286D01*
%TO.N,GND*%
X149099023Y-83167690D02*
X149099023Y-81993976D01*
X153436432Y-97556432D02*
X154305000Y-98425000D01*
X151573070Y-97556432D02*
X153436432Y-97556432D01*
X149740520Y-96088371D02*
X150350520Y-95478371D01*
X150350520Y-95478371D02*
X151651910Y-95478371D01*
X151651910Y-95478371D02*
X152439482Y-96265943D01*
%TO.N,/CS*%
X138937906Y-90677906D02*
X138937906Y-89862824D01*
%TO.N,Net-(U1-QSPI_SD0)*%
X140900000Y-86832575D02*
X140900000Y-92640000D01*
%TO.N,GND*%
D63*
X159240090Y-79519910D02*
X159385000Y-79375000D01*
X158217757Y-79519910D02*
X159240090Y-79519910D01*
X147320000Y-80645000D02*
X146784546Y-80645000D01*
X146784546Y-80645000D02*
X146119182Y-81310364D01*
X149099023Y-81993976D02*
X148668976Y-81993976D01*
X148668976Y-81993976D02*
X147320000Y-80645000D01*
D64*
X159559109Y-98599109D02*
X158750000Y-97790000D01*
X160985413Y-98599109D02*
X159559109Y-98599109D01*
X170005891Y-98599109D02*
X170180000Y-98425000D01*
X167335413Y-98599109D02*
X170005891Y-98599109D01*
D62*
X158447303Y-100830900D02*
X156845000Y-100830900D01*
X144069026Y-91523914D02*
X143590000Y-91523914D01*
X143673153Y-90474074D02*
X143673153Y-91440761D01*
X143673153Y-91440761D02*
X143590000Y-91523914D01*
X144467000Y-88649923D02*
X144467000Y-89680227D01*
X144083000Y-88265923D02*
X144467000Y-88649923D01*
X144467000Y-89680227D02*
X143673153Y-90474074D01*
X143631000Y-88265923D02*
X144083000Y-88265923D01*
%TO.N,/1V1_CORE*%
X147901170Y-93476962D02*
X147901170Y-92471551D01*
X147901170Y-92471551D02*
X148844232Y-91528489D01*
%TO.N,GND*%
X133670858Y-91125858D02*
X133985000Y-91440000D01*
X132912906Y-91125858D02*
X133670858Y-91125858D01*
X155056326Y-89045875D02*
X153309517Y-89045875D01*
X153309517Y-89045875D02*
X152633447Y-89721945D01*
X157075057Y-88737798D02*
X155364403Y-88737798D01*
X155364403Y-88737798D02*
X155056326Y-89045875D01*
X157200000Y-86825032D02*
X157200000Y-88612855D01*
X157200000Y-88612855D02*
X157075057Y-88737798D01*
X158750000Y-86825032D02*
X158750000Y-85517505D01*
X158750000Y-85517505D02*
X158406563Y-85174068D01*
X158750000Y-86825032D02*
X158750000Y-88512741D01*
X158750000Y-88512741D02*
X158975057Y-88737798D01*
%TO.N,Net-(U_BUCK1-SW)*%
X161044000Y-87189109D02*
X161044000Y-86765530D01*
X163631751Y-84177779D02*
X163631751Y-83657021D01*
X161044000Y-86765530D02*
X163631751Y-84177779D01*
%TO.N,/5V_BUCK*%
D65*
X165100000Y-87189109D02*
X162890413Y-87189109D01*
X165100000Y-87189109D02*
X165100000Y-84550270D01*
X165100000Y-84550270D02*
X164206751Y-83657021D01*
%TO.N,Net-(D1-K)*%
X163855233Y-80832021D02*
X163438627Y-81248627D01*
D62*
X163438627Y-81463897D02*
X163438627Y-81248627D01*
X163631751Y-81657021D02*
X163438627Y-81463897D01*
X163131751Y-81657021D02*
X163631751Y-81657021D01*
D65*
X166065413Y-81397910D02*
X165499524Y-80832021D01*
X165499524Y-80832021D02*
X163855233Y-80832021D01*
X163438627Y-81248627D02*
X163206751Y-81480503D01*
X167924154Y-84511362D02*
X167924154Y-83256651D01*
X167924154Y-83256651D02*
X166065413Y-81397910D01*
X169245413Y-81443582D02*
X169245413Y-83190103D01*
X169245413Y-83190103D02*
X167924154Y-84511362D01*
X167409423Y-87266581D02*
X167409423Y-85026093D01*
X167409423Y-85026093D02*
X167924154Y-84511362D01*
%TO.N,GND*%
D64*
X168685413Y-98149109D02*
X168685413Y-95950000D01*
D65*
X167409423Y-89166581D02*
X166396593Y-90179411D01*
X166396593Y-90179411D02*
X166396593Y-94015987D01*
X166396593Y-94015987D02*
X168330606Y-95950000D01*
X168330606Y-95950000D02*
X168685413Y-95950000D01*
%TO.N,Net-(D1-A)*%
D64*
X171030492Y-88487816D02*
X171030492Y-85405024D01*
X171030492Y-85405024D02*
X171924154Y-84511362D01*
%TO.N,/CS*%
D62*
X138937906Y-90677906D02*
X139235000Y-90975000D01*
X134492582Y-90975000D02*
X139235000Y-90975000D01*
X130165274Y-90029101D02*
X130922051Y-89272324D01*
X130922051Y-89272324D02*
X133662730Y-89272324D01*
X133662730Y-89272324D02*
X133925406Y-89535000D01*
X133925406Y-89535000D02*
X133925406Y-90407824D01*
X133925406Y-90407824D02*
X134492582Y-90975000D01*
%TO.N,/1V1_CORE*%
X142710413Y-96869101D02*
X145415000Y-96869101D01*
X142710413Y-98107913D02*
X142710413Y-96869101D01*
X145415000Y-96869101D02*
X145910413Y-96373688D01*
X145910413Y-96373688D02*
X145910413Y-95419101D01*
X141260413Y-98069101D02*
X142671601Y-98069101D01*
X142671601Y-98069101D02*
X142710413Y-98107913D01*
X142710413Y-98107913D02*
X142710413Y-100869101D01*
X142710413Y-100869101D02*
X143756773Y-100869101D01*
X148160413Y-98469101D02*
X146710413Y-98469101D01*
X146710413Y-98469101D02*
X146710413Y-100869101D01*
X146710413Y-100869101D02*
X143756773Y-100869101D01*
X143756773Y-100869101D02*
X144710413Y-101822741D01*
X144710413Y-101822741D02*
X144710413Y-102319101D01*
%TO.N,GND*%
X147110413Y-96380818D02*
X147260459Y-96530864D01*
X147110413Y-95419101D02*
X147110413Y-96380818D01*
%TO.N,/1V1_CORE*%
X147901170Y-93476962D02*
X147201170Y-93476962D01*
X147201170Y-93476962D02*
X145910413Y-94767719D01*
X145910413Y-94767719D02*
X145910413Y-95419101D01*
%TO.N,Net-(U1-VREG_LX)*%
X149901170Y-93476962D02*
X148763132Y-94615000D01*
X148763132Y-94615000D02*
X147018154Y-94615000D01*
X147018154Y-94615000D02*
X146710413Y-94922741D01*
X146710413Y-94922741D02*
X146710413Y-95419101D01*
%TO.N,Net-(U1-VREG_AVDD)*%
X152317136Y-93744608D02*
X152317136Y-94040242D01*
X152317136Y-94040242D02*
X152385887Y-94108993D01*
%TO.N,GND*%
X153640959Y-91893202D02*
X152851542Y-91893202D01*
%TO.N,Net-(U1-VREG_AVDD)*%
X152385887Y-94108993D02*
X152385887Y-95192348D01*
X152385887Y-95192348D02*
X152439482Y-95245943D01*
%TO.N,GND*%
X152268542Y-91893202D02*
X151054017Y-91893202D01*
X154161781Y-91544165D02*
X153989996Y-91544165D01*
X153989996Y-91544165D02*
X153640959Y-91893202D01*
X151054017Y-91893202D02*
X150689304Y-91528489D01*
X152851542Y-91893202D02*
X152802948Y-91844608D01*
X152802948Y-91844608D02*
X152317136Y-91844608D01*
X152317136Y-91844608D02*
X152268542Y-91893202D01*
X150689304Y-91528489D02*
X150394232Y-91528489D01*
X143590000Y-91523914D02*
X143020519Y-91523914D01*
%TO.N,Net-(R10-Pad2)*%
X146160017Y-91513914D02*
X146160017Y-89446940D01*
X146160017Y-89446940D02*
X145929000Y-89215923D01*
%TO.N,Net-(R9-Pad2)*%
X145929000Y-87315923D02*
X145477000Y-87315923D01*
X145477000Y-87315923D02*
X145093000Y-87699923D01*
X145093000Y-87699923D02*
X145093000Y-91486861D01*
X145093000Y-91486861D02*
X145120053Y-91513914D01*
%TO.N,GND*%
X143020519Y-92483914D02*
X144310413Y-93773808D01*
X144310413Y-93773808D02*
X144310413Y-95419101D01*
X144069026Y-92483914D02*
X144710413Y-93125301D01*
X144710413Y-93125301D02*
X144710413Y-95419101D01*
%TO.N,/USB_DM*%
X146160017Y-92695396D02*
X145510413Y-93345000D01*
X146160017Y-92533914D02*
X146160017Y-92695396D01*
X145510413Y-93345000D02*
X145510413Y-95419101D01*
%TO.N,/USB_DP*%
X145120053Y-92533914D02*
X145110413Y-92543554D01*
X145110413Y-92543554D02*
X145110413Y-95419101D01*
%TO.N,Net-(U1-VREG_AVDD)*%
X152439482Y-95245943D02*
X152435425Y-95250000D01*
X147810413Y-95119101D02*
X147510413Y-95419101D01*
X151989225Y-95250000D02*
X151817595Y-95078371D01*
X150184834Y-95078371D02*
X150013206Y-95250000D01*
X152435425Y-95250000D02*
X151989225Y-95250000D01*
X151817595Y-95078371D02*
X150184834Y-95078371D01*
X150013206Y-95250000D02*
X149617487Y-95250000D01*
X149617487Y-95250000D02*
X149486588Y-95119101D01*
X149486588Y-95119101D02*
X147810413Y-95119101D01*
%TO.N,GND*%
X148160413Y-96069101D02*
X148160413Y-96469101D01*
%TO.N,Net-(U1-GPIO15)*%
X147371136Y-105474870D02*
X147371136Y-106104149D01*
X147127757Y-106104149D02*
X145224982Y-104201374D01*
X147371136Y-106104149D02*
X147371136Y-106744870D01*
X147371136Y-106104149D02*
X147127757Y-106104149D01*
X145224982Y-104201374D02*
X144475413Y-104201374D01*
X144475413Y-104201374D02*
X143110413Y-102836374D01*
X143110413Y-102836374D02*
X143110413Y-102319101D01*
%TO.N,GND*%
X148160413Y-98869101D02*
X148656773Y-98869101D01*
X148656773Y-98869101D02*
X148860413Y-99072741D01*
X148860413Y-99072741D02*
X148860413Y-101865461D01*
X148860413Y-101865461D02*
X148406773Y-102319101D01*
X148406773Y-102319101D02*
X147510413Y-102319101D01*
X132912906Y-89862824D02*
X132912906Y-91125858D01*
X139271720Y-86052824D02*
X140274448Y-87055552D01*
X138937906Y-86052824D02*
X139271720Y-86052824D01*
D64*
X134438025Y-81098025D02*
X133985000Y-80645000D01*
X134438025Y-82662076D02*
X134438025Y-81098025D01*
D62*
X140249182Y-80970364D02*
X139593397Y-80970364D01*
X140589182Y-81310364D02*
X140249182Y-80970364D01*
%TO.N,/USB_VBUS*%
D65*
X145929000Y-88265923D02*
X146480516Y-88265923D01*
X146480516Y-88265923D02*
X147104957Y-87641482D01*
X151776929Y-82653623D02*
X151776929Y-82330000D01*
X153254272Y-82380768D02*
X151827697Y-82380768D01*
X151827697Y-82380768D02*
X151776929Y-82330000D01*
X151242651Y-83187901D02*
X151776929Y-82653623D01*
X151776929Y-82330000D02*
X151776929Y-81749823D01*
X151537933Y-80872068D02*
X151776929Y-81111064D01*
X151776929Y-81111064D02*
X151776929Y-81749823D01*
%TO.N,Net-(J3-SHELL)*%
X137388025Y-82662076D02*
X138506313Y-83780364D01*
X140514182Y-83780364D02*
X140954182Y-84220364D01*
X138506313Y-83780364D02*
X140514182Y-83780364D01*
%TO.N,Net-(U1-QSPI_SD0)*%
D62*
X132912906Y-86052824D02*
X133710730Y-85255000D01*
X133710730Y-85255000D02*
X139322425Y-85255000D01*
X139322425Y-85255000D02*
X140900000Y-86832575D01*
%TO.N,Net-(J3-SHELL)*%
D65*
X137388025Y-82662076D02*
X137388025Y-81686975D01*
X137388025Y-81686975D02*
X139154636Y-79920364D01*
X139154636Y-79920364D02*
X140954182Y-79920364D01*
%TO.N,/USB_VBUS*%
D62*
X144378818Y-80010000D02*
X144145000Y-80010000D01*
X145329182Y-80960364D02*
X144378818Y-80010000D01*
X145329182Y-81310364D02*
X145329182Y-80960364D01*
%TO.N,Net-(J3-CC2)*%
X142169182Y-81310364D02*
X142169182Y-80960364D01*
X142169182Y-80960364D02*
X144109182Y-79020364D01*
X144109182Y-79020364D02*
X147145411Y-79020364D01*
X147145411Y-79020364D02*
X149099023Y-80973976D01*
%TO.N,GND*%
X146119182Y-81310364D02*
X146119182Y-82830364D01*
X140589182Y-81310364D02*
X140904696Y-81625878D01*
X140904696Y-81625878D02*
X140904696Y-82514850D01*
X140904696Y-82514850D02*
X140589182Y-82830364D01*
%TO.N,/USB_VBUS*%
X141379182Y-82830364D02*
X141379182Y-81310364D01*
X145329182Y-82830364D02*
X145329182Y-81310364D01*
%TO.N,Net-(J3-CC1)*%
X144539182Y-82830364D02*
X144539182Y-84278157D01*
X144539182Y-84278157D02*
X145381389Y-85120364D01*
X145381389Y-85120364D02*
X148166349Y-85120364D01*
X148166349Y-85120364D02*
X149099023Y-84187690D01*
%TO.N,/USB DN*%
X143631000Y-89215923D02*
X142895000Y-89215923D01*
X142895000Y-89215923D02*
X142795000Y-89115923D01*
X142795000Y-89115923D02*
X142795000Y-82994546D01*
X142795000Y-82994546D02*
X142959182Y-82830364D01*
%TO.N,/USB DP*%
X143631000Y-87315923D02*
X143631000Y-82948546D01*
X143631000Y-82948546D02*
X143749182Y-82830364D01*
%TO.N,/CS*%
X139700000Y-91440000D02*
X139700000Y-93205273D01*
X139235000Y-90975000D02*
X139700000Y-91440000D01*
X139700000Y-93205273D02*
X141613828Y-95119101D01*
X141613828Y-95119101D02*
X141741312Y-95119101D01*
X141741312Y-95119101D02*
X141741312Y-95250000D01*
X141741312Y-95250000D02*
X141910413Y-95419101D01*
%TO.N,GND*%
D64*
X161290000Y-93219109D02*
X161290000Y-94494581D01*
X161290000Y-94494581D02*
X159635413Y-96149168D01*
X160085413Y-98599109D02*
X160985413Y-98599109D01*
X159635413Y-96149168D02*
X159635413Y-98149109D01*
X159635413Y-98149109D02*
X160085413Y-98599109D01*
%TO.N,/5V_BUCK*%
D63*
X161290000Y-91319109D02*
X161290000Y-90709163D01*
X161290000Y-90709163D02*
X162587913Y-89411250D01*
X162587913Y-89411250D02*
X162587913Y-86886609D01*
%TO.N,Net-(U1-QSPI_SD3)*%
D62*
X141700000Y-92308628D02*
X142488186Y-93096814D01*
X141700000Y-86455001D02*
X141700000Y-92308628D01*
X139700000Y-84455000D02*
X141700000Y-86455001D01*
X133490184Y-84455000D02*
X139700000Y-84455000D01*
X142488186Y-93096814D02*
X142747229Y-93096814D01*
X142747229Y-93096814D02*
X143910413Y-94259998D01*
X143910413Y-94259998D02*
X143910413Y-95419101D01*
%TO.N,Net-(U1-QSPI_SCLK)*%
X143510413Y-95419101D02*
X143510413Y-94425683D01*
X143510413Y-94425683D02*
X142581678Y-93496950D01*
X142581678Y-93496950D02*
X142322636Y-93496950D01*
X141300000Y-86620686D02*
X139534314Y-84855000D01*
X142322636Y-93496950D02*
X141300000Y-92474314D01*
X141300000Y-92474314D02*
X141300000Y-86620686D01*
X139534314Y-84855000D02*
X132690184Y-84855000D01*
X131975156Y-85570028D02*
X131975156Y-86385074D01*
X132690184Y-84855000D02*
X131975156Y-85570028D01*
X131975156Y-86385074D02*
X132912906Y-87322824D01*
%TO.N,Net-(U1-QSPI_SD0)*%
X142156950Y-93896950D02*
X140900000Y-92640000D01*
X142415993Y-93896950D02*
X142156950Y-93896950D01*
X143110413Y-94591369D02*
X142415993Y-93896950D01*
X143110413Y-95419101D02*
X143110413Y-94591369D01*
%TO.N,/WP*%
X142710413Y-95419101D02*
X142710413Y-94757055D01*
X142710413Y-94757055D02*
X142250308Y-94296950D01*
X142250308Y-94296950D02*
X141923049Y-94296950D01*
X141923049Y-94296950D02*
X140500000Y-92873901D01*
X140500000Y-92873901D02*
X140500000Y-88884918D01*
X140500000Y-88884918D02*
X138937906Y-87322824D01*
%TO.N,/DO*%
X142310413Y-95419101D02*
X142310413Y-94922741D01*
X142310413Y-94922741D02*
X142106773Y-94719101D01*
X140100000Y-89754918D02*
X138937906Y-88592824D01*
X142106773Y-94719101D02*
X141779514Y-94719101D01*
X141779514Y-94719101D02*
X140100000Y-93039587D01*
X140100000Y-93039587D02*
X140100000Y-89754918D01*
%TO.N,Net-(U1-QSPI_SD3)*%
X132912906Y-88592824D02*
X131575156Y-87255074D01*
X131575156Y-85404342D02*
X132524498Y-84455000D01*
X131575156Y-87255074D02*
X131575156Y-85404342D01*
X132524498Y-84455000D02*
X133550000Y-84455000D01*
%TO.N,GND*%
X130165274Y-85829101D02*
X130165274Y-83829726D01*
X130165274Y-83829726D02*
X131332924Y-82662076D01*
X131332924Y-82662076D02*
X134438025Y-82662076D01*
X131221206Y-91679101D02*
X132359663Y-91679101D01*
X132359663Y-91679101D02*
X132912906Y-91125858D01*
X148160413Y-98869101D02*
X148710401Y-98869101D01*
X148710401Y-98869101D02*
X150023070Y-97556432D01*
X148160413Y-96469101D02*
X149359790Y-96469101D01*
X149359790Y-96469101D02*
X149740520Y-96088371D01*
X130204286Y-107029200D02*
X130204286Y-105793205D01*
X130204286Y-105793205D02*
X130665965Y-105331526D01*
X130174286Y-108299200D02*
X130174286Y-107059200D01*
X130174286Y-107059200D02*
X130204286Y-107029200D01*
X131082227Y-94592326D02*
X131082227Y-93707773D01*
X131082227Y-93707773D02*
X132080000Y-92710000D01*
%TO.N,Net-(D3-A)*%
X129473515Y-96272409D02*
X129473515Y-94626038D01*
X129473515Y-94626038D02*
X129507227Y-94592326D01*
%TO.N,Net-(U1-GPIO5)*%
X131123515Y-96272409D02*
X131377135Y-96526029D01*
X131377135Y-96526029D02*
X132721029Y-96526029D01*
X132721029Y-96526029D02*
X134620000Y-98425000D01*
X134620000Y-98425000D02*
X138430000Y-98425000D01*
X138430000Y-98425000D02*
X138874101Y-98869101D01*
X138874101Y-98869101D02*
X141260413Y-98869101D01*
%TO.N,GND*%
X158282317Y-85049822D02*
X158406563Y-85174068D01*
X156662781Y-85049822D02*
X158282317Y-85049822D01*
X155072332Y-87129869D02*
X155072332Y-86130000D01*
X156662781Y-85049822D02*
X155582603Y-86130000D01*
X155582603Y-86130000D02*
X155072332Y-86130000D01*
X153679272Y-83180768D02*
X153149784Y-83180768D01*
X153149784Y-83180768D02*
X151242651Y-85087901D01*
%TO.N,Net-(U4-PR1)*%
X152817016Y-84738761D02*
X153775009Y-83780768D01*
X154679272Y-83446453D02*
X154679272Y-83180768D01*
X153775009Y-83780768D02*
X154344957Y-83780768D01*
X154344957Y-83780768D02*
X154679272Y-83446453D01*
%TO.N,GND*%
X155072332Y-85785310D02*
X154958020Y-85670998D01*
X155056326Y-87145875D02*
X155072332Y-87129869D01*
X155072332Y-86130000D02*
X155072332Y-85785310D01*
X151242651Y-85087901D02*
X149322440Y-83167690D01*
X149322440Y-83167690D02*
X149099023Y-83167690D01*
X151683447Y-87446945D02*
X151683447Y-88109444D01*
X151683447Y-88109444D02*
X151033446Y-88759445D01*
X151033446Y-88759445D02*
X148549974Y-88759445D01*
X148549974Y-88759445D02*
X148536365Y-88773054D01*
%TO.N,/5V_SYS*%
X153757757Y-86774149D02*
X152883657Y-86774149D01*
X152883657Y-86774149D02*
X152633447Y-87024359D01*
X152633447Y-87024359D02*
X152633447Y-87446945D01*
X148536365Y-86873054D02*
X148920300Y-86489119D01*
X148920300Y-86489119D02*
X150258735Y-86489119D01*
X150258735Y-86489119D02*
X150733447Y-86963831D01*
X150733447Y-86963831D02*
X150733447Y-87446945D01*
%TO.N,GND*%
D63*
X150394232Y-91528489D02*
X150375413Y-91509670D01*
X150375413Y-91509670D02*
X150375413Y-91320413D01*
X150375413Y-91320413D02*
X149508637Y-90453637D01*
X149508637Y-90453637D02*
X149508637Y-90170000D01*
D62*
X148536365Y-88773054D02*
X148533971Y-88775448D01*
X148533971Y-88775448D02*
X148533971Y-88800104D01*
X148533971Y-88800104D02*
X149508637Y-89774770D01*
X149508637Y-89774770D02*
X149508637Y-90170000D01*
%TO.N,/1V1_CORE*%
X148548637Y-90170000D02*
X148548637Y-90937822D01*
X148548637Y-90937822D02*
X148844232Y-91233417D01*
X148844232Y-91233417D02*
X148844232Y-91528489D01*
%TO.N,GND*%
X153679272Y-83180768D02*
X153179272Y-83180768D01*
X154179272Y-83180768D02*
X153679272Y-83180768D01*
%TO.N,Net-(U4-PR1)*%
D63*
X152817016Y-84738761D02*
X152817016Y-85826371D01*
%TO.N,GND*%
X155012752Y-79510466D02*
X155698433Y-78824785D01*
X155698433Y-78824785D02*
X157522632Y-78824785D01*
X157522632Y-78824785D02*
X158217757Y-79519910D01*
X158217757Y-79519910D02*
X158217757Y-80058388D01*
X158217757Y-80058388D02*
X157526918Y-80749227D01*
X157526918Y-80749227D02*
X157273205Y-80749227D01*
X150816929Y-81749823D02*
X149343176Y-81749823D01*
X149343176Y-81749823D02*
X149099023Y-81993976D01*
X151119936Y-79464121D02*
X150816929Y-79767128D01*
X150816929Y-79767128D02*
X150816929Y-81749823D01*
X153179272Y-80880768D02*
X152536583Y-80880768D01*
X152536583Y-80880768D02*
X151119936Y-79464121D01*
X150559870Y-108014870D02*
X149860000Y-107315000D01*
X152321136Y-108014870D02*
X150559870Y-108014870D01*
X143192677Y-105851374D02*
X142787025Y-106257025D01*
X143510000Y-106980000D02*
X143510000Y-107315000D01*
X142787025Y-106257025D02*
X143510000Y-106980000D01*
X142074475Y-108132113D02*
X142074475Y-107029576D01*
X142074475Y-107029576D02*
X142044475Y-106999576D01*
X144475413Y-105851374D02*
X143192677Y-105851374D01*
X142787025Y-106257025D02*
X142044475Y-106999576D01*
X132009101Y-92639101D02*
X132080000Y-92710000D01*
X131221206Y-92639101D02*
X132009101Y-92639101D01*
X139371050Y-98096050D02*
X139065000Y-97790000D01*
X139792063Y-98096050D02*
X139371050Y-98096050D01*
X131440000Y-99164926D02*
X131440000Y-98430000D01*
X131440000Y-98430000D02*
X132080000Y-97790000D01*
X132080000Y-99164926D02*
X131440000Y-99164926D01*
%TO.N,/5V_SYS*%
X125730000Y-97155000D02*
X124657313Y-98227687D01*
X124657313Y-98227687D02*
X124657313Y-98991983D01*
X125730000Y-97155000D02*
X126557313Y-97982313D01*
X126557313Y-97982313D02*
X126557313Y-98991983D01*
%TO.N,GND*%
X131440000Y-99164926D02*
X130439809Y-99164926D01*
X130439809Y-99164926D02*
X130299235Y-99024352D01*
%TO.N,/3V3_ADXL*%
X133040000Y-99164926D02*
X133040000Y-102332688D01*
X133040000Y-102332688D02*
X133353413Y-102646101D01*
%TO.N,GND*%
X133353413Y-103916101D02*
X132081390Y-103916101D01*
X132081390Y-103916101D02*
X130665965Y-105331526D01*
X135585413Y-106783101D02*
X135585413Y-105740413D01*
X135585413Y-105740413D02*
X133761101Y-103916101D01*
X133761101Y-103916101D02*
X133353413Y-103916101D01*
%TO.N,/3V3_ADXL*%
X138125413Y-106783101D02*
X138125413Y-106375413D01*
X138125413Y-106375413D02*
X134396101Y-102646101D01*
X134396101Y-102646101D02*
X133353413Y-102646101D01*
X131451390Y-102646101D02*
X131820000Y-102646101D01*
X130461735Y-101159109D02*
X130461735Y-101287836D01*
X130461735Y-101287836D02*
X131820000Y-102646101D01*
X130665965Y-103431526D02*
X131451390Y-102646101D01*
X131820000Y-102646101D02*
X133353413Y-102646101D01*
%TO.N,Net-(U8-OUT)*%
X128399235Y-99024352D02*
X128399235Y-101096609D01*
X128399235Y-101096609D02*
X128336735Y-101159109D01*
X126557313Y-101266983D02*
X128228861Y-101266983D01*
X128228861Y-101266983D02*
X128336735Y-101159109D01*
%TO.N,/3V3_ADXL*%
X128471851Y-103428603D02*
X130663042Y-103428603D01*
X130663042Y-103428603D02*
X130665965Y-103431526D01*
X126797818Y-103153603D02*
X128196851Y-103153603D01*
X128196851Y-103153603D02*
X128471851Y-103428603D01*
%TO.N,Net-(U3-V1P8DIG)*%
D62*
X131194286Y-108299200D02*
X131194286Y-107059200D01*
X131194286Y-107059200D02*
X131164286Y-107029200D01*
X134315413Y-106783101D02*
X132710385Y-106783101D01*
X132710385Y-106783101D02*
X131194286Y-108299200D01*
%TO.N,/ADXL_CS*%
X142222108Y-104665196D02*
X142222108Y-104659798D01*
X142222108Y-104659798D02*
X142962757Y-103919149D01*
%TO.N,/3V3_ADXL*%
X138125413Y-106783101D02*
X138518938Y-106389576D01*
X138518938Y-106389576D02*
X141517728Y-106389576D01*
X141517728Y-106389576D02*
X142222108Y-105685196D01*
%TO.N,Net-(U3-V1P8ANA)*%
X141054475Y-108132113D02*
X141054475Y-107029576D01*
X141054475Y-107029576D02*
X141084475Y-106999576D01*
X141054475Y-108132113D02*
X137988226Y-108132113D01*
X136855413Y-106999300D02*
X136855413Y-106783101D01*
X137988226Y-108132113D02*
X136855413Y-106999300D01*
%TO.N,GND*%
D65*
X127746324Y-104298076D02*
X126634400Y-105410000D01*
X127791324Y-104298076D02*
X127746324Y-104298076D01*
X127606851Y-104113603D02*
X127791324Y-104298076D01*
X128471851Y-104978603D02*
X130313042Y-104978603D01*
X130313042Y-104978603D02*
X130665965Y-105331526D01*
X126797818Y-104113603D02*
X127606851Y-104113603D01*
X127791324Y-104298076D02*
X128471851Y-104978603D01*
X124899707Y-103478359D02*
X125534951Y-104113603D01*
X125534951Y-104113603D02*
X126797818Y-104113603D01*
%TO.N,/5V_SYS*%
X124899707Y-105378359D02*
X123724707Y-104203359D01*
X123724707Y-104203359D02*
X123724707Y-99924589D01*
X123724707Y-99924589D02*
X124657313Y-98991983D01*
%TO.N,GND*%
X125607313Y-98991983D02*
X125607313Y-102770753D01*
X125607313Y-102770753D02*
X124899707Y-103478359D01*
%TO.N,Net-(U4-ST)*%
D62*
X154749298Y-80880768D02*
X156135281Y-79494785D01*
X154679272Y-80880768D02*
X154749298Y-80880768D01*
%TO.N,GND*%
X150023070Y-96370921D02*
X149740520Y-96088371D01*
X150344428Y-100089878D02*
X150344428Y-102067483D01*
X152321136Y-104044191D02*
X152321136Y-104204870D01*
X150344428Y-102067483D02*
X150453390Y-102176445D01*
X150023070Y-97556432D02*
X150023070Y-96370921D01*
X139792063Y-97041091D02*
X140764053Y-96069101D01*
X139792063Y-97136050D02*
X139792063Y-97041091D01*
X150453390Y-102176445D02*
X152321136Y-104044191D01*
X140764053Y-96069101D02*
X141260413Y-96069101D01*
%TO.N,/RS485_B*%
D66*
X153757757Y-102695446D02*
X153757757Y-104419157D01*
X151295228Y-107369870D02*
X151021136Y-107095778D01*
X152702044Y-105474870D02*
X152321136Y-105474870D01*
X155483584Y-107369870D02*
X151295228Y-107369870D01*
D63*
X156603594Y-99849609D02*
X156572303Y-99880900D01*
D66*
X155836733Y-107016721D02*
X155483584Y-107369870D01*
X156572303Y-99880900D02*
X153757757Y-102695446D01*
D64*
X167335413Y-99849609D02*
X160985413Y-99849609D01*
D66*
X151021136Y-106393962D02*
X151940228Y-105474870D01*
D63*
X160985413Y-99849609D02*
X156603594Y-99849609D01*
D66*
X151021136Y-107095778D02*
X151021136Y-106393962D01*
X151940228Y-105474870D02*
X152321136Y-105474870D01*
X153757757Y-104419157D02*
X152702044Y-105474870D01*
%TO.N,/RS485_A*%
D63*
X160985413Y-101099109D02*
X160553622Y-101530900D01*
D66*
X152857872Y-106744870D02*
X152321136Y-106744870D01*
X155609956Y-103992786D02*
X152857872Y-106744870D01*
D63*
X156572303Y-101780900D02*
X156572303Y-103030439D01*
X160553622Y-101530900D02*
X156822303Y-101530900D01*
D64*
X167335413Y-101099109D02*
X160985413Y-101099109D01*
D63*
X156822303Y-101530900D02*
X156572303Y-101780900D01*
X156572303Y-103030439D02*
X155609956Y-103992786D01*
%TO.N,GND*%
X168694741Y-80318582D02*
X170020413Y-80318582D01*
D64*
X168685413Y-95950000D02*
X168685413Y-93982895D01*
D62*
X165430413Y-82788606D02*
X165430413Y-82744109D01*
X161177213Y-82127309D02*
X160189698Y-82127309D01*
X151894428Y-100089878D02*
X151894428Y-101717483D01*
D63*
X167615413Y-81397910D02*
X168694741Y-80318582D01*
D62*
X160189698Y-82127309D02*
X159988929Y-82328078D01*
D63*
X166084233Y-108101609D02*
X165996733Y-108014109D01*
D62*
X150700520Y-96088371D02*
X150700520Y-96683882D01*
D64*
X168235413Y-98599109D02*
X168685413Y-98149109D01*
D62*
X151894428Y-101717483D02*
X152353390Y-102176445D01*
X161911751Y-83657021D02*
X162131751Y-83657021D01*
X161631751Y-82581846D02*
X161631751Y-83377021D01*
D63*
X169849233Y-108101609D02*
X170441733Y-107509109D01*
D64*
X169880492Y-92787816D02*
X171030492Y-92787816D01*
D62*
X150700520Y-96683882D02*
X151573070Y-97556432D01*
D64*
X168685413Y-93982895D02*
X169880492Y-92787816D01*
D62*
X164343325Y-81657021D02*
X164131751Y-81657021D01*
X153992389Y-85670998D02*
X153837016Y-85826371D01*
D63*
X168536733Y-108101609D02*
X166084233Y-108101609D01*
D62*
X165250685Y-82968334D02*
X165430413Y-82788606D01*
D63*
X171749886Y-81443582D02*
X172415413Y-82109109D01*
X170020413Y-80318582D02*
X171145413Y-81443582D01*
D62*
X151894428Y-100089878D02*
X151894428Y-97877790D01*
D63*
X165996733Y-108014109D02*
X163581733Y-108014109D01*
X171145413Y-81443582D02*
X171749886Y-81443582D01*
D64*
X135845795Y-80444249D02*
X135845795Y-81254306D01*
D62*
X161631751Y-83377021D02*
X161911751Y-83657021D01*
X161177213Y-82127309D02*
X161631751Y-82581846D01*
X160536358Y-81486453D02*
X161177213Y-82127309D01*
D64*
X135845795Y-81254306D02*
X134438025Y-82662076D01*
D63*
X163581733Y-108014109D02*
X163456733Y-108139109D01*
D62*
X165430413Y-82744109D02*
X164343325Y-81657021D01*
D64*
X167335413Y-98599109D02*
X168235413Y-98599109D01*
D63*
X168536733Y-108101609D02*
X169849233Y-108101609D01*
D62*
X151894428Y-97877790D02*
X151573070Y-97556432D01*
D64*
X167335413Y-98599109D02*
X160985413Y-98599109D01*
D62*
X154958020Y-85670998D02*
X153992389Y-85670998D01*
%TO.N,/ADXL_MISO*%
X134315413Y-101049101D02*
X134315413Y-100501493D01*
X135125004Y-99691902D02*
X139986854Y-99691902D01*
X139986854Y-99691902D02*
X140764053Y-100469101D01*
X140764053Y-100469101D02*
X141260413Y-100469101D01*
X134315413Y-100501493D02*
X135125004Y-99691902D01*
%TO.N,/ADXL_CS*%
X142327757Y-101379149D02*
X141817709Y-100869101D01*
X138125413Y-101049101D02*
X138822709Y-101049101D01*
X141817709Y-100869101D02*
X141260413Y-100869101D01*
X138822709Y-101049101D02*
X139152757Y-101379149D01*
%TO.N,/ADXL_SCLK*%
X136855413Y-100620902D02*
X137384413Y-100091902D01*
X140764053Y-101269101D02*
X141260413Y-101269101D01*
X136855413Y-101049101D02*
X136855413Y-100620902D01*
X139586854Y-100091902D02*
X140764053Y-101269101D01*
X137384413Y-100091902D02*
X139586854Y-100091902D01*
%TO.N,/ADXL_MOSI*%
X140923214Y-102006300D02*
X141260413Y-101669101D01*
X136326413Y-102006300D02*
X140923214Y-102006300D01*
X135585413Y-101049101D02*
X135585413Y-101265300D01*
X135585413Y-101265300D02*
X136326413Y-102006300D01*
%TO.N,/ADXL_DRDY*%
X139087413Y-102646101D02*
X141583413Y-102646101D01*
X141583413Y-102646101D02*
X141910413Y-102319101D01*
%TO.N,/ADXL_INT2*%
X139087413Y-103916101D02*
X141209773Y-103916101D01*
X142310413Y-102815461D02*
X142310413Y-102319101D01*
X141209773Y-103916101D02*
X142310413Y-102815461D01*
%TO.N,/ADXL_INT1*%
X139087413Y-105186101D02*
X140505458Y-105186101D01*
X140505458Y-105186101D02*
X142710413Y-102981146D01*
X142710413Y-102981146D02*
X142710413Y-102319101D01*
%TO.N,Net-(U1-GPIO16)*%
X146310413Y-103144147D02*
X146310413Y-102319101D01*
X147371136Y-104204870D02*
X146310413Y-103144147D01*
%TO.N,Net-(U1-GPIO17)*%
X148646136Y-103864318D02*
X147800919Y-103019101D01*
X147716688Y-108014870D02*
X148646136Y-107085422D01*
X147800919Y-103019101D02*
X146914053Y-103019101D01*
X146710413Y-102815461D02*
X146710413Y-102319101D01*
X147371136Y-108014870D02*
X147716688Y-108014870D01*
X146914053Y-103019101D02*
X146710413Y-102815461D01*
X148646136Y-107085422D02*
X148646136Y-103864318D01*
%TO.N,/5V_BUCK*%
D63*
X153864779Y-84710998D02*
X153837016Y-84738761D01*
X154958020Y-84710998D02*
X153864779Y-84710998D01*
X159345648Y-83028078D02*
X160529388Y-83028078D01*
X160529388Y-83028078D02*
X160536358Y-83021108D01*
%TO.N,Net-(U_BUCK1-FB)*%
D62*
X162131751Y-81657021D02*
X160941183Y-80466453D01*
X160536358Y-80466453D02*
X159276358Y-80466453D01*
X159276358Y-80466453D02*
X159266358Y-80456453D01*
X160941183Y-80466453D02*
X160536358Y-80466453D01*
%TO.N,Net-(JP1-B)*%
D63*
X157434956Y-103992786D02*
X157434956Y-106074944D01*
X157434956Y-106074944D02*
X158376733Y-107016721D01*
%TO.N,Net-(D1-A)*%
D64*
X167409093Y-92109215D02*
X171030492Y-88487816D01*
X167409093Y-92269109D02*
X167409093Y-92109215D01*
%TO.N,/SHIELD*%
X167335413Y-105075289D02*
X167285553Y-105075289D01*
X167335413Y-105075289D02*
X168536733Y-106276609D01*
X167285553Y-105075289D02*
X165996733Y-106364109D01*
X167335413Y-102349109D02*
X160985413Y-102349109D01*
X165996733Y-106364109D02*
X163581733Y-106364109D01*
X167335413Y-102349109D02*
X167335413Y-105075289D01*
X163581733Y-106364109D02*
X163456733Y-106239109D01*
%TO.N,/5V_SYS*%
D62*
X156297757Y-81694149D02*
X156297757Y-82784798D01*
X153254272Y-81680768D02*
X154604272Y-81680768D01*
X156284376Y-81680768D02*
X156297757Y-81694149D01*
X151295047Y-86484445D02*
X150733447Y-87046045D01*
X156297757Y-82784798D02*
X156662781Y-83149822D01*
X152333446Y-86484445D02*
X151295047Y-86484445D01*
X152633447Y-87446945D02*
X152633447Y-86784446D01*
X154604272Y-81680768D02*
X156284376Y-81680768D01*
X152633447Y-86784446D02*
X152333446Y-86484445D01*
X157258127Y-81694149D02*
X157273205Y-81709227D01*
X156297757Y-81694149D02*
X157258127Y-81694149D01*
X150733447Y-87046045D02*
X150733447Y-87446945D01*
%TO.N,Net-(U4-ILM)*%
X154179272Y-79696986D02*
X153992752Y-79510466D01*
X154179272Y-80880768D02*
X154179272Y-79696986D01*
%TO.N,Net-(U4-SS)*%
X153679272Y-80473457D02*
X152669936Y-79464121D01*
X153679272Y-80880768D02*
X153679272Y-80473457D01*
%TO.N,/12V*%
D64*
X163134093Y-93969109D02*
X160985413Y-96117789D01*
X163134093Y-92269109D02*
X163134093Y-93969109D01*
X167335413Y-97349109D02*
X160985413Y-97349109D01*
X160985413Y-96117789D02*
X160985413Y-97349109D01*
%TO.N,Net-(J3-SHELL)*%
X137495795Y-82554306D02*
X137388025Y-82662076D01*
X137495795Y-80444249D02*
X137495795Y-82554306D01*
%TO.N,Net-(U_BUCK1-~{SLEEP})*%
D62*
X162511823Y-84732021D02*
X163131751Y-84112093D01*
X159345648Y-84048078D02*
X160029591Y-84732021D01*
X163131751Y-84112093D02*
X163131751Y-83657021D01*
X160029591Y-84732021D02*
X162511823Y-84732021D01*
%TO.N,Net-(U_BUCK1-PG)*%
X160827271Y-84332021D02*
X162346137Y-84332021D01*
X162346137Y-84332021D02*
X162631751Y-84046407D01*
X162631751Y-84046407D02*
X162631751Y-83657021D01*
X160536358Y-84041108D02*
X160827271Y-84332021D01*
%TO.N,/5V_BUCK*%
D63*
X155179272Y-82430768D02*
X155129272Y-82380768D01*
X155129272Y-82380768D02*
X154604272Y-82380768D01*
X154958020Y-84453193D02*
X155261391Y-84149822D01*
X155261391Y-84149822D02*
X157674700Y-84149822D01*
X154958020Y-84453193D02*
X155179272Y-84231941D01*
X155179272Y-84231941D02*
X155179272Y-82430768D01*
X157674700Y-84149822D02*
X158445413Y-83379109D01*
X158580030Y-82162781D02*
X159266358Y-81476453D01*
X162890413Y-87189109D02*
X162587913Y-86886609D01*
X158445413Y-83379109D02*
X158445413Y-82297398D01*
X158445413Y-82297398D02*
X158580030Y-82162781D01*
X158580030Y-82162781D02*
X158580030Y-82262460D01*
X158580030Y-82262460D02*
X159345648Y-83028078D01*
X162587913Y-86886609D02*
X162255413Y-86554109D01*
X154958020Y-84710998D02*
X154958020Y-84453193D01*
%TO.N,/USB_VBUS*%
D62*
X141379182Y-81310364D02*
X141379182Y-80870818D01*
X141379182Y-80870818D02*
X142240000Y-80010000D01*
%TO.N,GND*%
X149947757Y-99693207D02*
X150344428Y-100089878D01*
X156860917Y-79789149D02*
X157567757Y-79789149D01*
X149947757Y-98839149D02*
X149947757Y-99693207D01*
X149947757Y-98839149D02*
X149947757Y-97631745D01*
X156135281Y-80514785D02*
X156860917Y-79789149D01*
X149947757Y-97631745D02*
X150023070Y-97556432D01*
X152895553Y-89721945D02*
X153757757Y-90584149D01*
X152633447Y-89721945D02*
X152895553Y-89721945D01*
X146310413Y-95419101D02*
X146310413Y-96547619D01*
X143510413Y-101545366D02*
X143510413Y-102319101D01*
X143517429Y-101538350D02*
X143510413Y-101545366D01*
X142055791Y-100095913D02*
X142028979Y-100069101D01*
X144780000Y-96269101D02*
X144310413Y-95799514D01*
X144310413Y-95799514D02*
X144310413Y-95419101D01*
X146310413Y-96547619D02*
X146432377Y-96669583D01*
X142028979Y-100069101D02*
X141260413Y-100069101D01*
X141154101Y-96069101D02*
X140335000Y-95250000D01*
X141260413Y-96069101D02*
X141154101Y-96069101D01*
X144710413Y-96199514D02*
X144710413Y-95419101D01*
X144780000Y-96269101D02*
X144710413Y-96199514D01*
%TD*%
M02*
