%TF.GenerationSoftware,KiCad,Pcbnew,10.0.2*%
%TF.CreationDate,2026-06-23T23:37:42+02:00*%
%TF.ProjectId,Untitled,556e7469-746c-4656-942e-6b696361645f,rev?*%
%TF.SameCoordinates,PX5ae77c0PY8c7ecc0*%
%TF.FileFunction,Soldermask,Bot*%
%TF.FilePolarity,Negative*%
%FSLAX46Y46*%
G04 Gerber Fmt 4.6, Leading zero omitted, Abs format (unit mm)*
G04 Created by KiCad (PCBNEW 10.0.2) date 2026-06-23 23:37:42*
%MOMM*%
%LPD*%
G01*
G04 APERTURE LIST*
G04 Aperture macros list*
%AMRoundRect*
0 Rectangle with rounded corners*
0 $1 Rounding radius*
0 $2 $3 $4 $5 $6 $7 $8 $9 X,Y pos of 4 corners*
0 Add a 4 corners polygon primitive as box body*
4,1,4,$2,$3,$4,$5,$6,$7,$8,$9,$2,$3,0*
0 Add four circle primitives for the rounded corners*
1,1,$1+$1,$2,$3*
1,1,$1+$1,$4,$5*
1,1,$1+$1,$6,$7*
1,1,$1+$1,$8,$9*
0 Add four rect primitives between the rounded corners*
20,1,$1+$1,$2,$3,$4,$5,0*
20,1,$1+$1,$4,$5,$6,$7,0*
20,1,$1+$1,$6,$7,$8,$9,0*
20,1,$1+$1,$8,$9,$2,$3,0*%
%AMFreePoly0*
4,1,37,0.603843,0.796157,0.639018,0.796157,0.711114,0.766294,0.766294,0.711114,0.796157,0.639018,0.796157,0.603843,0.800000,0.600000,0.800000,-0.600000,0.796157,-0.603843,0.796157,-0.639018,0.766294,-0.711114,0.711114,-0.766294,0.639018,-0.796157,0.603843,-0.796157,0.600000,-0.800000,0.000000,-0.800000,0.000000,-0.796148,-0.078414,-0.796148,-0.232228,-0.765552,-0.377117,-0.705537,
-0.507515,-0.618408,-0.618408,-0.507515,-0.705537,-0.377117,-0.765552,-0.232228,-0.796148,-0.078414,-0.796148,0.078414,-0.765552,0.232228,-0.705537,0.377117,-0.618408,0.507515,-0.507515,0.618408,-0.377117,0.705537,-0.232228,0.765552,-0.078414,0.796148,0.000000,0.796148,0.000000,0.800000,0.600000,0.800000,0.603843,0.796157,0.603843,0.796157,$1*%
%AMFreePoly1*
4,1,37,0.000000,0.796148,0.078414,0.796148,0.232228,0.765552,0.377117,0.705537,0.507515,0.618408,0.618408,0.507515,0.705537,0.377117,0.765552,0.232228,0.796148,0.078414,0.796148,-0.078414,0.765552,-0.232228,0.705537,-0.377117,0.618408,-0.507515,0.507515,-0.618408,0.377117,-0.705537,0.232228,-0.765552,0.078414,-0.796148,0.000000,-0.796148,0.000000,-0.800000,-0.600000,-0.800000,
-0.603843,-0.796157,-0.639018,-0.796157,-0.711114,-0.766294,-0.766294,-0.711114,-0.796157,-0.639018,-0.796157,-0.603843,-0.800000,-0.600000,-0.800000,0.600000,-0.796157,0.603843,-0.796157,0.639018,-0.766294,0.711114,-0.711114,0.766294,-0.639018,0.796157,-0.603843,0.796157,-0.600000,0.800000,0.000000,0.800000,0.000000,0.796148,0.000000,0.796148,$1*%
G04 Aperture macros list end*
%ADD10C,2.100000*%
%ADD11RoundRect,0.200000X-0.600000X-0.600000X0.600000X-0.600000X0.600000X0.600000X-0.600000X0.600000X0*%
%ADD12C,1.600000*%
%ADD13FreePoly0,0.000000*%
%ADD14FreePoly1,0.000000*%
%ADD15C,3.200000*%
%ADD16RoundRect,0.250000X1.050000X-1.050000X1.050000X1.050000X-1.050000X1.050000X-1.050000X-1.050000X0*%
%ADD17C,2.600000*%
%ADD18C,1.270000*%
%ADD19RoundRect,0.250001X0.949999X-0.949999X0.949999X0.949999X-0.949999X0.949999X-0.949999X-0.949999X0*%
%ADD20C,2.400000*%
%ADD21RoundRect,0.250000X0.550000X-0.550000X0.550000X0.550000X-0.550000X0.550000X-0.550000X-0.550000X0*%
%ADD22C,1.700000*%
%ADD23R,1.800000X1.800000*%
%ADD24C,1.800000*%
%ADD25R,1.500000X1.500000*%
%ADD26C,1.500000*%
%ADD27RoundRect,0.250000X0.550000X0.550000X-0.550000X0.550000X-0.550000X-0.550000X0.550000X-0.550000X0*%
G04 APERTURE END LIST*
D10*
%TO.C,PICO1*%
X38710456Y74300000D03*
X38710456Y27300000D03*
X50067844Y74300000D03*
X50067844Y27300000D03*
D11*
X35490000Y74930000D03*
D12*
X35490000Y72390000D03*
D13*
X35490000Y69850000D03*
D12*
X35490000Y67310000D03*
X35490000Y64770000D03*
X35490000Y62230000D03*
X35490000Y59690000D03*
D13*
X35490000Y57150000D03*
D12*
X35490000Y54610000D03*
X35490000Y52070000D03*
X35490000Y49530000D03*
X35490000Y46990000D03*
D13*
X35490000Y44450000D03*
D12*
X35490000Y41910000D03*
X35490000Y39370000D03*
X35490000Y36830000D03*
X35490000Y34290000D03*
D13*
X35490000Y31750000D03*
D12*
X35490000Y29210000D03*
X35490000Y26670000D03*
X53270000Y26670000D03*
X53270000Y29210000D03*
D14*
X53270000Y31750000D03*
D12*
X53270000Y34290000D03*
X53270000Y36830000D03*
X53270000Y39370000D03*
X53270000Y41910000D03*
D14*
X53270000Y44450000D03*
D12*
X53270000Y46990000D03*
X53270000Y49530000D03*
X53270000Y52070000D03*
X53270000Y54610000D03*
D14*
X53270000Y57150000D03*
D12*
X53270000Y59690000D03*
X53270000Y62230000D03*
X53270000Y64770000D03*
X53270000Y67310000D03*
D14*
X53270000Y69850000D03*
D12*
X53270000Y72390000D03*
X53270000Y74930000D03*
%TD*%
D15*
%TO.C,H2*%
X46980000Y104390000D03*
%TD*%
D16*
%TO.C,J2*%
X15170000Y73660000D03*
D17*
X15170000Y78740000D03*
%TD*%
D18*
%TO.C,F1*%
X18980000Y85090000D03*
X13880000Y86690000D03*
%TD*%
D16*
%TO.C,J1*%
X15170000Y62230000D03*
D17*
X15170000Y67310000D03*
%TD*%
D12*
%TO.C,R1*%
X30410000Y71120000D03*
X22790000Y71120000D03*
%TD*%
D19*
%TO.C,D1*%
X25330000Y86360000D03*
D20*
X25330000Y96520000D03*
%TD*%
D15*
%TO.C,H4*%
X46980000Y8890000D03*
%TD*%
D21*
%TO.C,C5*%
X34220000Y86360000D03*
D12*
X34220000Y89860000D03*
%TD*%
%TO.C,C3*%
X10130000Y43180000D03*
X15130000Y43180000D03*
%TD*%
D15*
%TO.C,H1*%
X18980000Y104390000D03*
%TD*%
%TO.C,MOD1*%
X13138001Y38100000D03*
X13138001Y23368000D03*
X27870000Y38100000D03*
X27870000Y23368000D03*
D22*
X11614001Y33274000D03*
X14154001Y33274000D03*
X11614001Y30734000D03*
X14154001Y30734000D03*
X11614001Y28194000D03*
X14154001Y28194000D03*
X26854001Y33274000D03*
X29394001Y33274000D03*
X26854001Y30734000D03*
X29394001Y30734000D03*
X26854001Y28194000D03*
X29394001Y28194000D03*
%TD*%
D15*
%TO.C,H3*%
X18980000Y8890000D03*
%TD*%
D12*
%TO.C,L1*%
X20250000Y54610000D03*
X20250000Y46990000D03*
%TD*%
D23*
%TO.C,U1*%
X53270000Y86360000D03*
D24*
X53270000Y88900000D03*
X53270000Y91440000D03*
%TD*%
D21*
%TO.C,C4*%
X12630000Y47530000D03*
D12*
X12630000Y49530000D03*
%TD*%
D25*
%TO.C,U2*%
X27870000Y48260000D03*
D26*
X27870000Y50800000D03*
X27870000Y53340000D03*
%TD*%
D27*
%TO.C,C2*%
X44380000Y95250000D03*
D12*
X40880000Y95250000D03*
%TD*%
%TO.C,C6*%
X45610000Y82550000D03*
X40610000Y82550000D03*
%TD*%
M02*
