%TF.GenerationSoftware,KiCad,Pcbnew,10.0.2*%
%TF.CreationDate,2026-06-23T23:37:42+02:00*%
%TF.ProjectId,Untitled,556e7469-746c-4656-942e-6b696361645f,rev?*%
%TF.SameCoordinates,PX5ae77c0PY8c7ecc0*%
%TF.FileFunction,Copper,L2,Bot*%
%TF.FilePolarity,Positive*%
%FSLAX46Y46*%
G04 Gerber Fmt 4.6, Leading zero omitted, Abs format (unit mm)*
G04 Created by KiCad (PCBNEW 10.0.2) date 2026-06-23 23:37:42*
%MOMM*%
%LPD*%
G01*
G04 APERTURE LIST*
G04 Aperture macros list*
%AMRoundRect*
0 Rectangle with rounded corners*
0 $1 Rounding radius*
0 $2 $3 $4 $5 $6 $7 $8 $9 X,Y pos of 4 corners*
0 Add a 4 corners polygon primitive as box body*
4,1,4,$2,$3,$4,$5,$6,$7,$8,$9,$2,$3,0*
0 Add four circle primitives for the rounded corners*
1,1,$1+$1,$2,$3*
1,1,$1+$1,$4,$5*
1,1,$1+$1,$6,$7*
1,1,$1+$1,$8,$9*
0 Add four rect primitives between the rounded corners*
20,1,$1+$1,$2,$3,$4,$5,0*
20,1,$1+$1,$4,$5,$6,$7,0*
20,1,$1+$1,$6,$7,$8,$9,0*
20,1,$1+$1,$8,$9,$2,$3,0*%
%AMFreePoly0*
4,1,37,0.603843,0.796157,0.639018,0.796157,0.711114,0.766294,0.766294,0.711114,0.796157,0.639018,0.796157,0.603843,0.800000,0.600000,0.800000,-0.600000,0.796157,-0.603843,0.796157,-0.639018,0.766294,-0.711114,0.711114,-0.766294,0.639018,-0.796157,0.603843,-0.796157,0.600000,-0.800000,0.000000,-0.800000,0.000000,-0.796148,-0.078414,-0.796148,-0.232228,-0.765552,-0.377117,-0.705537,
-0.507515,-0.618408,-0.618408,-0.507515,-0.705537,-0.377117,-0.765552,-0.232228,-0.796148,-0.078414,-0.796148,0.078414,-0.765552,0.232228,-0.705537,0.377117,-0.618408,0.507515,-0.507515,0.618408,-0.377117,0.705537,-0.232228,0.765552,-0.078414,0.796148,0.000000,0.796148,0.000000,0.800000,0.600000,0.800000,0.603843,0.796157,0.603843,0.796157,$1*%
%AMFreePoly1*
4,1,37,0.000000,0.796148,0.078414,0.796148,0.232228,0.765552,0.377117,0.705537,0.507515,0.618408,0.618408,0.507515,0.705537,0.377117,0.765552,0.232228,0.796148,0.078414,0.796148,-0.078414,0.765552,-0.232228,0.705537,-0.377117,0.618408,-0.507515,0.507515,-0.618408,0.377117,-0.705537,0.232228,-0.765552,0.078414,-0.796148,0.000000,-0.796148,0.000000,-0.800000,-0.600000,-0.800000,
-0.603843,-0.796157,-0.639018,-0.796157,-0.711114,-0.766294,-0.766294,-0.711114,-0.796157,-0.639018,-0.796157,-0.603843,-0.800000,-0.600000,-0.800000,0.600000,-0.796157,0.603843,-0.796157,0.639018,-0.766294,0.711114,-0.711114,0.766294,-0.639018,0.796157,-0.603843,0.796157,-0.600000,0.800000,0.000000,0.800000,0.000000,0.796148,0.000000,0.796148,$1*%
G04 Aperture macros list end*
%TA.AperFunction,ComponentPad*%
%ADD10RoundRect,0.200000X-0.600000X-0.600000X0.600000X-0.600000X0.600000X0.600000X-0.600000X0.600000X0*%
%TD*%
%TA.AperFunction,ComponentPad*%
%ADD11C,1.600000*%
%TD*%
%TA.AperFunction,ComponentPad*%
%ADD12FreePoly0,0.000000*%
%TD*%
%TA.AperFunction,ComponentPad*%
%ADD13FreePoly1,0.000000*%
%TD*%
%TA.AperFunction,ComponentPad*%
%ADD14RoundRect,0.250000X1.050000X-1.050000X1.050000X1.050000X-1.050000X1.050000X-1.050000X-1.050000X0*%
%TD*%
%TA.AperFunction,ComponentPad*%
%ADD15C,2.600000*%
%TD*%
%TA.AperFunction,ComponentPad*%
%ADD16C,1.270000*%
%TD*%
%TA.AperFunction,ComponentPad*%
%ADD17RoundRect,0.250001X0.949999X-0.949999X0.949999X0.949999X-0.949999X0.949999X-0.949999X-0.949999X0*%
%TD*%
%TA.AperFunction,ComponentPad*%
%ADD18C,2.400000*%
%TD*%
%TA.AperFunction,ComponentPad*%
%ADD19RoundRect,0.250000X0.550000X-0.550000X0.550000X0.550000X-0.550000X0.550000X-0.550000X-0.550000X0*%
%TD*%
%TA.AperFunction,ComponentPad*%
%ADD20C,1.700000*%
%TD*%
%TA.AperFunction,ComponentPad*%
%ADD21R,1.800000X1.800000*%
%TD*%
%TA.AperFunction,ComponentPad*%
%ADD22C,1.800000*%
%TD*%
%TA.AperFunction,ComponentPad*%
%ADD23R,1.500000X1.500000*%
%TD*%
%TA.AperFunction,ComponentPad*%
%ADD24C,1.500000*%
%TD*%
%TA.AperFunction,ComponentPad*%
%ADD25RoundRect,0.250000X0.550000X0.550000X-0.550000X0.550000X-0.550000X-0.550000X0.550000X-0.550000X0*%
%TD*%
%TA.AperFunction,ViaPad*%
%ADD26C,0.600000*%
%TD*%
G04 APERTURE END LIST*
D10*
%TO.P,PICO1,1,GPIO0_1*%
%TO.N,/D {slash} DI*%
X35490000Y74930000D03*
D11*
%TO.P,PICO1,2,GPIO1_2*%
%TO.N,/R {slash} RO*%
X35490000Y72390000D03*
D12*
%TO.P,PICO1,3,GND_3*%
%TO.N,GND*%
X35490000Y69850000D03*
D11*
%TO.P,PICO1,4,GPIO2_4*%
%TO.N,/{slash}RE*%
X35490000Y67310000D03*
%TO.P,PICO1,5,GPIO3_5*%
%TO.N,/DE*%
X35490000Y64770000D03*
%TO.P,PICO1,6,GPIO4_6*%
%TO.N,unconnected-(PICO1-GPIO4-Pad6)*%
X35490000Y62230000D03*
%TO.P,PICO1,7,GPIO5_7*%
%TO.N,unconnected-(PICO1-GPIO5-Pad7)_1*%
X35490000Y59690000D03*
D12*
%TO.P,PICO1,8,GND_8*%
%TO.N,GND*%
X35490000Y57150000D03*
D11*
%TO.P,PICO1,9,GPIO6_9*%
%TO.N,unconnected-(PICO1-GPIO6-Pad9)_1*%
X35490000Y54610000D03*
%TO.P,PICO1,10,GPIO7_10*%
%TO.N,unconnected-(PICO1-GPIO7-Pad10)*%
X35490000Y52070000D03*
%TO.P,PICO1,11,GPIO8_11*%
%TO.N,unconnected-(PICO1-GPIO8-Pad11)*%
X35490000Y49530000D03*
%TO.P,PICO1,12,GPIO9_12*%
%TO.N,unconnected-(PICO1-GPIO9-Pad12)*%
X35490000Y46990000D03*
D12*
%TO.P,PICO1,13,GND_13*%
%TO.N,GND*%
X35490000Y44450000D03*
D11*
%TO.P,PICO1,14,GPIO10_14*%
%TO.N,/ADXL INT1*%
X35490000Y41910000D03*
%TO.P,PICO1,15,GPIO11_15*%
%TO.N,/ADXL DRDY*%
X35490000Y39370000D03*
%TO.P,PICO1,16,GPIO12_16*%
%TO.N,/ADXL SDO*%
X35490000Y36830000D03*
%TO.P,PICO1,17,GPIO13_17*%
%TO.N,/ADXL CS*%
X35490000Y34290000D03*
D12*
%TO.P,PICO1,18,GND_18*%
%TO.N,GND*%
X35490000Y31750000D03*
D11*
%TO.P,PICO1,19,GPIO14_19*%
%TO.N,/ADXL SCLK*%
X35490000Y29210000D03*
%TO.P,PICO1,20,GPIO15_20*%
%TO.N,/ADXL SDI*%
X35490000Y26670000D03*
%TO.P,PICO1,21,GPIO16_21*%
%TO.N,unconnected-(PICO1-GPIO16-Pad21)*%
X53270000Y26670000D03*
%TO.P,PICO1,22,GPIO17_22*%
%TO.N,unconnected-(PICO1-GPIO17-Pad22)*%
X53270000Y29210000D03*
D13*
%TO.P,PICO1,23,GND_23*%
%TO.N,GND*%
X53270000Y31750000D03*
D11*
%TO.P,PICO1,24,GPIO18_24*%
%TO.N,unconnected-(PICO1-GPIO18-Pad24)*%
X53270000Y34290000D03*
%TO.P,PICO1,25,GPIO19_25*%
%TO.N,unconnected-(PICO1-GPIO19-Pad25)*%
X53270000Y36830000D03*
%TO.P,PICO1,26,GPIO20_26*%
%TO.N,unconnected-(PICO1-GPIO20-Pad26)*%
X53270000Y39370000D03*
%TO.P,PICO1,27,GPIO21_27*%
%TO.N,unconnected-(PICO1-GPIO21-Pad27)*%
X53270000Y41910000D03*
D13*
%TO.P,PICO1,28,GND_28*%
%TO.N,GND*%
X53270000Y44450000D03*
D11*
%TO.P,PICO1,29,GPIO22_29*%
%TO.N,unconnected-(PICO1-GPIO22-Pad29)_1*%
X53270000Y46990000D03*
%TO.P,PICO1,30,RUN_30*%
%TO.N,unconnected-(PICO1-RUN-Pad30)*%
X53270000Y49530000D03*
%TO.P,PICO1,31,GPIO26_ADC0_31*%
%TO.N,unconnected-(PICO1-GPIO26_ADC0-Pad31)*%
X53270000Y52070000D03*
%TO.P,PICO1,32,GPIO27_ADC1_32*%
%TO.N,unconnected-(PICO1-GPIO27_ADC1-Pad32)_1*%
X53270000Y54610000D03*
D13*
%TO.P,PICO1,33,AGND_33*%
%TO.N,unconnected-(PICO1-AGND-Pad33)_1*%
X53270000Y57150000D03*
D11*
%TO.P,PICO1,34,GPIO28_ADC2_34*%
%TO.N,unconnected-(PICO1-GPIO28_ADC2-Pad34)_1*%
X53270000Y59690000D03*
%TO.P,PICO1,35,ADC_VREF_35*%
%TO.N,unconnected-(PICO1-ADC_VREF-Pad35)_1*%
X53270000Y62230000D03*
%TO.P,PICO1,36,3V3_36*%
%TO.N,/3V3_Pico*%
X53270000Y64770000D03*
%TO.P,PICO1,37,3V3_EN_37*%
%TO.N,unconnected-(PICO1-3V3_EN-Pad37)_1*%
X53270000Y67310000D03*
D13*
%TO.P,PICO1,38,GND_38*%
%TO.N,GND*%
X53270000Y69850000D03*
D11*
%TO.P,PICO1,39,VSYS_39*%
%TO.N,/5V*%
X53270000Y72390000D03*
%TO.P,PICO1,40,VBUS_40*%
%TO.N,unconnected-(PICO1-VBUS-Pad40)_1*%
X53270000Y74930000D03*
%TD*%
D14*
%TO.P,J2,1,Pin_1_1*%
%TO.N,GND*%
X15170000Y73660000D03*
D15*
%TO.P,J2,2,Pin_2_2*%
%TO.N,/12VIN*%
X15170000Y78740000D03*
%TD*%
D16*
%TO.P,F1,1,1_1*%
%TO.N,Net-(D1-K)*%
X18980000Y85090000D03*
%TO.P,F1,2,2_2*%
%TO.N,/12VIN*%
X13880000Y86690000D03*
%TD*%
D14*
%TO.P,J1,1,Pin_1_1*%
%TO.N,/RS485_B*%
X15170000Y62230000D03*
D15*
%TO.P,J1,2,Pin_2_2*%
%TO.N,/RS485_A*%
X15170000Y67310000D03*
%TD*%
D11*
%TO.P,R1,1*%
%TO.N,/RS485_B*%
X30410000Y71120000D03*
%TO.P,R1,2*%
%TO.N,/RS485_A*%
X22790000Y71120000D03*
%TD*%
D17*
%TO.P,D1,1,K_1*%
%TO.N,Net-(D1-K)*%
X25330000Y86360000D03*
D18*
%TO.P,D1,2,A_2*%
%TO.N,GND*%
X25330000Y96520000D03*
%TD*%
D19*
%TO.P,C5,1*%
%TO.N,Net-(D1-K)*%
X34220000Y86360000D03*
D11*
%TO.P,C5,2*%
%TO.N,GND*%
X34220000Y89860000D03*
%TD*%
%TO.P,C3,1,1_1*%
%TO.N,/3V3_ADXL*%
X10130000Y43180000D03*
%TO.P,C3,2,2_2*%
%TO.N,GND*%
X15130000Y43180000D03*
%TD*%
D20*
%TO.P,MOD1,1,VDDIO_1*%
%TO.N,/3V3_ADXL*%
X11614001Y33274000D03*
%TO.P,MOD1,2,INT1_2*%
%TO.N,/ADXL INT1*%
X14154001Y33274000D03*
%TO.P,MOD1,3,VDD_3*%
%TO.N,/3V3_ADXL*%
X11614001Y30734000D03*
%TO.P,MOD1,4,INT2_4*%
%TO.N,unconnected-(MOD1-INT2-Pad4)*%
X14154001Y30734000D03*
%TO.P,MOD1,5,GND_5*%
%TO.N,GND*%
X11614001Y28194000D03*
%TO.P,MOD1,6,DRDY_6*%
%TO.N,/ADXL DRDY*%
X14154001Y28194000D03*
%TO.P,MOD1,7,V1P8ANA_7*%
%TO.N,unconnected-(MOD1-V1P8ANA-Pad7)*%
X26854001Y33274000D03*
%TO.P,MOD1,8,CS/SCL_8*%
%TO.N,/ADXL CS*%
X29394001Y33274000D03*
%TO.P,MOD1,9,V1P8DIG_9*%
%TO.N,unconnected-(MOD1-V1P8DIG-Pad9)*%
X26854001Y30734000D03*
%TO.P,MOD1,10,SCLK/VSSIO_10*%
%TO.N,/ADXL SCLK*%
X29394001Y30734000D03*
%TO.P,MOD1,11,MISO/SDA_11*%
%TO.N,/ADXL SDO*%
X26854001Y28194000D03*
%TO.P,MOD1,12,MOSI/SDA_12*%
%TO.N,/ADXL SDI*%
X29394001Y28194000D03*
%TD*%
D11*
%TO.P,L1,1,1_1*%
%TO.N,Net-(U2-OUT)*%
X20250000Y54610000D03*
%TO.P,L1,2,2_2*%
%TO.N,/3V3_ADXL*%
X20250000Y46990000D03*
%TD*%
D21*
%TO.P,U1,1,Positive_Input_1*%
%TO.N,Net-(D1-K)*%
X53270000Y86360000D03*
D22*
%TO.P,U1,2,Common_(Ground)_2*%
%TO.N,GND*%
X53270000Y88900000D03*
%TO.P,U1,3,Positive_Output_3*%
%TO.N,/5V*%
X53270000Y91440000D03*
%TD*%
D19*
%TO.P,C4,1*%
%TO.N,/3V3_ADXL*%
X12630000Y47530000D03*
D11*
%TO.P,C4,2*%
%TO.N,GND*%
X12630000Y49530000D03*
%TD*%
D23*
%TO.P,U2,1,OUT_1*%
%TO.N,Net-(U2-OUT)*%
X27870000Y48260000D03*
D24*
%TO.P,U2,2,GND_2*%
%TO.N,GND*%
X27870000Y50800000D03*
%TO.P,U2,3,IN_3*%
%TO.N,/5V*%
X27870000Y53340000D03*
%TD*%
D25*
%TO.P,C2,1*%
%TO.N,/5V*%
X44380000Y95250000D03*
D11*
%TO.P,C2,2*%
%TO.N,GND*%
X40880000Y95250000D03*
%TD*%
%TO.P,C6,1,1_1*%
%TO.N,Net-(D1-K)*%
X45610000Y82550000D03*
%TO.P,C6,2,2_2*%
%TO.N,GND*%
X40610000Y82550000D03*
%TD*%
D26*
%TO.N,GND*%
X23425000Y75565000D03*
X25965000Y67310000D03*
%TD*%
%TA.AperFunction,Conductor*%
%TO.N,GND*%
G36*
X12955445Y30080001D02*
G01*
X12994487Y30034944D01*
X12998952Y30026180D01*
X13123891Y29854214D01*
X13274214Y29703891D01*
X13446183Y29578950D01*
X13454947Y29574484D01*
X13505743Y29526509D01*
X13522537Y29458688D01*
X13499999Y29392553D01*
X13454947Y29353516D01*
X13446183Y29349051D01*
X13274214Y29224110D01*
X13123891Y29073787D01*
X12998950Y28901818D01*
X12994203Y28892501D01*
X12946228Y28841707D01*
X12878406Y28824913D01*
X12812272Y28847452D01*
X12773235Y28892505D01*
X12768627Y28901548D01*
X12729271Y28955718D01*
X12729270Y28955718D01*
X12096963Y28323410D01*
X12079926Y28386993D01*
X12014100Y28501007D01*
X11921008Y28594099D01*
X11806994Y28659925D01*
X11743410Y28676963D01*
X12375717Y29309272D01*
X12321548Y29348627D01*
X12321548Y29348628D01*
X12312501Y29353237D01*
X12261707Y29401212D01*
X12244913Y29469034D01*
X12267452Y29535168D01*
X12312509Y29574207D01*
X12321817Y29578949D01*
X12401008Y29636485D01*
X12493787Y29703891D01*
X12493789Y29703894D01*
X12493793Y29703896D01*
X12644105Y29854208D01*
X12644107Y29854212D01*
X12644110Y29854214D01*
X12769049Y30026180D01*
X12769048Y30026180D01*
X12769052Y30026184D01*
X12773515Y30034946D01*
X12821489Y30085741D01*
X12889309Y30102537D01*
X12955445Y30080001D01*
G37*
%TD.AperFunction*%
%TA.AperFunction,Conductor*%
G36*
X48848536Y108759474D02*
G01*
X49138596Y108741929D01*
X49153459Y108740124D01*
X49435597Y108688420D01*
X49450134Y108684837D01*
X49723982Y108599502D01*
X49737963Y108594200D01*
X49999534Y108476476D01*
X50012787Y108469520D01*
X50258258Y108321129D01*
X50270576Y108312627D01*
X50496373Y108135726D01*
X50507581Y108125796D01*
X50710395Y107922982D01*
X50720325Y107911774D01*
X50897222Y107685983D01*
X50905728Y107673659D01*
X51054119Y107428188D01*
X51061077Y107414931D01*
X51178794Y107153377D01*
X51184104Y107139375D01*
X51269435Y106865536D01*
X51273019Y106850998D01*
X51324723Y106568860D01*
X51326528Y106553995D01*
X51344074Y106263937D01*
X51344300Y106256450D01*
X51344300Y102384309D01*
X51378408Y102257013D01*
X51411354Y102199950D01*
X51444300Y102142886D01*
X51444302Y102142884D01*
X59098181Y94489005D01*
X59131666Y94427682D01*
X59134500Y94401324D01*
X59134500Y27563677D01*
X59114815Y27496638D01*
X59098181Y27475996D01*
X50996120Y19373936D01*
X50970444Y19354233D01*
X50963981Y19350502D01*
X50870794Y19257314D01*
X50804902Y19143188D01*
X50770794Y19015892D01*
X50770794Y7733951D01*
X50770568Y7726464D01*
X50753022Y7436406D01*
X50751217Y7421541D01*
X50699513Y7139403D01*
X50695929Y7124865D01*
X50610598Y6851026D01*
X50605288Y6837024D01*
X50487571Y6575470D01*
X50480613Y6562213D01*
X50332222Y6316742D01*
X50323716Y6304418D01*
X50146819Y6078627D01*
X50136889Y6067419D01*
X49934075Y5864605D01*
X49922867Y5854675D01*
X49697076Y5677778D01*
X49684752Y5669272D01*
X49439281Y5520881D01*
X49426024Y5513923D01*
X49164470Y5396206D01*
X49150468Y5390896D01*
X48876629Y5305565D01*
X48862091Y5301981D01*
X48579953Y5250277D01*
X48565088Y5248472D01*
X48275030Y5230926D01*
X48267543Y5230700D01*
X17795045Y5230700D01*
X17787558Y5230926D01*
X17497499Y5248472D01*
X17482634Y5250277D01*
X17200496Y5301981D01*
X17185958Y5305565D01*
X16912119Y5390896D01*
X16898121Y5396205D01*
X16745390Y5464944D01*
X16636563Y5513923D01*
X16623306Y5520881D01*
X16377835Y5669272D01*
X16365511Y5677778D01*
X16139720Y5854675D01*
X16128512Y5864605D01*
X15925698Y6067419D01*
X15915768Y6078627D01*
X15738867Y6304424D01*
X15730365Y6316742D01*
X15581974Y6562213D01*
X15575016Y6575470D01*
X15457294Y6837037D01*
X15451992Y6851018D01*
X15366657Y7124866D01*
X15363074Y7139403D01*
X15311370Y7421541D01*
X15309565Y7436406D01*
X15292020Y7726464D01*
X15291794Y7733951D01*
X15291794Y9011289D01*
X17129500Y9011289D01*
X17129500Y8768712D01*
X17161161Y8528215D01*
X17223947Y8293896D01*
X17316773Y8069795D01*
X17316776Y8069788D01*
X17438064Y7859711D01*
X17438066Y7859708D01*
X17438067Y7859707D01*
X17585733Y7667264D01*
X17585739Y7667257D01*
X17757256Y7495740D01*
X17757262Y7495735D01*
X17949711Y7348064D01*
X18159788Y7226776D01*
X18383900Y7133946D01*
X18618211Y7071162D01*
X18798586Y7047416D01*
X18858711Y7039500D01*
X18858712Y7039500D01*
X19101289Y7039500D01*
X19149388Y7045833D01*
X19341789Y7071162D01*
X19576100Y7133946D01*
X19800212Y7226776D01*
X20010289Y7348064D01*
X20202738Y7495735D01*
X20374265Y7667262D01*
X20521936Y7859711D01*
X20643224Y8069788D01*
X20736054Y8293900D01*
X20798838Y8528211D01*
X20830500Y8768712D01*
X20830500Y9011288D01*
X20830500Y9011289D01*
X45129500Y9011289D01*
X45129500Y8768712D01*
X45161161Y8528215D01*
X45223947Y8293896D01*
X45316773Y8069795D01*
X45316776Y8069788D01*
X45438064Y7859711D01*
X45438066Y7859708D01*
X45438067Y7859707D01*
X45585733Y7667264D01*
X45585739Y7667257D01*
X45757256Y7495740D01*
X45757262Y7495735D01*
X45949711Y7348064D01*
X46159788Y7226776D01*
X46383900Y7133946D01*
X46618211Y7071162D01*
X46798586Y7047416D01*
X46858711Y7039500D01*
X46858712Y7039500D01*
X47101289Y7039500D01*
X47149388Y7045833D01*
X47341789Y7071162D01*
X47576100Y7133946D01*
X47800212Y7226776D01*
X48010289Y7348064D01*
X48202738Y7495735D01*
X48374265Y7667262D01*
X48521936Y7859711D01*
X48643224Y8069788D01*
X48736054Y8293900D01*
X48798838Y8528211D01*
X48830500Y8768712D01*
X48830500Y9011288D01*
X48798838Y9251789D01*
X48736054Y9486100D01*
X48643224Y9710212D01*
X48521936Y9920289D01*
X48374265Y10112738D01*
X48374260Y10112744D01*
X48202743Y10284261D01*
X48202736Y10284267D01*
X48010293Y10431933D01*
X48010292Y10431934D01*
X48010289Y10431936D01*
X47800212Y10553224D01*
X47800205Y10553227D01*
X47576104Y10646053D01*
X47341785Y10708839D01*
X47101289Y10740500D01*
X47101288Y10740500D01*
X46858712Y10740500D01*
X46858711Y10740500D01*
X46618214Y10708839D01*
X46383895Y10646053D01*
X46159794Y10553227D01*
X46159785Y10553223D01*
X45949706Y10431933D01*
X45757263Y10284267D01*
X45757256Y10284261D01*
X45585739Y10112744D01*
X45585733Y10112737D01*
X45438067Y9920294D01*
X45316777Y9710215D01*
X45316773Y9710206D01*
X45223947Y9486105D01*
X45161161Y9251786D01*
X45129500Y9011289D01*
X20830500Y9011289D01*
X20798838Y9251789D01*
X20736054Y9486100D01*
X20643224Y9710212D01*
X20521936Y9920289D01*
X20374265Y10112738D01*
X20374260Y10112744D01*
X20202743Y10284261D01*
X20202736Y10284267D01*
X20010293Y10431933D01*
X20010292Y10431934D01*
X20010289Y10431936D01*
X19800212Y10553224D01*
X19800205Y10553227D01*
X19576104Y10646053D01*
X19341785Y10708839D01*
X19101289Y10740500D01*
X19101288Y10740500D01*
X18858712Y10740500D01*
X18858711Y10740500D01*
X18618214Y10708839D01*
X18383895Y10646053D01*
X18159794Y10553227D01*
X18159785Y10553223D01*
X17949706Y10431933D01*
X17757263Y10284267D01*
X17757256Y10284261D01*
X17585739Y10112744D01*
X17585733Y10112737D01*
X17438067Y9920294D01*
X17316777Y9710215D01*
X17316773Y9710206D01*
X17223947Y9486105D01*
X17161161Y9251786D01*
X17129500Y9011289D01*
X15291794Y9011289D01*
X15291794Y12765890D01*
X15291794Y12765892D01*
X15257686Y12893186D01*
X15191794Y13007314D01*
X15098608Y13100500D01*
X7466819Y20732289D01*
X7433334Y20793612D01*
X7430500Y20819970D01*
X7430500Y23489289D01*
X11287501Y23489289D01*
X11287501Y23246712D01*
X11319162Y23006215D01*
X11381948Y22771896D01*
X11474774Y22547795D01*
X11474777Y22547788D01*
X11596065Y22337711D01*
X11596067Y22337708D01*
X11596068Y22337707D01*
X11743734Y22145264D01*
X11743740Y22145257D01*
X11915257Y21973740D01*
X11915263Y21973735D01*
X12107712Y21826064D01*
X12317789Y21704776D01*
X12541901Y21611946D01*
X12776212Y21549162D01*
X12956587Y21525416D01*
X13016712Y21517500D01*
X13016713Y21517500D01*
X13259290Y21517500D01*
X13307389Y21523833D01*
X13499790Y21549162D01*
X13734101Y21611946D01*
X13958213Y21704776D01*
X14168290Y21826064D01*
X14360739Y21973735D01*
X14532266Y22145262D01*
X14679937Y22337711D01*
X14801225Y22547788D01*
X14894055Y22771900D01*
X14956839Y23006211D01*
X14988501Y23246712D01*
X14988501Y23489288D01*
X14988501Y23489289D01*
X26019500Y23489289D01*
X26019500Y23246712D01*
X26051161Y23006215D01*
X26113947Y22771896D01*
X26206773Y22547795D01*
X26206776Y22547788D01*
X26328064Y22337711D01*
X26328066Y22337708D01*
X26328067Y22337707D01*
X26475733Y22145264D01*
X26475739Y22145257D01*
X26647256Y21973740D01*
X26647262Y21973735D01*
X26839711Y21826064D01*
X27049788Y21704776D01*
X27273900Y21611946D01*
X27508211Y21549162D01*
X27688586Y21525416D01*
X27748711Y21517500D01*
X27748712Y21517500D01*
X27991289Y21517500D01*
X28039388Y21523833D01*
X28231789Y21549162D01*
X28466100Y21611946D01*
X28690212Y21704776D01*
X28900289Y21826064D01*
X29092738Y21973735D01*
X29264265Y22145262D01*
X29411936Y22337711D01*
X29533224Y22547788D01*
X29626054Y22771900D01*
X29688838Y23006211D01*
X29720500Y23246712D01*
X29720500Y23489288D01*
X29688838Y23729789D01*
X29626054Y23964100D01*
X29533224Y24188212D01*
X29411936Y24398289D01*
X29264265Y24590738D01*
X29264260Y24590744D01*
X29092743Y24762261D01*
X29092736Y24762267D01*
X28900293Y24909933D01*
X28900292Y24909934D01*
X28900289Y24909936D01*
X28690212Y25031224D01*
X28690205Y25031227D01*
X28466104Y25124053D01*
X28231785Y25186839D01*
X27991289Y25218500D01*
X27991288Y25218500D01*
X27748712Y25218500D01*
X27748711Y25218500D01*
X27508214Y25186839D01*
X27273895Y25124053D01*
X27049794Y25031227D01*
X27049785Y25031223D01*
X26839706Y24909933D01*
X26647263Y24762267D01*
X26647256Y24762261D01*
X26475739Y24590744D01*
X26475733Y24590737D01*
X26328067Y24398294D01*
X26206777Y24188215D01*
X26206773Y24188206D01*
X26113947Y23964105D01*
X26051161Y23729786D01*
X26019500Y23489289D01*
X14988501Y23489289D01*
X14956839Y23729789D01*
X14894055Y23964100D01*
X14801225Y24188212D01*
X14679937Y24398289D01*
X14532266Y24590738D01*
X14532261Y24590744D01*
X14360744Y24762261D01*
X14360737Y24762267D01*
X14168294Y24909933D01*
X14168293Y24909934D01*
X14168290Y24909936D01*
X13958213Y25031224D01*
X13958206Y25031227D01*
X13734105Y25124053D01*
X13499786Y25186839D01*
X13259290Y25218500D01*
X13259289Y25218500D01*
X13016713Y25218500D01*
X13016712Y25218500D01*
X12776215Y25186839D01*
X12541896Y25124053D01*
X12317795Y25031227D01*
X12317786Y25031223D01*
X12107707Y24909933D01*
X11915264Y24762267D01*
X11915257Y24762261D01*
X11743740Y24590744D01*
X11743734Y24590737D01*
X11596068Y24398294D01*
X11474778Y24188215D01*
X11474774Y24188206D01*
X11381948Y23964105D01*
X11319162Y23729786D01*
X11287501Y23489289D01*
X7430500Y23489289D01*
X7430500Y33380287D01*
X10263501Y33380287D01*
X10263501Y33167714D01*
X10295914Y32963063D01*
X10296755Y32957757D01*
X10337464Y32832467D01*
X10362445Y32755586D01*
X10458952Y32566180D01*
X10583891Y32394214D01*
X10734214Y32243891D01*
X10906183Y32118950D01*
X10914947Y32114484D01*
X10965743Y32066509D01*
X10982537Y31998688D01*
X10959999Y31932553D01*
X10914947Y31893516D01*
X10906183Y31889051D01*
X10734214Y31764110D01*
X10583891Y31613787D01*
X10458952Y31441821D01*
X10362445Y31252415D01*
X10296754Y31050240D01*
X10263501Y30840287D01*
X10263501Y30627714D01*
X10288670Y30468800D01*
X10296755Y30417757D01*
X10327775Y30322287D01*
X10362445Y30215586D01*
X10458952Y30026180D01*
X10583891Y29854214D01*
X10734214Y29703891D01*
X10906180Y29578952D01*
X10906182Y29578951D01*
X10906185Y29578949D01*
X10915494Y29574206D01*
X10966291Y29526234D01*
X10983088Y29458413D01*
X10960553Y29392278D01*
X10915506Y29353240D01*
X10906447Y29348624D01*
X10906441Y29348620D01*
X10852283Y29309273D01*
X10852283Y29309272D01*
X11484592Y28676963D01*
X11421008Y28659925D01*
X11306994Y28594099D01*
X11213902Y28501007D01*
X11148076Y28386993D01*
X11131038Y28323409D01*
X10498729Y28955718D01*
X10498728Y28955718D01*
X10459381Y28901561D01*
X10362905Y28712218D01*
X10297243Y28510131D01*
X10297243Y28510128D01*
X10264001Y28300247D01*
X10264001Y28087754D01*
X10297243Y27877873D01*
X10297243Y27877870D01*
X10362905Y27675783D01*
X10459376Y27486450D01*
X10498729Y27432284D01*
X11131038Y28064592D01*
X11148076Y28001007D01*
X11213902Y27886993D01*
X11306994Y27793901D01*
X11421008Y27728075D01*
X11484591Y27711038D01*
X10852283Y27078731D01*
X10852283Y27078730D01*
X10906450Y27039376D01*
X11095783Y26942905D01*
X11297871Y26877243D01*
X11507755Y26844000D01*
X11720247Y26844000D01*
X11930128Y26877243D01*
X11930131Y26877243D01*
X12132218Y26942905D01*
X12321555Y27039378D01*
X12375717Y27078730D01*
X12375718Y27078730D01*
X11743409Y27711038D01*
X11806994Y27728075D01*
X11921008Y27793901D01*
X12014100Y27886993D01*
X12079926Y28001007D01*
X12096963Y28064592D01*
X12729271Y27432283D01*
X12729271Y27432284D01*
X12768623Y27486445D01*
X12773233Y27495493D01*
X12821206Y27546291D01*
X12889026Y27563088D01*
X12955162Y27540553D01*
X12994205Y27495496D01*
X12998950Y27486183D01*
X13123891Y27314214D01*
X13274214Y27163891D01*
X13446180Y27038952D01*
X13446182Y27038951D01*
X13446185Y27038949D01*
X13635589Y26942443D01*
X13837758Y26876754D01*
X14047714Y26843500D01*
X14047715Y26843500D01*
X14260287Y26843500D01*
X14260288Y26843500D01*
X14470244Y26876754D01*
X14672413Y26942443D01*
X14861817Y27038949D01*
X14955226Y27106814D01*
X15033787Y27163891D01*
X15033789Y27163894D01*
X15033793Y27163896D01*
X15184105Y27314208D01*
X15184107Y27314212D01*
X15184110Y27314214D01*
X15309049Y27486180D01*
X15309051Y27486183D01*
X15309052Y27486184D01*
X15405558Y27675588D01*
X15471247Y27877757D01*
X15504501Y28087713D01*
X15504501Y28300287D01*
X15471247Y28510243D01*
X15405558Y28712412D01*
X15309052Y28901816D01*
X15309050Y28901819D01*
X15309049Y28901821D01*
X15184110Y29073787D01*
X15033787Y29224110D01*
X14861821Y29349049D01*
X14853601Y29353237D01*
X14853055Y29353515D01*
X14802260Y29401488D01*
X14785464Y29469308D01*
X14808000Y29535444D01*
X14853055Y29574485D01*
X14861817Y29578949D01*
X14883790Y29594914D01*
X15033787Y29703891D01*
X15033789Y29703894D01*
X15033793Y29703896D01*
X15184105Y29854208D01*
X15184107Y29854212D01*
X15184110Y29854214D01*
X15309049Y30026180D01*
X15309048Y30026180D01*
X15309052Y30026184D01*
X15405558Y30215588D01*
X15471247Y30417757D01*
X15504501Y30627713D01*
X15504501Y30840287D01*
X15471247Y31050243D01*
X15405558Y31252412D01*
X15309052Y31441816D01*
X15309050Y31441819D01*
X15309049Y31441821D01*
X15184110Y31613787D01*
X15033787Y31764110D01*
X14861821Y31889049D01*
X14861116Y31889409D01*
X14853055Y31893515D01*
X14802260Y31941488D01*
X14785464Y32009308D01*
X14808000Y32075444D01*
X14853055Y32114485D01*
X14861817Y32118949D01*
X14904692Y32150099D01*
X15033787Y32243891D01*
X15033789Y32243894D01*
X15033793Y32243896D01*
X15184105Y32394208D01*
X15184105Y32394209D01*
X15184108Y32394211D01*
X15184110Y32394214D01*
X15309049Y32566180D01*
X15309048Y32566180D01*
X15309052Y32566184D01*
X15405558Y32755588D01*
X15471247Y32957757D01*
X15504501Y33167713D01*
X15504501Y33380287D01*
X25503501Y33380287D01*
X25503501Y33167714D01*
X25535914Y32963063D01*
X25536755Y32957757D01*
X25577464Y32832467D01*
X25602445Y32755586D01*
X25698952Y32566180D01*
X25823891Y32394214D01*
X25974214Y32243891D01*
X26146183Y32118950D01*
X26154947Y32114484D01*
X26205743Y32066509D01*
X26222537Y31998688D01*
X26199999Y31932553D01*
X26154947Y31893516D01*
X26146183Y31889051D01*
X25974214Y31764110D01*
X25823891Y31613787D01*
X25698952Y31441821D01*
X25602445Y31252415D01*
X25536754Y31050240D01*
X25503501Y30840287D01*
X25503501Y30627714D01*
X25528670Y30468800D01*
X25536755Y30417757D01*
X25567775Y30322287D01*
X25602445Y30215586D01*
X25698952Y30026180D01*
X25823891Y29854214D01*
X25974214Y29703891D01*
X26146183Y29578950D01*
X26154947Y29574484D01*
X26205743Y29526509D01*
X26222537Y29458688D01*
X26199999Y29392553D01*
X26154947Y29353516D01*
X26146183Y29349051D01*
X25974214Y29224110D01*
X25823891Y29073787D01*
X25698952Y28901821D01*
X25602445Y28712415D01*
X25536754Y28510240D01*
X25503501Y28300287D01*
X25503501Y28087714D01*
X25536736Y27877873D01*
X25536755Y27877757D01*
X25567775Y27782287D01*
X25602445Y27675586D01*
X25698952Y27486180D01*
X25823891Y27314214D01*
X25974214Y27163891D01*
X26146180Y27038952D01*
X26146182Y27038951D01*
X26146185Y27038949D01*
X26335589Y26942443D01*
X26537758Y26876754D01*
X26747714Y26843500D01*
X26747715Y26843500D01*
X26960287Y26843500D01*
X26960288Y26843500D01*
X27170244Y26876754D01*
X27372413Y26942443D01*
X27561817Y27038949D01*
X27655226Y27106814D01*
X27733787Y27163891D01*
X27733789Y27163894D01*
X27733793Y27163896D01*
X27884105Y27314208D01*
X27884107Y27314212D01*
X27884110Y27314214D01*
X28009049Y27486180D01*
X28009051Y27486183D01*
X28009052Y27486184D01*
X28013515Y27494946D01*
X28061489Y27545741D01*
X28129309Y27562537D01*
X28195445Y27540001D01*
X28234487Y27494944D01*
X28238952Y27486180D01*
X28363891Y27314214D01*
X28514214Y27163891D01*
X28686180Y27038952D01*
X28686182Y27038951D01*
X28686185Y27038949D01*
X28875589Y26942443D01*
X29077758Y26876754D01*
X29287714Y26843500D01*
X29287715Y26843500D01*
X29500287Y26843500D01*
X29500288Y26843500D01*
X29710244Y26876754D01*
X29912413Y26942443D01*
X30101817Y27038949D01*
X30195226Y27106814D01*
X30273787Y27163891D01*
X30273789Y27163894D01*
X30273793Y27163896D01*
X30424105Y27314208D01*
X30424107Y27314212D01*
X30424110Y27314214D01*
X30549049Y27486180D01*
X30549051Y27486183D01*
X30549052Y27486184D01*
X30645558Y27675588D01*
X30711247Y27877757D01*
X30744501Y28087713D01*
X30744501Y28300287D01*
X30711247Y28510243D01*
X30645558Y28712412D01*
X30549052Y28901816D01*
X30549050Y28901819D01*
X30549049Y28901821D01*
X30424110Y29073787D01*
X30273789Y29224108D01*
X30101821Y29349049D01*
X30093601Y29353237D01*
X30093055Y29353515D01*
X30042260Y29401488D01*
X30025464Y29469308D01*
X30048000Y29535444D01*
X30093055Y29574485D01*
X30101817Y29578949D01*
X30123790Y29594914D01*
X30273787Y29703891D01*
X30273789Y29703894D01*
X30273793Y29703896D01*
X30424105Y29854208D01*
X30424107Y29854212D01*
X30424110Y29854214D01*
X30549049Y30026180D01*
X30549048Y30026180D01*
X30549052Y30026184D01*
X30645558Y30215588D01*
X30711247Y30417757D01*
X30744501Y30627713D01*
X30744501Y30840287D01*
X30711247Y31050243D01*
X30645558Y31252412D01*
X30549052Y31441816D01*
X30549050Y31441819D01*
X30549049Y31441821D01*
X30424110Y31613787D01*
X30273787Y31764110D01*
X30101821Y31889049D01*
X30101116Y31889409D01*
X30093055Y31893515D01*
X30042260Y31941488D01*
X30025464Y32009308D01*
X30048000Y32075444D01*
X30093055Y32114485D01*
X30101817Y32118949D01*
X30144692Y32150099D01*
X30273787Y32243891D01*
X30273789Y32243894D01*
X30273793Y32243896D01*
X30424105Y32394208D01*
X30424105Y32394209D01*
X30424108Y32394211D01*
X30424110Y32394214D01*
X30549049Y32566180D01*
X30549048Y32566180D01*
X30549052Y32566184D01*
X30645558Y32755588D01*
X30711247Y32957757D01*
X30744501Y33167713D01*
X30744501Y33380287D01*
X30711247Y33590243D01*
X30645558Y33792412D01*
X30549052Y33981816D01*
X30549050Y33981819D01*
X30549049Y33981821D01*
X30424110Y34153787D01*
X30273787Y34304110D01*
X30101821Y34429049D01*
X29912415Y34525556D01*
X29912414Y34525557D01*
X29912413Y34525557D01*
X29710244Y34591246D01*
X29710242Y34591247D01*
X29710241Y34591247D01*
X29548958Y34616792D01*
X29500288Y34624500D01*
X29287714Y34624500D01*
X29239043Y34616792D01*
X29077761Y34591247D01*
X28875586Y34525556D01*
X28686180Y34429049D01*
X28514214Y34304110D01*
X28363891Y34153787D01*
X28238950Y33981818D01*
X28234485Y33973054D01*
X28186510Y33922258D01*
X28118689Y33905464D01*
X28052554Y33928002D01*
X28013517Y33973054D01*
X28009051Y33981818D01*
X27884110Y34153787D01*
X27733787Y34304110D01*
X27561821Y34429049D01*
X27372415Y34525556D01*
X27372414Y34525557D01*
X27372413Y34525557D01*
X27170244Y34591246D01*
X27170242Y34591247D01*
X27170241Y34591247D01*
X27008958Y34616792D01*
X26960288Y34624500D01*
X26747714Y34624500D01*
X26699043Y34616792D01*
X26537761Y34591247D01*
X26335586Y34525556D01*
X26146180Y34429049D01*
X25974214Y34304110D01*
X25823891Y34153787D01*
X25698952Y33981821D01*
X25602445Y33792415D01*
X25536754Y33590240D01*
X25503501Y33380287D01*
X15504501Y33380287D01*
X15471247Y33590243D01*
X15405558Y33792412D01*
X15309052Y33981816D01*
X15309050Y33981819D01*
X15309049Y33981821D01*
X15184110Y34153787D01*
X15033787Y34304110D01*
X14861821Y34429049D01*
X14672415Y34525556D01*
X14672414Y34525557D01*
X14672413Y34525557D01*
X14470244Y34591246D01*
X14470242Y34591247D01*
X14470241Y34591247D01*
X14308958Y34616792D01*
X14260288Y34624500D01*
X14047714Y34624500D01*
X13999043Y34616792D01*
X13837761Y34591247D01*
X13635586Y34525556D01*
X13446180Y34429049D01*
X13274214Y34304110D01*
X13123891Y34153787D01*
X12998950Y33981818D01*
X12994485Y33973054D01*
X12946510Y33922258D01*
X12878689Y33905464D01*
X12812554Y33928002D01*
X12773517Y33973054D01*
X12769051Y33981818D01*
X12644110Y34153787D01*
X12493787Y34304110D01*
X12321821Y34429049D01*
X12132415Y34525556D01*
X12132414Y34525557D01*
X12132413Y34525557D01*
X11930244Y34591246D01*
X11930242Y34591247D01*
X11930241Y34591247D01*
X11768958Y34616792D01*
X11720288Y34624500D01*
X11507714Y34624500D01*
X11459043Y34616792D01*
X11297761Y34591247D01*
X11095586Y34525556D01*
X10906180Y34429049D01*
X10734214Y34304110D01*
X10583891Y34153787D01*
X10458952Y33981821D01*
X10362445Y33792415D01*
X10296754Y33590240D01*
X10263501Y33380287D01*
X7430500Y33380287D01*
X7430500Y38221289D01*
X11287501Y38221289D01*
X11287501Y37978712D01*
X11319162Y37738215D01*
X11381948Y37503896D01*
X11454300Y37329224D01*
X11474777Y37279788D01*
X11596065Y37069711D01*
X11596067Y37069708D01*
X11596068Y37069707D01*
X11743734Y36877264D01*
X11743740Y36877257D01*
X11915257Y36705740D01*
X11915263Y36705735D01*
X12107712Y36558064D01*
X12317789Y36436776D01*
X12541901Y36343946D01*
X12776212Y36281162D01*
X12956587Y36257416D01*
X13016712Y36249500D01*
X13016713Y36249500D01*
X13259290Y36249500D01*
X13307389Y36255833D01*
X13499790Y36281162D01*
X13734101Y36343946D01*
X13958213Y36436776D01*
X14168290Y36558064D01*
X14360739Y36705735D01*
X14532266Y36877262D01*
X14679937Y37069711D01*
X14801225Y37279788D01*
X14894055Y37503900D01*
X14956839Y37738211D01*
X14988501Y37978712D01*
X14988501Y38221288D01*
X14988501Y38221289D01*
X26019500Y38221289D01*
X26019500Y37978712D01*
X26051161Y37738215D01*
X26113947Y37503896D01*
X26186299Y37329224D01*
X26206776Y37279788D01*
X26328064Y37069711D01*
X26328066Y37069708D01*
X26328067Y37069707D01*
X26475733Y36877264D01*
X26475739Y36877257D01*
X26647256Y36705740D01*
X26647262Y36705735D01*
X26839711Y36558064D01*
X27049788Y36436776D01*
X27273900Y36343946D01*
X27508211Y36281162D01*
X27688586Y36257416D01*
X27748711Y36249500D01*
X27748712Y36249500D01*
X27991289Y36249500D01*
X28039388Y36255833D01*
X28231789Y36281162D01*
X28466100Y36343946D01*
X28690212Y36436776D01*
X28900289Y36558064D01*
X29092738Y36705735D01*
X29264265Y36877262D01*
X29411936Y37069711D01*
X29533224Y37279788D01*
X29626054Y37503900D01*
X29688838Y37738211D01*
X29720500Y37978712D01*
X29720500Y38221288D01*
X29688838Y38461789D01*
X29626054Y38696100D01*
X29533224Y38920212D01*
X29411936Y39130289D01*
X29264265Y39322738D01*
X29264260Y39322744D01*
X29092743Y39494261D01*
X29092736Y39494267D01*
X28900293Y39641933D01*
X28900292Y39641934D01*
X28900289Y39641936D01*
X28690212Y39763224D01*
X28690205Y39763227D01*
X28466104Y39856053D01*
X28231785Y39918839D01*
X27991289Y39950500D01*
X27991288Y39950500D01*
X27748712Y39950500D01*
X27748711Y39950500D01*
X27508214Y39918839D01*
X27273895Y39856053D01*
X27049794Y39763227D01*
X27049785Y39763223D01*
X26839706Y39641933D01*
X26647263Y39494267D01*
X26647256Y39494261D01*
X26475739Y39322744D01*
X26475733Y39322737D01*
X26328067Y39130294D01*
X26206777Y38920215D01*
X26206773Y38920206D01*
X26113947Y38696105D01*
X26051161Y38461786D01*
X26019500Y38221289D01*
X14988501Y38221289D01*
X14956839Y38461789D01*
X14894055Y38696100D01*
X14801225Y38920212D01*
X14679937Y39130289D01*
X14532266Y39322738D01*
X14532261Y39322744D01*
X14360744Y39494261D01*
X14360737Y39494267D01*
X14168294Y39641933D01*
X14168293Y39641934D01*
X14168290Y39641936D01*
X13958213Y39763224D01*
X13958206Y39763227D01*
X13734105Y39856053D01*
X13499786Y39918839D01*
X13259290Y39950500D01*
X13259289Y39950500D01*
X13016713Y39950500D01*
X13016712Y39950500D01*
X12776215Y39918839D01*
X12541896Y39856053D01*
X12317795Y39763227D01*
X12317786Y39763223D01*
X12107707Y39641933D01*
X11915264Y39494267D01*
X11915257Y39494261D01*
X11743740Y39322744D01*
X11743734Y39322737D01*
X11596068Y39130294D01*
X11474778Y38920215D01*
X11474774Y38920206D01*
X11381948Y38696105D01*
X11319162Y38461786D01*
X11287501Y38221289D01*
X7430500Y38221289D01*
X7430500Y43282352D01*
X8829500Y43282352D01*
X8829500Y43077649D01*
X8861522Y42875466D01*
X8924781Y42680777D01*
X8970213Y42591614D01*
X9017585Y42498641D01*
X9017715Y42498387D01*
X9138028Y42332787D01*
X9282786Y42188029D01*
X9403226Y42100526D01*
X9448390Y42067713D01*
X9557042Y42012352D01*
X9630776Y41974782D01*
X9630778Y41974782D01*
X9630781Y41974780D01*
X9735137Y41940873D01*
X9825465Y41911523D01*
X9926557Y41895512D01*
X10027648Y41879500D01*
X10027649Y41879500D01*
X10232351Y41879500D01*
X10232352Y41879500D01*
X10434534Y41911523D01*
X10629219Y41974780D01*
X10811610Y42067713D01*
X10904590Y42135268D01*
X10977213Y42188029D01*
X10977215Y42188032D01*
X10977219Y42188034D01*
X11121966Y42332781D01*
X11121968Y42332785D01*
X11121971Y42332787D01*
X11177505Y42409224D01*
X11242287Y42498390D01*
X11335220Y42680781D01*
X11398477Y42875466D01*
X11430500Y43077648D01*
X11430500Y43282318D01*
X13830000Y43282318D01*
X13830000Y43077683D01*
X13862009Y42875583D01*
X13925244Y42680969D01*
X14018141Y42498650D01*
X14018147Y42498641D01*
X14050523Y42454079D01*
X14050524Y42454078D01*
X14730000Y43133554D01*
X14730000Y43127339D01*
X14757259Y43025606D01*
X14809920Y42934394D01*
X14884394Y42859920D01*
X14975606Y42807259D01*
X15077339Y42780000D01*
X15083553Y42780000D01*
X14404076Y42100526D01*
X14448650Y42068141D01*
X14630968Y41975245D01*
X14825582Y41912010D01*
X15027683Y41880000D01*
X15232317Y41880000D01*
X15434417Y41912010D01*
X15629031Y41975245D01*
X15811349Y42068141D01*
X15855921Y42100526D01*
X15176447Y42780000D01*
X15182661Y42780000D01*
X15284394Y42807259D01*
X15375606Y42859920D01*
X15450080Y42934394D01*
X15502741Y43025606D01*
X15530000Y43127339D01*
X15530000Y43133553D01*
X16209474Y42454079D01*
X16241859Y42498651D01*
X16334755Y42680969D01*
X16397990Y42875583D01*
X16430000Y43077683D01*
X16430000Y43282318D01*
X16397990Y43484418D01*
X16334755Y43679032D01*
X16241859Y43861350D01*
X16209474Y43905923D01*
X16209474Y43905924D01*
X15530000Y43226449D01*
X15530000Y43232661D01*
X15502741Y43334394D01*
X15450080Y43425606D01*
X15375606Y43500080D01*
X15284394Y43552741D01*
X15182661Y43580000D01*
X15176446Y43580000D01*
X15855922Y44259476D01*
X15855921Y44259477D01*
X15811359Y44291853D01*
X15811350Y44291859D01*
X15629031Y44384756D01*
X15539316Y44413906D01*
X15434417Y44447991D01*
X15232317Y44480000D01*
X15027683Y44480000D01*
X14825582Y44447991D01*
X14630968Y44384756D01*
X14448644Y44291857D01*
X14404077Y44259477D01*
X14404077Y44259476D01*
X15083554Y43580000D01*
X15077339Y43580000D01*
X14975606Y43552741D01*
X14884394Y43500080D01*
X14809920Y43425606D01*
X14757259Y43334394D01*
X14730000Y43232661D01*
X14730000Y43226447D01*
X14050524Y43905923D01*
X14050523Y43905923D01*
X14018143Y43861356D01*
X13925244Y43679032D01*
X13862009Y43484418D01*
X13830000Y43282318D01*
X11430500Y43282318D01*
X11430500Y43282352D01*
X11424355Y43321151D01*
X11398477Y43484535D01*
X11338882Y43667947D01*
X11335220Y43679219D01*
X11335218Y43679222D01*
X11335218Y43679224D01*
X11268474Y43810215D01*
X11242287Y43861610D01*
X11210092Y43905923D01*
X11121971Y44027214D01*
X10977213Y44171972D01*
X10811613Y44292285D01*
X10811612Y44292286D01*
X10811610Y44292287D01*
X10754653Y44321309D01*
X10629223Y44385219D01*
X10434534Y44448478D01*
X10259995Y44476122D01*
X10232352Y44480500D01*
X10027648Y44480500D01*
X10003329Y44476649D01*
X9825465Y44448478D01*
X9630776Y44385219D01*
X9448386Y44292285D01*
X9282786Y44171972D01*
X9138028Y44027214D01*
X9017715Y43861614D01*
X8924781Y43679224D01*
X8861522Y43484535D01*
X8829500Y43282352D01*
X7430500Y43282352D01*
X7430500Y48130017D01*
X11329500Y48130017D01*
X11329500Y46929999D01*
X11329501Y46929982D01*
X11340000Y46827204D01*
X11340001Y46827201D01*
X11386968Y46685466D01*
X11395186Y46660666D01*
X11487288Y46511344D01*
X11611344Y46387288D01*
X11760666Y46295186D01*
X11927203Y46240001D01*
X12029991Y46229500D01*
X13230008Y46229501D01*
X13332797Y46240001D01*
X13499334Y46295186D01*
X13648656Y46387288D01*
X13772712Y46511344D01*
X13864814Y46660666D01*
X13919999Y46827203D01*
X13930500Y46929991D01*
X13930500Y47092352D01*
X18949500Y47092352D01*
X18949500Y46887649D01*
X18981522Y46685466D01*
X19044781Y46490777D01*
X19137715Y46308387D01*
X19258028Y46142787D01*
X19402786Y45998029D01*
X19555741Y45886903D01*
X19568390Y45877713D01*
X19684607Y45818497D01*
X19750776Y45784782D01*
X19750778Y45784782D01*
X19750781Y45784780D01*
X19840911Y45755495D01*
X19945465Y45721523D01*
X20046557Y45705512D01*
X20147648Y45689500D01*
X20147649Y45689500D01*
X20352351Y45689500D01*
X20352352Y45689500D01*
X20554534Y45721523D01*
X20749219Y45784780D01*
X20931610Y45877713D01*
X21024590Y45945268D01*
X21097213Y45998029D01*
X21097215Y45998032D01*
X21097219Y45998034D01*
X21241966Y46142781D01*
X21241968Y46142785D01*
X21241971Y46142787D01*
X21294732Y46215410D01*
X21362287Y46308390D01*
X21455220Y46490781D01*
X21518477Y46685466D01*
X21550500Y46887648D01*
X21550500Y47092352D01*
X21518477Y47294534D01*
X21455220Y47489219D01*
X21455218Y47489222D01*
X21455218Y47489224D01*
X21421503Y47555393D01*
X21362287Y47671610D01*
X21354556Y47682251D01*
X21241971Y47837214D01*
X21097213Y47981972D01*
X20931613Y48102285D01*
X20931612Y48102286D01*
X20931610Y48102287D01*
X20874653Y48131309D01*
X20749223Y48195219D01*
X20554534Y48258478D01*
X20379995Y48286122D01*
X20352352Y48290500D01*
X20147648Y48290500D01*
X20123329Y48286649D01*
X19945465Y48258478D01*
X19750776Y48195219D01*
X19568386Y48102285D01*
X19402786Y47981972D01*
X19258028Y47837214D01*
X19137715Y47671614D01*
X19044781Y47489224D01*
X18981522Y47294535D01*
X18949500Y47092352D01*
X13930500Y47092352D01*
X13930499Y48130008D01*
X13924518Y48188554D01*
X13919999Y48232797D01*
X13919998Y48232800D01*
X13890271Y48322510D01*
X13864814Y48399334D01*
X13772712Y48548656D01*
X13703488Y48617880D01*
X13670003Y48679203D01*
X13674987Y48748895D01*
X13690852Y48778448D01*
X13741858Y48848651D01*
X13741863Y48848659D01*
X13834755Y49030969D01*
X13857027Y49099513D01*
X13897990Y49225583D01*
X13930000Y49427683D01*
X13930000Y49632318D01*
X13897990Y49834418D01*
X13834755Y50029032D01*
X13741859Y50211350D01*
X13709474Y50255923D01*
X13709474Y50255924D01*
X13030000Y49576449D01*
X13030000Y49582661D01*
X13002741Y49684394D01*
X12950080Y49775606D01*
X12875606Y49850080D01*
X12784394Y49902741D01*
X12682661Y49930000D01*
X12676446Y49930000D01*
X13355922Y50609476D01*
X13355921Y50609477D01*
X13311359Y50641853D01*
X13311350Y50641859D01*
X13129031Y50734756D01*
X12973418Y50785318D01*
X12973417Y50785319D01*
X12934419Y50797990D01*
X12732317Y50830000D01*
X12527683Y50830000D01*
X12325582Y50797991D01*
X12130968Y50734756D01*
X11948644Y50641857D01*
X11904077Y50609477D01*
X11904077Y50609476D01*
X12583554Y49930000D01*
X12577339Y49930000D01*
X12475606Y49902741D01*
X12384394Y49850080D01*
X12309920Y49775606D01*
X12257259Y49684394D01*
X12230000Y49582661D01*
X12230000Y49576447D01*
X11550524Y50255923D01*
X11550523Y50255923D01*
X11518143Y50211356D01*
X11425244Y50029032D01*
X11362009Y49834418D01*
X11330000Y49632318D01*
X11330000Y49427683D01*
X11362009Y49225583D01*
X11425244Y49030969D01*
X11518142Y48848648D01*
X11569147Y48778445D01*
X11592627Y48712639D01*
X11576802Y48644585D01*
X11556511Y48617879D01*
X11487287Y48548655D01*
X11395187Y48399337D01*
X11395186Y48399334D01*
X11340001Y48232797D01*
X11340001Y48232796D01*
X11340000Y48232796D01*
X11329500Y48130017D01*
X7430500Y48130017D01*
X7430500Y54712352D01*
X18949500Y54712352D01*
X18949500Y54507649D01*
X18981522Y54305466D01*
X19044781Y54110777D01*
X19137715Y53928387D01*
X19258028Y53762787D01*
X19402786Y53618029D01*
X19557749Y53505444D01*
X19568390Y53497713D01*
X19661080Y53450485D01*
X19750776Y53404782D01*
X19750778Y53404782D01*
X19750781Y53404780D01*
X19855137Y53370873D01*
X19945465Y53341523D01*
X19964697Y53338477D01*
X20147648Y53309500D01*
X20147649Y53309500D01*
X20352351Y53309500D01*
X20352352Y53309500D01*
X20554534Y53341523D01*
X20749219Y53404780D01*
X20815247Y53438423D01*
X26619500Y53438423D01*
X26619500Y53241578D01*
X26650290Y53047174D01*
X26711117Y52859971D01*
X26766328Y52751614D01*
X26800476Y52684595D01*
X26916172Y52525354D01*
X27055354Y52386172D01*
X27174784Y52299400D01*
X27214596Y52270475D01*
X27391763Y52180205D01*
X27442560Y52132231D01*
X27459355Y52064410D01*
X27436818Y51998275D01*
X27391764Y51959235D01*
X27214859Y51869098D01*
X27179873Y51843680D01*
X27179872Y51843680D01*
X27823554Y51200000D01*
X27817339Y51200000D01*
X27715606Y51172741D01*
X27624394Y51120080D01*
X27549920Y51045606D01*
X27497259Y50954394D01*
X27470000Y50852661D01*
X27470000Y50846448D01*
X26826320Y51490128D01*
X26826320Y51490127D01*
X26800902Y51455141D01*
X26800899Y51455137D01*
X26711582Y51279839D01*
X26650778Y51092706D01*
X26620000Y50898383D01*
X26620000Y50701618D01*
X26650778Y50507295D01*
X26711581Y50320165D01*
X26800905Y50144855D01*
X26826319Y50109875D01*
X26826320Y50109875D01*
X27470000Y50753555D01*
X27470000Y50747339D01*
X27497259Y50645606D01*
X27549920Y50554394D01*
X27624394Y50479920D01*
X27715606Y50427259D01*
X27817339Y50400000D01*
X27823553Y50400000D01*
X27179873Y49756323D01*
X27179873Y49756322D01*
X27209470Y49734819D01*
X27252137Y49679490D01*
X27258117Y49609876D01*
X27225512Y49548081D01*
X27164673Y49513723D01*
X27136588Y49510500D01*
X27072130Y49510500D01*
X27072123Y49510499D01*
X27012516Y49504092D01*
X26877671Y49453798D01*
X26877664Y49453794D01*
X26762455Y49367548D01*
X26762452Y49367545D01*
X26676206Y49252336D01*
X26676202Y49252329D01*
X26625908Y49117483D01*
X26619501Y49057884D01*
X26619501Y49057877D01*
X26619500Y49057865D01*
X26619500Y47462130D01*
X26619501Y47462124D01*
X26625908Y47402517D01*
X26676202Y47267672D01*
X26676206Y47267665D01*
X26762452Y47152456D01*
X26762455Y47152453D01*
X26877664Y47066207D01*
X26877671Y47066203D01*
X27012517Y47015909D01*
X27012516Y47015909D01*
X27019444Y47015165D01*
X27072127Y47009500D01*
X28667872Y47009501D01*
X28727483Y47015909D01*
X28862331Y47066204D01*
X28977546Y47152454D01*
X29063796Y47267669D01*
X29114091Y47402517D01*
X29120500Y47462127D01*
X29120499Y49057872D01*
X29114091Y49117483D01*
X29109422Y49130000D01*
X29063797Y49252329D01*
X29063793Y49252336D01*
X28977547Y49367545D01*
X28977544Y49367548D01*
X28862335Y49453794D01*
X28862328Y49453798D01*
X28727482Y49504092D01*
X28727483Y49504092D01*
X28667883Y49510499D01*
X28667881Y49510500D01*
X28667873Y49510500D01*
X28667865Y49510500D01*
X28603415Y49510500D01*
X28536376Y49530185D01*
X28490621Y49582989D01*
X28480677Y49652147D01*
X28509702Y49715703D01*
X28530530Y49734818D01*
X28560125Y49756321D01*
X28560126Y49756322D01*
X27916448Y50400000D01*
X27922661Y50400000D01*
X28024394Y50427259D01*
X28115606Y50479920D01*
X28190080Y50554394D01*
X28242741Y50645606D01*
X28270000Y50747339D01*
X28270000Y50753552D01*
X28913678Y50109874D01*
X28913678Y50109875D01*
X28939095Y50144857D01*
X29028418Y50320165D01*
X29089221Y50507295D01*
X29120000Y50701618D01*
X29120000Y50898383D01*
X29089221Y51092706D01*
X29028418Y51279836D01*
X28939096Y51455142D01*
X28913678Y51490127D01*
X28913677Y51490127D01*
X28270000Y50846449D01*
X28270000Y50852661D01*
X28242741Y50954394D01*
X28190080Y51045606D01*
X28115606Y51120080D01*
X28024394Y51172741D01*
X27922661Y51200000D01*
X27916447Y51200000D01*
X28560125Y51843680D01*
X28560125Y51843681D01*
X28525145Y51869095D01*
X28348235Y51959235D01*
X28297439Y52007210D01*
X28280644Y52075031D01*
X28303182Y52141166D01*
X28348236Y52180205D01*
X28350022Y52181116D01*
X28350025Y52181116D01*
X28525405Y52270476D01*
X28684646Y52386172D01*
X28823828Y52525354D01*
X28939524Y52684595D01*
X29028884Y52859975D01*
X29089709Y53047174D01*
X29092053Y53061972D01*
X29120500Y53241578D01*
X29120500Y53438423D01*
X29089709Y53632827D01*
X29028882Y53820030D01*
X28939523Y53995406D01*
X28823828Y54154646D01*
X28684646Y54293828D01*
X28525405Y54409524D01*
X28350029Y54498883D01*
X28162826Y54559710D01*
X27968422Y54590500D01*
X27968417Y54590500D01*
X27771583Y54590500D01*
X27771578Y54590500D01*
X27577173Y54559710D01*
X27389970Y54498883D01*
X27214594Y54409524D01*
X27123741Y54343515D01*
X27055354Y54293828D01*
X27055352Y54293826D01*
X27055351Y54293826D01*
X26916174Y54154649D01*
X26916174Y54154648D01*
X26916172Y54154646D01*
X26884302Y54110781D01*
X26800476Y53995406D01*
X26711117Y53820030D01*
X26650290Y53632827D01*
X26619500Y53438423D01*
X20815247Y53438423D01*
X20931610Y53497713D01*
X21097219Y53618034D01*
X21241966Y53762781D01*
X21241968Y53762785D01*
X21241971Y53762787D01*
X21294732Y53835410D01*
X21362287Y53928390D01*
X21455220Y54110781D01*
X21518477Y54305466D01*
X21550500Y54507648D01*
X21550500Y54712352D01*
X21518477Y54914534D01*
X21455220Y55109219D01*
X21455218Y55109222D01*
X21455218Y55109224D01*
X21421503Y55175393D01*
X21362287Y55291610D01*
X21354556Y55302251D01*
X21241971Y55457214D01*
X21097213Y55601972D01*
X20931613Y55722285D01*
X20931612Y55722286D01*
X20931610Y55722287D01*
X20874653Y55751309D01*
X20749223Y55815219D01*
X20554534Y55878478D01*
X20375302Y55906865D01*
X20352352Y55910500D01*
X20147648Y55910500D01*
X20124698Y55906865D01*
X19945465Y55878478D01*
X19750776Y55815219D01*
X19568386Y55722285D01*
X19402786Y55601972D01*
X19258028Y55457214D01*
X19137715Y55291614D01*
X19044781Y55109224D01*
X18981522Y54914535D01*
X18949500Y54712352D01*
X7430500Y54712352D01*
X7430500Y63330017D01*
X13369500Y63330017D01*
X13369500Y61129999D01*
X13369501Y61129982D01*
X13380000Y61027204D01*
X13380001Y61027201D01*
X13422984Y60897489D01*
X13435186Y60860666D01*
X13527288Y60711344D01*
X13651344Y60587288D01*
X13800666Y60495186D01*
X13967203Y60440001D01*
X14069991Y60429500D01*
X16270008Y60429501D01*
X16372797Y60440001D01*
X16539334Y60495186D01*
X16688656Y60587288D01*
X16812712Y60711344D01*
X16904814Y60860666D01*
X16959999Y61027203D01*
X16970500Y61129991D01*
X16970499Y63330008D01*
X16959999Y63432797D01*
X16904814Y63599334D01*
X16812712Y63748656D01*
X16688656Y63872712D01*
X16539334Y63964814D01*
X16372797Y64019999D01*
X16372795Y64020000D01*
X16270010Y64030500D01*
X14069998Y64030500D01*
X14069981Y64030499D01*
X13967203Y64020000D01*
X13967200Y64019999D01*
X13800668Y63964815D01*
X13800663Y63964813D01*
X13651342Y63872711D01*
X13527289Y63748658D01*
X13435187Y63599337D01*
X13435186Y63599334D01*
X13380001Y63432797D01*
X13380001Y63432796D01*
X13380000Y63432796D01*
X13369500Y63330017D01*
X7430500Y63330017D01*
X7430500Y67428005D01*
X13369500Y67428005D01*
X13369500Y67191996D01*
X13369501Y67191980D01*
X13400306Y66957990D01*
X13461394Y66730007D01*
X13551714Y66511955D01*
X13551719Y66511944D01*
X13580104Y66462781D01*
X13669727Y66307550D01*
X13669729Y66307547D01*
X13669730Y66307546D01*
X13813406Y66120303D01*
X13813412Y66120296D01*
X13980295Y65953413D01*
X13980301Y65953408D01*
X14167550Y65809727D01*
X14298918Y65733882D01*
X14371943Y65691720D01*
X14371948Y65691718D01*
X14371951Y65691716D01*
X14590007Y65601394D01*
X14817986Y65540307D01*
X15051989Y65509500D01*
X15051996Y65509500D01*
X15288004Y65509500D01*
X15288011Y65509500D01*
X15522014Y65540307D01*
X15749993Y65601394D01*
X15968049Y65691716D01*
X16172450Y65809727D01*
X16359699Y65953408D01*
X16526592Y66120301D01*
X16670273Y66307550D01*
X16788284Y66511951D01*
X16878606Y66730007D01*
X16939693Y66957986D01*
X16970500Y67191989D01*
X16970500Y67428011D01*
X16939693Y67662014D01*
X16878606Y67889993D01*
X16788284Y68108049D01*
X16788282Y68108052D01*
X16788280Y68108057D01*
X16746118Y68181082D01*
X16670273Y68312450D01*
X16526592Y68499699D01*
X16526587Y68499705D01*
X16359704Y68666588D01*
X16359697Y68666594D01*
X16172454Y68810270D01*
X16172453Y68810271D01*
X16172450Y68810273D01*
X16090957Y68857323D01*
X15968056Y68928281D01*
X15968045Y68928286D01*
X15749993Y69018606D01*
X15522014Y69079693D01*
X15522013Y69079694D01*
X15522010Y69079694D01*
X15288020Y69110499D01*
X15288017Y69110500D01*
X15288011Y69110500D01*
X15051989Y69110500D01*
X15051983Y69110500D01*
X15051979Y69110499D01*
X14817989Y69079694D01*
X14590006Y69018606D01*
X14371954Y68928286D01*
X14371943Y68928281D01*
X14167545Y68810270D01*
X13980302Y68666594D01*
X13980295Y68666588D01*
X13813412Y68499705D01*
X13813406Y68499698D01*
X13669730Y68312455D01*
X13551719Y68108057D01*
X13551714Y68108046D01*
X13461394Y67889994D01*
X13400306Y67662011D01*
X13369501Y67428021D01*
X13369500Y67428005D01*
X7430500Y67428005D01*
X7430500Y71222352D01*
X21489500Y71222352D01*
X21489500Y71017649D01*
X21521522Y70815466D01*
X21584781Y70620777D01*
X21641474Y70509512D01*
X21651530Y70489776D01*
X21677715Y70438387D01*
X21798028Y70272787D01*
X21942786Y70128029D01*
X22097749Y70015444D01*
X22108390Y70007713D01*
X22224607Y69948497D01*
X22290776Y69914782D01*
X22290778Y69914782D01*
X22290781Y69914780D01*
X22395137Y69880873D01*
X22485465Y69851523D01*
X22586557Y69835512D01*
X22687648Y69819500D01*
X22687649Y69819500D01*
X22892351Y69819500D01*
X22892352Y69819500D01*
X23094534Y69851523D01*
X23289219Y69914780D01*
X23471610Y70007713D01*
X23564590Y70075268D01*
X23637213Y70128029D01*
X23637215Y70128032D01*
X23637219Y70128034D01*
X23781966Y70272781D01*
X23781968Y70272785D01*
X23781971Y70272787D01*
X23838068Y70350000D01*
X23902287Y70438390D01*
X23995220Y70620781D01*
X24058477Y70815466D01*
X24090500Y71017648D01*
X24090500Y71222352D01*
X29109500Y71222352D01*
X29109500Y71017649D01*
X29141522Y70815466D01*
X29204781Y70620777D01*
X29261474Y70509512D01*
X29271530Y70489776D01*
X29297715Y70438387D01*
X29418028Y70272787D01*
X29562786Y70128029D01*
X29717749Y70015444D01*
X29728390Y70007713D01*
X29844607Y69948497D01*
X29910776Y69914782D01*
X29910778Y69914782D01*
X29910781Y69914780D01*
X30015137Y69880873D01*
X30105465Y69851523D01*
X30206557Y69835512D01*
X30307648Y69819500D01*
X30307649Y69819500D01*
X30512351Y69819500D01*
X30512352Y69819500D01*
X30714534Y69851523D01*
X30909219Y69914780D01*
X30936715Y69928790D01*
X34185000Y69928790D01*
X34185000Y69771211D01*
X34194701Y69672701D01*
X34194701Y69672698D01*
X34225444Y69518136D01*
X34254185Y69423388D01*
X34314490Y69277802D01*
X34361158Y69190494D01*
X34407533Y69121088D01*
X34407534Y69121087D01*
X35007037Y69720591D01*
X35024075Y69657007D01*
X35089901Y69542993D01*
X35182993Y69449901D01*
X35297007Y69384075D01*
X35360590Y69367038D01*
X34761085Y68767535D01*
X34830493Y68721159D01*
X34896454Y68685901D01*
X34946298Y68636938D01*
X34961758Y68568800D01*
X34937926Y68503121D01*
X34894295Y68466058D01*
X34808386Y68422285D01*
X34642786Y68301972D01*
X34498028Y68157214D01*
X34377715Y67991614D01*
X34284781Y67809224D01*
X34221522Y67614535D01*
X34189500Y67412352D01*
X34189500Y67207649D01*
X34221522Y67005466D01*
X34284781Y66810777D01*
X34377715Y66628387D01*
X34498028Y66462787D01*
X34642786Y66318029D01*
X34797749Y66205444D01*
X34808390Y66197713D01*
X34899840Y66151117D01*
X34901080Y66150485D01*
X34951876Y66102510D01*
X34968671Y66034689D01*
X34946134Y65968554D01*
X34901080Y65929515D01*
X34808386Y65882285D01*
X34642786Y65761972D01*
X34498028Y65617214D01*
X34377715Y65451614D01*
X34284781Y65269224D01*
X34221522Y65074535D01*
X34189500Y64872352D01*
X34189500Y64667649D01*
X34221522Y64465466D01*
X34284781Y64270777D01*
X34377715Y64088387D01*
X34498028Y63922787D01*
X34642786Y63778029D01*
X34797749Y63665444D01*
X34808390Y63657713D01*
X34899840Y63611117D01*
X34901080Y63610485D01*
X34951876Y63562510D01*
X34968671Y63494689D01*
X34946134Y63428554D01*
X34901080Y63389515D01*
X34808386Y63342285D01*
X34642786Y63221972D01*
X34498028Y63077214D01*
X34377715Y62911614D01*
X34284781Y62729224D01*
X34221522Y62534535D01*
X34189500Y62332352D01*
X34189500Y62127649D01*
X34221522Y61925466D01*
X34284781Y61730777D01*
X34377715Y61548387D01*
X34498028Y61382787D01*
X34642786Y61238029D01*
X34791480Y61129999D01*
X34808390Y61117713D01*
X34899840Y61071117D01*
X34901080Y61070485D01*
X34951876Y61022510D01*
X34968671Y60954689D01*
X34946134Y60888554D01*
X34901080Y60849515D01*
X34808386Y60802285D01*
X34642786Y60681972D01*
X34498028Y60537214D01*
X34377715Y60371614D01*
X34284781Y60189224D01*
X34221522Y59994535D01*
X34189500Y59792352D01*
X34189500Y59587649D01*
X34221522Y59385466D01*
X34284781Y59190777D01*
X34377715Y59008387D01*
X34498028Y58842787D01*
X34642786Y58698029D01*
X34808388Y58577714D01*
X34808390Y58577713D01*
X34894294Y58533943D01*
X34945090Y58485969D01*
X34961886Y58418148D01*
X34939349Y58352013D01*
X34896455Y58314101D01*
X34830494Y58278843D01*
X34830489Y58278840D01*
X34761086Y58232468D01*
X34761085Y58232467D01*
X35360590Y57632963D01*
X35297007Y57615925D01*
X35182993Y57550099D01*
X35089901Y57457007D01*
X35024075Y57342993D01*
X35007037Y57279411D01*
X34407533Y57878915D01*
X34407532Y57878914D01*
X34361161Y57809512D01*
X34314490Y57722199D01*
X34254185Y57576613D01*
X34225444Y57481865D01*
X34194701Y57327303D01*
X34194701Y57327300D01*
X34185000Y57228790D01*
X34185000Y57071211D01*
X34194701Y56972701D01*
X34194701Y56972698D01*
X34225444Y56818136D01*
X34254185Y56723388D01*
X34314490Y56577802D01*
X34361158Y56490494D01*
X34407533Y56421088D01*
X34407534Y56421087D01*
X35007037Y57020591D01*
X35024075Y56957007D01*
X35089901Y56842993D01*
X35182993Y56749901D01*
X35297007Y56684075D01*
X35360590Y56667038D01*
X34761085Y56067535D01*
X34830493Y56021159D01*
X34896454Y55985901D01*
X34946298Y55936938D01*
X34961758Y55868800D01*
X34937926Y55803121D01*
X34894295Y55766058D01*
X34808386Y55722285D01*
X34642786Y55601972D01*
X34498028Y55457214D01*
X34377715Y55291614D01*
X34284781Y55109224D01*
X34221522Y54914535D01*
X34189500Y54712352D01*
X34189500Y54507649D01*
X34221522Y54305466D01*
X34284781Y54110777D01*
X34377715Y53928387D01*
X34498028Y53762787D01*
X34642786Y53618029D01*
X34797749Y53505444D01*
X34808390Y53497713D01*
X34899840Y53451117D01*
X34901080Y53450485D01*
X34951876Y53402510D01*
X34968671Y53334689D01*
X34946134Y53268554D01*
X34901080Y53229515D01*
X34808386Y53182285D01*
X34642786Y53061972D01*
X34498028Y52917214D01*
X34377715Y52751614D01*
X34284781Y52569224D01*
X34221522Y52374535D01*
X34189500Y52172352D01*
X34189500Y51967649D01*
X34221522Y51765466D01*
X34284781Y51570777D01*
X34377715Y51388387D01*
X34498028Y51222787D01*
X34642786Y51078029D01*
X34797749Y50965444D01*
X34808390Y50957713D01*
X34899840Y50911117D01*
X34901080Y50910485D01*
X34951876Y50862510D01*
X34968671Y50794689D01*
X34946134Y50728554D01*
X34901080Y50689515D01*
X34808386Y50642285D01*
X34642786Y50521972D01*
X34498028Y50377214D01*
X34377715Y50211614D01*
X34284781Y50029224D01*
X34221522Y49834535D01*
X34196966Y49679490D01*
X34189500Y49632352D01*
X34189500Y49427648D01*
X34192704Y49407420D01*
X34221522Y49225466D01*
X34284781Y49030777D01*
X34377715Y48848387D01*
X34498028Y48682787D01*
X34642786Y48538029D01*
X34797749Y48425444D01*
X34808390Y48417713D01*
X34899840Y48371117D01*
X34901080Y48370485D01*
X34951876Y48322510D01*
X34968671Y48254689D01*
X34946134Y48188554D01*
X34901080Y48149515D01*
X34808386Y48102285D01*
X34642786Y47981972D01*
X34498028Y47837214D01*
X34377715Y47671614D01*
X34284781Y47489224D01*
X34221522Y47294535D01*
X34189500Y47092352D01*
X34189500Y46887649D01*
X34221522Y46685466D01*
X34284781Y46490777D01*
X34377715Y46308387D01*
X34498028Y46142787D01*
X34642786Y45998029D01*
X34808388Y45877714D01*
X34808390Y45877713D01*
X34894294Y45833943D01*
X34945090Y45785969D01*
X34961886Y45718148D01*
X34939349Y45652013D01*
X34896455Y45614101D01*
X34830494Y45578843D01*
X34830489Y45578840D01*
X34761086Y45532468D01*
X34761085Y45532467D01*
X35360590Y44932963D01*
X35297007Y44915925D01*
X35182993Y44850099D01*
X35089901Y44757007D01*
X35024075Y44642993D01*
X35007037Y44579411D01*
X34407533Y45178915D01*
X34407532Y45178914D01*
X34361161Y45109512D01*
X34314490Y45022199D01*
X34254185Y44876613D01*
X34225444Y44781865D01*
X34194701Y44627303D01*
X34194701Y44627300D01*
X34185000Y44528790D01*
X34185000Y44371211D01*
X34194701Y44272701D01*
X34194701Y44272698D01*
X34225444Y44118136D01*
X34254185Y44023388D01*
X34314490Y43877802D01*
X34361158Y43790494D01*
X34407533Y43721088D01*
X34407534Y43721087D01*
X35007037Y44320591D01*
X35024075Y44257007D01*
X35089901Y44142993D01*
X35182993Y44049901D01*
X35297007Y43984075D01*
X35360590Y43967038D01*
X34761085Y43367535D01*
X34830493Y43321159D01*
X34896454Y43285901D01*
X34946298Y43236938D01*
X34961758Y43168800D01*
X34937926Y43103121D01*
X34894295Y43066058D01*
X34808386Y43022285D01*
X34642786Y42901972D01*
X34498028Y42757214D01*
X34377715Y42591614D01*
X34284781Y42409224D01*
X34221522Y42214535D01*
X34189500Y42012352D01*
X34189500Y41807649D01*
X34221522Y41605466D01*
X34284781Y41410777D01*
X34377715Y41228387D01*
X34498028Y41062787D01*
X34642786Y40918029D01*
X34797749Y40805444D01*
X34808390Y40797713D01*
X34899840Y40751117D01*
X34901080Y40750485D01*
X34951876Y40702510D01*
X34968671Y40634689D01*
X34946134Y40568554D01*
X34901080Y40529515D01*
X34808386Y40482285D01*
X34642786Y40361972D01*
X34498028Y40217214D01*
X34377715Y40051614D01*
X34284781Y39869224D01*
X34221522Y39674535D01*
X34189500Y39472352D01*
X34189500Y39267649D01*
X34221522Y39065466D01*
X34284781Y38870777D01*
X34377715Y38688387D01*
X34498028Y38522787D01*
X34642786Y38378029D01*
X34797749Y38265444D01*
X34808390Y38257713D01*
X34879876Y38221289D01*
X34901080Y38210485D01*
X34951876Y38162510D01*
X34968671Y38094689D01*
X34946134Y38028554D01*
X34901080Y37989515D01*
X34808386Y37942285D01*
X34642786Y37821972D01*
X34498028Y37677214D01*
X34377715Y37511614D01*
X34284781Y37329224D01*
X34221522Y37134535D01*
X34189500Y36932352D01*
X34189500Y36727649D01*
X34221522Y36525466D01*
X34284781Y36330777D01*
X34377715Y36148387D01*
X34498028Y35982787D01*
X34642786Y35838029D01*
X34797749Y35725444D01*
X34808390Y35717713D01*
X34899840Y35671117D01*
X34901080Y35670485D01*
X34951876Y35622510D01*
X34968671Y35554689D01*
X34946134Y35488554D01*
X34901080Y35449515D01*
X34808386Y35402285D01*
X34642786Y35281972D01*
X34498028Y35137214D01*
X34377715Y34971614D01*
X34284781Y34789224D01*
X34221522Y34594535D01*
X34189500Y34392352D01*
X34189500Y34187649D01*
X34221522Y33985466D01*
X34284781Y33790777D01*
X34377715Y33608387D01*
X34498028Y33442787D01*
X34642786Y33298029D01*
X34808388Y33177714D01*
X34808390Y33177713D01*
X34894294Y33133943D01*
X34945090Y33085969D01*
X34961886Y33018148D01*
X34939349Y32952013D01*
X34896455Y32914101D01*
X34830494Y32878843D01*
X34830489Y32878840D01*
X34761086Y32832468D01*
X34761085Y32832467D01*
X35360590Y32232963D01*
X35297007Y32215925D01*
X35182993Y32150099D01*
X35089901Y32057007D01*
X35024075Y31942993D01*
X35007037Y31879411D01*
X34407533Y32478915D01*
X34407532Y32478914D01*
X34361161Y32409512D01*
X34314490Y32322199D01*
X34254185Y32176613D01*
X34225444Y32081865D01*
X34194701Y31927303D01*
X34194701Y31927300D01*
X34185000Y31828790D01*
X34185000Y31671211D01*
X34194701Y31572701D01*
X34194701Y31572698D01*
X34225444Y31418136D01*
X34254185Y31323388D01*
X34314490Y31177802D01*
X34361158Y31090494D01*
X34407533Y31021088D01*
X34407534Y31021087D01*
X35007037Y31620591D01*
X35024075Y31557007D01*
X35089901Y31442993D01*
X35182993Y31349901D01*
X35297007Y31284075D01*
X35360590Y31267038D01*
X34761085Y30667535D01*
X34830493Y30621159D01*
X34896454Y30585901D01*
X34946298Y30536938D01*
X34961758Y30468800D01*
X34937926Y30403121D01*
X34894295Y30366058D01*
X34808386Y30322285D01*
X34642786Y30201972D01*
X34498028Y30057214D01*
X34377715Y29891614D01*
X34284781Y29709224D01*
X34221522Y29514535D01*
X34189500Y29312352D01*
X34189500Y29107649D01*
X34221522Y28905466D01*
X34284781Y28710777D01*
X34346203Y28590232D01*
X34367948Y28547554D01*
X34377715Y28528387D01*
X34498028Y28362787D01*
X34642786Y28218029D01*
X34797749Y28105444D01*
X34808390Y28097713D01*
X34899840Y28051117D01*
X34901080Y28050485D01*
X34951876Y28002510D01*
X34968671Y27934689D01*
X34946134Y27868554D01*
X34901080Y27829515D01*
X34808386Y27782285D01*
X34642786Y27661972D01*
X34498028Y27517214D01*
X34377715Y27351614D01*
X34284781Y27169224D01*
X34221522Y26974535D01*
X34189500Y26772352D01*
X34189500Y26567649D01*
X34221522Y26365466D01*
X34284781Y26170777D01*
X34348691Y26045347D01*
X34372052Y25999500D01*
X34377715Y25988387D01*
X34498028Y25822787D01*
X34642786Y25678029D01*
X34797749Y25565444D01*
X34808390Y25557713D01*
X34924607Y25498497D01*
X34990776Y25464782D01*
X34990778Y25464782D01*
X34990781Y25464780D01*
X35095137Y25430873D01*
X35185465Y25401523D01*
X35286557Y25385512D01*
X35387648Y25369500D01*
X35387649Y25369500D01*
X35592351Y25369500D01*
X35592352Y25369500D01*
X35794534Y25401523D01*
X35989219Y25464780D01*
X36171610Y25557713D01*
X36264590Y25625268D01*
X36337213Y25678029D01*
X36337215Y25678032D01*
X36337219Y25678034D01*
X36481966Y25822781D01*
X36481968Y25822785D01*
X36481971Y25822787D01*
X36534732Y25895410D01*
X36602287Y25988390D01*
X36695220Y26170781D01*
X36758477Y26365466D01*
X36790500Y26567648D01*
X36790500Y26772352D01*
X36771443Y26892670D01*
X36758477Y26974535D01*
X36724621Y27078731D01*
X36695220Y27169219D01*
X36695218Y27169222D01*
X36695218Y27169224D01*
X36621341Y27314214D01*
X36602287Y27351610D01*
X36565421Y27402352D01*
X36481971Y27517214D01*
X36337213Y27661972D01*
X36171614Y27782285D01*
X36138369Y27799224D01*
X36078917Y27829517D01*
X36028123Y27877489D01*
X36011328Y27945310D01*
X36033865Y28011445D01*
X36078917Y28050484D01*
X36171610Y28097713D01*
X36304139Y28194000D01*
X36337213Y28218029D01*
X36337215Y28218032D01*
X36337219Y28218034D01*
X36481966Y28362781D01*
X36481968Y28362785D01*
X36481971Y28362787D01*
X36582392Y28501007D01*
X36602287Y28528390D01*
X36695220Y28710781D01*
X36758477Y28905466D01*
X36790500Y29107648D01*
X36790500Y29312352D01*
X36784024Y29353240D01*
X36767098Y29460105D01*
X37280000Y29460105D01*
X38237304Y28716666D01*
X38278178Y28660001D01*
X38281927Y28590232D01*
X38247362Y28529511D01*
X38215103Y28508363D01*
X38215578Y28507432D01*
X38028842Y28412285D01*
X37863242Y28291972D01*
X37718484Y28147214D01*
X37598171Y27981614D01*
X37505237Y27799224D01*
X37441978Y27604535D01*
X37409956Y27402352D01*
X37409956Y27197649D01*
X37441978Y26995466D01*
X37505237Y26800777D01*
X37598171Y26618387D01*
X37718484Y26452787D01*
X37863242Y26308029D01*
X38018205Y26195444D01*
X38028846Y26187713D01*
X38145063Y26128497D01*
X38211232Y26094782D01*
X38211234Y26094782D01*
X38211237Y26094780D01*
X38315593Y26060873D01*
X38405921Y26031523D01*
X38507013Y26015512D01*
X38608104Y25999500D01*
X38608105Y25999500D01*
X38812807Y25999500D01*
X38812808Y25999500D01*
X39014990Y26031523D01*
X39209675Y26094780D01*
X39392066Y26187713D01*
X39485046Y26255268D01*
X39557669Y26308029D01*
X39557671Y26308032D01*
X39557675Y26308034D01*
X39702422Y26452781D01*
X39702424Y26452785D01*
X39702427Y26452787D01*
X39785877Y26567648D01*
X39822743Y26618390D01*
X39915676Y26800781D01*
X39978933Y26995466D01*
X39998106Y27116523D01*
X40028035Y27179655D01*
X40087346Y27216587D01*
X40157209Y27215589D01*
X40196634Y27195060D01*
X41932058Y25847337D01*
X41972931Y25790672D01*
X41980000Y25749403D01*
X41980000Y24800000D01*
X46780000Y24800000D01*
X46780000Y25749403D01*
X46799685Y25816442D01*
X46827941Y25847336D01*
X48579661Y27207715D01*
X48644681Y27233286D01*
X48713206Y27219645D01*
X48763479Y27171123D01*
X48778189Y27129176D01*
X48799366Y26995466D01*
X48862625Y26800777D01*
X48955559Y26618387D01*
X49075872Y26452787D01*
X49220630Y26308029D01*
X49375593Y26195444D01*
X49386234Y26187713D01*
X49502451Y26128497D01*
X49568620Y26094782D01*
X49568622Y26094782D01*
X49568625Y26094780D01*
X49672981Y26060873D01*
X49763309Y26031523D01*
X49864401Y26015512D01*
X49965492Y25999500D01*
X49965493Y25999500D01*
X50170195Y25999500D01*
X50170196Y25999500D01*
X50372378Y26031523D01*
X50567063Y26094780D01*
X50749454Y26187713D01*
X50842434Y26255268D01*
X50915057Y26308029D01*
X50915059Y26308032D01*
X50915063Y26308034D01*
X51059810Y26452781D01*
X51059812Y26452785D01*
X51059815Y26452787D01*
X51143265Y26567648D01*
X51180131Y26618390D01*
X51273064Y26800781D01*
X51336321Y26995466D01*
X51368344Y27197648D01*
X51368344Y27402352D01*
X51353410Y27496638D01*
X51336321Y27604535D01*
X51278566Y27782285D01*
X51273064Y27799219D01*
X51273062Y27799222D01*
X51273062Y27799224D01*
X51200556Y27941523D01*
X51180131Y27981610D01*
X51130091Y28050485D01*
X51059815Y28147214D01*
X50915057Y28291972D01*
X50749457Y28412285D01*
X50749456Y28412286D01*
X50749454Y28412287D01*
X50567063Y28505220D01*
X50566393Y28505438D01*
X50566171Y28505590D01*
X50562570Y28507081D01*
X50562883Y28507839D01*
X50508722Y28544876D01*
X50481527Y28609236D01*
X50493444Y28678082D01*
X50528662Y28721301D01*
X51480000Y29460105D01*
X51480000Y33800000D01*
X37280000Y33800000D01*
X37280000Y29460105D01*
X36767098Y29460105D01*
X36758477Y29514535D01*
X36696951Y29703891D01*
X36695220Y29709219D01*
X36695218Y29709222D01*
X36695218Y29709224D01*
X36621341Y29854214D01*
X36602287Y29891610D01*
X36594556Y29902251D01*
X36481971Y30057214D01*
X36337217Y30201968D01*
X36260415Y30257768D01*
X36217750Y30313098D01*
X36211771Y30382712D01*
X36244377Y30444506D01*
X36302640Y30478235D01*
X36323022Y30483437D01*
X36323035Y30483441D01*
X36379582Y30506865D01*
X35619409Y31267038D01*
X35682993Y31284075D01*
X35797007Y31349901D01*
X35890099Y31442993D01*
X35955925Y31557007D01*
X35972962Y31620591D01*
X36733135Y30860418D01*
X36733137Y30860418D01*
X36756552Y30916947D01*
X36774544Y30967947D01*
X36794999Y31110220D01*
X36795000Y31110221D01*
X36795000Y32389786D01*
X36792106Y32443763D01*
X36792106Y32443765D01*
X36756558Y32583040D01*
X36733136Y32639585D01*
X36733135Y32639585D01*
X35972962Y31879411D01*
X35955925Y31942993D01*
X35890099Y32057007D01*
X35797007Y32150099D01*
X35682993Y32215925D01*
X35619410Y32232963D01*
X36379583Y32993137D01*
X36379583Y32993138D01*
X36323052Y33016553D01*
X36323013Y33016568D01*
X36294375Y33026671D01*
X36237704Y33067537D01*
X36212122Y33132556D01*
X36225754Y33201083D01*
X36262745Y33243926D01*
X36337215Y33298031D01*
X36337215Y33298032D01*
X36337219Y33298034D01*
X36481966Y33442781D01*
X36481968Y33442785D01*
X36481971Y33442787D01*
X36589100Y33590240D01*
X36602287Y33608390D01*
X36695220Y33790781D01*
X36758477Y33985466D01*
X36790500Y34187648D01*
X36790500Y34392352D01*
X36758477Y34594534D01*
X36748740Y34624500D01*
X36695218Y34789224D01*
X36661503Y34855393D01*
X36602287Y34971610D01*
X36594556Y34982251D01*
X36481971Y35137214D01*
X36337213Y35281972D01*
X36171614Y35402285D01*
X36165006Y35405652D01*
X36078917Y35449517D01*
X36028123Y35497489D01*
X36011328Y35565310D01*
X36033865Y35631445D01*
X36078917Y35670484D01*
X36171610Y35717713D01*
X36192770Y35733087D01*
X36337213Y35838029D01*
X36337215Y35838032D01*
X36337219Y35838034D01*
X36481966Y35982781D01*
X36481968Y35982785D01*
X36481971Y35982787D01*
X36534732Y36055410D01*
X36602287Y36148390D01*
X36695220Y36330781D01*
X36758477Y36525466D01*
X36790500Y36727648D01*
X36790500Y36932352D01*
X36758477Y37134534D01*
X36695220Y37329219D01*
X36695218Y37329222D01*
X36695218Y37329224D01*
X36606215Y37503900D01*
X36602287Y37511610D01*
X36594556Y37522251D01*
X36481971Y37677214D01*
X36337213Y37821972D01*
X36171614Y37942285D01*
X36165006Y37945652D01*
X36078917Y37989517D01*
X36028123Y38037489D01*
X36011328Y38105310D01*
X36033865Y38171445D01*
X36078917Y38210484D01*
X36171610Y38257713D01*
X36192770Y38273087D01*
X36337213Y38378029D01*
X36337215Y38378032D01*
X36337219Y38378034D01*
X36481966Y38522781D01*
X36481968Y38522785D01*
X36481971Y38522787D01*
X36534732Y38595410D01*
X36602287Y38688390D01*
X36695220Y38870781D01*
X36758477Y39065466D01*
X36790500Y39267648D01*
X36790500Y39472352D01*
X36758477Y39674534D01*
X36695220Y39869219D01*
X36695218Y39869222D01*
X36695218Y39869224D01*
X36653805Y39950500D01*
X36602287Y40051610D01*
X36594556Y40062251D01*
X36481971Y40217214D01*
X36337213Y40361972D01*
X36171614Y40482285D01*
X36165006Y40485652D01*
X36078917Y40529517D01*
X36028123Y40577489D01*
X36011328Y40645310D01*
X36033865Y40711445D01*
X36078917Y40750484D01*
X36171610Y40797713D01*
X36192770Y40813087D01*
X36337213Y40918029D01*
X36337215Y40918032D01*
X36337219Y40918034D01*
X36481966Y41062781D01*
X36481968Y41062785D01*
X36481971Y41062787D01*
X36534732Y41135410D01*
X36602287Y41228390D01*
X36695220Y41410781D01*
X36758477Y41605466D01*
X36790500Y41807648D01*
X36790500Y42012352D01*
X36762675Y42188029D01*
X36758477Y42214535D01*
X36720056Y42332781D01*
X36695220Y42409219D01*
X36695218Y42409222D01*
X36695218Y42409224D01*
X36661503Y42475393D01*
X36602287Y42591610D01*
X36594556Y42602251D01*
X36481971Y42757214D01*
X36337217Y42901968D01*
X36260415Y42957768D01*
X36217750Y43013098D01*
X36211771Y43082712D01*
X36244377Y43144506D01*
X36302640Y43178235D01*
X36323022Y43183437D01*
X36323035Y43183441D01*
X36379582Y43206865D01*
X35619409Y43967038D01*
X35682993Y43984075D01*
X35797007Y44049901D01*
X35890099Y44142993D01*
X35955925Y44257007D01*
X35972962Y44320591D01*
X36733135Y43560418D01*
X36733137Y43560418D01*
X36756552Y43616947D01*
X36774544Y43667947D01*
X36794999Y43810220D01*
X36795000Y43810221D01*
X36795000Y45089776D01*
X36794999Y45089796D01*
X36792106Y45143763D01*
X36792106Y45143765D01*
X36756558Y45283040D01*
X36733136Y45339585D01*
X36733135Y45339585D01*
X35972962Y44579411D01*
X35955925Y44642993D01*
X35890099Y44757007D01*
X35797007Y44850099D01*
X35682993Y44915925D01*
X35619410Y44932963D01*
X36379583Y45693137D01*
X36379583Y45693138D01*
X36323052Y45716553D01*
X36323013Y45716568D01*
X36294375Y45726671D01*
X36237704Y45767537D01*
X36212122Y45832556D01*
X36225754Y45901083D01*
X36262745Y45943926D01*
X36337215Y45998031D01*
X36337215Y45998032D01*
X36337219Y45998034D01*
X36481966Y46142781D01*
X36481968Y46142785D01*
X36481971Y46142787D01*
X36534732Y46215410D01*
X36602287Y46308390D01*
X36695220Y46490781D01*
X36758477Y46685466D01*
X36790500Y46887648D01*
X36790500Y47092352D01*
X36758477Y47294534D01*
X36695220Y47489219D01*
X36695218Y47489222D01*
X36695218Y47489224D01*
X36661503Y47555393D01*
X36602287Y47671610D01*
X36594556Y47682251D01*
X36481971Y47837214D01*
X36337213Y47981972D01*
X36171614Y48102285D01*
X36117216Y48130002D01*
X36078917Y48149517D01*
X36028123Y48197489D01*
X36011328Y48265310D01*
X36033865Y48331445D01*
X36078917Y48370484D01*
X36171610Y48417713D01*
X36192770Y48433087D01*
X36337213Y48538029D01*
X36337215Y48538032D01*
X36337219Y48538034D01*
X36481966Y48682781D01*
X36481968Y48682785D01*
X36481971Y48682787D01*
X36551469Y48778445D01*
X36602287Y48848390D01*
X36695220Y49030781D01*
X36758477Y49225466D01*
X36790500Y49427648D01*
X36790500Y49632352D01*
X36770865Y49756323D01*
X36758477Y49834535D01*
X36727458Y49930000D01*
X36695220Y50029219D01*
X36695218Y50029222D01*
X36695218Y50029224D01*
X36602419Y50211350D01*
X36602287Y50211610D01*
X36570092Y50255923D01*
X36481971Y50377214D01*
X36337213Y50521972D01*
X36171614Y50642285D01*
X36165006Y50645652D01*
X36078917Y50689517D01*
X36028123Y50737489D01*
X36011328Y50805310D01*
X36033865Y50871445D01*
X36078917Y50910484D01*
X36171610Y50957713D01*
X36192770Y50973087D01*
X36337213Y51078029D01*
X36337215Y51078032D01*
X36337219Y51078034D01*
X36481966Y51222781D01*
X36481968Y51222785D01*
X36481971Y51222787D01*
X36534732Y51295410D01*
X36602287Y51388390D01*
X36695220Y51570781D01*
X36758477Y51765466D01*
X36790500Y51967648D01*
X36790500Y52172352D01*
X36774959Y52270475D01*
X36758477Y52374535D01*
X36709473Y52525353D01*
X36695220Y52569219D01*
X36695218Y52569222D01*
X36695218Y52569224D01*
X36661503Y52635393D01*
X36602287Y52751610D01*
X36594556Y52762251D01*
X36481971Y52917214D01*
X36337213Y53061972D01*
X36171614Y53182285D01*
X36165006Y53185652D01*
X36078917Y53229517D01*
X36028123Y53277489D01*
X36011328Y53345310D01*
X36033865Y53411445D01*
X36078917Y53450484D01*
X36171610Y53497713D01*
X36234780Y53543608D01*
X36337213Y53618029D01*
X36337215Y53618032D01*
X36337219Y53618034D01*
X36481966Y53762781D01*
X36481968Y53762785D01*
X36481971Y53762787D01*
X36534732Y53835410D01*
X36602287Y53928390D01*
X36695220Y54110781D01*
X36758477Y54305466D01*
X36790500Y54507648D01*
X36790500Y54712352D01*
X36758477Y54914534D01*
X36695220Y55109219D01*
X36695218Y55109222D01*
X36695218Y55109224D01*
X36661503Y55175393D01*
X36602287Y55291610D01*
X36594556Y55302251D01*
X36481971Y55457214D01*
X36337217Y55601968D01*
X36260415Y55657768D01*
X36217750Y55713098D01*
X36211771Y55782712D01*
X36244377Y55844506D01*
X36302640Y55878235D01*
X36323022Y55883437D01*
X36323035Y55883441D01*
X36379582Y55906865D01*
X35619409Y56667038D01*
X35682993Y56684075D01*
X35797007Y56749901D01*
X35890099Y56842993D01*
X35955925Y56957007D01*
X35972962Y57020591D01*
X36733135Y56260418D01*
X36733137Y56260418D01*
X36756552Y56316947D01*
X36774544Y56367947D01*
X36794999Y56510220D01*
X36795000Y56510221D01*
X36795000Y57789776D01*
X36795000Y57789781D01*
X51964500Y57789781D01*
X51964500Y56510216D01*
X51967395Y56456186D01*
X51967396Y56456182D01*
X52002976Y56316779D01*
X52002980Y56316767D01*
X52033419Y56243281D01*
X52033431Y56243253D01*
X52056779Y56194452D01*
X52056781Y56194449D01*
X52143006Y56079267D01*
X52143010Y56079263D01*
X52143015Y56079257D01*
X52199252Y56023020D01*
X52199261Y56023012D01*
X52199267Y56023006D01*
X52239524Y55986844D01*
X52239532Y55986838D01*
X52363263Y55913427D01*
X52363262Y55913427D01*
X52370329Y55910500D01*
X52436774Y55882978D01*
X52452645Y55877379D01*
X52465133Y55872973D01*
X52521805Y55832106D01*
X52547386Y55767088D01*
X52533754Y55698561D01*
X52496765Y55655719D01*
X52422782Y55601968D01*
X52278028Y55457214D01*
X52157715Y55291614D01*
X52064781Y55109224D01*
X52001522Y54914535D01*
X51969500Y54712352D01*
X51969500Y54507649D01*
X52001522Y54305466D01*
X52064781Y54110777D01*
X52157715Y53928387D01*
X52278028Y53762787D01*
X52422786Y53618029D01*
X52577749Y53505444D01*
X52588390Y53497713D01*
X52679840Y53451117D01*
X52681080Y53450485D01*
X52731876Y53402510D01*
X52748671Y53334689D01*
X52726134Y53268554D01*
X52681080Y53229515D01*
X52588386Y53182285D01*
X52422786Y53061972D01*
X52278028Y52917214D01*
X52157715Y52751614D01*
X52064781Y52569224D01*
X52001522Y52374535D01*
X51969500Y52172352D01*
X51969500Y51967649D01*
X52001522Y51765466D01*
X52064781Y51570777D01*
X52157715Y51388387D01*
X52278028Y51222787D01*
X52422786Y51078029D01*
X52577749Y50965444D01*
X52588390Y50957713D01*
X52679840Y50911117D01*
X52681080Y50910485D01*
X52731876Y50862510D01*
X52748671Y50794689D01*
X52726134Y50728554D01*
X52681080Y50689515D01*
X52588386Y50642285D01*
X52422786Y50521972D01*
X52278028Y50377214D01*
X52157715Y50211614D01*
X52064781Y50029224D01*
X52001522Y49834535D01*
X51976966Y49679490D01*
X51969500Y49632352D01*
X51969500Y49427648D01*
X51972704Y49407420D01*
X52001522Y49225466D01*
X52064781Y49030777D01*
X52157715Y48848387D01*
X52278028Y48682787D01*
X52422786Y48538029D01*
X52577749Y48425444D01*
X52588390Y48417713D01*
X52679840Y48371117D01*
X52681080Y48370485D01*
X52731876Y48322510D01*
X52748671Y48254689D01*
X52726134Y48188554D01*
X52681080Y48149515D01*
X52588386Y48102285D01*
X52422786Y47981972D01*
X52278028Y47837214D01*
X52157715Y47671614D01*
X52064781Y47489224D01*
X52001522Y47294535D01*
X51969500Y47092352D01*
X51969500Y46887649D01*
X52001522Y46685466D01*
X52064781Y46490777D01*
X52157715Y46308387D01*
X52278028Y46142787D01*
X52422782Y45998033D01*
X52422787Y45998029D01*
X52499583Y45942233D01*
X52542249Y45886903D01*
X52548228Y45817290D01*
X52515622Y45755495D01*
X52457365Y45721767D01*
X52436967Y45716561D01*
X52436956Y45716558D01*
X52380415Y45693138D01*
X53140590Y44932963D01*
X53077007Y44915925D01*
X52962993Y44850099D01*
X52869901Y44757007D01*
X52804075Y44642993D01*
X52787037Y44579410D01*
X52026862Y45339585D01*
X52003449Y45283060D01*
X51985455Y45232054D01*
X51965000Y45089781D01*
X51965000Y43810215D01*
X51967893Y43756238D01*
X51967893Y43756236D01*
X52003438Y43616970D01*
X52003440Y43616963D01*
X52026863Y43560417D01*
X52787037Y44320591D01*
X52804075Y44257007D01*
X52869901Y44142993D01*
X52962993Y44049901D01*
X53077007Y43984075D01*
X53140590Y43967038D01*
X52380415Y43206865D01*
X52380415Y43206864D01*
X52436954Y43183444D01*
X52436961Y43183442D01*
X52465621Y43173331D01*
X52522294Y43132466D01*
X52547876Y43067448D01*
X52534246Y42998920D01*
X52497256Y42956076D01*
X52422782Y42901968D01*
X52278028Y42757214D01*
X52157715Y42591614D01*
X52064781Y42409224D01*
X52001522Y42214535D01*
X51969500Y42012352D01*
X51969500Y41807649D01*
X52001522Y41605466D01*
X52064781Y41410777D01*
X52157715Y41228387D01*
X52278028Y41062787D01*
X52422786Y40918029D01*
X52577749Y40805444D01*
X52588390Y40797713D01*
X52679840Y40751117D01*
X52681080Y40750485D01*
X52731876Y40702510D01*
X52748671Y40634689D01*
X52726134Y40568554D01*
X52681080Y40529515D01*
X52588386Y40482285D01*
X52422786Y40361972D01*
X52278028Y40217214D01*
X52157715Y40051614D01*
X52064781Y39869224D01*
X52001522Y39674535D01*
X51969500Y39472352D01*
X51969500Y39267649D01*
X52001522Y39065466D01*
X52064781Y38870777D01*
X52157715Y38688387D01*
X52278028Y38522787D01*
X52422786Y38378029D01*
X52577749Y38265444D01*
X52588390Y38257713D01*
X52659876Y38221289D01*
X52681080Y38210485D01*
X52731876Y38162510D01*
X52748671Y38094689D01*
X52726134Y38028554D01*
X52681080Y37989515D01*
X52588386Y37942285D01*
X52422786Y37821972D01*
X52278028Y37677214D01*
X52157715Y37511614D01*
X52064781Y37329224D01*
X52001522Y37134535D01*
X51969500Y36932352D01*
X51969500Y36727649D01*
X52001522Y36525466D01*
X52064781Y36330777D01*
X52157715Y36148387D01*
X52278028Y35982787D01*
X52422786Y35838029D01*
X52577749Y35725444D01*
X52588390Y35717713D01*
X52679840Y35671117D01*
X52681080Y35670485D01*
X52731876Y35622510D01*
X52748671Y35554689D01*
X52726134Y35488554D01*
X52681080Y35449515D01*
X52588386Y35402285D01*
X52422786Y35281972D01*
X52278028Y35137214D01*
X52157715Y34971614D01*
X52064781Y34789224D01*
X52001522Y34594535D01*
X51969500Y34392352D01*
X51969500Y34187649D01*
X52001522Y33985466D01*
X52064781Y33790777D01*
X52157715Y33608387D01*
X52278028Y33442787D01*
X52422782Y33298033D01*
X52422787Y33298029D01*
X52499583Y33242233D01*
X52542249Y33186903D01*
X52548228Y33117290D01*
X52515622Y33055495D01*
X52457365Y33021767D01*
X52436967Y33016561D01*
X52436956Y33016558D01*
X52380415Y32993138D01*
X53140590Y32232963D01*
X53077007Y32215925D01*
X52962993Y32150099D01*
X52869901Y32057007D01*
X52804075Y31942993D01*
X52787037Y31879410D01*
X52026862Y32639585D01*
X52003449Y32583060D01*
X51985455Y32532054D01*
X51965000Y32389781D01*
X51965000Y31110215D01*
X51967893Y31056238D01*
X51967893Y31056236D01*
X52003438Y30916970D01*
X52003440Y30916963D01*
X52026863Y30860417D01*
X52787037Y31620591D01*
X52804075Y31557007D01*
X52869901Y31442993D01*
X52962993Y31349901D01*
X53077007Y31284075D01*
X53140590Y31267038D01*
X52380415Y30506865D01*
X52380415Y30506864D01*
X52436954Y30483444D01*
X52436961Y30483442D01*
X52465621Y30473331D01*
X52522294Y30432466D01*
X52547876Y30367448D01*
X52534246Y30298920D01*
X52497256Y30256076D01*
X52422782Y30201968D01*
X52278028Y30057214D01*
X52157715Y29891614D01*
X52064781Y29709224D01*
X52001522Y29514535D01*
X51969500Y29312352D01*
X51969500Y29107649D01*
X52001522Y28905466D01*
X52064781Y28710777D01*
X52126203Y28590232D01*
X52147948Y28547554D01*
X52157715Y28528387D01*
X52278028Y28362787D01*
X52422786Y28218029D01*
X52577749Y28105444D01*
X52588390Y28097713D01*
X52679840Y28051117D01*
X52681080Y28050485D01*
X52731876Y28002510D01*
X52748671Y27934689D01*
X52726134Y27868554D01*
X52681080Y27829515D01*
X52588386Y27782285D01*
X52422786Y27661972D01*
X52278028Y27517214D01*
X52157715Y27351614D01*
X52064781Y27169224D01*
X52001522Y26974535D01*
X51969500Y26772352D01*
X51969500Y26567649D01*
X52001522Y26365466D01*
X52064781Y26170777D01*
X52128691Y26045347D01*
X52152052Y25999500D01*
X52157715Y25988387D01*
X52278028Y25822787D01*
X52422786Y25678029D01*
X52577749Y25565444D01*
X52588390Y25557713D01*
X52704607Y25498497D01*
X52770776Y25464782D01*
X52770778Y25464782D01*
X52770781Y25464780D01*
X52875137Y25430873D01*
X52965465Y25401523D01*
X53066557Y25385512D01*
X53167648Y25369500D01*
X53167649Y25369500D01*
X53372351Y25369500D01*
X53372352Y25369500D01*
X53574534Y25401523D01*
X53769219Y25464780D01*
X53951610Y25557713D01*
X54044590Y25625268D01*
X54117213Y25678029D01*
X54117215Y25678032D01*
X54117219Y25678034D01*
X54261966Y25822781D01*
X54261968Y25822785D01*
X54261971Y25822787D01*
X54314732Y25895410D01*
X54382287Y25988390D01*
X54475220Y26170781D01*
X54538477Y26365466D01*
X54570500Y26567648D01*
X54570500Y26772352D01*
X54551443Y26892670D01*
X54538477Y26974535D01*
X54504621Y27078731D01*
X54475220Y27169219D01*
X54475218Y27169222D01*
X54475218Y27169224D01*
X54401341Y27314214D01*
X54382287Y27351610D01*
X54345421Y27402352D01*
X54261971Y27517214D01*
X54117213Y27661972D01*
X53951614Y27782285D01*
X53918369Y27799224D01*
X53858917Y27829517D01*
X53808123Y27877489D01*
X53791328Y27945310D01*
X53813865Y28011445D01*
X53858917Y28050484D01*
X53951610Y28097713D01*
X54084139Y28194000D01*
X54117213Y28218029D01*
X54117215Y28218032D01*
X54117219Y28218034D01*
X54261966Y28362781D01*
X54261968Y28362785D01*
X54261971Y28362787D01*
X54362392Y28501007D01*
X54382287Y28528390D01*
X54475220Y28710781D01*
X54538477Y28905466D01*
X54570500Y29107648D01*
X54570500Y29312352D01*
X54564024Y29353240D01*
X54538477Y29514535D01*
X54476951Y29703891D01*
X54475220Y29709219D01*
X54475218Y29709222D01*
X54475218Y29709224D01*
X54401341Y29854214D01*
X54382287Y29891610D01*
X54374556Y29902251D01*
X54261971Y30057214D01*
X54117213Y30201972D01*
X53951614Y30322285D01*
X53943410Y30326465D01*
X53865703Y30366059D01*
X53814908Y30414032D01*
X53798113Y30481853D01*
X53820650Y30547988D01*
X53863546Y30585901D01*
X53929493Y30621151D01*
X53929511Y30621162D01*
X53998912Y30667535D01*
X53399409Y31267038D01*
X53462993Y31284075D01*
X53577007Y31349901D01*
X53670099Y31442993D01*
X53735925Y31557007D01*
X53752962Y31620591D01*
X54352465Y31021088D01*
X54398838Y31090489D01*
X54398844Y31090499D01*
X54445509Y31177802D01*
X54505814Y31323388D01*
X54534555Y31418136D01*
X54565298Y31572698D01*
X54565298Y31572701D01*
X54575000Y31671211D01*
X54575000Y31828790D01*
X54565298Y31927300D01*
X54565298Y31927303D01*
X54534555Y32081865D01*
X54505814Y32176613D01*
X54445509Y32322199D01*
X54398841Y32409507D01*
X54352465Y32478914D01*
X54352465Y32478915D01*
X53752962Y31879411D01*
X53735925Y31942993D01*
X53670099Y32057007D01*
X53577007Y32150099D01*
X53462993Y32215925D01*
X53399410Y32232963D01*
X53998913Y32832466D01*
X53998912Y32832467D01*
X53929506Y32878842D01*
X53863545Y32914100D01*
X53813701Y32963063D01*
X53798241Y33031201D01*
X53822073Y33096881D01*
X53865702Y33133941D01*
X53951610Y33177713D01*
X54042745Y33243926D01*
X54117213Y33298029D01*
X54117215Y33298032D01*
X54117219Y33298034D01*
X54261966Y33442781D01*
X54261968Y33442785D01*
X54261971Y33442787D01*
X54369100Y33590240D01*
X54382287Y33608390D01*
X54475220Y33790781D01*
X54538477Y33985466D01*
X54570500Y34187648D01*
X54570500Y34392352D01*
X54538477Y34594534D01*
X54528740Y34624500D01*
X54475218Y34789224D01*
X54441503Y34855393D01*
X54382287Y34971610D01*
X54374556Y34982251D01*
X54261971Y35137214D01*
X54117213Y35281972D01*
X53951614Y35402285D01*
X53945006Y35405652D01*
X53858917Y35449517D01*
X53808123Y35497489D01*
X53791328Y35565310D01*
X53813865Y35631445D01*
X53858917Y35670484D01*
X53951610Y35717713D01*
X53972770Y35733087D01*
X54117213Y35838029D01*
X54117215Y35838032D01*
X54117219Y35838034D01*
X54261966Y35982781D01*
X54261968Y35982785D01*
X54261971Y35982787D01*
X54314732Y36055410D01*
X54382287Y36148390D01*
X54475220Y36330781D01*
X54538477Y36525466D01*
X54570500Y36727648D01*
X54570500Y36932352D01*
X54538477Y37134534D01*
X54475220Y37329219D01*
X54475218Y37329222D01*
X54475218Y37329224D01*
X54386215Y37503900D01*
X54382287Y37511610D01*
X54374556Y37522251D01*
X54261971Y37677214D01*
X54117213Y37821972D01*
X53951614Y37942285D01*
X53945006Y37945652D01*
X53858917Y37989517D01*
X53808123Y38037489D01*
X53791328Y38105310D01*
X53813865Y38171445D01*
X53858917Y38210484D01*
X53951610Y38257713D01*
X53972770Y38273087D01*
X54117213Y38378029D01*
X54117215Y38378032D01*
X54117219Y38378034D01*
X54261966Y38522781D01*
X54261968Y38522785D01*
X54261971Y38522787D01*
X54314732Y38595410D01*
X54382287Y38688390D01*
X54475220Y38870781D01*
X54538477Y39065466D01*
X54570500Y39267648D01*
X54570500Y39472352D01*
X54538477Y39674534D01*
X54475220Y39869219D01*
X54475218Y39869222D01*
X54475218Y39869224D01*
X54433805Y39950500D01*
X54382287Y40051610D01*
X54374556Y40062251D01*
X54261971Y40217214D01*
X54117213Y40361972D01*
X53951614Y40482285D01*
X53945006Y40485652D01*
X53858917Y40529517D01*
X53808123Y40577489D01*
X53791328Y40645310D01*
X53813865Y40711445D01*
X53858917Y40750484D01*
X53951610Y40797713D01*
X53972770Y40813087D01*
X54117213Y40918029D01*
X54117215Y40918032D01*
X54117219Y40918034D01*
X54261966Y41062781D01*
X54261968Y41062785D01*
X54261971Y41062787D01*
X54314732Y41135410D01*
X54382287Y41228390D01*
X54475220Y41410781D01*
X54538477Y41605466D01*
X54570500Y41807648D01*
X54570500Y42012352D01*
X54542675Y42188029D01*
X54538477Y42214535D01*
X54500056Y42332781D01*
X54475220Y42409219D01*
X54475218Y42409222D01*
X54475218Y42409224D01*
X54441503Y42475393D01*
X54382287Y42591610D01*
X54374556Y42602251D01*
X54261971Y42757214D01*
X54117213Y42901972D01*
X53951614Y43022285D01*
X53943410Y43026465D01*
X53865703Y43066059D01*
X53814908Y43114032D01*
X53798113Y43181853D01*
X53820650Y43247988D01*
X53863546Y43285901D01*
X53929493Y43321151D01*
X53929511Y43321162D01*
X53998912Y43367535D01*
X53399409Y43967038D01*
X53462993Y43984075D01*
X53577007Y44049901D01*
X53670099Y44142993D01*
X53735925Y44257007D01*
X53752962Y44320591D01*
X54352465Y43721088D01*
X54398838Y43790489D01*
X54398844Y43790499D01*
X54445509Y43877802D01*
X54505814Y44023388D01*
X54534555Y44118136D01*
X54565298Y44272698D01*
X54565298Y44272701D01*
X54575000Y44371211D01*
X54575000Y44528790D01*
X54565298Y44627300D01*
X54565298Y44627303D01*
X54534555Y44781865D01*
X54505814Y44876613D01*
X54445509Y45022199D01*
X54398841Y45109507D01*
X54352465Y45178914D01*
X54352465Y45178915D01*
X53752962Y44579411D01*
X53735925Y44642993D01*
X53670099Y44757007D01*
X53577007Y44850099D01*
X53462993Y44915925D01*
X53399410Y44932963D01*
X53998913Y45532466D01*
X53998912Y45532467D01*
X53929506Y45578842D01*
X53863545Y45614100D01*
X53813701Y45663063D01*
X53798241Y45731201D01*
X53822073Y45796881D01*
X53865702Y45833941D01*
X53951610Y45877713D01*
X54042745Y45943926D01*
X54117213Y45998029D01*
X54117215Y45998032D01*
X54117219Y45998034D01*
X54261966Y46142781D01*
X54261968Y46142785D01*
X54261971Y46142787D01*
X54314732Y46215410D01*
X54382287Y46308390D01*
X54475220Y46490781D01*
X54538477Y46685466D01*
X54570500Y46887648D01*
X54570500Y47092352D01*
X54538477Y47294534D01*
X54475220Y47489219D01*
X54475218Y47489222D01*
X54475218Y47489224D01*
X54441503Y47555393D01*
X54382287Y47671610D01*
X54374556Y47682251D01*
X54261971Y47837214D01*
X54117213Y47981972D01*
X53951614Y48102285D01*
X53897216Y48130002D01*
X53858917Y48149517D01*
X53808123Y48197489D01*
X53791328Y48265310D01*
X53813865Y48331445D01*
X53858917Y48370484D01*
X53951610Y48417713D01*
X53972770Y48433087D01*
X54117213Y48538029D01*
X54117215Y48538032D01*
X54117219Y48538034D01*
X54261966Y48682781D01*
X54261968Y48682785D01*
X54261971Y48682787D01*
X54331469Y48778445D01*
X54382287Y48848390D01*
X54475220Y49030781D01*
X54538477Y49225466D01*
X54570500Y49427648D01*
X54570500Y49632352D01*
X54550865Y49756323D01*
X54538477Y49834535D01*
X54507458Y49930000D01*
X54475220Y50029219D01*
X54475218Y50029222D01*
X54475218Y50029224D01*
X54382419Y50211350D01*
X54382287Y50211610D01*
X54350092Y50255923D01*
X54261971Y50377214D01*
X54117213Y50521972D01*
X53951614Y50642285D01*
X53945006Y50645652D01*
X53858917Y50689517D01*
X53808123Y50737489D01*
X53791328Y50805310D01*
X53813865Y50871445D01*
X53858917Y50910484D01*
X53951610Y50957713D01*
X53972770Y50973087D01*
X54117213Y51078029D01*
X54117215Y51078032D01*
X54117219Y51078034D01*
X54261966Y51222781D01*
X54261968Y51222785D01*
X54261971Y51222787D01*
X54314732Y51295410D01*
X54382287Y51388390D01*
X54475220Y51570781D01*
X54538477Y51765466D01*
X54570500Y51967648D01*
X54570500Y52172352D01*
X54554959Y52270475D01*
X54538477Y52374535D01*
X54489473Y52525353D01*
X54475220Y52569219D01*
X54475218Y52569222D01*
X54475218Y52569224D01*
X54441503Y52635393D01*
X54382287Y52751610D01*
X54374556Y52762251D01*
X54261971Y52917214D01*
X54117213Y53061972D01*
X53951614Y53182285D01*
X53945006Y53185652D01*
X53858917Y53229517D01*
X53808123Y53277489D01*
X53791328Y53345310D01*
X53813865Y53411445D01*
X53858917Y53450484D01*
X53951610Y53497713D01*
X54014780Y53543608D01*
X54117213Y53618029D01*
X54117215Y53618032D01*
X54117219Y53618034D01*
X54261966Y53762781D01*
X54261968Y53762785D01*
X54261971Y53762787D01*
X54314732Y53835410D01*
X54382287Y53928390D01*
X54475220Y54110781D01*
X54538477Y54305466D01*
X54570500Y54507648D01*
X54570500Y54712352D01*
X54538477Y54914534D01*
X54475220Y55109219D01*
X54475218Y55109222D01*
X54475218Y55109224D01*
X54441503Y55175393D01*
X54382287Y55291610D01*
X54374556Y55302251D01*
X54261971Y55457214D01*
X54117213Y55601972D01*
X53951613Y55722285D01*
X53951612Y55722286D01*
X53951610Y55722287D01*
X53898947Y55749120D01*
X53866245Y55765783D01*
X53815449Y55813758D01*
X53798654Y55881579D01*
X53821192Y55947714D01*
X53864083Y55985624D01*
X53929783Y56020741D01*
X54060811Y56108291D01*
X54137412Y56171157D01*
X54248843Y56282588D01*
X54311709Y56359189D01*
X54399259Y56490217D01*
X54445972Y56577611D01*
X54506278Y56723202D01*
X54535044Y56818032D01*
X54565787Y56972590D01*
X54575500Y57071207D01*
X54575500Y57228793D01*
X54565787Y57327410D01*
X54535044Y57481968D01*
X54506278Y57576798D01*
X54445972Y57722389D01*
X54399259Y57809783D01*
X54399248Y57809800D01*
X54311721Y57940794D01*
X54311712Y57940806D01*
X54311709Y57940811D01*
X54248843Y58017412D01*
X54137412Y58128843D01*
X54060811Y58191709D01*
X54060804Y58191714D01*
X54060793Y58191722D01*
X53929799Y58279249D01*
X53929788Y58279256D01*
X53929783Y58279259D01*
X53907645Y58291092D01*
X53864086Y58314375D01*
X53814242Y58363338D01*
X53798782Y58431476D01*
X53822614Y58497155D01*
X53866246Y58534218D01*
X53951610Y58577713D01*
X54042745Y58643926D01*
X54117213Y58698029D01*
X54117215Y58698032D01*
X54117219Y58698034D01*
X54261966Y58842781D01*
X54261968Y58842785D01*
X54261971Y58842787D01*
X54314732Y58915410D01*
X54382287Y59008390D01*
X54475220Y59190781D01*
X54538477Y59385466D01*
X54570500Y59587648D01*
X54570500Y59792352D01*
X54538477Y59994534D01*
X54475220Y60189219D01*
X54475218Y60189222D01*
X54475218Y60189224D01*
X54441503Y60255393D01*
X54382287Y60371610D01*
X54340227Y60429501D01*
X54261971Y60537214D01*
X54117213Y60681972D01*
X53951614Y60802285D01*
X53945006Y60805652D01*
X53858917Y60849517D01*
X53808123Y60897489D01*
X53791328Y60965310D01*
X53813865Y61031445D01*
X53858917Y61070484D01*
X53951610Y61117713D01*
X53972770Y61133087D01*
X54117213Y61238029D01*
X54117215Y61238032D01*
X54117219Y61238034D01*
X54261966Y61382781D01*
X54261968Y61382785D01*
X54261971Y61382787D01*
X54314732Y61455410D01*
X54382287Y61548390D01*
X54475220Y61730781D01*
X54538477Y61925466D01*
X54570500Y62127648D01*
X54570500Y62332352D01*
X54538477Y62534534D01*
X54475220Y62729219D01*
X54475218Y62729222D01*
X54475218Y62729224D01*
X54441503Y62795393D01*
X54382287Y62911610D01*
X54374556Y62922251D01*
X54261971Y63077214D01*
X54117213Y63221972D01*
X53951614Y63342285D01*
X53945006Y63345652D01*
X53858917Y63389517D01*
X53808123Y63437489D01*
X53791328Y63505310D01*
X53813865Y63571445D01*
X53858917Y63610484D01*
X53951610Y63657713D01*
X53972770Y63673087D01*
X54117213Y63778029D01*
X54117215Y63778032D01*
X54117219Y63778034D01*
X54261966Y63922781D01*
X54261968Y63922785D01*
X54261971Y63922787D01*
X54340227Y64030499D01*
X54382287Y64088390D01*
X54475220Y64270781D01*
X54538477Y64465466D01*
X54570500Y64667648D01*
X54570500Y64872352D01*
X54538477Y65074534D01*
X54475220Y65269219D01*
X54475218Y65269222D01*
X54475218Y65269224D01*
X54441503Y65335393D01*
X54382287Y65451610D01*
X54340228Y65509500D01*
X54261971Y65617214D01*
X54117213Y65761972D01*
X53951614Y65882285D01*
X53945006Y65885652D01*
X53858917Y65929517D01*
X53808123Y65977489D01*
X53791328Y66045310D01*
X53813865Y66111445D01*
X53858917Y66150484D01*
X53951610Y66197713D01*
X53972770Y66213087D01*
X54117213Y66318029D01*
X54117215Y66318032D01*
X54117219Y66318034D01*
X54261966Y66462781D01*
X54261968Y66462785D01*
X54261971Y66462787D01*
X54314732Y66535410D01*
X54382287Y66628390D01*
X54475220Y66810781D01*
X54538477Y67005466D01*
X54570500Y67207648D01*
X54570500Y67412352D01*
X54538477Y67614534D01*
X54475220Y67809219D01*
X54475218Y67809222D01*
X54475218Y67809224D01*
X54441503Y67875393D01*
X54382287Y67991610D01*
X54374556Y68002251D01*
X54261971Y68157214D01*
X54117213Y68301972D01*
X53951614Y68422285D01*
X53943410Y68426465D01*
X53865703Y68466059D01*
X53814908Y68514032D01*
X53798113Y68581853D01*
X53820650Y68647988D01*
X53863546Y68685901D01*
X53929493Y68721151D01*
X53929511Y68721162D01*
X53998912Y68767535D01*
X53399409Y69367038D01*
X53462993Y69384075D01*
X53577007Y69449901D01*
X53670099Y69542993D01*
X53735925Y69657007D01*
X53752962Y69720591D01*
X54352465Y69121088D01*
X54398838Y69190489D01*
X54398844Y69190499D01*
X54445509Y69277802D01*
X54505814Y69423388D01*
X54534555Y69518136D01*
X54565298Y69672698D01*
X54565298Y69672701D01*
X54575000Y69771211D01*
X54575000Y69928790D01*
X54565298Y70027300D01*
X54565298Y70027303D01*
X54534555Y70181865D01*
X54505814Y70276613D01*
X54445509Y70422199D01*
X54398841Y70509507D01*
X54352465Y70578914D01*
X54352465Y70578915D01*
X53752962Y69979411D01*
X53735925Y70042993D01*
X53670099Y70157007D01*
X53577007Y70250099D01*
X53462993Y70315925D01*
X53399410Y70332963D01*
X53998913Y70932466D01*
X53998912Y70932467D01*
X53929506Y70978842D01*
X53863545Y71014100D01*
X53813701Y71063063D01*
X53798241Y71131201D01*
X53822073Y71196881D01*
X53865702Y71233941D01*
X53951610Y71277713D01*
X54042745Y71343926D01*
X54117213Y71398029D01*
X54117215Y71398032D01*
X54117219Y71398034D01*
X54261966Y71542781D01*
X54261968Y71542785D01*
X54261971Y71542787D01*
X54317505Y71619224D01*
X54382287Y71708390D01*
X54475220Y71890781D01*
X54538477Y72085466D01*
X54570500Y72287648D01*
X54570500Y72492352D01*
X54538477Y72694534D01*
X54475220Y72889219D01*
X54475218Y72889222D01*
X54475218Y72889224D01*
X54419029Y72999500D01*
X54382287Y73071610D01*
X54321620Y73155112D01*
X54261971Y73237214D01*
X54117213Y73381972D01*
X53951614Y73502285D01*
X53945006Y73505652D01*
X53858917Y73549517D01*
X53808123Y73597489D01*
X53791328Y73665310D01*
X53813865Y73731445D01*
X53858917Y73770484D01*
X53951610Y73817713D01*
X54057733Y73894815D01*
X54117213Y73938029D01*
X54117215Y73938032D01*
X54117219Y73938034D01*
X54261966Y74082781D01*
X54261968Y74082785D01*
X54261971Y74082787D01*
X54345421Y74197648D01*
X54382287Y74248390D01*
X54475220Y74430781D01*
X54538477Y74625466D01*
X54570500Y74827648D01*
X54570500Y75032352D01*
X54552307Y75147219D01*
X54538477Y75234535D01*
X54486547Y75394357D01*
X54475220Y75429219D01*
X54475218Y75429222D01*
X54475218Y75429224D01*
X54404264Y75568477D01*
X54382287Y75611610D01*
X54374556Y75622251D01*
X54261971Y75777214D01*
X54117213Y75921972D01*
X53951613Y76042285D01*
X53951612Y76042286D01*
X53951610Y76042287D01*
X53866855Y76085472D01*
X53769223Y76135219D01*
X53574534Y76198478D01*
X53399995Y76226122D01*
X53372352Y76230500D01*
X53167648Y76230500D01*
X53143329Y76226649D01*
X52965465Y76198478D01*
X52770776Y76135219D01*
X52588386Y76042285D01*
X52422786Y75921972D01*
X52278028Y75777214D01*
X52157715Y75611614D01*
X52064781Y75429224D01*
X52001522Y75234535D01*
X51969500Y75032352D01*
X51969500Y74827649D01*
X52001522Y74625466D01*
X52064781Y74430777D01*
X52079265Y74402352D01*
X52144976Y74273387D01*
X52157715Y74248387D01*
X52278028Y74082787D01*
X52422786Y73938029D01*
X52577749Y73825444D01*
X52588390Y73817713D01*
X52673139Y73774531D01*
X52681080Y73770485D01*
X52731876Y73722510D01*
X52748671Y73654689D01*
X52726134Y73588554D01*
X52681080Y73549515D01*
X52588386Y73502285D01*
X52422786Y73381972D01*
X52278028Y73237214D01*
X52157715Y73071614D01*
X52064781Y72889224D01*
X52001522Y72694535D01*
X51969500Y72492352D01*
X51969500Y72287649D01*
X52001522Y72085466D01*
X52064781Y71890777D01*
X52157715Y71708387D01*
X52278028Y71542787D01*
X52422782Y71398033D01*
X52422787Y71398029D01*
X52499583Y71342233D01*
X52542249Y71286903D01*
X52548228Y71217290D01*
X52515622Y71155495D01*
X52457365Y71121767D01*
X52436967Y71116561D01*
X52436956Y71116558D01*
X52380415Y71093138D01*
X53140590Y70332963D01*
X53077007Y70315925D01*
X52962993Y70250099D01*
X52869901Y70157007D01*
X52804075Y70042993D01*
X52787037Y69979410D01*
X52026862Y70739585D01*
X52003449Y70683060D01*
X51985455Y70632054D01*
X51965000Y70489781D01*
X51965000Y69210215D01*
X51967893Y69156238D01*
X51967893Y69156236D01*
X52003438Y69016970D01*
X52003440Y69016963D01*
X52026863Y68960417D01*
X52787037Y69720591D01*
X52804075Y69657007D01*
X52869901Y69542993D01*
X52962993Y69449901D01*
X53077007Y69384075D01*
X53140590Y69367038D01*
X52380415Y68606865D01*
X52380415Y68606864D01*
X52436954Y68583444D01*
X52436961Y68583442D01*
X52465621Y68573331D01*
X52522294Y68532466D01*
X52547876Y68467448D01*
X52534246Y68398920D01*
X52497256Y68356076D01*
X52422782Y68301968D01*
X52278028Y68157214D01*
X52157715Y67991614D01*
X52064781Y67809224D01*
X52001522Y67614535D01*
X51969500Y67412352D01*
X51969500Y67207649D01*
X52001522Y67005466D01*
X52064781Y66810777D01*
X52157715Y66628387D01*
X52278028Y66462787D01*
X52422786Y66318029D01*
X52577749Y66205444D01*
X52588390Y66197713D01*
X52679840Y66151117D01*
X52681080Y66150485D01*
X52731876Y66102510D01*
X52748671Y66034689D01*
X52726134Y65968554D01*
X52681080Y65929515D01*
X52588386Y65882285D01*
X52422786Y65761972D01*
X52278028Y65617214D01*
X52157715Y65451614D01*
X52064781Y65269224D01*
X52001522Y65074535D01*
X51969500Y64872352D01*
X51969500Y64667649D01*
X52001522Y64465466D01*
X52064781Y64270777D01*
X52157715Y64088387D01*
X52278028Y63922787D01*
X52422786Y63778029D01*
X52577749Y63665444D01*
X52588390Y63657713D01*
X52679840Y63611117D01*
X52681080Y63610485D01*
X52731876Y63562510D01*
X52748671Y63494689D01*
X52726134Y63428554D01*
X52681080Y63389515D01*
X52588386Y63342285D01*
X52422786Y63221972D01*
X52278028Y63077214D01*
X52157715Y62911614D01*
X52064781Y62729224D01*
X52001522Y62534535D01*
X51969500Y62332352D01*
X51969500Y62127649D01*
X52001522Y61925466D01*
X52064781Y61730777D01*
X52157715Y61548387D01*
X52278028Y61382787D01*
X52422786Y61238029D01*
X52571480Y61129999D01*
X52588390Y61117713D01*
X52679840Y61071117D01*
X52681080Y61070485D01*
X52731876Y61022510D01*
X52748671Y60954689D01*
X52726134Y60888554D01*
X52681080Y60849515D01*
X52588386Y60802285D01*
X52422786Y60681972D01*
X52278028Y60537214D01*
X52157715Y60371614D01*
X52064781Y60189224D01*
X52001522Y59994535D01*
X51969500Y59792352D01*
X51969500Y59587649D01*
X52001522Y59385466D01*
X52064781Y59190777D01*
X52157715Y59008387D01*
X52278028Y58842787D01*
X52422782Y58698033D01*
X52422787Y58698029D01*
X52499063Y58642611D01*
X52541729Y58587281D01*
X52547708Y58517668D01*
X52515102Y58455873D01*
X52456845Y58422145D01*
X52436776Y58417023D01*
X52436766Y58417020D01*
X52363280Y58386581D01*
X52363252Y58386569D01*
X52314451Y58363221D01*
X52314446Y58363218D01*
X52199268Y58276995D01*
X52199256Y58276985D01*
X52143019Y58220748D01*
X52106843Y58180476D01*
X52106837Y58180468D01*
X52033426Y58056737D01*
X52002978Y57983226D01*
X52002970Y57983205D01*
X51984976Y57932200D01*
X51964500Y57789781D01*
X36795000Y57789781D01*
X36794999Y57789796D01*
X36792106Y57843763D01*
X36792106Y57843765D01*
X36756558Y57983040D01*
X36733136Y58039585D01*
X36733135Y58039585D01*
X35972962Y57279411D01*
X35955925Y57342993D01*
X35890099Y57457007D01*
X35797007Y57550099D01*
X35682993Y57615925D01*
X35619410Y57632963D01*
X36379583Y58393137D01*
X36379583Y58393138D01*
X36323052Y58416553D01*
X36323013Y58416568D01*
X36294375Y58426671D01*
X36237704Y58467537D01*
X36212122Y58532556D01*
X36225754Y58601083D01*
X36262745Y58643926D01*
X36337215Y58698031D01*
X36337215Y58698032D01*
X36337219Y58698034D01*
X36481966Y58842781D01*
X36481968Y58842785D01*
X36481971Y58842787D01*
X36534732Y58915410D01*
X36602287Y59008390D01*
X36695220Y59190781D01*
X36758477Y59385466D01*
X36790500Y59587648D01*
X36790500Y59792352D01*
X36758477Y59994534D01*
X36695220Y60189219D01*
X36695218Y60189222D01*
X36695218Y60189224D01*
X36661503Y60255393D01*
X36602287Y60371610D01*
X36560227Y60429501D01*
X36481971Y60537214D01*
X36337213Y60681972D01*
X36171614Y60802285D01*
X36165006Y60805652D01*
X36078917Y60849517D01*
X36028123Y60897489D01*
X36011328Y60965310D01*
X36033865Y61031445D01*
X36078917Y61070484D01*
X36171610Y61117713D01*
X36192770Y61133087D01*
X36337213Y61238029D01*
X36337215Y61238032D01*
X36337219Y61238034D01*
X36481966Y61382781D01*
X36481968Y61382785D01*
X36481971Y61382787D01*
X36534732Y61455410D01*
X36602287Y61548390D01*
X36695220Y61730781D01*
X36758477Y61925466D01*
X36790500Y62127648D01*
X36790500Y62332352D01*
X36758477Y62534534D01*
X36695220Y62729219D01*
X36695218Y62729222D01*
X36695218Y62729224D01*
X36661503Y62795393D01*
X36602287Y62911610D01*
X36594556Y62922251D01*
X36481971Y63077214D01*
X36337213Y63221972D01*
X36171614Y63342285D01*
X36165006Y63345652D01*
X36078917Y63389517D01*
X36028123Y63437489D01*
X36011328Y63505310D01*
X36033865Y63571445D01*
X36078917Y63610484D01*
X36171610Y63657713D01*
X36192770Y63673087D01*
X36337213Y63778029D01*
X36337215Y63778032D01*
X36337219Y63778034D01*
X36481966Y63922781D01*
X36481968Y63922785D01*
X36481971Y63922787D01*
X36560227Y64030499D01*
X36602287Y64088390D01*
X36695220Y64270781D01*
X36758477Y64465466D01*
X36790500Y64667648D01*
X36790500Y64872352D01*
X36758477Y65074534D01*
X36695220Y65269219D01*
X36695218Y65269222D01*
X36695218Y65269224D01*
X36661503Y65335393D01*
X36602287Y65451610D01*
X36560228Y65509500D01*
X36481971Y65617214D01*
X36337213Y65761972D01*
X36171614Y65882285D01*
X36165006Y65885652D01*
X36078917Y65929517D01*
X36028123Y65977489D01*
X36011328Y66045310D01*
X36033865Y66111445D01*
X36078917Y66150484D01*
X36171610Y66197713D01*
X36192770Y66213087D01*
X36337213Y66318029D01*
X36337215Y66318032D01*
X36337219Y66318034D01*
X36481966Y66462781D01*
X36481968Y66462785D01*
X36481971Y66462787D01*
X36534732Y66535410D01*
X36602287Y66628390D01*
X36695220Y66810781D01*
X36758477Y67005466D01*
X36790500Y67207648D01*
X36790500Y67412352D01*
X36758477Y67614534D01*
X36695220Y67809219D01*
X36695218Y67809222D01*
X36695218Y67809224D01*
X36661503Y67875393D01*
X36602287Y67991610D01*
X36594556Y68002251D01*
X36481971Y68157214D01*
X36337217Y68301968D01*
X36260415Y68357768D01*
X36217750Y68413098D01*
X36211771Y68482712D01*
X36244377Y68544506D01*
X36302640Y68578235D01*
X36323022Y68583437D01*
X36323035Y68583441D01*
X36379582Y68606865D01*
X35619409Y69367038D01*
X35682993Y69384075D01*
X35797007Y69449901D01*
X35890099Y69542993D01*
X35955925Y69657007D01*
X35972962Y69720591D01*
X36733135Y68960418D01*
X36733137Y68960418D01*
X36756552Y69016947D01*
X36774544Y69067947D01*
X36794999Y69210220D01*
X36795000Y69210221D01*
X36795000Y70489776D01*
X36794999Y70489796D01*
X36792106Y70543763D01*
X36792106Y70543765D01*
X36756558Y70683040D01*
X36733136Y70739585D01*
X36733135Y70739585D01*
X35972962Y69979411D01*
X35955925Y70042993D01*
X35890099Y70157007D01*
X35797007Y70250099D01*
X35682993Y70315925D01*
X35619410Y70332963D01*
X36379583Y71093137D01*
X36379583Y71093138D01*
X36323052Y71116553D01*
X36323013Y71116568D01*
X36294375Y71126671D01*
X36237704Y71167537D01*
X36212122Y71232556D01*
X36225754Y71301083D01*
X36262745Y71343926D01*
X36337215Y71398031D01*
X36337215Y71398032D01*
X36337219Y71398034D01*
X36481966Y71542781D01*
X36481968Y71542785D01*
X36481971Y71542787D01*
X36537505Y71619224D01*
X36602287Y71708390D01*
X36695220Y71890781D01*
X36758477Y72085466D01*
X36790500Y72287648D01*
X36790500Y72492352D01*
X36758477Y72694534D01*
X36695220Y72889219D01*
X36695218Y72889222D01*
X36695218Y72889224D01*
X36639029Y72999500D01*
X36602287Y73071610D01*
X36541620Y73155112D01*
X36481971Y73237214D01*
X36337217Y73381968D01*
X36337212Y73381972D01*
X36256440Y73440656D01*
X36213774Y73495985D01*
X36207795Y73565599D01*
X36240400Y73627394D01*
X36292433Y73659359D01*
X36379606Y73686522D01*
X36525185Y73774528D01*
X36645472Y73894815D01*
X36733478Y74040394D01*
X36784086Y74202804D01*
X36790500Y74273384D01*
X36790500Y74402352D01*
X37409956Y74402352D01*
X37409956Y74197649D01*
X37441978Y73995466D01*
X37505237Y73800777D01*
X37544348Y73724019D01*
X37593581Y73627394D01*
X37598171Y73618387D01*
X37718484Y73452787D01*
X37863242Y73308029D01*
X38018205Y73195444D01*
X38028846Y73187713D01*
X38145063Y73128497D01*
X38211232Y73094782D01*
X38211234Y73094782D01*
X38211237Y73094780D01*
X38282535Y73071614D01*
X38405921Y73031523D01*
X38507013Y73015512D01*
X38608104Y72999500D01*
X38608105Y72999500D01*
X38812807Y72999500D01*
X38812808Y72999500D01*
X39014990Y73031523D01*
X39209675Y73094780D01*
X39392066Y73187713D01*
X39485046Y73255268D01*
X39557669Y73308029D01*
X39557671Y73308032D01*
X39557675Y73308034D01*
X39702422Y73452781D01*
X39702424Y73452785D01*
X39702427Y73452787D01*
X39784388Y73565599D01*
X39822743Y73618390D01*
X39915676Y73800781D01*
X39978933Y73995466D01*
X40010956Y74197648D01*
X40010956Y74402352D01*
X48767344Y74402352D01*
X48767344Y74197649D01*
X48799366Y73995466D01*
X48862625Y73800777D01*
X48901736Y73724019D01*
X48950969Y73627394D01*
X48955559Y73618387D01*
X49075872Y73452787D01*
X49220630Y73308029D01*
X49375593Y73195444D01*
X49386234Y73187713D01*
X49502451Y73128497D01*
X49568620Y73094782D01*
X49568622Y73094782D01*
X49568625Y73094780D01*
X49639923Y73071614D01*
X49763309Y73031523D01*
X49864401Y73015512D01*
X49965492Y72999500D01*
X49965493Y72999500D01*
X50170195Y72999500D01*
X50170196Y72999500D01*
X50372378Y73031523D01*
X50567063Y73094780D01*
X50749454Y73187713D01*
X50842434Y73255268D01*
X50915057Y73308029D01*
X50915059Y73308032D01*
X50915063Y73308034D01*
X51059810Y73452781D01*
X51059812Y73452785D01*
X51059815Y73452787D01*
X51141776Y73565599D01*
X51180131Y73618390D01*
X51273064Y73800781D01*
X51336321Y73995466D01*
X51368344Y74197648D01*
X51368344Y74402352D01*
X51336321Y74604534D01*
X51273064Y74799219D01*
X51273062Y74799222D01*
X51273062Y74799224D01*
X51180478Y74980929D01*
X51180477Y74980931D01*
X51180130Y74981612D01*
X51059815Y75147214D01*
X50915057Y75291972D01*
X50749457Y75412285D01*
X50749456Y75412286D01*
X50749454Y75412287D01*
X50676406Y75449507D01*
X50567067Y75505219D01*
X50372378Y75568478D01*
X50197839Y75596122D01*
X50170196Y75600500D01*
X49965492Y75600500D01*
X49941173Y75596649D01*
X49763309Y75568478D01*
X49568620Y75505219D01*
X49386230Y75412285D01*
X49220630Y75291972D01*
X49075872Y75147214D01*
X48955559Y74981614D01*
X48862625Y74799224D01*
X48799366Y74604535D01*
X48767344Y74402352D01*
X40010956Y74402352D01*
X39978933Y74604534D01*
X39915676Y74799219D01*
X39915674Y74799222D01*
X39915674Y74799224D01*
X39881959Y74865393D01*
X39822743Y74981610D01*
X39815012Y74992251D01*
X39702427Y75147214D01*
X39557669Y75291972D01*
X39392069Y75412285D01*
X39392068Y75412286D01*
X39392066Y75412287D01*
X39319018Y75449507D01*
X39209679Y75505219D01*
X39014990Y75568478D01*
X38840451Y75596122D01*
X38812808Y75600500D01*
X38608104Y75600500D01*
X38583785Y75596649D01*
X38405921Y75568478D01*
X38211232Y75505219D01*
X38028842Y75412285D01*
X37863242Y75291972D01*
X37718484Y75147214D01*
X37598171Y74981614D01*
X37505237Y74799224D01*
X37441978Y74604535D01*
X37409956Y74402352D01*
X36790500Y74402352D01*
X36790500Y75586616D01*
X36784086Y75657196D01*
X36733478Y75819606D01*
X36645472Y75965185D01*
X36645470Y75965187D01*
X36645469Y75965189D01*
X36525188Y76085470D01*
X36379606Y76173478D01*
X36217196Y76224086D01*
X36217194Y76224087D01*
X36217192Y76224087D01*
X36167778Y76228577D01*
X36146616Y76230500D01*
X34833384Y76230500D01*
X34814145Y76228752D01*
X34762807Y76224087D01*
X34600393Y76173478D01*
X34454811Y76085470D01*
X34334530Y75965189D01*
X34246522Y75819607D01*
X34195913Y75657193D01*
X34189500Y75586614D01*
X34189500Y74273387D01*
X34195913Y74202808D01*
X34195913Y74202806D01*
X34195914Y74202804D01*
X34246522Y74040394D01*
X34290352Y73967890D01*
X34334530Y73894812D01*
X34454811Y73774531D01*
X34454813Y73774530D01*
X34454815Y73774528D01*
X34600394Y73686522D01*
X34687566Y73659359D01*
X34745712Y73620622D01*
X34773686Y73556597D01*
X34762605Y73487612D01*
X34723560Y73440656D01*
X34642782Y73381968D01*
X34498028Y73237214D01*
X34377715Y73071614D01*
X34284781Y72889224D01*
X34221522Y72694535D01*
X34189500Y72492352D01*
X34189500Y72287649D01*
X34221522Y72085466D01*
X34284781Y71890777D01*
X34377715Y71708387D01*
X34498028Y71542787D01*
X34642786Y71398029D01*
X34808388Y71277714D01*
X34808390Y71277713D01*
X34894294Y71233943D01*
X34945090Y71185969D01*
X34961886Y71118148D01*
X34939349Y71052013D01*
X34896455Y71014101D01*
X34830494Y70978843D01*
X34830489Y70978840D01*
X34761086Y70932468D01*
X34761085Y70932467D01*
X35360590Y70332963D01*
X35297007Y70315925D01*
X35182993Y70250099D01*
X35089901Y70157007D01*
X35024075Y70042993D01*
X35007037Y69979411D01*
X34407533Y70578915D01*
X34407532Y70578914D01*
X34361161Y70509512D01*
X34314490Y70422199D01*
X34254185Y70276613D01*
X34225444Y70181865D01*
X34194701Y70027303D01*
X34194701Y70027300D01*
X34185000Y69928790D01*
X30936715Y69928790D01*
X31091610Y70007713D01*
X31125255Y70032157D01*
X31257213Y70128029D01*
X31257215Y70128032D01*
X31257219Y70128034D01*
X31401966Y70272781D01*
X31401968Y70272785D01*
X31401971Y70272787D01*
X31458068Y70350000D01*
X31522287Y70438390D01*
X31615220Y70620781D01*
X31678477Y70815466D01*
X31710500Y71017648D01*
X31710500Y71222352D01*
X31698030Y71301083D01*
X31678477Y71424535D01*
X31615218Y71619224D01*
X31581503Y71685393D01*
X31522287Y71801610D01*
X31479863Y71860002D01*
X31401971Y71967214D01*
X31257213Y72111972D01*
X31091613Y72232285D01*
X31091612Y72232286D01*
X31091610Y72232287D01*
X31034653Y72261309D01*
X30909223Y72325219D01*
X30714534Y72388478D01*
X30539995Y72416122D01*
X30512352Y72420500D01*
X30307648Y72420500D01*
X30283329Y72416649D01*
X30105465Y72388478D01*
X29910776Y72325219D01*
X29728386Y72232285D01*
X29562786Y72111972D01*
X29418028Y71967214D01*
X29297715Y71801614D01*
X29204781Y71619224D01*
X29141522Y71424535D01*
X29109500Y71222352D01*
X24090500Y71222352D01*
X24078030Y71301083D01*
X24058477Y71424535D01*
X23995218Y71619224D01*
X23961503Y71685393D01*
X23902287Y71801610D01*
X23859863Y71860002D01*
X23781971Y71967214D01*
X23637213Y72111972D01*
X23471613Y72232285D01*
X23471612Y72232286D01*
X23471610Y72232287D01*
X23414653Y72261309D01*
X23289223Y72325219D01*
X23094534Y72388478D01*
X22919995Y72416122D01*
X22892352Y72420500D01*
X22687648Y72420500D01*
X22663329Y72416649D01*
X22485465Y72388478D01*
X22290776Y72325219D01*
X22108386Y72232285D01*
X21942786Y72111972D01*
X21798028Y71967214D01*
X21677715Y71801614D01*
X21584781Y71619224D01*
X21521522Y71424535D01*
X21489500Y71222352D01*
X7430500Y71222352D01*
X7430500Y74759987D01*
X13370000Y74759987D01*
X13370000Y73910000D01*
X14569999Y73910000D01*
X14544979Y73849598D01*
X14520000Y73724019D01*
X14520000Y73595981D01*
X14544979Y73470402D01*
X14569999Y73410000D01*
X13370001Y73410000D01*
X13370001Y72560014D01*
X13380494Y72457303D01*
X13435641Y72290881D01*
X13435643Y72290876D01*
X13527684Y72141655D01*
X13651654Y72017685D01*
X13800875Y71925644D01*
X13800880Y71925642D01*
X13967302Y71870495D01*
X13967309Y71870494D01*
X14070019Y71860001D01*
X14919999Y71860001D01*
X14920000Y71860002D01*
X14920000Y73059999D01*
X14980402Y73034979D01*
X15105981Y73010000D01*
X15234019Y73010000D01*
X15359598Y73034979D01*
X15420000Y73059999D01*
X15420000Y71860001D01*
X16269972Y71860001D01*
X16269986Y71860002D01*
X16372697Y71870495D01*
X16539119Y71925642D01*
X16539124Y71925644D01*
X16688345Y72017685D01*
X16812315Y72141655D01*
X16904356Y72290876D01*
X16904358Y72290881D01*
X16959505Y72457303D01*
X16959506Y72457310D01*
X16969999Y72560014D01*
X16970000Y72560027D01*
X16970000Y73410000D01*
X15770001Y73410000D01*
X15795021Y73470402D01*
X15820000Y73595981D01*
X15820000Y73724019D01*
X15795021Y73849598D01*
X15770001Y73910000D01*
X16969999Y73910000D01*
X16969999Y74759972D01*
X16969998Y74759987D01*
X16959505Y74862698D01*
X16904358Y75029120D01*
X16904356Y75029125D01*
X16812315Y75178346D01*
X16688345Y75302316D01*
X16539124Y75394357D01*
X16539119Y75394359D01*
X16372697Y75449506D01*
X16372690Y75449507D01*
X16269986Y75460000D01*
X15420000Y75460000D01*
X15420000Y74260002D01*
X15359598Y74285021D01*
X15234019Y74310000D01*
X15105981Y74310000D01*
X14980402Y74285021D01*
X14920000Y74260002D01*
X14920000Y75460000D01*
X14070028Y75460000D01*
X14070012Y75459999D01*
X13967302Y75449506D01*
X13800880Y75394359D01*
X13800875Y75394357D01*
X13651654Y75302316D01*
X13527684Y75178346D01*
X13435643Y75029125D01*
X13435641Y75029120D01*
X13380494Y74862698D01*
X13380493Y74862691D01*
X13370000Y74759987D01*
X7430500Y74759987D01*
X7430500Y78858005D01*
X13369500Y78858005D01*
X13369500Y78621996D01*
X13369501Y78621980D01*
X13400306Y78387990D01*
X13461394Y78160007D01*
X13551714Y77941955D01*
X13551719Y77941944D01*
X13622677Y77819043D01*
X13669727Y77737550D01*
X13669729Y77737547D01*
X13669730Y77737546D01*
X13813406Y77550303D01*
X13813412Y77550296D01*
X13980295Y77383413D01*
X13980301Y77383408D01*
X14167550Y77239727D01*
X14298918Y77163882D01*
X14371943Y77121720D01*
X14371948Y77121718D01*
X14371951Y77121716D01*
X14590007Y77031394D01*
X14817986Y76970307D01*
X15051989Y76939500D01*
X15051996Y76939500D01*
X15288004Y76939500D01*
X15288011Y76939500D01*
X15522014Y76970307D01*
X15749993Y77031394D01*
X15968049Y77121716D01*
X16172450Y77239727D01*
X16359699Y77383408D01*
X16526592Y77550301D01*
X16670273Y77737550D01*
X16788284Y77941951D01*
X16878606Y78160007D01*
X16939693Y78387986D01*
X16970500Y78621989D01*
X16970500Y78858011D01*
X16939693Y79092014D01*
X16878606Y79319993D01*
X16788284Y79538049D01*
X16788282Y79538052D01*
X16788280Y79538057D01*
X16746118Y79611082D01*
X16670273Y79742450D01*
X16526592Y79929699D01*
X16526587Y79929705D01*
X16359704Y80096588D01*
X16359697Y80096594D01*
X16172454Y80240270D01*
X16172453Y80240271D01*
X16172450Y80240273D01*
X16090957Y80287323D01*
X15968056Y80358281D01*
X15968045Y80358286D01*
X15749993Y80448606D01*
X15522010Y80509694D01*
X15288020Y80540499D01*
X15288017Y80540500D01*
X15288011Y80540500D01*
X15051989Y80540500D01*
X15051983Y80540500D01*
X15051979Y80540499D01*
X14817989Y80509694D01*
X14590006Y80448606D01*
X14371954Y80358286D01*
X14371943Y80358281D01*
X14167545Y80240270D01*
X13980302Y80096594D01*
X13980295Y80096588D01*
X13813412Y79929705D01*
X13813406Y79929698D01*
X13669730Y79742455D01*
X13551719Y79538057D01*
X13551714Y79538046D01*
X13461394Y79319994D01*
X13400306Y79092011D01*
X13369501Y78858021D01*
X13369500Y78858005D01*
X7430500Y78858005D01*
X7430500Y82652318D01*
X39310000Y82652318D01*
X39310000Y82447683D01*
X39342009Y82245583D01*
X39405244Y82050969D01*
X39498141Y81868650D01*
X39498147Y81868641D01*
X39530523Y81824079D01*
X39530524Y81824078D01*
X40210000Y82503554D01*
X40210000Y82497339D01*
X40237259Y82395606D01*
X40289920Y82304394D01*
X40364394Y82229920D01*
X40455606Y82177259D01*
X40557339Y82150000D01*
X40563553Y82150000D01*
X39884076Y81470526D01*
X39928650Y81438141D01*
X40110968Y81345245D01*
X40305582Y81282010D01*
X40507683Y81250000D01*
X40712317Y81250000D01*
X40914417Y81282010D01*
X41109031Y81345245D01*
X41291349Y81438141D01*
X41335921Y81470526D01*
X40656447Y82150000D01*
X40662661Y82150000D01*
X40764394Y82177259D01*
X40855606Y82229920D01*
X40930080Y82304394D01*
X40982741Y82395606D01*
X41010000Y82497339D01*
X41010000Y82503552D01*
X41689474Y81824078D01*
X41689474Y81824079D01*
X41721859Y81868651D01*
X41814755Y82050969D01*
X41877990Y82245583D01*
X41910000Y82447683D01*
X41910000Y82652318D01*
X41909995Y82652352D01*
X44309500Y82652352D01*
X44309500Y82447649D01*
X44341522Y82245466D01*
X44404781Y82050777D01*
X44468691Y81925347D01*
X44497585Y81868641D01*
X44497715Y81868387D01*
X44618028Y81702787D01*
X44762786Y81558029D01*
X44883226Y81470526D01*
X44928390Y81437713D01*
X45044607Y81378497D01*
X45110776Y81344782D01*
X45110778Y81344782D01*
X45110781Y81344780D01*
X45215137Y81310873D01*
X45305465Y81281523D01*
X45406557Y81265512D01*
X45507648Y81249500D01*
X45507649Y81249500D01*
X45712351Y81249500D01*
X45712352Y81249500D01*
X45914534Y81281523D01*
X46109219Y81344780D01*
X46291610Y81437713D01*
X46384590Y81505268D01*
X46457213Y81558029D01*
X46457215Y81558032D01*
X46457219Y81558034D01*
X46601966Y81702781D01*
X46601968Y81702785D01*
X46601971Y81702787D01*
X46654732Y81775410D01*
X46722287Y81868390D01*
X46815220Y82050781D01*
X46878477Y82245466D01*
X46910500Y82447648D01*
X46910500Y82652352D01*
X46902257Y82704394D01*
X46878477Y82854535D01*
X46847458Y82950000D01*
X46815220Y83049219D01*
X46815218Y83049222D01*
X46815218Y83049224D01*
X46722419Y83231350D01*
X46722287Y83231610D01*
X46690092Y83275923D01*
X46601971Y83397214D01*
X46457213Y83541972D01*
X46291613Y83662285D01*
X46291612Y83662286D01*
X46291610Y83662287D01*
X46234653Y83691309D01*
X46109223Y83755219D01*
X45914534Y83818478D01*
X45739995Y83846122D01*
X45712352Y83850500D01*
X45507648Y83850500D01*
X45483329Y83846649D01*
X45305465Y83818478D01*
X45110776Y83755219D01*
X44928386Y83662285D01*
X44762786Y83541972D01*
X44618028Y83397214D01*
X44497715Y83231614D01*
X44404781Y83049224D01*
X44341522Y82854535D01*
X44309500Y82652352D01*
X41909995Y82652352D01*
X41877990Y82854418D01*
X41814755Y83049032D01*
X41721859Y83231350D01*
X41689474Y83275923D01*
X41689474Y83275924D01*
X41010000Y82596449D01*
X41010000Y82602661D01*
X40982741Y82704394D01*
X40930080Y82795606D01*
X40855606Y82870080D01*
X40764394Y82922741D01*
X40662661Y82950000D01*
X40656446Y82950000D01*
X41335922Y83629476D01*
X41335921Y83629477D01*
X41291359Y83661853D01*
X41291350Y83661859D01*
X41109031Y83754756D01*
X40914417Y83817991D01*
X40712317Y83850000D01*
X40507683Y83850000D01*
X40305582Y83817991D01*
X40110968Y83754756D01*
X39928644Y83661857D01*
X39884077Y83629477D01*
X39884077Y83629476D01*
X40563554Y82950000D01*
X40557339Y82950000D01*
X40455606Y82922741D01*
X40364394Y82870080D01*
X40289920Y82795606D01*
X40237259Y82704394D01*
X40210000Y82602661D01*
X40210000Y82596447D01*
X39530524Y83275923D01*
X39530523Y83275923D01*
X39498143Y83231356D01*
X39405244Y83049032D01*
X39342009Y82854418D01*
X39310000Y82652318D01*
X7430500Y82652318D01*
X7430500Y85179366D01*
X17844500Y85179366D01*
X17844500Y85000635D01*
X17872460Y84824102D01*
X17872460Y84824099D01*
X17927689Y84654122D01*
X17927691Y84654119D01*
X18008833Y84494868D01*
X18113889Y84350272D01*
X18240272Y84223889D01*
X18384868Y84118833D01*
X18544119Y84037691D01*
X18544121Y84037690D01*
X18702670Y83986175D01*
X18714103Y83982460D01*
X18890634Y83954500D01*
X18890635Y83954500D01*
X19069365Y83954500D01*
X19069366Y83954500D01*
X19245897Y83982460D01*
X19245900Y83982461D01*
X19245901Y83982461D01*
X19415878Y84037690D01*
X19415878Y84037691D01*
X19415881Y84037691D01*
X19575132Y84118833D01*
X19719728Y84223889D01*
X19846111Y84350272D01*
X19951167Y84494868D01*
X20032309Y84654119D01*
X20055401Y84725188D01*
X20087539Y84824099D01*
X20087539Y84824100D01*
X20087540Y84824103D01*
X20115500Y85000634D01*
X20115500Y85179366D01*
X20087540Y85355897D01*
X20087539Y85355901D01*
X20087539Y85355902D01*
X20032310Y85525879D01*
X20032308Y85525882D01*
X20017727Y85554500D01*
X19951167Y85685132D01*
X19846111Y85829728D01*
X19719728Y85956111D01*
X19575132Y86061167D01*
X19415881Y86142309D01*
X19415878Y86142311D01*
X19245899Y86197540D01*
X19128209Y86216180D01*
X19069366Y86225500D01*
X18890634Y86225500D01*
X18831790Y86216180D01*
X18714101Y86197540D01*
X18714098Y86197540D01*
X18544121Y86142311D01*
X18544118Y86142309D01*
X18384867Y86061167D01*
X18240270Y85956110D01*
X18113890Y85829730D01*
X18008833Y85685133D01*
X17927691Y85525882D01*
X17927689Y85525879D01*
X17872460Y85355902D01*
X17872460Y85355899D01*
X17844500Y85179366D01*
X7430500Y85179366D01*
X7430500Y86779366D01*
X12744500Y86779366D01*
X12744500Y86600635D01*
X12772460Y86424102D01*
X12772460Y86424099D01*
X12827689Y86254122D01*
X12827691Y86254119D01*
X12908833Y86094868D01*
X13013889Y85950272D01*
X13140272Y85823889D01*
X13284868Y85718833D01*
X13444119Y85637691D01*
X13444121Y85637690D01*
X13602670Y85586175D01*
X13614103Y85582460D01*
X13790634Y85554500D01*
X13790635Y85554500D01*
X13969365Y85554500D01*
X13969366Y85554500D01*
X14145897Y85582460D01*
X14145900Y85582461D01*
X14145901Y85582461D01*
X14315878Y85637690D01*
X14315878Y85637691D01*
X14315881Y85637691D01*
X14475132Y85718833D01*
X14619728Y85823889D01*
X14746111Y85950272D01*
X14851167Y86094868D01*
X14932309Y86254119D01*
X14987540Y86424103D01*
X15015500Y86600634D01*
X15015500Y86779366D01*
X14987540Y86955897D01*
X14987539Y86955901D01*
X14987539Y86955902D01*
X14932310Y87125879D01*
X14932308Y87125882D01*
X14879597Y87229334D01*
X14851167Y87285132D01*
X14796760Y87360016D01*
X23629500Y87360016D01*
X23629500Y85359985D01*
X23640000Y85257205D01*
X23640001Y85257204D01*
X23695186Y85090665D01*
X23695187Y85090663D01*
X23787286Y84941349D01*
X23787289Y84941345D01*
X23911344Y84817290D01*
X23911348Y84817287D01*
X24060662Y84725188D01*
X24060664Y84725187D01*
X24060666Y84725186D01*
X24227203Y84670001D01*
X24329992Y84659500D01*
X24329997Y84659500D01*
X26330003Y84659500D01*
X26330008Y84659500D01*
X26432797Y84670001D01*
X26599334Y84725186D01*
X26748655Y84817289D01*
X26872711Y84941345D01*
X26964814Y85090666D01*
X27019999Y85257203D01*
X27030500Y85359992D01*
X27030500Y86960017D01*
X32919500Y86960017D01*
X32919500Y85759999D01*
X32919501Y85759982D01*
X32930000Y85657204D01*
X32930001Y85657201D01*
X32985185Y85490669D01*
X32985186Y85490666D01*
X33077288Y85341344D01*
X33201344Y85217288D01*
X33350666Y85125186D01*
X33517203Y85070001D01*
X33619991Y85059500D01*
X34820008Y85059501D01*
X34922797Y85070001D01*
X35089334Y85125186D01*
X35238656Y85217288D01*
X35362712Y85341344D01*
X35454814Y85490666D01*
X35509999Y85657203D01*
X35520500Y85759991D01*
X35520499Y86960008D01*
X35509999Y87062797D01*
X35454814Y87229334D01*
X35362712Y87378656D01*
X35238656Y87502712D01*
X35089334Y87594814D01*
X34922797Y87649999D01*
X34922795Y87650000D01*
X34820010Y87660500D01*
X33619998Y87660500D01*
X33619981Y87660499D01*
X33517203Y87650000D01*
X33517200Y87649999D01*
X33350668Y87594815D01*
X33350663Y87594813D01*
X33201342Y87502711D01*
X33077289Y87378658D01*
X32985187Y87229337D01*
X32985186Y87229334D01*
X32930001Y87062797D01*
X32930001Y87062796D01*
X32930000Y87062796D01*
X32919500Y86960017D01*
X27030500Y86960017D01*
X27030500Y87360008D01*
X27019999Y87462797D01*
X26964814Y87629334D01*
X26945590Y87660500D01*
X26872713Y87778652D01*
X26872710Y87778656D01*
X26748655Y87902711D01*
X26748651Y87902714D01*
X26599337Y87994813D01*
X26599335Y87994814D01*
X26516065Y88022407D01*
X26432797Y88049999D01*
X26432795Y88050000D01*
X26330015Y88060500D01*
X26330008Y88060500D01*
X24329992Y88060500D01*
X24329984Y88060500D01*
X24227204Y88050000D01*
X24227203Y88049999D01*
X24060664Y87994814D01*
X24060662Y87994813D01*
X23911348Y87902714D01*
X23911344Y87902711D01*
X23787289Y87778656D01*
X23787286Y87778652D01*
X23695187Y87629338D01*
X23695186Y87629336D01*
X23640001Y87462797D01*
X23640000Y87462796D01*
X23629500Y87360016D01*
X14796760Y87360016D01*
X14746111Y87429728D01*
X14619728Y87556111D01*
X14475132Y87661167D01*
X14315881Y87742309D01*
X14315878Y87742311D01*
X14145899Y87797540D01*
X14028209Y87816180D01*
X13969366Y87825500D01*
X13790634Y87825500D01*
X13731790Y87816180D01*
X13614101Y87797540D01*
X13614098Y87797540D01*
X13444121Y87742311D01*
X13444118Y87742309D01*
X13284867Y87661167D01*
X13140270Y87556110D01*
X13013890Y87429730D01*
X12908833Y87285133D01*
X12827691Y87125882D01*
X12827689Y87125879D01*
X12772460Y86955902D01*
X12772460Y86955899D01*
X12744500Y86779366D01*
X7430500Y86779366D01*
X7430500Y87881324D01*
X7450185Y87948363D01*
X7466819Y87969005D01*
X9460132Y89962318D01*
X32920000Y89962318D01*
X32920000Y89757683D01*
X32952009Y89555583D01*
X33015244Y89360969D01*
X33108141Y89178650D01*
X33108147Y89178641D01*
X33140523Y89134079D01*
X33140524Y89134078D01*
X33820000Y89813554D01*
X33820000Y89807339D01*
X33847259Y89705606D01*
X33899920Y89614394D01*
X33974394Y89539920D01*
X34065606Y89487259D01*
X34167339Y89460000D01*
X34173553Y89460000D01*
X33494076Y88780526D01*
X33538650Y88748141D01*
X33720968Y88655245D01*
X33915582Y88592010D01*
X34117683Y88560000D01*
X34322317Y88560000D01*
X34524417Y88592010D01*
X34719031Y88655245D01*
X34901349Y88748141D01*
X34945921Y88780526D01*
X34266447Y89460000D01*
X34272661Y89460000D01*
X34374394Y89487259D01*
X34465606Y89539920D01*
X34540080Y89614394D01*
X34592741Y89705606D01*
X34620000Y89807339D01*
X34620000Y89813552D01*
X35299474Y89134078D01*
X35299474Y89134079D01*
X35331859Y89178651D01*
X35424755Y89360969D01*
X35487990Y89555583D01*
X35520000Y89757683D01*
X35520000Y89962318D01*
X35487990Y90164418D01*
X35424755Y90359032D01*
X35331859Y90541350D01*
X35299474Y90585923D01*
X35299474Y90585924D01*
X34620000Y89906449D01*
X34620000Y89912661D01*
X34592741Y90014394D01*
X34540080Y90105606D01*
X34465606Y90180080D01*
X34374394Y90232741D01*
X34272661Y90260000D01*
X34266446Y90260000D01*
X34945922Y90939476D01*
X34945921Y90939477D01*
X34901359Y90971853D01*
X34901350Y90971859D01*
X34719031Y91064756D01*
X34524417Y91127991D01*
X34322317Y91160000D01*
X34117683Y91160000D01*
X33915582Y91127991D01*
X33720968Y91064756D01*
X33538644Y90971857D01*
X33494077Y90939477D01*
X33494077Y90939476D01*
X34173554Y90260000D01*
X34167339Y90260000D01*
X34065606Y90232741D01*
X33974394Y90180080D01*
X33899920Y90105606D01*
X33847259Y90014394D01*
X33820000Y89912661D01*
X33820000Y89906447D01*
X33140524Y90585923D01*
X33140523Y90585923D01*
X33108143Y90541356D01*
X33015244Y90359032D01*
X32952009Y90164418D01*
X32920000Y89962318D01*
X9460132Y89962318D01*
X11048036Y91550222D01*
X51869500Y91550222D01*
X51869500Y91329779D01*
X51903985Y91112048D01*
X51972103Y90902397D01*
X51972104Y90902394D01*
X52072187Y90705975D01*
X52201752Y90527642D01*
X52201756Y90527637D01*
X52357640Y90371753D01*
X52497679Y90270010D01*
X52540345Y90214681D01*
X52546324Y90145067D01*
X52513719Y90083272D01*
X52497679Y90069374D01*
X52472485Y90051070D01*
X52472485Y90051068D01*
X53140590Y89382963D01*
X53077007Y89365925D01*
X52962993Y89300099D01*
X52869901Y89207007D01*
X52804075Y89092993D01*
X52787037Y89029410D01*
X52118932Y89697515D01*
X52118931Y89697515D01*
X52072616Y89633767D01*
X51972567Y89437411D01*
X51904473Y89227836D01*
X51870000Y89010182D01*
X51870000Y88789819D01*
X51904473Y88572165D01*
X51972567Y88362590D01*
X52072611Y88166244D01*
X52118932Y88102487D01*
X52787037Y88770592D01*
X52804075Y88707007D01*
X52869901Y88592993D01*
X52962993Y88499901D01*
X53077007Y88434075D01*
X53140590Y88417038D01*
X52520370Y87796819D01*
X52459047Y87763334D01*
X52432690Y87760500D01*
X52322130Y87760500D01*
X52322123Y87760499D01*
X52262516Y87754092D01*
X52127671Y87703798D01*
X52127664Y87703794D01*
X52012455Y87617548D01*
X52012452Y87617545D01*
X51926206Y87502336D01*
X51926202Y87502329D01*
X51875908Y87367483D01*
X51869501Y87307884D01*
X51869501Y87307877D01*
X51869500Y87307865D01*
X51869500Y85412130D01*
X51869501Y85412124D01*
X51875908Y85352517D01*
X51926202Y85217672D01*
X51926206Y85217665D01*
X52012452Y85102456D01*
X52012455Y85102453D01*
X52127664Y85016207D01*
X52127671Y85016203D01*
X52262517Y84965909D01*
X52262516Y84965909D01*
X52269444Y84965165D01*
X52322127Y84959500D01*
X54217872Y84959501D01*
X54277483Y84965909D01*
X54412331Y85016204D01*
X54527546Y85102454D01*
X54613796Y85217669D01*
X54664091Y85352517D01*
X54670500Y85412127D01*
X54670499Y87307872D01*
X54664091Y87367483D01*
X54659923Y87378657D01*
X54613797Y87502329D01*
X54613793Y87502336D01*
X54527547Y87617545D01*
X54527544Y87617548D01*
X54412335Y87703794D01*
X54412328Y87703798D01*
X54277482Y87754092D01*
X54277483Y87754092D01*
X54217883Y87760499D01*
X54217881Y87760500D01*
X54217873Y87760500D01*
X54217865Y87760500D01*
X54107308Y87760500D01*
X54040269Y87780185D01*
X54019627Y87796819D01*
X53399410Y88417038D01*
X53462993Y88434075D01*
X53577007Y88499901D01*
X53670099Y88592993D01*
X53735925Y88707007D01*
X53752962Y88770590D01*
X54421066Y88102486D01*
X54421066Y88102487D01*
X54467386Y88166240D01*
X54567432Y88362590D01*
X54635526Y88572165D01*
X54670000Y88789819D01*
X54670000Y89010182D01*
X54635526Y89227836D01*
X54567432Y89437411D01*
X54467388Y89633757D01*
X54421066Y89697515D01*
X54421065Y89697515D01*
X53752962Y89029411D01*
X53735925Y89092993D01*
X53670099Y89207007D01*
X53577007Y89300099D01*
X53462993Y89365925D01*
X53399407Y89382963D01*
X54067513Y90051068D01*
X54042319Y90069372D01*
X53999653Y90124702D01*
X53993674Y90194315D01*
X54026279Y90256111D01*
X54042313Y90270006D01*
X54182365Y90371758D01*
X54338242Y90527635D01*
X54467815Y90705978D01*
X54567895Y90902394D01*
X54636015Y91112049D01*
X54670500Y91329778D01*
X54670500Y91550222D01*
X54636015Y91767951D01*
X54567895Y91977606D01*
X54567895Y91977607D01*
X54533237Y92045625D01*
X54467815Y92174022D01*
X54451260Y92196808D01*
X54338247Y92352359D01*
X54338243Y92352364D01*
X54182363Y92508244D01*
X54182358Y92508248D01*
X54004025Y92637813D01*
X54004024Y92637814D01*
X54004022Y92637815D01*
X53941096Y92669878D01*
X53807606Y92737896D01*
X53807603Y92737897D01*
X53597952Y92806015D01*
X53489086Y92823258D01*
X53380222Y92840500D01*
X53159778Y92840500D01*
X53087201Y92829005D01*
X52942047Y92806015D01*
X52732396Y92737897D01*
X52732393Y92737896D01*
X52535974Y92637813D01*
X52357641Y92508248D01*
X52357636Y92508244D01*
X52201756Y92352364D01*
X52201752Y92352359D01*
X52072187Y92174026D01*
X51972104Y91977607D01*
X51972103Y91977604D01*
X51903985Y91767953D01*
X51869500Y91550222D01*
X11048036Y91550222D01*
X14787492Y95289678D01*
X14902208Y95404394D01*
X15191794Y95693980D01*
X15257686Y95808108D01*
X15291794Y95935402D01*
X15291794Y96067187D01*
X15291794Y96631425D01*
X23630000Y96631425D01*
X23630000Y96408576D01*
X23659085Y96187646D01*
X23659088Y96187633D01*
X23716763Y95972382D01*
X23802045Y95766498D01*
X23802054Y95766480D01*
X23913464Y95573509D01*
X23913473Y95573496D01*
X23964040Y95507597D01*
X23964043Y95507597D01*
X24765387Y96308941D01*
X24770889Y96288409D01*
X24849881Y96151592D01*
X24961592Y96039881D01*
X25098409Y95960889D01*
X25118940Y95955388D01*
X24317595Y95154045D01*
X24317595Y95154044D01*
X24383507Y95103467D01*
X24576485Y94992051D01*
X24576497Y94992046D01*
X24782381Y94906764D01*
X24997632Y94849089D01*
X24997645Y94849086D01*
X25218575Y94820000D01*
X25441425Y94820000D01*
X25662354Y94849086D01*
X25662367Y94849089D01*
X25877618Y94906764D01*
X26083502Y94992046D01*
X26083514Y94992051D01*
X26276498Y95103470D01*
X26342403Y95154043D01*
X26342404Y95154044D01*
X26226945Y95269503D01*
X26144130Y95352318D01*
X39580000Y95352318D01*
X39580000Y95147683D01*
X39612009Y94945583D01*
X39675244Y94750969D01*
X39768141Y94568650D01*
X39768147Y94568641D01*
X39800523Y94524079D01*
X39800524Y94524078D01*
X40480000Y95203554D01*
X40480000Y95197339D01*
X40507259Y95095606D01*
X40559920Y95004394D01*
X40634394Y94929920D01*
X40725606Y94877259D01*
X40827339Y94850000D01*
X40833553Y94850000D01*
X40154076Y94170526D01*
X40198650Y94138141D01*
X40380968Y94045245D01*
X40575582Y93982010D01*
X40777683Y93950000D01*
X40982317Y93950000D01*
X41184417Y93982010D01*
X41379031Y94045245D01*
X41561349Y94138141D01*
X41605921Y94170526D01*
X40926447Y94850000D01*
X40932661Y94850000D01*
X41034394Y94877259D01*
X41125606Y94929920D01*
X41200080Y95004394D01*
X41252741Y95095606D01*
X41280000Y95197339D01*
X41280000Y95203552D01*
X41959474Y94524078D01*
X41959474Y94524079D01*
X41991859Y94568651D01*
X42084755Y94750969D01*
X42147990Y94945583D01*
X42180000Y95147683D01*
X42180000Y95352318D01*
X42147990Y95554418D01*
X42084754Y95749035D01*
X42060381Y95796870D01*
X42060380Y95796871D01*
X42033301Y95850017D01*
X43079500Y95850017D01*
X43079500Y94649999D01*
X43079501Y94649982D01*
X43090000Y94547204D01*
X43090001Y94547201D01*
X43109286Y94489005D01*
X43145186Y94380666D01*
X43237288Y94231344D01*
X43361344Y94107288D01*
X43510666Y94015186D01*
X43677203Y93960001D01*
X43779991Y93949500D01*
X44980008Y93949501D01*
X45082797Y93960001D01*
X45249334Y94015186D01*
X45398656Y94107288D01*
X45522712Y94231344D01*
X45614814Y94380666D01*
X45669999Y94547203D01*
X45680500Y94649991D01*
X45680499Y95850008D01*
X45669999Y95952797D01*
X45614814Y96119334D01*
X45522712Y96268656D01*
X45398656Y96392712D01*
X45249334Y96484814D01*
X45082797Y96539999D01*
X45082795Y96540000D01*
X44980010Y96550500D01*
X43779998Y96550500D01*
X43779981Y96550499D01*
X43677203Y96540000D01*
X43677200Y96539999D01*
X43510668Y96484815D01*
X43510663Y96484813D01*
X43361342Y96392711D01*
X43237289Y96268658D01*
X43145187Y96119337D01*
X43145186Y96119334D01*
X43090001Y95952797D01*
X43090001Y95952796D01*
X43090000Y95952796D01*
X43079500Y95850017D01*
X42033301Y95850017D01*
X41991859Y95931350D01*
X41959474Y95975923D01*
X41959474Y95975924D01*
X41280000Y95296449D01*
X41280000Y95302661D01*
X41252741Y95404394D01*
X41200080Y95495606D01*
X41125606Y95570080D01*
X41034394Y95622741D01*
X40932661Y95650000D01*
X40926446Y95650000D01*
X41605922Y96329476D01*
X41605921Y96329477D01*
X41561359Y96361853D01*
X41561350Y96361859D01*
X41379031Y96454756D01*
X41184417Y96517991D01*
X40982317Y96550000D01*
X40777683Y96550000D01*
X40575582Y96517991D01*
X40380968Y96454756D01*
X40198644Y96361857D01*
X40154077Y96329477D01*
X40154077Y96329476D01*
X40833554Y95650000D01*
X40827339Y95650000D01*
X40725606Y95622741D01*
X40634394Y95570080D01*
X40559920Y95495606D01*
X40507259Y95404394D01*
X40480000Y95302661D01*
X40480000Y95296447D01*
X39800524Y95975923D01*
X39800523Y95975923D01*
X39768143Y95931356D01*
X39675244Y95749032D01*
X39612009Y95554418D01*
X39580000Y95352318D01*
X26144130Y95352318D01*
X25541059Y95955388D01*
X25561591Y95960889D01*
X25698408Y96039881D01*
X25810119Y96151592D01*
X25889111Y96288409D01*
X25894612Y96308941D01*
X26695956Y95507596D01*
X26695957Y95507597D01*
X26746530Y95573502D01*
X26857949Y95766486D01*
X26857954Y95766498D01*
X26943236Y95972382D01*
X27000911Y96187633D01*
X27000913Y96187644D01*
X27015496Y96298403D01*
X27015496Y96298404D01*
X27030000Y96408576D01*
X27030000Y96631425D01*
X27000914Y96852355D01*
X27000911Y96852368D01*
X26943236Y97067619D01*
X26857954Y97273503D01*
X26857949Y97273515D01*
X26746533Y97466493D01*
X26695956Y97532405D01*
X26695955Y97532405D01*
X25894612Y96731061D01*
X25889111Y96751591D01*
X25810119Y96888408D01*
X25698408Y97000119D01*
X25561591Y97079111D01*
X25541058Y97084613D01*
X26342403Y97885957D01*
X26342403Y97885960D01*
X26276504Y97936527D01*
X26276491Y97936536D01*
X26083520Y98047946D01*
X26083502Y98047955D01*
X25877618Y98133237D01*
X25662367Y98190912D01*
X25662354Y98190915D01*
X25441425Y98220000D01*
X25218575Y98220000D01*
X24997645Y98190915D01*
X24997632Y98190912D01*
X24782381Y98133237D01*
X24576497Y98047955D01*
X24576479Y98047946D01*
X24383511Y97936538D01*
X24317595Y97885958D01*
X25118941Y97084613D01*
X25098409Y97079111D01*
X24961592Y97000119D01*
X24849881Y96888408D01*
X24770889Y96751591D01*
X24765387Y96731060D01*
X23964042Y97532405D01*
X23913462Y97466489D01*
X23802054Y97273521D01*
X23802045Y97273503D01*
X23716763Y97067619D01*
X23659088Y96852368D01*
X23659085Y96852355D01*
X23630000Y96631425D01*
X15291794Y96631425D01*
X15291794Y104511289D01*
X17129500Y104511289D01*
X17129500Y104268712D01*
X17161161Y104028215D01*
X17223947Y103793896D01*
X17316773Y103569795D01*
X17316776Y103569788D01*
X17438064Y103359711D01*
X17438066Y103359708D01*
X17438067Y103359707D01*
X17585733Y103167264D01*
X17585739Y103167257D01*
X17757256Y102995740D01*
X17757262Y102995735D01*
X17949711Y102848064D01*
X18159788Y102726776D01*
X18383900Y102633946D01*
X18618211Y102571162D01*
X18798586Y102547416D01*
X18858711Y102539500D01*
X18858712Y102539500D01*
X19101289Y102539500D01*
X19149388Y102545833D01*
X19341789Y102571162D01*
X19576100Y102633946D01*
X19800212Y102726776D01*
X20010289Y102848064D01*
X20202738Y102995735D01*
X20374265Y103167262D01*
X20521936Y103359711D01*
X20643224Y103569788D01*
X20736054Y103793900D01*
X20798838Y104028211D01*
X20830500Y104268712D01*
X20830500Y104511288D01*
X20830500Y104511289D01*
X45129500Y104511289D01*
X45129500Y104268712D01*
X45161161Y104028215D01*
X45223947Y103793896D01*
X45316773Y103569795D01*
X45316776Y103569788D01*
X45438064Y103359711D01*
X45438066Y103359708D01*
X45438067Y103359707D01*
X45585733Y103167264D01*
X45585739Y103167257D01*
X45757256Y102995740D01*
X45757262Y102995735D01*
X45949711Y102848064D01*
X46159788Y102726776D01*
X46383900Y102633946D01*
X46618211Y102571162D01*
X46798586Y102547416D01*
X46858711Y102539500D01*
X46858712Y102539500D01*
X47101289Y102539500D01*
X47149388Y102545833D01*
X47341789Y102571162D01*
X47576100Y102633946D01*
X47800212Y102726776D01*
X48010289Y102848064D01*
X48202738Y102995735D01*
X48374265Y103167262D01*
X48521936Y103359711D01*
X48643224Y103569788D01*
X48736054Y103793900D01*
X48798838Y104028211D01*
X48830500Y104268712D01*
X48830500Y104511288D01*
X48798838Y104751789D01*
X48736054Y104986100D01*
X48643224Y105210212D01*
X48521936Y105420289D01*
X48374265Y105612738D01*
X48374260Y105612744D01*
X48202743Y105784261D01*
X48202736Y105784267D01*
X48010293Y105931933D01*
X48010292Y105931934D01*
X48010289Y105931936D01*
X47800212Y106053224D01*
X47800205Y106053227D01*
X47576104Y106146053D01*
X47341785Y106208839D01*
X47101289Y106240500D01*
X47101288Y106240500D01*
X46858712Y106240500D01*
X46858711Y106240500D01*
X46618214Y106208839D01*
X46383895Y106146053D01*
X46159794Y106053227D01*
X46159785Y106053223D01*
X45949706Y105931933D01*
X45757263Y105784267D01*
X45757256Y105784261D01*
X45585739Y105612744D01*
X45585733Y105612737D01*
X45438067Y105420294D01*
X45316777Y105210215D01*
X45316773Y105210206D01*
X45223947Y104986105D01*
X45161161Y104751786D01*
X45129500Y104511289D01*
X20830500Y104511289D01*
X20798838Y104751789D01*
X20736054Y104986100D01*
X20643224Y105210212D01*
X20521936Y105420289D01*
X20374265Y105612738D01*
X20374260Y105612744D01*
X20202743Y105784261D01*
X20202736Y105784267D01*
X20010293Y105931933D01*
X20010292Y105931934D01*
X20010289Y105931936D01*
X19800212Y106053224D01*
X19800205Y106053227D01*
X19576104Y106146053D01*
X19341785Y106208839D01*
X19101289Y106240500D01*
X19101288Y106240500D01*
X18858712Y106240500D01*
X18858711Y106240500D01*
X18618214Y106208839D01*
X18383895Y106146053D01*
X18159794Y106053227D01*
X18159785Y106053223D01*
X17949706Y105931933D01*
X17757263Y105784267D01*
X17757256Y105784261D01*
X17585739Y105612744D01*
X17585733Y105612737D01*
X17438067Y105420294D01*
X17316777Y105210215D01*
X17316773Y105210206D01*
X17223947Y104986105D01*
X17161161Y104751786D01*
X17129500Y104511289D01*
X15291794Y104511289D01*
X15291794Y106256450D01*
X15292020Y106263937D01*
X15309565Y106553995D01*
X15311370Y106568860D01*
X15363074Y106850998D01*
X15366658Y106865536D01*
X15451993Y107139388D01*
X15457291Y107153358D01*
X15575021Y107414942D01*
X15581974Y107428188D01*
X15622253Y107494819D01*
X15730369Y107673666D01*
X15738861Y107685970D01*
X15915775Y107911783D01*
X15925690Y107922974D01*
X16128520Y108125804D01*
X16139711Y108135719D01*
X16365524Y108312633D01*
X16377828Y108321125D01*
X16623306Y108469520D01*
X16636552Y108476473D01*
X16898136Y108594203D01*
X16912106Y108599501D01*
X17185962Y108684838D01*
X17200492Y108688420D01*
X17482638Y108740125D01*
X17497495Y108741929D01*
X17787558Y108759474D01*
X17795045Y108759700D01*
X17857186Y108759700D01*
X48778908Y108759700D01*
X48841049Y108759700D01*
X48848536Y108759474D01*
G37*
%TD.AperFunction*%
%TD*%
M02*
