%TF.GenerationSoftware,KiCad,Pcbnew,10.0.2*%
%TF.CreationDate,2026-06-23T23:37:42+02:00*%
%TF.ProjectId,Untitled,556e7469-746c-4656-942e-6b696361645f,rev?*%
%TF.SameCoordinates,PX5ae77c0PY8c7ecc0*%
%TF.FileFunction,Soldermask,Top*%
%TF.FilePolarity,Negative*%
%FSLAX46Y46*%
G04 Gerber Fmt 4.6, Leading zero omitted, Abs format (unit mm)*
G04 Created by KiCad (PCBNEW 10.0.2) date 2026-06-23 23:37:42*
%MOMM*%
%LPD*%
G01*
G04 APERTURE LIST*
G04 Aperture macros list*
%AMRoundRect*
0 Rectangle with rounded corners*
0 $1 Rounding radius*
0 $2 $3 $4 $5 $6 $7 $8 $9 X,Y pos of 4 corners*
0 Add a 4 corners polygon primitive as box body*
4,1,4,$2,$3,$4,$5,$6,$7,$8,$9,$2,$3,0*
0 Add four circle primitives for the rounded corners*
1,1,$1+$1,$2,$3*
1,1,$1+$1,$4,$5*
1,1,$1+$1,$6,$7*
1,1,$1+$1,$8,$9*
0 Add four rect primitives between the rounded corners*
20,1,$1+$1,$2,$3,$4,$5,0*
20,1,$1+$1,$4,$5,$6,$7,0*
20,1,$1+$1,$6,$7,$8,$9,0*
20,1,$1+$1,$8,$9,$2,$3,0*%
%AMFreePoly0*
4,1,37,0.800000,0.796148,0.878414,0.796148,1.032228,0.765552,1.177117,0.705537,1.307515,0.618408,1.418408,0.507515,1.505537,0.377117,1.565552,0.232228,1.596148,0.078414,1.596148,-0.078414,1.565552,-0.232228,1.505537,-0.377117,1.418408,-0.507515,1.307515,-0.618408,1.177117,-0.705537,1.032228,-0.765552,0.878414,-0.796148,0.800000,-0.796148,0.800000,-0.800000,-1.400000,-0.800000,
-1.403843,-0.796157,-1.439018,-0.796157,-1.511114,-0.766294,-1.566294,-0.711114,-1.596157,-0.639018,-1.596157,-0.603843,-1.600000,-0.600000,-1.600000,0.600000,-1.596157,0.603843,-1.596157,0.639018,-1.566294,0.711114,-1.511114,0.766294,-1.439018,0.796157,-1.403843,0.796157,-1.400000,0.800000,0.800000,0.800000,0.800000,0.796148,0.800000,0.796148,$1*%
%AMFreePoly1*
4,1,37,1.403843,0.796157,1.439018,0.796157,1.511114,0.766294,1.566294,0.711114,1.596157,0.639018,1.596157,0.603843,1.600000,0.600000,1.600000,-0.600000,1.596157,-0.603843,1.596157,-0.639018,1.566294,-0.711114,1.511114,-0.766294,1.439018,-0.796157,1.403843,-0.796157,1.400000,-0.800000,-0.800000,-0.800000,-0.800000,-0.796148,-0.878414,-0.796148,-1.032228,-0.765552,-1.177117,-0.705537,
-1.307515,-0.618408,-1.418408,-0.507515,-1.505537,-0.377117,-1.565552,-0.232228,-1.596148,-0.078414,-1.596148,0.078414,-1.565552,0.232228,-1.505537,0.377117,-1.418408,0.507515,-1.307515,0.618408,-1.177117,0.705537,-1.032228,0.765552,-0.878414,0.796148,-0.800000,0.796148,-0.800000,0.800000,1.400000,0.800000,1.403843,0.796157,1.403843,0.796157,$1*%
%AMFreePoly2*
4,1,37,0.603843,0.796157,0.639018,0.796157,0.711114,0.766294,0.766294,0.711114,0.796157,0.639018,0.796157,0.603843,0.800000,0.600000,0.800000,-0.600000,0.796157,-0.603843,0.796157,-0.639018,0.766294,-0.711114,0.711114,-0.766294,0.639018,-0.796157,0.603843,-0.796157,0.600000,-0.800000,0.000000,-0.800000,0.000000,-0.796148,-0.078414,-0.796148,-0.232228,-0.765552,-0.377117,-0.705537,
-0.507515,-0.618408,-0.618408,-0.507515,-0.705537,-0.377117,-0.765552,-0.232228,-0.796148,-0.078414,-0.796148,0.078414,-0.765552,0.232228,-0.705537,0.377117,-0.618408,0.507515,-0.507515,0.618408,-0.377117,0.705537,-0.232228,0.765552,-0.078414,0.796148,0.000000,0.796148,0.000000,0.800000,0.600000,0.800000,0.603843,0.796157,0.603843,0.796157,$1*%
%AMFreePoly3*
4,1,37,0.000000,0.796148,0.078414,0.796148,0.232228,0.765552,0.377117,0.705537,0.507515,0.618408,0.618408,0.507515,0.705537,0.377117,0.765552,0.232228,0.796148,0.078414,0.796148,-0.078414,0.765552,-0.232228,0.705537,-0.377117,0.618408,-0.507515,0.507515,-0.618408,0.377117,-0.705537,0.232228,-0.765552,0.078414,-0.796148,0.000000,-0.796148,0.000000,-0.800000,-0.600000,-0.800000,
-0.603843,-0.796157,-0.639018,-0.796157,-0.711114,-0.766294,-0.766294,-0.711114,-0.796157,-0.639018,-0.796157,-0.603843,-0.800000,-0.600000,-0.800000,0.600000,-0.796157,0.603843,-0.796157,0.639018,-0.766294,0.711114,-0.711114,0.766294,-0.639018,0.796157,-0.603843,0.796157,-0.600000,0.800000,0.000000,0.800000,0.000000,0.796148,0.000000,0.796148,$1*%
G04 Aperture macros list end*
%ADD10C,2.100000*%
%ADD11FreePoly0,0.000000*%
%ADD12RoundRect,0.200000X-0.600000X-0.600000X0.600000X-0.600000X0.600000X0.600000X-0.600000X0.600000X0*%
%ADD13RoundRect,0.800000X-0.800000X-0.000010X0.800000X-0.000010X0.800000X0.000010X-0.800000X0.000010X0*%
%ADD14C,1.600000*%
%ADD15FreePoly1,0.000000*%
%ADD16FreePoly2,0.000000*%
%ADD17FreePoly3,0.000000*%
%ADD18C,3.200000*%
%ADD19RoundRect,0.250000X1.050000X-1.050000X1.050000X1.050000X-1.050000X1.050000X-1.050000X-1.050000X0*%
%ADD20C,2.600000*%
%ADD21RoundRect,0.150000X-0.150000X0.825000X-0.150000X-0.825000X0.150000X-0.825000X0.150000X0.825000X0*%
%ADD22C,1.270000*%
%ADD23RoundRect,0.250001X0.949999X-0.949999X0.949999X0.949999X-0.949999X0.949999X-0.949999X-0.949999X0*%
%ADD24C,2.400000*%
%ADD25RoundRect,0.250000X0.550000X-0.550000X0.550000X0.550000X-0.550000X0.550000X-0.550000X-0.550000X0*%
%ADD26C,1.700000*%
%ADD27RoundRect,0.150000X-0.512500X-0.150000X0.512500X-0.150000X0.512500X0.150000X-0.512500X0.150000X0*%
%ADD28R,1.800000X1.800000*%
%ADD29C,1.800000*%
%ADD30R,1.500000X1.500000*%
%ADD31C,1.500000*%
%ADD32RoundRect,0.250000X0.550000X0.550000X-0.550000X0.550000X-0.550000X-0.550000X0.550000X-0.550000X0*%
G04 APERTURE END LIST*
D10*
%TO.C,PICO1*%
X38710456Y74300000D03*
X38710456Y27300000D03*
X50067844Y74300000D03*
X50067844Y27300000D03*
D11*
X34690000Y74930000D03*
D12*
X35490000Y74930000D03*
D13*
X34690000Y72390000D03*
D14*
X35490000Y72390000D03*
D15*
X34690000Y69850000D03*
D16*
X35490000Y69850000D03*
D13*
X34690000Y67310000D03*
D14*
X35490000Y67310000D03*
D13*
X34690000Y64770000D03*
D14*
X35490000Y64770000D03*
D13*
X34690000Y62230000D03*
D14*
X35490000Y62230000D03*
D13*
X34690000Y59690000D03*
D14*
X35490000Y59690000D03*
D15*
X34690000Y57150000D03*
D16*
X35490000Y57150000D03*
D13*
X34690000Y54610000D03*
D14*
X35490000Y54610000D03*
D13*
X34690000Y52070000D03*
D14*
X35490000Y52070000D03*
D13*
X34690000Y49530000D03*
D14*
X35490000Y49530000D03*
D13*
X34690000Y46990000D03*
D14*
X35490000Y46990000D03*
D15*
X34690000Y44450000D03*
D16*
X35490000Y44450000D03*
D13*
X34690000Y41910000D03*
D14*
X35490000Y41910000D03*
D13*
X34690000Y39370000D03*
D14*
X35490000Y39370000D03*
D13*
X34690000Y36830000D03*
D14*
X35490000Y36830000D03*
D13*
X34690000Y34290000D03*
D14*
X35490000Y34290000D03*
D15*
X34690000Y31750000D03*
D16*
X35490000Y31750000D03*
D13*
X34690000Y29210000D03*
D14*
X35490000Y29210000D03*
D13*
X34690000Y26670000D03*
D14*
X35490000Y26670000D03*
X53270000Y26670000D03*
D13*
X54070000Y26670000D03*
D14*
X53270000Y29210000D03*
D13*
X54070000Y29210000D03*
D17*
X53270000Y31750000D03*
D11*
X54070000Y31750000D03*
D14*
X53270000Y34290000D03*
D13*
X54070000Y34290000D03*
D14*
X53270000Y36830000D03*
D13*
X54070000Y36830000D03*
D14*
X53270000Y39370000D03*
D13*
X54070000Y39370000D03*
D14*
X53270000Y41910000D03*
D13*
X54070000Y41910000D03*
D17*
X53270000Y44450000D03*
D11*
X54070000Y44450000D03*
D14*
X53270000Y46990000D03*
D13*
X54070000Y46990000D03*
D14*
X53270000Y49530000D03*
D13*
X54070000Y49530000D03*
D14*
X53270000Y52070000D03*
D13*
X54070000Y52070000D03*
D14*
X53270000Y54610000D03*
D13*
X54070000Y54610000D03*
D17*
X53270000Y57150000D03*
D11*
X54070000Y57150000D03*
D14*
X53270000Y59690000D03*
D13*
X54070000Y59690000D03*
D14*
X53270000Y62230000D03*
D13*
X54070000Y62230000D03*
D14*
X53270000Y64770000D03*
D13*
X54070000Y64770000D03*
D14*
X53270000Y67310000D03*
D13*
X54070000Y67310000D03*
D17*
X53270000Y69850000D03*
D11*
X54070000Y69850000D03*
D14*
X53270000Y72390000D03*
D13*
X54070000Y72390000D03*
D14*
X53270000Y74930000D03*
D13*
X54070000Y74930000D03*
%TD*%
D18*
%TO.C,H2*%
X46980000Y104390000D03*
%TD*%
D19*
%TO.C,J2*%
X15170000Y73660000D03*
D20*
X15170000Y78740000D03*
%TD*%
D21*
%TO.C,U3*%
X28572500Y80010000D03*
X27302500Y80010000D03*
X26032500Y80010000D03*
X24762500Y80010000D03*
X24762500Y75060000D03*
X26032500Y75060000D03*
X27302500Y75060000D03*
X28572500Y75060000D03*
%TD*%
D22*
%TO.C,F1*%
X18980000Y85090000D03*
X13880000Y86690000D03*
%TD*%
D19*
%TO.C,J1*%
X15170000Y62230000D03*
D20*
X15170000Y67310000D03*
%TD*%
D14*
%TO.C,R1*%
X30410000Y71120000D03*
X22790000Y71120000D03*
%TD*%
D23*
%TO.C,D1*%
X25330000Y86360000D03*
D24*
X25330000Y96520000D03*
%TD*%
D18*
%TO.C,H4*%
X46980000Y8890000D03*
%TD*%
D25*
%TO.C,C5*%
X34220000Y86360000D03*
D14*
X34220000Y89860000D03*
%TD*%
%TO.C,C3*%
X10130000Y43180000D03*
X15130000Y43180000D03*
%TD*%
D18*
%TO.C,H1*%
X18980000Y104390000D03*
%TD*%
%TO.C,MOD1*%
X13138001Y38100000D03*
X13138001Y23368000D03*
X27870000Y38100000D03*
X27870000Y23368000D03*
D26*
X11614001Y33274000D03*
X14154001Y33274000D03*
X11614001Y30734000D03*
X14154001Y30734000D03*
X11614001Y28194000D03*
X14154001Y28194000D03*
X26854001Y33274000D03*
X29394001Y33274000D03*
X26854001Y30734000D03*
X29394001Y30734000D03*
X26854001Y28194000D03*
X29394001Y28194000D03*
%TD*%
D18*
%TO.C,H3*%
X18980000Y8890000D03*
%TD*%
D14*
%TO.C,L1*%
X20250000Y54610000D03*
X20250000Y46990000D03*
%TD*%
D27*
%TO.C,U4*%
X22790000Y66990000D03*
X22790000Y65090000D03*
X25065000Y66040000D03*
%TD*%
D28*
%TO.C,U1*%
X53270000Y86360000D03*
D29*
X53270000Y88900000D03*
X53270000Y91440000D03*
%TD*%
D25*
%TO.C,C4*%
X12630000Y47530000D03*
D14*
X12630000Y49530000D03*
%TD*%
D30*
%TO.C,U2*%
X27870000Y48260000D03*
D31*
X27870000Y50800000D03*
X27870000Y53340000D03*
%TD*%
D32*
%TO.C,C2*%
X44380000Y95250000D03*
D14*
X40880000Y95250000D03*
%TD*%
%TO.C,C6*%
X45610000Y82550000D03*
X40610000Y82550000D03*
%TD*%
M02*
