%TF.GenerationSoftware,KiCad,Pcbnew,10.0.2*%
%TF.CreationDate,2026-06-25T00:19:03+02:00*%
%TF.ProjectId,Untitled,556e7469-746c-4656-942e-6b696361645f,rev?*%
%TF.SameCoordinates,PX5ae77c0PY8c7ecc0*%
%TF.FileFunction,Legend,Top*%
%TF.FilePolarity,Positive*%
%FSLAX46Y46*%
G04 Gerber Fmt 4.6, Leading zero omitted, Abs format (unit mm)*
G04 Created by KiCad (PCBNEW 10.0.2) date 2026-06-25 00:19:03*
%MOMM*%
%LPD*%
G01*
G04 APERTURE LIST*
G04 Aperture macros list*
%AMRoundRect*
0 Rectangle with rounded corners*
0 $1 Rounding radius*
0 $2 $3 $4 $5 $6 $7 $8 $9 X,Y pos of 4 corners*
0 Add a 4 corners polygon primitive as box body*
4,1,4,$2,$3,$4,$5,$6,$7,$8,$9,$2,$3,0*
0 Add four circle primitives for the rounded corners*
1,1,$1+$1,$2,$3*
1,1,$1+$1,$4,$5*
1,1,$1+$1,$6,$7*
1,1,$1+$1,$8,$9*
0 Add four rect primitives between the rounded corners*
20,1,$1+$1,$2,$3,$4,$5,0*
20,1,$1+$1,$4,$5,$6,$7,0*
20,1,$1+$1,$6,$7,$8,$9,0*
20,1,$1+$1,$8,$9,$2,$3,0*%
%AMFreePoly0*
4,1,37,0.603843,0.796157,0.639018,0.796157,0.711114,0.766294,0.766294,0.711114,0.796157,0.639018,0.796157,0.603843,0.800000,0.600000,0.800000,-0.600000,0.796157,-0.603843,0.796157,-0.639018,0.766294,-0.711114,0.711114,-0.766294,0.639018,-0.796157,0.603843,-0.796157,0.600000,-0.800000,0.000000,-0.800000,0.000000,-0.796148,-0.078414,-0.796148,-0.232228,-0.765552,-0.377117,-0.705537,
-0.507515,-0.618408,-0.618408,-0.507515,-0.705537,-0.377117,-0.765552,-0.232228,-0.796148,-0.078414,-0.796148,0.078414,-0.765552,0.232228,-0.705537,0.377117,-0.618408,0.507515,-0.507515,0.618408,-0.377117,0.705537,-0.232228,0.765552,-0.078414,0.796148,0.000000,0.796148,0.000000,0.800000,0.600000,0.800000,0.603843,0.796157,0.603843,0.796157,$1*%
%AMFreePoly1*
4,1,37,0.000000,0.796148,0.078414,0.796148,0.232228,0.765552,0.377117,0.705537,0.507515,0.618408,0.618408,0.507515,0.705537,0.377117,0.765552,0.232228,0.796148,0.078414,0.796148,-0.078414,0.765552,-0.232228,0.705537,-0.377117,0.618408,-0.507515,0.507515,-0.618408,0.377117,-0.705537,0.232228,-0.765552,0.078414,-0.796148,0.000000,-0.796148,0.000000,-0.800000,-0.600000,-0.800000,
-0.603843,-0.796157,-0.639018,-0.796157,-0.711114,-0.766294,-0.766294,-0.711114,-0.796157,-0.639018,-0.796157,-0.603843,-0.800000,-0.600000,-0.800000,0.600000,-0.796157,0.603843,-0.796157,0.639018,-0.766294,0.711114,-0.711114,0.766294,-0.639018,0.796157,-0.603843,0.796157,-0.600000,0.800000,0.000000,0.800000,0.000000,0.796148,0.000000,0.796148,$1*%
G04 Aperture macros list end*
%ADD10C,0.100000*%
%ADD11C,0.150000*%
%ADD12C,0.300000*%
%ADD13C,0.200000*%
%ADD14C,0.120000*%
%ADD15C,1.700000*%
%ADD16R,1.700000X1.700000*%
%ADD17RoundRect,0.200000X-0.600000X-0.600000X0.600000X-0.600000X0.600000X0.600000X-0.600000X0.600000X0*%
%ADD18C,1.600000*%
%ADD19FreePoly0,0.000000*%
%ADD20FreePoly1,0.000000*%
%ADD21C,2.700000*%
%ADD22RoundRect,0.250001X0.949999X0.949999X-0.949999X0.949999X-0.949999X-0.949999X0.949999X-0.949999X0*%
%ADD23C,2.400000*%
%ADD24C,3.200000*%
%ADD25RoundRect,0.250001X-0.949999X-0.949999X0.949999X-0.949999X0.949999X0.949999X-0.949999X0.949999X0*%
%ADD26RoundRect,0.250000X-0.550000X-0.550000X0.550000X-0.550000X0.550000X0.550000X-0.550000X0.550000X0*%
%ADD27C,1.500000*%
%ADD28RoundRect,0.250000X0.550000X-0.550000X0.550000X0.550000X-0.550000X0.550000X-0.550000X-0.550000X0*%
%ADD29C,1.270000*%
%ADD30R,1.500000X1.500000*%
%ADD31C,1.800000*%
%ADD32R,1.800000X1.800000*%
G04 APERTURE END LIST*
D10*
X13777120Y23958296D02*
X14253310Y23958296D01*
X13681882Y23672581D02*
X14015215Y24672581D01*
X14015215Y24672581D02*
X14348548Y23672581D01*
X14681882Y23672581D02*
X14681882Y24672581D01*
X14681882Y24672581D02*
X14919977Y24672581D01*
X14919977Y24672581D02*
X15062834Y24624962D01*
X15062834Y24624962D02*
X15158072Y24529724D01*
X15158072Y24529724D02*
X15205691Y24434486D01*
X15205691Y24434486D02*
X15253310Y24244010D01*
X15253310Y24244010D02*
X15253310Y24101153D01*
X15253310Y24101153D02*
X15205691Y23910677D01*
X15205691Y23910677D02*
X15158072Y23815439D01*
X15158072Y23815439D02*
X15062834Y23720200D01*
X15062834Y23720200D02*
X14919977Y23672581D01*
X14919977Y23672581D02*
X14681882Y23672581D01*
X15586644Y24672581D02*
X16253310Y23672581D01*
X16253310Y24672581D02*
X15586644Y23672581D01*
X17110453Y23672581D02*
X16634263Y23672581D01*
X16634263Y23672581D02*
X16634263Y24672581D01*
D11*
X41768571Y84526010D02*
X41625714Y84573629D01*
X41625714Y84573629D02*
X41578095Y84621248D01*
X41578095Y84621248D02*
X41530476Y84716486D01*
X41530476Y84716486D02*
X41530476Y84859343D01*
X41530476Y84859343D02*
X41578095Y84954581D01*
X41578095Y84954581D02*
X41625714Y85002200D01*
X41625714Y85002200D02*
X41720952Y85049820D01*
X41720952Y85049820D02*
X42101904Y85049820D01*
X42101904Y85049820D02*
X42101904Y84049820D01*
X42101904Y84049820D02*
X41768571Y84049820D01*
X41768571Y84049820D02*
X41673333Y84097439D01*
X41673333Y84097439D02*
X41625714Y84145058D01*
X41625714Y84145058D02*
X41578095Y84240296D01*
X41578095Y84240296D02*
X41578095Y84335534D01*
X41578095Y84335534D02*
X41625714Y84430772D01*
X41625714Y84430772D02*
X41673333Y84478391D01*
X41673333Y84478391D02*
X41768571Y84526010D01*
X41768571Y84526010D02*
X42101904Y84526010D01*
D12*
X20804510Y9239886D02*
X21304510Y9239886D01*
X21518796Y8454172D02*
X20804510Y8454172D01*
X20804510Y8454172D02*
X20804510Y9954172D01*
X20804510Y9954172D02*
X21518796Y9954172D01*
X22161653Y8454172D02*
X22161653Y9954172D01*
X22161653Y9954172D02*
X23018796Y8454172D01*
X23018796Y8454172D02*
X23018796Y9954172D01*
X24518797Y9882743D02*
X24375940Y9954172D01*
X24375940Y9954172D02*
X24161654Y9954172D01*
X24161654Y9954172D02*
X23947368Y9882743D01*
X23947368Y9882743D02*
X23804511Y9739886D01*
X23804511Y9739886D02*
X23733082Y9597029D01*
X23733082Y9597029D02*
X23661654Y9311315D01*
X23661654Y9311315D02*
X23661654Y9097029D01*
X23661654Y9097029D02*
X23733082Y8811315D01*
X23733082Y8811315D02*
X23804511Y8668458D01*
X23804511Y8668458D02*
X23947368Y8525600D01*
X23947368Y8525600D02*
X24161654Y8454172D01*
X24161654Y8454172D02*
X24304511Y8454172D01*
X24304511Y8454172D02*
X24518797Y8525600D01*
X24518797Y8525600D02*
X24590225Y8597029D01*
X24590225Y8597029D02*
X24590225Y9097029D01*
X24590225Y9097029D02*
X24304511Y9097029D01*
X25233082Y9239886D02*
X25733082Y9239886D01*
X25947368Y8454172D02*
X25233082Y8454172D01*
X25233082Y8454172D02*
X25233082Y9954172D01*
X25233082Y9954172D02*
X25947368Y9954172D01*
X27304511Y8454172D02*
X26590225Y8454172D01*
X26590225Y8454172D02*
X26590225Y9954172D01*
X29875940Y9168458D02*
X29804511Y9239886D01*
X29804511Y9239886D02*
X29661654Y9311315D01*
X29661654Y9311315D02*
X29518797Y9311315D01*
X29518797Y9311315D02*
X29375940Y9239886D01*
X29375940Y9239886D02*
X29304511Y9168458D01*
X29304511Y9168458D02*
X29233083Y9025600D01*
X29233083Y9025600D02*
X29233083Y8882743D01*
X29233083Y8882743D02*
X29304511Y8739886D01*
X29304511Y8739886D02*
X29375940Y8668458D01*
X29375940Y8668458D02*
X29518797Y8597029D01*
X29518797Y8597029D02*
X29661654Y8597029D01*
X29661654Y8597029D02*
X29804511Y8668458D01*
X29804511Y8668458D02*
X29875940Y8739886D01*
X29875940Y9311315D02*
X29875940Y8739886D01*
X29875940Y8739886D02*
X29947368Y8668458D01*
X29947368Y8668458D02*
X30018797Y8668458D01*
X30018797Y8668458D02*
X30161654Y8739886D01*
X30161654Y8739886D02*
X30233083Y8882743D01*
X30233083Y8882743D02*
X30233083Y9239886D01*
X30233083Y9239886D02*
X30090226Y9454172D01*
X30090226Y9454172D02*
X29875940Y9597029D01*
X29875940Y9597029D02*
X29590226Y9668458D01*
X29590226Y9668458D02*
X29304511Y9597029D01*
X29304511Y9597029D02*
X29090226Y9454172D01*
X29090226Y9454172D02*
X28947368Y9239886D01*
X28947368Y9239886D02*
X28875940Y8954172D01*
X28875940Y8954172D02*
X28947368Y8668458D01*
X28947368Y8668458D02*
X29090226Y8454172D01*
X29090226Y8454172D02*
X29304511Y8311315D01*
X29304511Y8311315D02*
X29590226Y8239886D01*
X29590226Y8239886D02*
X29875940Y8311315D01*
X29875940Y8311315D02*
X30090226Y8454172D01*
X30804511Y9811315D02*
X30875939Y9882743D01*
X30875939Y9882743D02*
X31018797Y9954172D01*
X31018797Y9954172D02*
X31375939Y9954172D01*
X31375939Y9954172D02*
X31518797Y9882743D01*
X31518797Y9882743D02*
X31590225Y9811315D01*
X31590225Y9811315D02*
X31661654Y9668458D01*
X31661654Y9668458D02*
X31661654Y9525600D01*
X31661654Y9525600D02*
X31590225Y9311315D01*
X31590225Y9311315D02*
X30733082Y8454172D01*
X30733082Y8454172D02*
X31661654Y8454172D01*
X32590225Y9954172D02*
X32733082Y9954172D01*
X32733082Y9954172D02*
X32875939Y9882743D01*
X32875939Y9882743D02*
X32947368Y9811315D01*
X32947368Y9811315D02*
X33018796Y9668458D01*
X33018796Y9668458D02*
X33090225Y9382743D01*
X33090225Y9382743D02*
X33090225Y9025600D01*
X33090225Y9025600D02*
X33018796Y8739886D01*
X33018796Y8739886D02*
X32947368Y8597029D01*
X32947368Y8597029D02*
X32875939Y8525600D01*
X32875939Y8525600D02*
X32733082Y8454172D01*
X32733082Y8454172D02*
X32590225Y8454172D01*
X32590225Y8454172D02*
X32447368Y8525600D01*
X32447368Y8525600D02*
X32375939Y8597029D01*
X32375939Y8597029D02*
X32304510Y8739886D01*
X32304510Y8739886D02*
X32233082Y9025600D01*
X32233082Y9025600D02*
X32233082Y9382743D01*
X32233082Y9382743D02*
X32304510Y9668458D01*
X32304510Y9668458D02*
X32375939Y9811315D01*
X32375939Y9811315D02*
X32447368Y9882743D01*
X32447368Y9882743D02*
X32590225Y9954172D01*
X33661653Y9811315D02*
X33733081Y9882743D01*
X33733081Y9882743D02*
X33875939Y9954172D01*
X33875939Y9954172D02*
X34233081Y9954172D01*
X34233081Y9954172D02*
X34375939Y9882743D01*
X34375939Y9882743D02*
X34447367Y9811315D01*
X34447367Y9811315D02*
X34518796Y9668458D01*
X34518796Y9668458D02*
X34518796Y9525600D01*
X34518796Y9525600D02*
X34447367Y9311315D01*
X34447367Y9311315D02*
X33590224Y8454172D01*
X33590224Y8454172D02*
X34518796Y8454172D01*
X35804510Y9954172D02*
X35518795Y9954172D01*
X35518795Y9954172D02*
X35375938Y9882743D01*
X35375938Y9882743D02*
X35304510Y9811315D01*
X35304510Y9811315D02*
X35161652Y9597029D01*
X35161652Y9597029D02*
X35090224Y9311315D01*
X35090224Y9311315D02*
X35090224Y8739886D01*
X35090224Y8739886D02*
X35161652Y8597029D01*
X35161652Y8597029D02*
X35233081Y8525600D01*
X35233081Y8525600D02*
X35375938Y8454172D01*
X35375938Y8454172D02*
X35661652Y8454172D01*
X35661652Y8454172D02*
X35804510Y8525600D01*
X35804510Y8525600D02*
X35875938Y8597029D01*
X35875938Y8597029D02*
X35947367Y8739886D01*
X35947367Y8739886D02*
X35947367Y9097029D01*
X35947367Y9097029D02*
X35875938Y9239886D01*
X35875938Y9239886D02*
X35804510Y9311315D01*
X35804510Y9311315D02*
X35661652Y9382743D01*
X35661652Y9382743D02*
X35375938Y9382743D01*
X35375938Y9382743D02*
X35233081Y9311315D01*
X35233081Y9311315D02*
X35161652Y9239886D01*
X35161652Y9239886D02*
X35090224Y9097029D01*
D11*
X7740476Y51524820D02*
X8216666Y51524820D01*
X8216666Y51524820D02*
X8264285Y52001010D01*
X8264285Y52001010D02*
X8216666Y51953391D01*
X8216666Y51953391D02*
X8121428Y51905772D01*
X8121428Y51905772D02*
X7883333Y51905772D01*
X7883333Y51905772D02*
X7788095Y51953391D01*
X7788095Y51953391D02*
X7740476Y52001010D01*
X7740476Y52001010D02*
X7692857Y52096248D01*
X7692857Y52096248D02*
X7692857Y52334343D01*
X7692857Y52334343D02*
X7740476Y52429581D01*
X7740476Y52429581D02*
X7788095Y52477200D01*
X7788095Y52477200D02*
X7883333Y52524820D01*
X7883333Y52524820D02*
X8121428Y52524820D01*
X8121428Y52524820D02*
X8216666Y52477200D01*
X8216666Y52477200D02*
X8264285Y52429581D01*
X7407142Y51524820D02*
X7073809Y52524820D01*
X7073809Y52524820D02*
X6740476Y51524820D01*
X19599047Y85049820D02*
X20170475Y85049820D01*
X19884761Y85049820D02*
X19884761Y84049820D01*
X19884761Y84049820D02*
X19979999Y84192677D01*
X19979999Y84192677D02*
X20075237Y84287915D01*
X20075237Y84287915D02*
X20170475Y84335534D01*
X19218094Y84145058D02*
X19170475Y84097439D01*
X19170475Y84097439D02*
X19075237Y84049820D01*
X19075237Y84049820D02*
X18837142Y84049820D01*
X18837142Y84049820D02*
X18741904Y84097439D01*
X18741904Y84097439D02*
X18694285Y84145058D01*
X18694285Y84145058D02*
X18646666Y84240296D01*
X18646666Y84240296D02*
X18646666Y84335534D01*
X18646666Y84335534D02*
X18694285Y84478391D01*
X18694285Y84478391D02*
X19265713Y85049820D01*
X19265713Y85049820D02*
X18646666Y85049820D01*
X18360951Y84049820D02*
X18027618Y85049820D01*
X18027618Y85049820D02*
X17694285Y84049820D01*
X24821904Y84097439D02*
X24917142Y84049820D01*
X24917142Y84049820D02*
X25059999Y84049820D01*
X25059999Y84049820D02*
X25202856Y84097439D01*
X25202856Y84097439D02*
X25298094Y84192677D01*
X25298094Y84192677D02*
X25345713Y84287915D01*
X25345713Y84287915D02*
X25393332Y84478391D01*
X25393332Y84478391D02*
X25393332Y84621248D01*
X25393332Y84621248D02*
X25345713Y84811724D01*
X25345713Y84811724D02*
X25298094Y84906962D01*
X25298094Y84906962D02*
X25202856Y85002200D01*
X25202856Y85002200D02*
X25059999Y85049820D01*
X25059999Y85049820D02*
X24964761Y85049820D01*
X24964761Y85049820D02*
X24821904Y85002200D01*
X24821904Y85002200D02*
X24774285Y84954581D01*
X24774285Y84954581D02*
X24774285Y84621248D01*
X24774285Y84621248D02*
X24964761Y84621248D01*
X24345713Y85049820D02*
X24345713Y84049820D01*
X24345713Y84049820D02*
X23774285Y85049820D01*
X23774285Y85049820D02*
X23774285Y84049820D01*
X23298094Y85049820D02*
X23298094Y84049820D01*
X23298094Y84049820D02*
X23059999Y84049820D01*
X23059999Y84049820D02*
X22917142Y84097439D01*
X22917142Y84097439D02*
X22821904Y84192677D01*
X22821904Y84192677D02*
X22774285Y84287915D01*
X22774285Y84287915D02*
X22726666Y84478391D01*
X22726666Y84478391D02*
X22726666Y84621248D01*
X22726666Y84621248D02*
X22774285Y84811724D01*
X22774285Y84811724D02*
X22821904Y84906962D01*
X22821904Y84906962D02*
X22917142Y85002200D01*
X22917142Y85002200D02*
X23059999Y85049820D01*
X23059999Y85049820D02*
X23298094Y85049820D01*
X36998094Y84764105D02*
X36521904Y84764105D01*
X37093332Y85049820D02*
X36759999Y84049820D01*
X36759999Y84049820D02*
X36426666Y85049820D01*
X37929336Y68490181D02*
X37929336Y67680658D01*
X37929336Y67680658D02*
X37976955Y67585420D01*
X37976955Y67585420D02*
X38024574Y67537800D01*
X38024574Y67537800D02*
X38119812Y67490181D01*
X38119812Y67490181D02*
X38310288Y67490181D01*
X38310288Y67490181D02*
X38405526Y67537800D01*
X38405526Y67537800D02*
X38453145Y67585420D01*
X38453145Y67585420D02*
X38500764Y67680658D01*
X38500764Y67680658D02*
X38500764Y68490181D01*
X38929336Y67537800D02*
X39072193Y67490181D01*
X39072193Y67490181D02*
X39310288Y67490181D01*
X39310288Y67490181D02*
X39405526Y67537800D01*
X39405526Y67537800D02*
X39453145Y67585420D01*
X39453145Y67585420D02*
X39500764Y67680658D01*
X39500764Y67680658D02*
X39500764Y67775896D01*
X39500764Y67775896D02*
X39453145Y67871134D01*
X39453145Y67871134D02*
X39405526Y67918753D01*
X39405526Y67918753D02*
X39310288Y67966372D01*
X39310288Y67966372D02*
X39119812Y68013991D01*
X39119812Y68013991D02*
X39024574Y68061610D01*
X39024574Y68061610D02*
X38976955Y68109229D01*
X38976955Y68109229D02*
X38929336Y68204467D01*
X38929336Y68204467D02*
X38929336Y68299705D01*
X38929336Y68299705D02*
X38976955Y68394943D01*
X38976955Y68394943D02*
X39024574Y68442562D01*
X39024574Y68442562D02*
X39119812Y68490181D01*
X39119812Y68490181D02*
X39357907Y68490181D01*
X39357907Y68490181D02*
X39500764Y68442562D01*
X40262669Y68013991D02*
X40405526Y67966372D01*
X40405526Y67966372D02*
X40453145Y67918753D01*
X40453145Y67918753D02*
X40500764Y67823515D01*
X40500764Y67823515D02*
X40500764Y67680658D01*
X40500764Y67680658D02*
X40453145Y67585420D01*
X40453145Y67585420D02*
X40405526Y67537800D01*
X40405526Y67537800D02*
X40310288Y67490181D01*
X40310288Y67490181D02*
X39929336Y67490181D01*
X39929336Y67490181D02*
X39929336Y68490181D01*
X39929336Y68490181D02*
X40262669Y68490181D01*
X40262669Y68490181D02*
X40357907Y68442562D01*
X40357907Y68442562D02*
X40405526Y68394943D01*
X40405526Y68394943D02*
X40453145Y68299705D01*
X40453145Y68299705D02*
X40453145Y68204467D01*
X40453145Y68204467D02*
X40405526Y68109229D01*
X40405526Y68109229D02*
X40357907Y68061610D01*
X40357907Y68061610D02*
X40262669Y68013991D01*
X40262669Y68013991D02*
X39929336Y68013991D01*
X39754819Y42306377D02*
X38754819Y42306377D01*
X38754819Y42306377D02*
X38754819Y42687329D01*
X38754819Y42687329D02*
X38802438Y42782567D01*
X38802438Y42782567D02*
X38850057Y42830186D01*
X38850057Y42830186D02*
X38945295Y42877805D01*
X38945295Y42877805D02*
X39088152Y42877805D01*
X39088152Y42877805D02*
X39183390Y42830186D01*
X39183390Y42830186D02*
X39231009Y42782567D01*
X39231009Y42782567D02*
X39278628Y42687329D01*
X39278628Y42687329D02*
X39278628Y42306377D01*
X39754819Y43306377D02*
X38754819Y43306377D01*
X39659580Y44353995D02*
X39707200Y44306376D01*
X39707200Y44306376D02*
X39754819Y44163519D01*
X39754819Y44163519D02*
X39754819Y44068281D01*
X39754819Y44068281D02*
X39707200Y43925424D01*
X39707200Y43925424D02*
X39611961Y43830186D01*
X39611961Y43830186D02*
X39516723Y43782567D01*
X39516723Y43782567D02*
X39326247Y43734948D01*
X39326247Y43734948D02*
X39183390Y43734948D01*
X39183390Y43734948D02*
X38992914Y43782567D01*
X38992914Y43782567D02*
X38897676Y43830186D01*
X38897676Y43830186D02*
X38802438Y43925424D01*
X38802438Y43925424D02*
X38754819Y44068281D01*
X38754819Y44068281D02*
X38754819Y44163519D01*
X38754819Y44163519D02*
X38802438Y44306376D01*
X38802438Y44306376D02*
X38850057Y44353995D01*
X38754819Y44973043D02*
X38754819Y45163519D01*
X38754819Y45163519D02*
X38802438Y45258757D01*
X38802438Y45258757D02*
X38897676Y45353995D01*
X38897676Y45353995D02*
X39088152Y45401614D01*
X39088152Y45401614D02*
X39421485Y45401614D01*
X39421485Y45401614D02*
X39611961Y45353995D01*
X39611961Y45353995D02*
X39707200Y45258757D01*
X39707200Y45258757D02*
X39754819Y45163519D01*
X39754819Y45163519D02*
X39754819Y44973043D01*
X39754819Y44973043D02*
X39707200Y44877805D01*
X39707200Y44877805D02*
X39611961Y44782567D01*
X39611961Y44782567D02*
X39421485Y44734948D01*
X39421485Y44734948D02*
X39088152Y44734948D01*
X39088152Y44734948D02*
X38897676Y44782567D01*
X38897676Y44782567D02*
X38802438Y44877805D01*
X38802438Y44877805D02*
X38754819Y44973043D01*
X39754819Y46353995D02*
X39754819Y45782567D01*
X39754819Y46068281D02*
X38754819Y46068281D01*
X38754819Y46068281D02*
X38897676Y45973043D01*
X38897676Y45973043D02*
X38992914Y45877805D01*
X38992914Y45877805D02*
X39040533Y45782567D01*
D13*
X18289195Y27515781D02*
X18289195Y28515781D01*
X18289195Y28515781D02*
X18670147Y28515781D01*
X18670147Y28515781D02*
X18765385Y28468162D01*
X18765385Y28468162D02*
X18813004Y28420543D01*
X18813004Y28420543D02*
X18860623Y28325305D01*
X18860623Y28325305D02*
X18860623Y28182448D01*
X18860623Y28182448D02*
X18813004Y28087210D01*
X18813004Y28087210D02*
X18765385Y28039591D01*
X18765385Y28039591D02*
X18670147Y27991972D01*
X18670147Y27991972D02*
X18289195Y27991972D01*
X19241576Y28420543D02*
X19289195Y28468162D01*
X19289195Y28468162D02*
X19384433Y28515781D01*
X19384433Y28515781D02*
X19622528Y28515781D01*
X19622528Y28515781D02*
X19717766Y28468162D01*
X19717766Y28468162D02*
X19765385Y28420543D01*
X19765385Y28420543D02*
X19813004Y28325305D01*
X19813004Y28325305D02*
X19813004Y28230067D01*
X19813004Y28230067D02*
X19765385Y28087210D01*
X19765385Y28087210D02*
X19193957Y27515781D01*
X19193957Y27515781D02*
X19813004Y27515781D01*
X11423195Y27515781D02*
X11423195Y28515781D01*
X11423195Y28515781D02*
X11804147Y28515781D01*
X11804147Y28515781D02*
X11899385Y28468162D01*
X11899385Y28468162D02*
X11947004Y28420543D01*
X11947004Y28420543D02*
X11994623Y28325305D01*
X11994623Y28325305D02*
X11994623Y28182448D01*
X11994623Y28182448D02*
X11947004Y28087210D01*
X11947004Y28087210D02*
X11899385Y28039591D01*
X11899385Y28039591D02*
X11804147Y27991972D01*
X11804147Y27991972D02*
X11423195Y27991972D01*
X12947004Y27515781D02*
X12375576Y27515781D01*
X12661290Y27515781D02*
X12661290Y28515781D01*
X12661290Y28515781D02*
X12566052Y28372924D01*
X12566052Y28372924D02*
X12470814Y28277686D01*
X12470814Y28277686D02*
X12375576Y28230067D01*
D11*
X38966666Y74765181D02*
X38966666Y74050896D01*
X38966666Y74050896D02*
X38919047Y73908039D01*
X38919047Y73908039D02*
X38823809Y73812800D01*
X38823809Y73812800D02*
X38680952Y73765181D01*
X38680952Y73765181D02*
X38585714Y73765181D01*
X39966666Y73765181D02*
X39395238Y73765181D01*
X39680952Y73765181D02*
X39680952Y74765181D01*
X39680952Y74765181D02*
X39585714Y74622324D01*
X39585714Y74622324D02*
X39490476Y74527086D01*
X39490476Y74527086D02*
X39395238Y74479467D01*
X21186666Y74765181D02*
X21186666Y74050896D01*
X21186666Y74050896D02*
X21139047Y73908039D01*
X21139047Y73908039D02*
X21043809Y73812800D01*
X21043809Y73812800D02*
X20900952Y73765181D01*
X20900952Y73765181D02*
X20805714Y73765181D01*
X21615238Y74669943D02*
X21662857Y74717562D01*
X21662857Y74717562D02*
X21758095Y74765181D01*
X21758095Y74765181D02*
X21996190Y74765181D01*
X21996190Y74765181D02*
X22091428Y74717562D01*
X22091428Y74717562D02*
X22139047Y74669943D01*
X22139047Y74669943D02*
X22186666Y74574705D01*
X22186666Y74574705D02*
X22186666Y74479467D01*
X22186666Y74479467D02*
X22139047Y74336610D01*
X22139047Y74336610D02*
X21567619Y73765181D01*
X21567619Y73765181D02*
X22186666Y73765181D01*
X19511905Y57470181D02*
X19511905Y58470181D01*
X19511905Y58470181D02*
X19750000Y58470181D01*
X19750000Y58470181D02*
X19892857Y58422562D01*
X19892857Y58422562D02*
X19988095Y58327324D01*
X19988095Y58327324D02*
X20035714Y58232086D01*
X20035714Y58232086D02*
X20083333Y58041610D01*
X20083333Y58041610D02*
X20083333Y57898753D01*
X20083333Y57898753D02*
X20035714Y57708277D01*
X20035714Y57708277D02*
X19988095Y57613039D01*
X19988095Y57613039D02*
X19892857Y57517800D01*
X19892857Y57517800D02*
X19750000Y57470181D01*
X19750000Y57470181D02*
X19511905Y57470181D01*
X21035714Y57470181D02*
X20464286Y57470181D01*
X20750000Y57470181D02*
X20750000Y58470181D01*
X20750000Y58470181D02*
X20654762Y58327324D01*
X20654762Y58327324D02*
X20559524Y58232086D01*
X20559524Y58232086D02*
X20464286Y58184467D01*
X14908095Y54930181D02*
X14908095Y55930181D01*
X15479523Y54930181D02*
X15050952Y55501610D01*
X15479523Y55930181D02*
X14908095Y55358753D01*
X10403333Y84235420D02*
X10355714Y84187800D01*
X10355714Y84187800D02*
X10212857Y84140181D01*
X10212857Y84140181D02*
X10117619Y84140181D01*
X10117619Y84140181D02*
X9974762Y84187800D01*
X9974762Y84187800D02*
X9879524Y84283039D01*
X9879524Y84283039D02*
X9831905Y84378277D01*
X9831905Y84378277D02*
X9784286Y84568753D01*
X9784286Y84568753D02*
X9784286Y84711610D01*
X9784286Y84711610D02*
X9831905Y84902086D01*
X9831905Y84902086D02*
X9879524Y84997324D01*
X9879524Y84997324D02*
X9974762Y85092562D01*
X9974762Y85092562D02*
X10117619Y85140181D01*
X10117619Y85140181D02*
X10212857Y85140181D01*
X10212857Y85140181D02*
X10355714Y85092562D01*
X10355714Y85092562D02*
X10403333Y85044943D01*
X11308095Y85140181D02*
X10831905Y85140181D01*
X10831905Y85140181D02*
X10784286Y84663991D01*
X10784286Y84663991D02*
X10831905Y84711610D01*
X10831905Y84711610D02*
X10927143Y84759229D01*
X10927143Y84759229D02*
X11165238Y84759229D01*
X11165238Y84759229D02*
X11260476Y84711610D01*
X11260476Y84711610D02*
X11308095Y84663991D01*
X11308095Y84663991D02*
X11355714Y84568753D01*
X11355714Y84568753D02*
X11355714Y84330658D01*
X11355714Y84330658D02*
X11308095Y84235420D01*
X11308095Y84235420D02*
X11260476Y84187800D01*
X11260476Y84187800D02*
X11165238Y84140181D01*
X11165238Y84140181D02*
X10927143Y84140181D01*
X10927143Y84140181D02*
X10831905Y84187800D01*
X10831905Y84187800D02*
X10784286Y84235420D01*
X19448571Y48790181D02*
X20019999Y48790181D01*
X19734285Y47790181D02*
X19734285Y48790181D01*
X20353333Y47790181D02*
X20353333Y48790181D01*
X20353333Y48790181D02*
X20734285Y48790181D01*
X20734285Y48790181D02*
X20829523Y48742562D01*
X20829523Y48742562D02*
X20877142Y48694943D01*
X20877142Y48694943D02*
X20924761Y48599705D01*
X20924761Y48599705D02*
X20924761Y48456848D01*
X20924761Y48456848D02*
X20877142Y48361610D01*
X20877142Y48361610D02*
X20829523Y48313991D01*
X20829523Y48313991D02*
X20734285Y48266372D01*
X20734285Y48266372D02*
X20353333Y48266372D01*
X21115238Y47694943D02*
X21877142Y47694943D01*
X22591428Y48790181D02*
X22115238Y48790181D01*
X22115238Y48790181D02*
X22067619Y48313991D01*
X22067619Y48313991D02*
X22115238Y48361610D01*
X22115238Y48361610D02*
X22210476Y48409229D01*
X22210476Y48409229D02*
X22448571Y48409229D01*
X22448571Y48409229D02*
X22543809Y48361610D01*
X22543809Y48361610D02*
X22591428Y48313991D01*
X22591428Y48313991D02*
X22639047Y48218753D01*
X22639047Y48218753D02*
X22639047Y47980658D01*
X22639047Y47980658D02*
X22591428Y47885420D01*
X22591428Y47885420D02*
X22543809Y47837800D01*
X22543809Y47837800D02*
X22448571Y47790181D01*
X22448571Y47790181D02*
X22210476Y47790181D01*
X22210476Y47790181D02*
X22115238Y47837800D01*
X22115238Y47837800D02*
X22067619Y47885420D01*
X22924762Y48790181D02*
X23258095Y47790181D01*
X23258095Y47790181D02*
X23591428Y48790181D01*
X7383333Y36581971D02*
X7335714Y36534351D01*
X7335714Y36534351D02*
X7192857Y36486732D01*
X7192857Y36486732D02*
X7097619Y36486732D01*
X7097619Y36486732D02*
X6954762Y36534351D01*
X6954762Y36534351D02*
X6859524Y36629590D01*
X6859524Y36629590D02*
X6811905Y36724828D01*
X6811905Y36724828D02*
X6764286Y36915304D01*
X6764286Y36915304D02*
X6764286Y37058161D01*
X6764286Y37058161D02*
X6811905Y37248637D01*
X6811905Y37248637D02*
X6859524Y37343875D01*
X6859524Y37343875D02*
X6954762Y37439113D01*
X6954762Y37439113D02*
X7097619Y37486732D01*
X7097619Y37486732D02*
X7192857Y37486732D01*
X7192857Y37486732D02*
X7335714Y37439113D01*
X7335714Y37439113D02*
X7383333Y37391494D01*
X7716667Y37486732D02*
X8335714Y37486732D01*
X8335714Y37486732D02*
X8002381Y37105780D01*
X8002381Y37105780D02*
X8145238Y37105780D01*
X8145238Y37105780D02*
X8240476Y37058161D01*
X8240476Y37058161D02*
X8288095Y37010542D01*
X8288095Y37010542D02*
X8335714Y36915304D01*
X8335714Y36915304D02*
X8335714Y36677209D01*
X8335714Y36677209D02*
X8288095Y36581971D01*
X8288095Y36581971D02*
X8240476Y36534351D01*
X8240476Y36534351D02*
X8145238Y36486732D01*
X8145238Y36486732D02*
X7859524Y36486732D01*
X7859524Y36486732D02*
X7764286Y36534351D01*
X7764286Y36534351D02*
X7716667Y36581971D01*
X19339580Y37933334D02*
X19387200Y37885715D01*
X19387200Y37885715D02*
X19434819Y37742858D01*
X19434819Y37742858D02*
X19434819Y37647620D01*
X19434819Y37647620D02*
X19387200Y37504763D01*
X19387200Y37504763D02*
X19291961Y37409525D01*
X19291961Y37409525D02*
X19196723Y37361906D01*
X19196723Y37361906D02*
X19006247Y37314287D01*
X19006247Y37314287D02*
X18863390Y37314287D01*
X18863390Y37314287D02*
X18672914Y37361906D01*
X18672914Y37361906D02*
X18577676Y37409525D01*
X18577676Y37409525D02*
X18482438Y37504763D01*
X18482438Y37504763D02*
X18434819Y37647620D01*
X18434819Y37647620D02*
X18434819Y37742858D01*
X18434819Y37742858D02*
X18482438Y37885715D01*
X18482438Y37885715D02*
X18530057Y37933334D01*
X18768152Y38790477D02*
X19434819Y38790477D01*
X18387200Y38552382D02*
X19101485Y38314287D01*
X19101485Y38314287D02*
X19101485Y38933334D01*
X9923333Y42230181D02*
X9447143Y42230181D01*
X9447143Y42230181D02*
X9447143Y43230181D01*
X10780476Y42230181D02*
X10209048Y42230181D01*
X10494762Y42230181D02*
X10494762Y43230181D01*
X10494762Y43230181D02*
X10399524Y43087324D01*
X10399524Y43087324D02*
X10304286Y42992086D01*
X10304286Y42992086D02*
X10209048Y42944467D01*
X16781904Y43710181D02*
X17353332Y43710181D01*
X17067618Y42710181D02*
X17067618Y43710181D01*
X17686666Y42710181D02*
X17686666Y43710181D01*
X17686666Y43710181D02*
X18067618Y43710181D01*
X18067618Y43710181D02*
X18162856Y43662562D01*
X18162856Y43662562D02*
X18210475Y43614943D01*
X18210475Y43614943D02*
X18258094Y43519705D01*
X18258094Y43519705D02*
X18258094Y43376848D01*
X18258094Y43376848D02*
X18210475Y43281610D01*
X18210475Y43281610D02*
X18162856Y43233991D01*
X18162856Y43233991D02*
X18067618Y43186372D01*
X18067618Y43186372D02*
X17686666Y43186372D01*
X18448571Y42614943D02*
X19210475Y42614943D01*
X19353333Y43710181D02*
X19972380Y43710181D01*
X19972380Y43710181D02*
X19639047Y43329229D01*
X19639047Y43329229D02*
X19781904Y43329229D01*
X19781904Y43329229D02*
X19877142Y43281610D01*
X19877142Y43281610D02*
X19924761Y43233991D01*
X19924761Y43233991D02*
X19972380Y43138753D01*
X19972380Y43138753D02*
X19972380Y42900658D01*
X19972380Y42900658D02*
X19924761Y42805420D01*
X19924761Y42805420D02*
X19877142Y42757800D01*
X19877142Y42757800D02*
X19781904Y42710181D01*
X19781904Y42710181D02*
X19496190Y42710181D01*
X19496190Y42710181D02*
X19400952Y42757800D01*
X19400952Y42757800D02*
X19353333Y42805420D01*
X20258095Y43710181D02*
X20591428Y42710181D01*
X20591428Y42710181D02*
X20924761Y43710181D01*
X21162857Y43710181D02*
X21781904Y43710181D01*
X21781904Y43710181D02*
X21448571Y43329229D01*
X21448571Y43329229D02*
X21591428Y43329229D01*
X21591428Y43329229D02*
X21686666Y43281610D01*
X21686666Y43281610D02*
X21734285Y43233991D01*
X21734285Y43233991D02*
X21781904Y43138753D01*
X21781904Y43138753D02*
X21781904Y42900658D01*
X21781904Y42900658D02*
X21734285Y42805420D01*
X21734285Y42805420D02*
X21686666Y42757800D01*
X21686666Y42757800D02*
X21591428Y42710181D01*
X21591428Y42710181D02*
X21305714Y42710181D01*
X21305714Y42710181D02*
X21210476Y42757800D01*
X21210476Y42757800D02*
X21162857Y42805420D01*
X21972381Y42614943D02*
X22734285Y42614943D01*
X22924762Y42995896D02*
X23400952Y42995896D01*
X22829524Y42710181D02*
X23162857Y43710181D01*
X23162857Y43710181D02*
X23496190Y42710181D01*
X23829524Y42710181D02*
X23829524Y43710181D01*
X23829524Y43710181D02*
X24067619Y43710181D01*
X24067619Y43710181D02*
X24210476Y43662562D01*
X24210476Y43662562D02*
X24305714Y43567324D01*
X24305714Y43567324D02*
X24353333Y43472086D01*
X24353333Y43472086D02*
X24400952Y43281610D01*
X24400952Y43281610D02*
X24400952Y43138753D01*
X24400952Y43138753D02*
X24353333Y42948277D01*
X24353333Y42948277D02*
X24305714Y42853039D01*
X24305714Y42853039D02*
X24210476Y42757800D01*
X24210476Y42757800D02*
X24067619Y42710181D01*
X24067619Y42710181D02*
X23829524Y42710181D01*
X24734286Y43710181D02*
X25400952Y42710181D01*
X25400952Y43710181D02*
X24734286Y42710181D01*
X26258095Y42710181D02*
X25781905Y42710181D01*
X25781905Y42710181D02*
X25781905Y43710181D01*
X32077143Y1970181D02*
X32648571Y1970181D01*
X32362857Y970181D02*
X32362857Y1970181D01*
X32981905Y970181D02*
X32981905Y1970181D01*
X32981905Y1970181D02*
X33362857Y1970181D01*
X33362857Y1970181D02*
X33458095Y1922562D01*
X33458095Y1922562D02*
X33505714Y1874943D01*
X33505714Y1874943D02*
X33553333Y1779705D01*
X33553333Y1779705D02*
X33553333Y1636848D01*
X33553333Y1636848D02*
X33505714Y1541610D01*
X33505714Y1541610D02*
X33458095Y1493991D01*
X33458095Y1493991D02*
X33362857Y1446372D01*
X33362857Y1446372D02*
X32981905Y1446372D01*
X33743810Y874943D02*
X34505714Y874943D01*
X35315238Y1065420D02*
X35267619Y1017800D01*
X35267619Y1017800D02*
X35124762Y970181D01*
X35124762Y970181D02*
X35029524Y970181D01*
X35029524Y970181D02*
X34886667Y1017800D01*
X34886667Y1017800D02*
X34791429Y1113039D01*
X34791429Y1113039D02*
X34743810Y1208277D01*
X34743810Y1208277D02*
X34696191Y1398753D01*
X34696191Y1398753D02*
X34696191Y1541610D01*
X34696191Y1541610D02*
X34743810Y1732086D01*
X34743810Y1732086D02*
X34791429Y1827324D01*
X34791429Y1827324D02*
X34886667Y1922562D01*
X34886667Y1922562D02*
X35029524Y1970181D01*
X35029524Y1970181D02*
X35124762Y1970181D01*
X35124762Y1970181D02*
X35267619Y1922562D01*
X35267619Y1922562D02*
X35315238Y1874943D01*
X35696191Y1017800D02*
X35839048Y970181D01*
X35839048Y970181D02*
X36077143Y970181D01*
X36077143Y970181D02*
X36172381Y1017800D01*
X36172381Y1017800D02*
X36220000Y1065420D01*
X36220000Y1065420D02*
X36267619Y1160658D01*
X36267619Y1160658D02*
X36267619Y1255896D01*
X36267619Y1255896D02*
X36220000Y1351134D01*
X36220000Y1351134D02*
X36172381Y1398753D01*
X36172381Y1398753D02*
X36077143Y1446372D01*
X36077143Y1446372D02*
X35886667Y1493991D01*
X35886667Y1493991D02*
X35791429Y1541610D01*
X35791429Y1541610D02*
X35743810Y1589229D01*
X35743810Y1589229D02*
X35696191Y1684467D01*
X35696191Y1684467D02*
X35696191Y1779705D01*
X35696191Y1779705D02*
X35743810Y1874943D01*
X35743810Y1874943D02*
X35791429Y1922562D01*
X35791429Y1922562D02*
X35886667Y1970181D01*
X35886667Y1970181D02*
X36124762Y1970181D01*
X36124762Y1970181D02*
X36267619Y1922562D01*
X28989524Y13400181D02*
X29560952Y13400181D01*
X29275238Y12400181D02*
X29275238Y13400181D01*
X29894286Y12400181D02*
X29894286Y13400181D01*
X29894286Y13400181D02*
X30275238Y13400181D01*
X30275238Y13400181D02*
X30370476Y13352562D01*
X30370476Y13352562D02*
X30418095Y13304943D01*
X30418095Y13304943D02*
X30465714Y13209705D01*
X30465714Y13209705D02*
X30465714Y13066848D01*
X30465714Y13066848D02*
X30418095Y12971610D01*
X30418095Y12971610D02*
X30370476Y12923991D01*
X30370476Y12923991D02*
X30275238Y12876372D01*
X30275238Y12876372D02*
X29894286Y12876372D01*
X30656191Y12304943D02*
X31418095Y12304943D01*
X32180000Y13352562D02*
X32084762Y13400181D01*
X32084762Y13400181D02*
X31941905Y13400181D01*
X31941905Y13400181D02*
X31799048Y13352562D01*
X31799048Y13352562D02*
X31703810Y13257324D01*
X31703810Y13257324D02*
X31656191Y13162086D01*
X31656191Y13162086D02*
X31608572Y12971610D01*
X31608572Y12971610D02*
X31608572Y12828753D01*
X31608572Y12828753D02*
X31656191Y12638277D01*
X31656191Y12638277D02*
X31703810Y12543039D01*
X31703810Y12543039D02*
X31799048Y12447800D01*
X31799048Y12447800D02*
X31941905Y12400181D01*
X31941905Y12400181D02*
X32037143Y12400181D01*
X32037143Y12400181D02*
X32180000Y12447800D01*
X32180000Y12447800D02*
X32227619Y12495420D01*
X32227619Y12495420D02*
X32227619Y12828753D01*
X32227619Y12828753D02*
X32037143Y12828753D01*
X32656191Y12400181D02*
X32656191Y13400181D01*
X32656191Y13400181D02*
X33227619Y12400181D01*
X33227619Y12400181D02*
X33227619Y13400181D01*
X33703810Y12400181D02*
X33703810Y13400181D01*
X33703810Y13400181D02*
X33941905Y13400181D01*
X33941905Y13400181D02*
X34084762Y13352562D01*
X34084762Y13352562D02*
X34180000Y13257324D01*
X34180000Y13257324D02*
X34227619Y13162086D01*
X34227619Y13162086D02*
X34275238Y12971610D01*
X34275238Y12971610D02*
X34275238Y12828753D01*
X34275238Y12828753D02*
X34227619Y12638277D01*
X34227619Y12638277D02*
X34180000Y12543039D01*
X34180000Y12543039D02*
X34084762Y12447800D01*
X34084762Y12447800D02*
X33941905Y12400181D01*
X33941905Y12400181D02*
X33703810Y12400181D01*
X20083333Y62645420D02*
X20035714Y62597800D01*
X20035714Y62597800D02*
X19892857Y62550181D01*
X19892857Y62550181D02*
X19797619Y62550181D01*
X19797619Y62550181D02*
X19654762Y62597800D01*
X19654762Y62597800D02*
X19559524Y62693039D01*
X19559524Y62693039D02*
X19511905Y62788277D01*
X19511905Y62788277D02*
X19464286Y62978753D01*
X19464286Y62978753D02*
X19464286Y63121610D01*
X19464286Y63121610D02*
X19511905Y63312086D01*
X19511905Y63312086D02*
X19559524Y63407324D01*
X19559524Y63407324D02*
X19654762Y63502562D01*
X19654762Y63502562D02*
X19797619Y63550181D01*
X19797619Y63550181D02*
X19892857Y63550181D01*
X19892857Y63550181D02*
X20035714Y63502562D01*
X20035714Y63502562D02*
X20083333Y63454943D01*
X20940476Y63550181D02*
X20750000Y63550181D01*
X20750000Y63550181D02*
X20654762Y63502562D01*
X20654762Y63502562D02*
X20607143Y63454943D01*
X20607143Y63454943D02*
X20511905Y63312086D01*
X20511905Y63312086D02*
X20464286Y63121610D01*
X20464286Y63121610D02*
X20464286Y62740658D01*
X20464286Y62740658D02*
X20511905Y62645420D01*
X20511905Y62645420D02*
X20559524Y62597800D01*
X20559524Y62597800D02*
X20654762Y62550181D01*
X20654762Y62550181D02*
X20845238Y62550181D01*
X20845238Y62550181D02*
X20940476Y62597800D01*
X20940476Y62597800D02*
X20988095Y62645420D01*
X20988095Y62645420D02*
X21035714Y62740658D01*
X21035714Y62740658D02*
X21035714Y62978753D01*
X21035714Y62978753D02*
X20988095Y63073991D01*
X20988095Y63073991D02*
X20940476Y63121610D01*
X20940476Y63121610D02*
X20845238Y63169229D01*
X20845238Y63169229D02*
X20654762Y63169229D01*
X20654762Y63169229D02*
X20559524Y63121610D01*
X20559524Y63121610D02*
X20511905Y63073991D01*
X20511905Y63073991D02*
X20464286Y62978753D01*
X21196666Y69423991D02*
X20863333Y69423991D01*
X20863333Y68900181D02*
X20863333Y69900181D01*
X20863333Y69900181D02*
X21339523Y69900181D01*
X22244285Y68900181D02*
X21672857Y68900181D01*
X21958571Y68900181D02*
X21958571Y69900181D01*
X21958571Y69900181D02*
X21863333Y69757324D01*
X21863333Y69757324D02*
X21768095Y69662086D01*
X21768095Y69662086D02*
X21672857Y69614467D01*
X18972381Y53870181D02*
X19543809Y53870181D01*
X19258095Y52870181D02*
X19258095Y53870181D01*
X19877143Y52870181D02*
X19877143Y53870181D01*
X19877143Y53870181D02*
X20258095Y53870181D01*
X20258095Y53870181D02*
X20353333Y53822562D01*
X20353333Y53822562D02*
X20400952Y53774943D01*
X20400952Y53774943D02*
X20448571Y53679705D01*
X20448571Y53679705D02*
X20448571Y53536848D01*
X20448571Y53536848D02*
X20400952Y53441610D01*
X20400952Y53441610D02*
X20353333Y53393991D01*
X20353333Y53393991D02*
X20258095Y53346372D01*
X20258095Y53346372D02*
X19877143Y53346372D01*
X20639048Y52774943D02*
X21400952Y52774943D01*
X22162857Y52870181D02*
X21591429Y52870181D01*
X21877143Y52870181D02*
X21877143Y53870181D01*
X21877143Y53870181D02*
X21781905Y53727324D01*
X21781905Y53727324D02*
X21686667Y53632086D01*
X21686667Y53632086D02*
X21591429Y53584467D01*
X22543810Y53774943D02*
X22591429Y53822562D01*
X22591429Y53822562D02*
X22686667Y53870181D01*
X22686667Y53870181D02*
X22924762Y53870181D01*
X22924762Y53870181D02*
X23020000Y53822562D01*
X23020000Y53822562D02*
X23067619Y53774943D01*
X23067619Y53774943D02*
X23115238Y53679705D01*
X23115238Y53679705D02*
X23115238Y53584467D01*
X23115238Y53584467D02*
X23067619Y53441610D01*
X23067619Y53441610D02*
X22496191Y52870181D01*
X22496191Y52870181D02*
X23115238Y52870181D01*
X23400953Y53870181D02*
X23734286Y52870181D01*
X23734286Y52870181D02*
X24067619Y53870181D01*
X26179524Y2287800D02*
X26322381Y2240181D01*
X26322381Y2240181D02*
X26560476Y2240181D01*
X26560476Y2240181D02*
X26655714Y2287800D01*
X26655714Y2287800D02*
X26703333Y2335420D01*
X26703333Y2335420D02*
X26750952Y2430658D01*
X26750952Y2430658D02*
X26750952Y2525896D01*
X26750952Y2525896D02*
X26703333Y2621134D01*
X26703333Y2621134D02*
X26655714Y2668753D01*
X26655714Y2668753D02*
X26560476Y2716372D01*
X26560476Y2716372D02*
X26370000Y2763991D01*
X26370000Y2763991D02*
X26274762Y2811610D01*
X26274762Y2811610D02*
X26227143Y2859229D01*
X26227143Y2859229D02*
X26179524Y2954467D01*
X26179524Y2954467D02*
X26179524Y3049705D01*
X26179524Y3049705D02*
X26227143Y3144943D01*
X26227143Y3144943D02*
X26274762Y3192562D01*
X26274762Y3192562D02*
X26370000Y3240181D01*
X26370000Y3240181D02*
X26608095Y3240181D01*
X26608095Y3240181D02*
X26750952Y3192562D01*
X27750952Y2335420D02*
X27703333Y2287800D01*
X27703333Y2287800D02*
X27560476Y2240181D01*
X27560476Y2240181D02*
X27465238Y2240181D01*
X27465238Y2240181D02*
X27322381Y2287800D01*
X27322381Y2287800D02*
X27227143Y2383039D01*
X27227143Y2383039D02*
X27179524Y2478277D01*
X27179524Y2478277D02*
X27131905Y2668753D01*
X27131905Y2668753D02*
X27131905Y2811610D01*
X27131905Y2811610D02*
X27179524Y3002086D01*
X27179524Y3002086D02*
X27227143Y3097324D01*
X27227143Y3097324D02*
X27322381Y3192562D01*
X27322381Y3192562D02*
X27465238Y3240181D01*
X27465238Y3240181D02*
X27560476Y3240181D01*
X27560476Y3240181D02*
X27703333Y3192562D01*
X27703333Y3192562D02*
X27750952Y3144943D01*
X28655714Y2240181D02*
X28179524Y2240181D01*
X28179524Y2240181D02*
X28179524Y3240181D01*
X28989048Y2240181D02*
X28989048Y3240181D01*
X29560476Y2240181D02*
X29131905Y2811610D01*
X29560476Y3240181D02*
X28989048Y2668753D01*
X9328095Y52588000D02*
X9328095Y51778477D01*
X9328095Y51778477D02*
X9375714Y51683239D01*
X9375714Y51683239D02*
X9423333Y51635619D01*
X9423333Y51635619D02*
X9518571Y51588000D01*
X9518571Y51588000D02*
X9709047Y51588000D01*
X9709047Y51588000D02*
X9804285Y51635619D01*
X9804285Y51635619D02*
X9851904Y51683239D01*
X9851904Y51683239D02*
X9899523Y51778477D01*
X9899523Y51778477D02*
X9899523Y52588000D01*
X10328095Y52492762D02*
X10375714Y52540381D01*
X10375714Y52540381D02*
X10470952Y52588000D01*
X10470952Y52588000D02*
X10709047Y52588000D01*
X10709047Y52588000D02*
X10804285Y52540381D01*
X10804285Y52540381D02*
X10851904Y52492762D01*
X10851904Y52492762D02*
X10899523Y52397524D01*
X10899523Y52397524D02*
X10899523Y52302286D01*
X10899523Y52302286D02*
X10851904Y52159429D01*
X10851904Y52159429D02*
X10280476Y51588000D01*
X10280476Y51588000D02*
X10899523Y51588000D01*
X35879524Y13400181D02*
X36450952Y13400181D01*
X36165238Y12400181D02*
X36165238Y13400181D01*
X36784286Y12400181D02*
X36784286Y13400181D01*
X36784286Y13400181D02*
X37165238Y13400181D01*
X37165238Y13400181D02*
X37260476Y13352562D01*
X37260476Y13352562D02*
X37308095Y13304943D01*
X37308095Y13304943D02*
X37355714Y13209705D01*
X37355714Y13209705D02*
X37355714Y13066848D01*
X37355714Y13066848D02*
X37308095Y12971610D01*
X37308095Y12971610D02*
X37260476Y12923991D01*
X37260476Y12923991D02*
X37165238Y12876372D01*
X37165238Y12876372D02*
X36784286Y12876372D01*
X37546191Y12304943D02*
X38308095Y12304943D01*
X38450953Y13400181D02*
X39070000Y13400181D01*
X39070000Y13400181D02*
X38736667Y13019229D01*
X38736667Y13019229D02*
X38879524Y13019229D01*
X38879524Y13019229D02*
X38974762Y12971610D01*
X38974762Y12971610D02*
X39022381Y12923991D01*
X39022381Y12923991D02*
X39070000Y12828753D01*
X39070000Y12828753D02*
X39070000Y12590658D01*
X39070000Y12590658D02*
X39022381Y12495420D01*
X39022381Y12495420D02*
X38974762Y12447800D01*
X38974762Y12447800D02*
X38879524Y12400181D01*
X38879524Y12400181D02*
X38593810Y12400181D01*
X38593810Y12400181D02*
X38498572Y12447800D01*
X38498572Y12447800D02*
X38450953Y12495420D01*
X39355715Y13400181D02*
X39689048Y12400181D01*
X39689048Y12400181D02*
X40022381Y13400181D01*
X40260477Y13400181D02*
X40879524Y13400181D01*
X40879524Y13400181D02*
X40546191Y13019229D01*
X40546191Y13019229D02*
X40689048Y13019229D01*
X40689048Y13019229D02*
X40784286Y12971610D01*
X40784286Y12971610D02*
X40831905Y12923991D01*
X40831905Y12923991D02*
X40879524Y12828753D01*
X40879524Y12828753D02*
X40879524Y12590658D01*
X40879524Y12590658D02*
X40831905Y12495420D01*
X40831905Y12495420D02*
X40784286Y12447800D01*
X40784286Y12447800D02*
X40689048Y12400181D01*
X40689048Y12400181D02*
X40403334Y12400181D01*
X40403334Y12400181D02*
X40308096Y12447800D01*
X40308096Y12447800D02*
X40260477Y12495420D01*
X41070001Y12304943D02*
X41831905Y12304943D01*
X42070001Y12400181D02*
X42070001Y13400181D01*
X42070001Y13400181D02*
X42450953Y13400181D01*
X42450953Y13400181D02*
X42546191Y13352562D01*
X42546191Y13352562D02*
X42593810Y13304943D01*
X42593810Y13304943D02*
X42641429Y13209705D01*
X42641429Y13209705D02*
X42641429Y13066848D01*
X42641429Y13066848D02*
X42593810Y12971610D01*
X42593810Y12971610D02*
X42546191Y12923991D01*
X42546191Y12923991D02*
X42450953Y12876372D01*
X42450953Y12876372D02*
X42070001Y12876372D01*
X43070001Y12400181D02*
X43070001Y13400181D01*
X44117619Y12495420D02*
X44070000Y12447800D01*
X44070000Y12447800D02*
X43927143Y12400181D01*
X43927143Y12400181D02*
X43831905Y12400181D01*
X43831905Y12400181D02*
X43689048Y12447800D01*
X43689048Y12447800D02*
X43593810Y12543039D01*
X43593810Y12543039D02*
X43546191Y12638277D01*
X43546191Y12638277D02*
X43498572Y12828753D01*
X43498572Y12828753D02*
X43498572Y12971610D01*
X43498572Y12971610D02*
X43546191Y13162086D01*
X43546191Y13162086D02*
X43593810Y13257324D01*
X43593810Y13257324D02*
X43689048Y13352562D01*
X43689048Y13352562D02*
X43831905Y13400181D01*
X43831905Y13400181D02*
X43927143Y13400181D01*
X43927143Y13400181D02*
X44070000Y13352562D01*
X44070000Y13352562D02*
X44117619Y13304943D01*
X44736667Y13400181D02*
X44927143Y13400181D01*
X44927143Y13400181D02*
X45022381Y13352562D01*
X45022381Y13352562D02*
X45117619Y13257324D01*
X45117619Y13257324D02*
X45165238Y13066848D01*
X45165238Y13066848D02*
X45165238Y12733515D01*
X45165238Y12733515D02*
X45117619Y12543039D01*
X45117619Y12543039D02*
X45022381Y12447800D01*
X45022381Y12447800D02*
X44927143Y12400181D01*
X44927143Y12400181D02*
X44736667Y12400181D01*
X44736667Y12400181D02*
X44641429Y12447800D01*
X44641429Y12447800D02*
X44546191Y12543039D01*
X44546191Y12543039D02*
X44498572Y12733515D01*
X44498572Y12733515D02*
X44498572Y13066848D01*
X44498572Y13066848D02*
X44546191Y13257324D01*
X44546191Y13257324D02*
X44641429Y13352562D01*
X44641429Y13352562D02*
X44736667Y13400181D01*
X8058095Y73710181D02*
X8058095Y72900658D01*
X8058095Y72900658D02*
X8105714Y72805420D01*
X8105714Y72805420D02*
X8153333Y72757800D01*
X8153333Y72757800D02*
X8248571Y72710181D01*
X8248571Y72710181D02*
X8439047Y72710181D01*
X8439047Y72710181D02*
X8534285Y72757800D01*
X8534285Y72757800D02*
X8581904Y72805420D01*
X8581904Y72805420D02*
X8629523Y72900658D01*
X8629523Y72900658D02*
X8629523Y73710181D01*
X9629523Y72710181D02*
X9058095Y72710181D01*
X9343809Y72710181D02*
X9343809Y73710181D01*
X9343809Y73710181D02*
X9248571Y73567324D01*
X9248571Y73567324D02*
X9153333Y73472086D01*
X9153333Y73472086D02*
X9058095Y73424467D01*
X18424762Y1970181D02*
X18996190Y1970181D01*
X18710476Y970181D02*
X18710476Y1970181D01*
X19329524Y970181D02*
X19329524Y1970181D01*
X19329524Y1970181D02*
X19710476Y1970181D01*
X19710476Y1970181D02*
X19805714Y1922562D01*
X19805714Y1922562D02*
X19853333Y1874943D01*
X19853333Y1874943D02*
X19900952Y1779705D01*
X19900952Y1779705D02*
X19900952Y1636848D01*
X19900952Y1636848D02*
X19853333Y1541610D01*
X19853333Y1541610D02*
X19805714Y1493991D01*
X19805714Y1493991D02*
X19710476Y1446372D01*
X19710476Y1446372D02*
X19329524Y1446372D01*
X20091429Y874943D02*
X20853333Y874943D01*
X21091429Y970181D02*
X21091429Y1970181D01*
X21091429Y1970181D02*
X21329524Y1970181D01*
X21329524Y1970181D02*
X21472381Y1922562D01*
X21472381Y1922562D02*
X21567619Y1827324D01*
X21567619Y1827324D02*
X21615238Y1732086D01*
X21615238Y1732086D02*
X21662857Y1541610D01*
X21662857Y1541610D02*
X21662857Y1398753D01*
X21662857Y1398753D02*
X21615238Y1208277D01*
X21615238Y1208277D02*
X21567619Y1113039D01*
X21567619Y1113039D02*
X21472381Y1017800D01*
X21472381Y1017800D02*
X21329524Y970181D01*
X21329524Y970181D02*
X21091429Y970181D01*
X22662857Y970181D02*
X22329524Y1446372D01*
X22091429Y970181D02*
X22091429Y1970181D01*
X22091429Y1970181D02*
X22472381Y1970181D01*
X22472381Y1970181D02*
X22567619Y1922562D01*
X22567619Y1922562D02*
X22615238Y1874943D01*
X22615238Y1874943D02*
X22662857Y1779705D01*
X22662857Y1779705D02*
X22662857Y1636848D01*
X22662857Y1636848D02*
X22615238Y1541610D01*
X22615238Y1541610D02*
X22567619Y1493991D01*
X22567619Y1493991D02*
X22472381Y1446372D01*
X22472381Y1446372D02*
X22091429Y1446372D01*
X23091429Y970181D02*
X23091429Y1970181D01*
X23091429Y1970181D02*
X23329524Y1970181D01*
X23329524Y1970181D02*
X23472381Y1922562D01*
X23472381Y1922562D02*
X23567619Y1827324D01*
X23567619Y1827324D02*
X23615238Y1732086D01*
X23615238Y1732086D02*
X23662857Y1541610D01*
X23662857Y1541610D02*
X23662857Y1398753D01*
X23662857Y1398753D02*
X23615238Y1208277D01*
X23615238Y1208277D02*
X23567619Y1113039D01*
X23567619Y1113039D02*
X23472381Y1017800D01*
X23472381Y1017800D02*
X23329524Y970181D01*
X23329524Y970181D02*
X23091429Y970181D01*
X24281905Y1446372D02*
X24281905Y970181D01*
X23948572Y1970181D02*
X24281905Y1446372D01*
X24281905Y1446372D02*
X24615238Y1970181D01*
X7480682Y64085420D02*
X7433063Y64037800D01*
X7433063Y64037800D02*
X7290206Y63990181D01*
X7290206Y63990181D02*
X7194968Y63990181D01*
X7194968Y63990181D02*
X7052111Y64037800D01*
X7052111Y64037800D02*
X6956873Y64133039D01*
X6956873Y64133039D02*
X6909254Y64228277D01*
X6909254Y64228277D02*
X6861635Y64418753D01*
X6861635Y64418753D02*
X6861635Y64561610D01*
X6861635Y64561610D02*
X6909254Y64752086D01*
X6909254Y64752086D02*
X6956873Y64847324D01*
X6956873Y64847324D02*
X7052111Y64942562D01*
X7052111Y64942562D02*
X7194968Y64990181D01*
X7194968Y64990181D02*
X7290206Y64990181D01*
X7290206Y64990181D02*
X7433063Y64942562D01*
X7433063Y64942562D02*
X7480682Y64894943D01*
X7861635Y64894943D02*
X7909254Y64942562D01*
X7909254Y64942562D02*
X8004492Y64990181D01*
X8004492Y64990181D02*
X8242587Y64990181D01*
X8242587Y64990181D02*
X8337825Y64942562D01*
X8337825Y64942562D02*
X8385444Y64894943D01*
X8385444Y64894943D02*
X8433063Y64799705D01*
X8433063Y64799705D02*
X8433063Y64704467D01*
X8433063Y64704467D02*
X8385444Y64561610D01*
X8385444Y64561610D02*
X7814016Y63990181D01*
X7814016Y63990181D02*
X8433063Y63990181D01*
%TO.C,PICO1*%
D14*
X38030000Y61645000D02*
X43170000Y61645000D01*
X35430000Y61645000D02*
X36760000Y61645000D01*
X35430000Y60315000D02*
X35430000Y61645000D01*
X43170000Y58985000D02*
X43170000Y61645000D01*
X38030000Y58985000D02*
X38030000Y61645000D01*
X38030000Y58985000D02*
X43170000Y58985000D01*
X28690000Y66885000D02*
X28210000Y66885000D01*
X28690000Y66885000D02*
X28690000Y66465000D01*
X28690000Y64345000D02*
X28690000Y63925000D01*
X28690000Y61805000D02*
X28690000Y61385000D01*
X28690000Y59265000D02*
X28690000Y58845000D01*
X28690000Y56725000D02*
X28690000Y56305000D01*
X28690000Y54185000D02*
X28690000Y53765000D01*
X28690000Y51645000D02*
X28690000Y51225000D01*
X28690000Y49105000D02*
X28690000Y48685000D01*
X28690000Y46565000D02*
X28690000Y46145000D01*
X28690000Y44025000D02*
X28690000Y43605000D01*
X28690000Y41485000D02*
X28690000Y41065000D01*
X28690000Y38945000D02*
X28690000Y38525000D01*
X28690000Y36405000D02*
X28690000Y35985000D01*
X28690000Y33865000D02*
X28690000Y33445000D01*
X28690000Y31325000D02*
X28690000Y30905000D01*
X28690000Y28785000D02*
X28690000Y28365000D01*
X28690000Y26245000D02*
X28690000Y25825000D01*
X28690000Y23705000D02*
X28690000Y23285000D01*
X28690000Y21165000D02*
X28690000Y20745000D01*
X28720324Y69005000D02*
X28210000Y69005000D01*
X29300000Y69425000D02*
X31790000Y69425000D01*
X29300000Y18205000D02*
X33137939Y18205000D01*
X31790000Y69425000D02*
X31790000Y68511480D01*
X31790000Y69425000D02*
X33137940Y69425000D01*
X31790000Y66118520D02*
X31790000Y21511480D01*
X31790000Y19118520D02*
X31790000Y18205000D01*
X34062061Y69425000D02*
X35065000Y69425000D01*
X35400000Y66121000D02*
X35400000Y64905000D01*
X35700000Y18205000D02*
X34062061Y18205000D01*
X43200000Y66121000D02*
X43200000Y64905000D01*
X43535000Y69425000D02*
X44537939Y69425000D01*
X44537939Y18205000D02*
X42900000Y18205000D01*
X45462061Y69425000D02*
X46810000Y69425000D01*
X45462061Y18205000D02*
X49300000Y18205000D01*
X46810000Y69425000D02*
X46810000Y68511480D01*
X46810000Y66118520D02*
X46810000Y21511480D01*
X46810000Y19118520D02*
X46810000Y18205000D01*
X49300000Y69425000D02*
X46810000Y69425000D01*
X49910000Y66885000D02*
X49910000Y66465000D01*
X49910000Y64345000D02*
X49910000Y63925000D01*
X49910000Y61805000D02*
X49910000Y61385000D01*
X49910000Y59265000D02*
X49910000Y58845000D01*
X49910000Y56725000D02*
X49910000Y56305000D01*
X49910000Y54185000D02*
X49910000Y53765000D01*
X49910000Y51645000D02*
X49910000Y51225000D01*
X49910000Y49105000D02*
X49910000Y48685000D01*
X49910000Y46565000D02*
X49910000Y46145000D01*
X49910000Y44025000D02*
X49910000Y43605000D01*
X49910000Y41485000D02*
X49910000Y41065000D01*
X49910000Y38945000D02*
X49910000Y38525000D01*
X49910000Y36405000D02*
X49910000Y35985000D01*
X49910000Y33865000D02*
X49910000Y33445000D01*
X49910000Y31325000D02*
X49910000Y30905000D01*
X49910000Y28785000D02*
X49910000Y28365000D01*
X49910000Y26245000D02*
X49910000Y25825000D01*
X49910000Y23705000D02*
X49910000Y23285000D01*
X49910000Y21165000D02*
X49910000Y20745000D01*
X28720324Y69005000D02*
G75*
G02*
X29300000Y69425000I579692J-190051D01*
G01*
X49300000Y69425000D02*
G75*
G02*
X49879676Y69004937I0J-610000D01*
G01*
%TO.C,MOD1*%
X25689522Y27669000D02*
X25689522Y19829000D01*
X23039522Y27669000D02*
X25689522Y27669000D01*
X20389522Y19829000D02*
X25689522Y19829000D01*
X20389522Y25019000D02*
X20389522Y19829000D01*
X20389522Y26289000D02*
X20389522Y27669000D01*
X20389522Y27669000D02*
X21769522Y27669000D01*
X10449522Y27669000D02*
X10449522Y19829000D01*
X7799522Y27669000D02*
X10449522Y27669000D01*
X5149522Y19829000D02*
X10449522Y19829000D01*
X5149522Y25019000D02*
X5149522Y19829000D01*
X5149522Y26289000D02*
X5149522Y27669000D01*
X5149522Y27669000D02*
X6529522Y27669000D01*
%TO.C,J1*%
X43270000Y75220000D02*
X35330000Y75220000D01*
X43270000Y80840000D02*
X35330000Y80840000D01*
X43270000Y82460000D02*
X43270000Y75220000D01*
X41350000Y82460000D02*
X43270000Y82460000D01*
X35330000Y75220000D02*
X35330000Y82460000D01*
X35330000Y82460000D02*
X40750000Y82460000D01*
X41050000Y82460000D02*
X40610000Y83070000D01*
X41490000Y83070000D01*
X41050000Y82460000D01*
G36*
X41050000Y82460000D02*
G01*
X40610000Y83070000D01*
X41490000Y83070000D01*
X41050000Y82460000D01*
G37*
%TO.C,J2*%
X23270000Y82460000D02*
X22830000Y83070000D01*
X23710000Y83070000D01*
X23270000Y82460000D01*
G36*
X23270000Y82460000D02*
G01*
X22830000Y83070000D01*
X23710000Y83070000D01*
X23270000Y82460000D01*
G37*
X17550000Y82460000D02*
X22970000Y82460000D01*
X17550000Y75220000D02*
X17550000Y82460000D01*
X23570000Y82460000D02*
X25490000Y82460000D01*
X25490000Y82460000D02*
X25490000Y75220000D01*
X25490000Y80840000D02*
X17550000Y80840000D01*
X25490000Y75220000D02*
X17550000Y75220000D01*
%TO.C,D1*%
X24170000Y59845000D02*
X24170000Y59365000D01*
X17710000Y59845000D02*
X17710000Y56005000D01*
X17590000Y59845000D02*
X17590000Y56005000D01*
X17470000Y59845000D02*
X17470000Y56005000D01*
X16330000Y59845000D02*
X24170000Y59845000D01*
X16330000Y59365000D02*
X16330000Y59845000D01*
X16330000Y56485000D02*
X16330000Y56005000D01*
X24170000Y56005000D02*
X24170000Y56485000D01*
X16330000Y56005000D02*
X24170000Y56005000D01*
%TO.C,C5*%
X10610000Y83595000D02*
X10610000Y75435000D01*
X10570000Y83595000D02*
X10570000Y75435000D01*
X10650000Y83594000D02*
X10650000Y75436000D01*
X10690000Y83593000D02*
X10690000Y75437000D01*
X10730000Y83592000D02*
X10730000Y75438000D01*
X10770000Y83590000D02*
X10770000Y75440000D01*
X10810000Y83588000D02*
X10810000Y75442000D01*
X10850000Y83585000D02*
X10850000Y75445000D01*
X10890000Y83583000D02*
X10890000Y75447000D01*
X10930000Y83579000D02*
X10930000Y75451000D01*
X10970000Y83576000D02*
X10970000Y75454000D01*
X11010000Y83571000D02*
X11010000Y75459000D01*
X11050000Y83567000D02*
X11050000Y75463000D01*
X11090000Y83562000D02*
X11090000Y75468000D01*
X11130000Y83557000D02*
X11130000Y75473000D01*
X11170000Y83551000D02*
X11170000Y75479000D01*
X11210000Y83545000D02*
X11210000Y75485000D01*
X11250000Y83538000D02*
X11250000Y75492000D01*
X11290000Y83532000D02*
X11290000Y80555000D01*
X11330000Y83524000D02*
X11330000Y80555000D01*
X11370000Y83517000D02*
X11370000Y80555000D01*
X11410000Y83508000D02*
X11410000Y80555000D01*
X11450000Y83500000D02*
X11450000Y80555000D01*
X11490000Y83491000D02*
X11490000Y80555000D01*
X11530000Y83482000D02*
X11530000Y80555000D01*
X11570000Y83472000D02*
X11570000Y80555000D01*
X11610000Y83462000D02*
X11610000Y80555000D01*
X11650000Y83451000D02*
X11650000Y80555000D01*
X11690000Y83440000D02*
X11690000Y80555000D01*
X11730000Y83428000D02*
X11730000Y80555000D01*
X11770000Y83416000D02*
X11770000Y80555000D01*
X11810000Y83404000D02*
X11810000Y80555000D01*
X11850000Y83391000D02*
X11850000Y80555000D01*
X11890000Y83378000D02*
X11890000Y80555000D01*
X11930000Y83364000D02*
X11930000Y80555000D01*
X11970000Y83350000D02*
X11970000Y80555000D01*
X12010000Y83335000D02*
X12010000Y80555000D01*
X12050000Y83320000D02*
X12050000Y80555000D01*
X12090000Y83304000D02*
X12090000Y80555000D01*
X12130000Y83288000D02*
X12130000Y80555000D01*
X12170000Y83272000D02*
X12170000Y80555000D01*
X12210000Y83255000D02*
X12210000Y80555000D01*
X12250000Y83237000D02*
X12250000Y80555000D01*
X12290000Y83219000D02*
X12290000Y80555000D01*
X12330000Y83200000D02*
X12330000Y80555000D01*
X12370000Y83181000D02*
X12370000Y80555000D01*
X12410000Y83161000D02*
X12410000Y80555000D01*
X12450000Y83141000D02*
X12450000Y80555000D01*
X12490000Y83120000D02*
X12490000Y80555000D01*
X12530000Y83099000D02*
X12530000Y80555000D01*
X12570000Y83077000D02*
X12570000Y80555000D01*
X12610000Y83054000D02*
X12610000Y80555000D01*
X12650000Y83031000D02*
X12650000Y80555000D01*
X12690000Y83008000D02*
X12690000Y80555000D01*
X12730000Y82983000D02*
X12730000Y80555000D01*
X12770000Y82958000D02*
X12770000Y80555000D01*
X12810000Y82933000D02*
X12810000Y80555000D01*
X12850000Y82907000D02*
X12850000Y80555000D01*
X12890000Y82880000D02*
X12890000Y80555000D01*
X12930000Y82852000D02*
X12930000Y80555000D01*
X12970000Y82824000D02*
X12970000Y80555000D01*
X13010000Y82795000D02*
X13010000Y80555000D01*
X13050000Y82765000D02*
X13050000Y80555000D01*
X13090000Y82734000D02*
X13090000Y80555000D01*
X13130000Y82703000D02*
X13130000Y80555000D01*
X13170000Y82671000D02*
X13170000Y80555000D01*
X13210000Y82638000D02*
X13210000Y80555000D01*
X13250000Y82604000D02*
X13250000Y80555000D01*
X13290000Y82570000D02*
X13290000Y80555000D01*
X13330000Y82534000D02*
X13330000Y80555000D01*
X13370000Y82497000D02*
X13370000Y76533000D01*
X13410000Y82460000D02*
X13410000Y76570000D01*
X13450000Y82421000D02*
X13450000Y76609000D01*
X13490000Y82382000D02*
X13490000Y76648000D01*
X13530000Y82341000D02*
X13530000Y76689000D01*
X13570000Y82299000D02*
X13570000Y76731000D01*
X13610000Y82256000D02*
X13610000Y76774000D01*
X6560302Y82230000D02*
X6560302Y81430000D01*
X13650000Y82211000D02*
X13650000Y76819000D01*
X13690000Y82166000D02*
X13690000Y76864000D01*
X13730000Y82119000D02*
X13730000Y76911000D01*
X13770000Y82070000D02*
X13770000Y76960000D01*
X13810000Y82020000D02*
X13810000Y77010000D01*
X13850000Y81968000D02*
X13850000Y77062000D01*
X13890000Y81915000D02*
X13890000Y77115000D01*
X13930000Y81859000D02*
X13930000Y77171000D01*
X6160302Y81830000D02*
X6960302Y81830000D01*
X13970000Y81802000D02*
X13970000Y77228000D01*
X14010000Y81742000D02*
X14010000Y77288000D01*
X14050000Y81680000D02*
X14050000Y77350000D01*
X14090000Y81616000D02*
X14090000Y77414000D01*
X14130000Y81549000D02*
X14130000Y77481000D01*
X14170000Y81479000D02*
X14170000Y77551000D01*
X14210000Y81405000D02*
X14210000Y77625000D01*
X14250000Y81328000D02*
X14250000Y77702000D01*
X14290000Y81246000D02*
X14290000Y77784000D01*
X14330000Y81159000D02*
X14330000Y77871000D01*
X14370000Y81067000D02*
X14370000Y77963000D01*
X14410000Y80968000D02*
X14410000Y78062000D01*
X14450000Y80861000D02*
X14450000Y78169000D01*
X14490000Y80743000D02*
X14490000Y78287000D01*
X14530000Y80612000D02*
X14530000Y78418000D01*
X14570000Y80462000D02*
X14570000Y78568000D01*
X14610000Y80283000D02*
X14610000Y78747000D01*
X14650000Y80048000D02*
X14650000Y78982000D01*
X13330000Y78475000D02*
X13330000Y76496000D01*
X13290000Y78475000D02*
X13290000Y76460000D01*
X13250000Y78475000D02*
X13250000Y76426000D01*
X13210000Y78475000D02*
X13210000Y76392000D01*
X13170000Y78475000D02*
X13170000Y76359000D01*
X13130000Y78475000D02*
X13130000Y76327000D01*
X13090000Y78475000D02*
X13090000Y76296000D01*
X13050000Y78475000D02*
X13050000Y76265000D01*
X13010000Y78475000D02*
X13010000Y76235000D01*
X12970000Y78475000D02*
X12970000Y76206000D01*
X12930000Y78475000D02*
X12930000Y76178000D01*
X12890000Y78475000D02*
X12890000Y76150000D01*
X12850000Y78475000D02*
X12850000Y76123000D01*
X12810000Y78475000D02*
X12810000Y76097000D01*
X12770000Y78475000D02*
X12770000Y76072000D01*
X12730000Y78475000D02*
X12730000Y76047000D01*
X12690000Y78475000D02*
X12690000Y76022000D01*
X12650000Y78475000D02*
X12650000Y75999000D01*
X12610000Y78475000D02*
X12610000Y75976000D01*
X12570000Y78475000D02*
X12570000Y75953000D01*
X12530000Y78475000D02*
X12530000Y75931000D01*
X12490000Y78475000D02*
X12490000Y75910000D01*
X12450000Y78475000D02*
X12450000Y75889000D01*
X12410000Y78475000D02*
X12410000Y75869000D01*
X12370000Y78475000D02*
X12370000Y75849000D01*
X12330000Y78475000D02*
X12330000Y75830000D01*
X12290000Y78475000D02*
X12290000Y75811000D01*
X12250000Y78475000D02*
X12250000Y75793000D01*
X12210000Y78475000D02*
X12210000Y75775000D01*
X12170000Y78475000D02*
X12170000Y75758000D01*
X12130000Y78475000D02*
X12130000Y75742000D01*
X12090000Y78475000D02*
X12090000Y75726000D01*
X12050000Y78475000D02*
X12050000Y75710000D01*
X12010000Y78475000D02*
X12010000Y75695000D01*
X11970000Y78475000D02*
X11970000Y75680000D01*
X11930000Y78475000D02*
X11930000Y75666000D01*
X11890000Y78475000D02*
X11890000Y75652000D01*
X11850000Y78475000D02*
X11850000Y75639000D01*
X11810000Y78475000D02*
X11810000Y75626000D01*
X11770000Y78475000D02*
X11770000Y75614000D01*
X11730000Y78475000D02*
X11730000Y75602000D01*
X11690000Y78475000D02*
X11690000Y75590000D01*
X11650000Y78475000D02*
X11650000Y75579000D01*
X11610000Y78475000D02*
X11610000Y75568000D01*
X11570000Y78475000D02*
X11570000Y75558000D01*
X11530000Y78475000D02*
X11530000Y75548000D01*
X11490000Y78475000D02*
X11490000Y75539000D01*
X11450000Y78475000D02*
X11450000Y75530000D01*
X11410000Y78475000D02*
X11410000Y75522000D01*
X11370000Y78475000D02*
X11370000Y75513000D01*
X11330000Y78475000D02*
X11330000Y75506000D01*
X11290000Y78475000D02*
X11290000Y75498000D01*
X14690000Y79515000D02*
G75*
G02*
X6450000Y79515000I-4120000J0D01*
G01*
X6450000Y79515000D02*
G75*
G02*
X14690000Y79515000I4120000J0D01*
G01*
%TO.C,TP1*%
X22470000Y46495000D02*
G75*
G02*
X20570000Y46495000I-950000J0D01*
G01*
X20570000Y46495000D02*
G75*
G02*
X22470000Y46495000I950000J0D01*
G01*
%TO.C,C3*%
X4930000Y38311551D02*
X10170000Y38311551D01*
X4930000Y37974551D02*
X4930000Y38311551D01*
X4930000Y35571551D02*
X4930000Y35908551D01*
X10170000Y38311551D02*
X10170000Y37974551D01*
X10170000Y35908551D02*
X10170000Y35571551D01*
X10170000Y35571551D02*
X4930000Y35571551D01*
%TO.C,C4*%
X17790000Y37875000D02*
G75*
G02*
X12550000Y37875000I-2620000J0D01*
G01*
X12550000Y37875000D02*
G75*
G02*
X17790000Y37875000I2620000J0D01*
G01*
X16210000Y37875000D02*
X17750000Y37875000D01*
X16210000Y37915000D02*
X17750000Y37915000D01*
X16210000Y37955000D02*
X17749000Y37955000D01*
X16210000Y37995000D02*
X17747000Y37995000D01*
X16210000Y38035000D02*
X17745000Y38035000D01*
X16210000Y38075000D02*
X17742000Y38075000D01*
X16210000Y38115000D02*
X17739000Y38115000D01*
X16210000Y38155000D02*
X17735000Y38155000D01*
X16210000Y38195000D02*
X17730000Y38195000D01*
X16210000Y38235000D02*
X17725000Y38235000D01*
X16210000Y38275000D02*
X17719000Y38275000D01*
X16210000Y38315000D02*
X17713000Y38315000D01*
X16210000Y38355000D02*
X17706000Y38355000D01*
X16210000Y38395000D02*
X17698000Y38395000D01*
X16210000Y38435000D02*
X17689000Y38435000D01*
X16210000Y38475000D02*
X17680000Y38475000D01*
X16210000Y38515000D02*
X17671000Y38515000D01*
X16210000Y38555000D02*
X17660000Y38555000D01*
X16210000Y38595000D02*
X17649000Y38595000D01*
X16210000Y38635000D02*
X17637000Y38635000D01*
X16210000Y38675000D02*
X17625000Y38675000D01*
X16210000Y38715000D02*
X17612000Y38715000D01*
X16210000Y38755000D02*
X17598000Y38755000D01*
X16210000Y38795000D02*
X17583000Y38795000D01*
X16210000Y38835000D02*
X17568000Y38835000D01*
X16210000Y38875000D02*
X17552000Y38875000D01*
X16210000Y38915000D02*
X17535000Y38915000D01*
X16210000Y38955000D02*
X17517000Y38955000D01*
X16210000Y38995000D02*
X17499000Y38995000D01*
X16210000Y39035000D02*
X17479000Y39035000D01*
X16210000Y39075000D02*
X17459000Y39075000D01*
X16210000Y39115000D02*
X17438000Y39115000D01*
X16210000Y39155000D02*
X17416000Y39155000D01*
X16210000Y39195000D02*
X17393000Y39195000D01*
X16210000Y39235000D02*
X17369000Y39235000D01*
X16210000Y39275000D02*
X17345000Y39275000D01*
X16210000Y39315000D02*
X17319000Y39315000D01*
X16210000Y39355000D02*
X17292000Y39355000D01*
X16210000Y39395000D02*
X17264000Y39395000D01*
X16210000Y39435000D02*
X17235000Y39435000D01*
X16210000Y39475000D02*
X17205000Y39475000D01*
X16210000Y39515000D02*
X17173000Y39515000D01*
X16210000Y39555000D02*
X17140000Y39555000D01*
X16210000Y39595000D02*
X17106000Y39595000D01*
X16210000Y39635000D02*
X17071000Y39635000D01*
X16210000Y39675000D02*
X17034000Y39675000D01*
X16210000Y39715000D02*
X16995000Y39715000D01*
X16210000Y39755000D02*
X16955000Y39755000D01*
X16210000Y39795000D02*
X16913000Y39795000D01*
X16210000Y39835000D02*
X16869000Y39835000D01*
X16210000Y39875000D02*
X16822000Y39875000D01*
X14887000Y40475000D02*
X15453000Y40475000D01*
X14653000Y40435000D02*
X15687000Y40435000D01*
X14493000Y40395000D02*
X15847000Y40395000D01*
X14365000Y40355000D02*
X15975000Y40355000D01*
X14256000Y40315000D02*
X16084000Y40315000D01*
X14159000Y40275000D02*
X16181000Y40275000D01*
X14072000Y40235000D02*
X16268000Y40235000D01*
X13993000Y40195000D02*
X16347000Y40195000D01*
X13919000Y40155000D02*
X16421000Y40155000D01*
X13851000Y40115000D02*
X16489000Y40115000D01*
X13787000Y40075000D02*
X16553000Y40075000D01*
X13727000Y40035000D02*
X16613000Y40035000D01*
X13695000Y35070225D02*
X13695000Y35570225D01*
X13671000Y39995000D02*
X16669000Y39995000D01*
X13617000Y39955000D02*
X16723000Y39955000D01*
X13566000Y39915000D02*
X16774000Y39915000D01*
X13518000Y39875000D02*
X14130000Y39875000D01*
X13471000Y39835000D02*
X14130000Y39835000D01*
X13445000Y35320225D02*
X13945000Y35320225D01*
X13427000Y39795000D02*
X14130000Y39795000D01*
X13385000Y39755000D02*
X14130000Y39755000D01*
X13345000Y39715000D02*
X14130000Y39715000D01*
X13306000Y39675000D02*
X14130000Y39675000D01*
X13269000Y39635000D02*
X14130000Y39635000D01*
X13234000Y39595000D02*
X14130000Y39595000D01*
X13200000Y39555000D02*
X14130000Y39555000D01*
X13167000Y39515000D02*
X14130000Y39515000D01*
X13135000Y39475000D02*
X14130000Y39475000D01*
X13105000Y39435000D02*
X14130000Y39435000D01*
X13076000Y39395000D02*
X14130000Y39395000D01*
X13048000Y39355000D02*
X14130000Y39355000D01*
X13021000Y39315000D02*
X14130000Y39315000D01*
X12995000Y39275000D02*
X14130000Y39275000D01*
X12971000Y39235000D02*
X14130000Y39235000D01*
X12947000Y39195000D02*
X14130000Y39195000D01*
X12924000Y39155000D02*
X14130000Y39155000D01*
X12902000Y39115000D02*
X14130000Y39115000D01*
X12881000Y39075000D02*
X14130000Y39075000D01*
X12861000Y39035000D02*
X14130000Y39035000D01*
X12841000Y38995000D02*
X14130000Y38995000D01*
X12823000Y38955000D02*
X14130000Y38955000D01*
X12805000Y38915000D02*
X14130000Y38915000D01*
X12788000Y38875000D02*
X14130000Y38875000D01*
X12772000Y38835000D02*
X14130000Y38835000D01*
X12757000Y38795000D02*
X14130000Y38795000D01*
X12742000Y38755000D02*
X14130000Y38755000D01*
X12728000Y38715000D02*
X14130000Y38715000D01*
X12715000Y38675000D02*
X14130000Y38675000D01*
X12703000Y38635000D02*
X14130000Y38635000D01*
X12691000Y38595000D02*
X14130000Y38595000D01*
X12680000Y38555000D02*
X14130000Y38555000D01*
X12669000Y38515000D02*
X14130000Y38515000D01*
X12660000Y38475000D02*
X14130000Y38475000D01*
X12651000Y38435000D02*
X14130000Y38435000D01*
X12642000Y38395000D02*
X14130000Y38395000D01*
X12634000Y38355000D02*
X14130000Y38355000D01*
X12627000Y38315000D02*
X14130000Y38315000D01*
X12621000Y38275000D02*
X14130000Y38275000D01*
X12615000Y38235000D02*
X14130000Y38235000D01*
X12610000Y38195000D02*
X14130000Y38195000D01*
X12605000Y38155000D02*
X14130000Y38155000D01*
X12601000Y38115000D02*
X14130000Y38115000D01*
X12598000Y38075000D02*
X14130000Y38075000D01*
X12595000Y38035000D02*
X14130000Y38035000D01*
X12593000Y37995000D02*
X14130000Y37995000D01*
X12591000Y37955000D02*
X14130000Y37955000D01*
X12590000Y37875000D02*
X14130000Y37875000D01*
X12590000Y37915000D02*
X14130000Y37915000D01*
%TO.C,L1*%
X7320000Y43905000D02*
X12860000Y43905000D01*
X12860000Y41465000D01*
X7320000Y41465000D01*
X7320000Y43905000D01*
%TO.C,TP6*%
X22470000Y41415000D02*
G75*
G02*
X20570000Y41415000I-950000J0D01*
G01*
X20570000Y41415000D02*
G75*
G02*
X22470000Y41415000I950000J0D01*
G01*
%TO.C,TP9*%
X35170000Y3175000D02*
G75*
G02*
X33270000Y3175000I-950000J0D01*
G01*
X33270000Y3175000D02*
G75*
G02*
X35170000Y3175000I950000J0D01*
G01*
%TO.C,TP2*%
X32630000Y14605000D02*
G75*
G02*
X30730000Y14605000I-950000J0D01*
G01*
X30730000Y14605000D02*
G75*
G02*
X32630000Y14605000I950000J0D01*
G01*
%TO.C,C6*%
X22870000Y61635000D02*
X17630000Y61635000D01*
X22870000Y61972000D02*
X22870000Y61635000D01*
X22870000Y64375000D02*
X22870000Y64038000D01*
X17630000Y61635000D02*
X17630000Y61972000D01*
X17630000Y64038000D02*
X17630000Y64375000D01*
X17630000Y64375000D02*
X22870000Y64375000D01*
%TO.C,F1*%
X26630000Y71405000D02*
X26630000Y67305000D01*
X16430000Y67305000D02*
X26630000Y67305000D01*
X16430000Y71405000D02*
X26630000Y71405000D01*
X16430000Y71405000D02*
X16430000Y67305000D01*
%TO.C,TP3*%
X22470000Y51575000D02*
G75*
G02*
X20570000Y51575000I-950000J0D01*
G01*
X20570000Y51575000D02*
G75*
G02*
X22470000Y51575000I950000J0D01*
G01*
%TO.C,TP8*%
X28820000Y4445000D02*
G75*
G02*
X26920000Y4445000I-950000J0D01*
G01*
X26920000Y4445000D02*
G75*
G02*
X28820000Y4445000I950000J0D01*
G01*
%TO.C,U2*%
X11890000Y50885000D02*
G75*
G02*
X12414184Y50157795I-1800000J-1850000D01*
G01*
X7765816Y50157795D02*
G75*
G02*
X8290000Y50885000I2324184J-1122795D01*
G01*
X12446400Y47936193D02*
G75*
G02*
X10090000Y46435000I-2356400J1098807D01*
G01*
X10090000Y46435000D02*
G75*
G02*
X7733600Y47936193I0J2600000D01*
G01*
X11890000Y50885000D02*
X8290000Y50885000D01*
%TO.C,TP7*%
X41520000Y14605000D02*
G75*
G02*
X39620000Y14605000I-950000J0D01*
G01*
X39620000Y14605000D02*
G75*
G02*
X41520000Y14605000I950000J0D01*
G01*
%TO.C,U1*%
X12760000Y71725000D02*
X12760000Y69485000D01*
X4880000Y71725000D02*
X12760000Y71725000D01*
X12760000Y69485000D02*
X14150000Y69485000D01*
X4880000Y69485000D02*
X4880000Y71725000D01*
X3480000Y69485000D02*
X4880000Y69485000D01*
X3480000Y69475000D02*
X3480000Y67705000D01*
X14150000Y67705000D02*
X14150000Y69485000D01*
X3480000Y67705000D02*
X14150000Y67705000D01*
%TO.C,TP10*%
X22470000Y3175000D02*
G75*
G02*
X20570000Y3175000I-950000J0D01*
G01*
X20570000Y3175000D02*
G75*
G02*
X22470000Y3175000I950000J0D01*
G01*
%TO.C,C2*%
X11727349Y59728000D02*
X11727349Y58662000D01*
X11687349Y59963000D02*
X11687349Y58427000D01*
X11647349Y60142000D02*
X11647349Y58248000D01*
X11607349Y60292000D02*
X11607349Y58098000D01*
X11567349Y60423000D02*
X11567349Y57967000D01*
X11527349Y60541000D02*
X11527349Y57849000D01*
X11487349Y60648000D02*
X11487349Y57742000D01*
X11447349Y60747000D02*
X11447349Y57643000D01*
X11407349Y60839000D02*
X11407349Y57551000D01*
X11367349Y60926000D02*
X11367349Y57464000D01*
X11327349Y61008000D02*
X11327349Y57382000D01*
X11287349Y61085000D02*
X11287349Y57305000D01*
X11247349Y61159000D02*
X11247349Y57231000D01*
X11207349Y61229000D02*
X11207349Y57161000D01*
X11167349Y61296000D02*
X11167349Y57094000D01*
X11127349Y61360000D02*
X11127349Y57030000D01*
X11087349Y61422000D02*
X11087349Y56968000D01*
X11047349Y61482000D02*
X11047349Y56908000D01*
X11007349Y61539000D02*
X11007349Y56851000D01*
X10967349Y61595000D02*
X10967349Y56795000D01*
X10927349Y61648000D02*
X10927349Y56742000D01*
X10887349Y61700000D02*
X10887349Y56690000D01*
X10847349Y61750000D02*
X10847349Y56640000D01*
X10807349Y61799000D02*
X10807349Y56591000D01*
X10767349Y61846000D02*
X10767349Y56544000D01*
X10727349Y61891000D02*
X10727349Y56499000D01*
X10687349Y61936000D02*
X10687349Y56454000D01*
X10647349Y61979000D02*
X10647349Y56411000D01*
X10607349Y62021000D02*
X10607349Y56369000D01*
X10567349Y62062000D02*
X10567349Y56328000D01*
X10527349Y62101000D02*
X10527349Y56289000D01*
X10487349Y62140000D02*
X10487349Y56250000D01*
X10447349Y62177000D02*
X10447349Y56213000D01*
X10407349Y58155000D02*
X10407349Y56176000D01*
X10407349Y62214000D02*
X10407349Y60235000D01*
X10367349Y58155000D02*
X10367349Y56140000D01*
X10367349Y62250000D02*
X10367349Y60235000D01*
X10327349Y58155000D02*
X10327349Y56106000D01*
X10327349Y62284000D02*
X10327349Y60235000D01*
X10287349Y58155000D02*
X10287349Y56072000D01*
X10287349Y62318000D02*
X10287349Y60235000D01*
X10247349Y58155000D02*
X10247349Y56039000D01*
X10247349Y62351000D02*
X10247349Y60235000D01*
X10207349Y58155000D02*
X10207349Y56007000D01*
X10207349Y62383000D02*
X10207349Y60235000D01*
X10167349Y58155000D02*
X10167349Y55976000D01*
X10167349Y62414000D02*
X10167349Y60235000D01*
X10127349Y58155000D02*
X10127349Y55945000D01*
X10127349Y62445000D02*
X10127349Y60235000D01*
X10087349Y58155000D02*
X10087349Y55915000D01*
X10087349Y62475000D02*
X10087349Y60235000D01*
X10047349Y58155000D02*
X10047349Y55886000D01*
X10047349Y62504000D02*
X10047349Y60235000D01*
X10007349Y58155000D02*
X10007349Y55858000D01*
X10007349Y62532000D02*
X10007349Y60235000D01*
X9967349Y58155000D02*
X9967349Y55830000D01*
X9967349Y62560000D02*
X9967349Y60235000D01*
X9927349Y58155000D02*
X9927349Y55803000D01*
X9927349Y62587000D02*
X9927349Y60235000D01*
X9887349Y58155000D02*
X9887349Y55777000D01*
X9887349Y62613000D02*
X9887349Y60235000D01*
X9847349Y58155000D02*
X9847349Y55752000D01*
X9847349Y62638000D02*
X9847349Y60235000D01*
X9807349Y58155000D02*
X9807349Y55727000D01*
X9807349Y62663000D02*
X9807349Y60235000D01*
X9767349Y58155000D02*
X9767349Y55702000D01*
X9767349Y62688000D02*
X9767349Y60235000D01*
X9727349Y58155000D02*
X9727349Y55679000D01*
X9727349Y62711000D02*
X9727349Y60235000D01*
X9687349Y58155000D02*
X9687349Y55656000D01*
X9687349Y62734000D02*
X9687349Y60235000D01*
X9647349Y58155000D02*
X9647349Y55633000D01*
X9647349Y62757000D02*
X9647349Y60235000D01*
X9607349Y58155000D02*
X9607349Y55611000D01*
X9607349Y62779000D02*
X9607349Y60235000D01*
X9567349Y58155000D02*
X9567349Y55590000D01*
X9567349Y62800000D02*
X9567349Y60235000D01*
X9527349Y58155000D02*
X9527349Y55569000D01*
X9527349Y62821000D02*
X9527349Y60235000D01*
X9487349Y58155000D02*
X9487349Y55549000D01*
X9487349Y62841000D02*
X9487349Y60235000D01*
X9447349Y58155000D02*
X9447349Y55529000D01*
X9447349Y62861000D02*
X9447349Y60235000D01*
X9407349Y58155000D02*
X9407349Y55510000D01*
X9407349Y62880000D02*
X9407349Y60235000D01*
X9367349Y58155000D02*
X9367349Y55491000D01*
X9367349Y62899000D02*
X9367349Y60235000D01*
X9327349Y58155000D02*
X9327349Y55473000D01*
X9327349Y62917000D02*
X9327349Y60235000D01*
X9287349Y58155000D02*
X9287349Y55455000D01*
X9287349Y62935000D02*
X9287349Y60235000D01*
X9247349Y58155000D02*
X9247349Y55438000D01*
X9247349Y62952000D02*
X9247349Y60235000D01*
X9207349Y58155000D02*
X9207349Y55422000D01*
X9207349Y62968000D02*
X9207349Y60235000D01*
X9167349Y58155000D02*
X9167349Y55406000D01*
X9167349Y62984000D02*
X9167349Y60235000D01*
X9127349Y58155000D02*
X9127349Y55390000D01*
X9127349Y63000000D02*
X9127349Y60235000D01*
X9087349Y58155000D02*
X9087349Y55375000D01*
X9087349Y63015000D02*
X9087349Y60235000D01*
X9047349Y58155000D02*
X9047349Y55360000D01*
X9047349Y63030000D02*
X9047349Y60235000D01*
X9007349Y58155000D02*
X9007349Y55346000D01*
X9007349Y63044000D02*
X9007349Y60235000D01*
X8967349Y58155000D02*
X8967349Y55332000D01*
X8967349Y63058000D02*
X8967349Y60235000D01*
X8927349Y58155000D02*
X8927349Y55319000D01*
X8927349Y63071000D02*
X8927349Y60235000D01*
X8887349Y58155000D02*
X8887349Y55306000D01*
X8887349Y63084000D02*
X8887349Y60235000D01*
X8847349Y58155000D02*
X8847349Y55294000D01*
X8847349Y63096000D02*
X8847349Y60235000D01*
X8807349Y58155000D02*
X8807349Y55282000D01*
X8807349Y63108000D02*
X8807349Y60235000D01*
X8767349Y58155000D02*
X8767349Y55270000D01*
X8767349Y63120000D02*
X8767349Y60235000D01*
X8727349Y58155000D02*
X8727349Y55259000D01*
X8727349Y63131000D02*
X8727349Y60235000D01*
X8687349Y58155000D02*
X8687349Y55248000D01*
X8687349Y63142000D02*
X8687349Y60235000D01*
X8647349Y58155000D02*
X8647349Y55238000D01*
X8647349Y63152000D02*
X8647349Y60235000D01*
X8607349Y58155000D02*
X8607349Y55228000D01*
X8607349Y63162000D02*
X8607349Y60235000D01*
X8567349Y58155000D02*
X8567349Y55219000D01*
X8567349Y63171000D02*
X8567349Y60235000D01*
X8527349Y58155000D02*
X8527349Y55210000D01*
X8527349Y63180000D02*
X8527349Y60235000D01*
X8487349Y58155000D02*
X8487349Y55202000D01*
X8487349Y63188000D02*
X8487349Y60235000D01*
X8447349Y58155000D02*
X8447349Y55193000D01*
X8447349Y63197000D02*
X8447349Y60235000D01*
X8407349Y58155000D02*
X8407349Y55186000D01*
X8407349Y63204000D02*
X8407349Y60235000D01*
X8367349Y58155000D02*
X8367349Y55178000D01*
X8367349Y63212000D02*
X8367349Y60235000D01*
X8327349Y63218000D02*
X8327349Y55172000D01*
X8287349Y63225000D02*
X8287349Y55165000D01*
X8247349Y63231000D02*
X8247349Y55159000D01*
X8207349Y63237000D02*
X8207349Y55153000D01*
X8167349Y63242000D02*
X8167349Y55148000D01*
X8127349Y63247000D02*
X8127349Y55143000D01*
X8087349Y63251000D02*
X8087349Y55139000D01*
X8047349Y63256000D02*
X8047349Y55134000D01*
X8007349Y63259000D02*
X8007349Y55131000D01*
X7967349Y63263000D02*
X7967349Y55127000D01*
X7927349Y63265000D02*
X7927349Y55125000D01*
X7887349Y63268000D02*
X7887349Y55122000D01*
X7847349Y63270000D02*
X7847349Y55120000D01*
X7807349Y63272000D02*
X7807349Y55118000D01*
X7767349Y63273000D02*
X7767349Y55117000D01*
X7727349Y63274000D02*
X7727349Y55116000D01*
X7687349Y63275000D02*
X7687349Y55115000D01*
X7647349Y63275000D02*
X7647349Y55115000D01*
X3637651Y61910000D02*
X3637651Y61110000D01*
X3237651Y61510000D02*
X4037651Y61510000D01*
X11767349Y59195000D02*
G75*
G02*
X3527349Y59195000I-4120000J0D01*
G01*
X3527349Y59195000D02*
G75*
G02*
X11767349Y59195000I4120000J0D01*
G01*
%TD*%
%LPC*%
D15*
%TO.C,PICO1*%
X41840000Y60315000D03*
X39300000Y60315000D03*
D16*
X36760000Y60315000D03*
D17*
X30410000Y67945000D03*
D18*
X30410000Y65405000D03*
D19*
X30410000Y62865000D03*
D18*
X30410000Y60325000D03*
X30410000Y57785000D03*
X30410000Y55245000D03*
X30410000Y52705000D03*
D19*
X30410000Y50165000D03*
D18*
X30410000Y47625000D03*
X30410000Y45085000D03*
X30410000Y42545000D03*
X30410000Y40005000D03*
D19*
X30410000Y37465000D03*
D18*
X30410000Y34925000D03*
X30410000Y32385000D03*
X30410000Y29845000D03*
X30410000Y27305000D03*
D19*
X30410000Y24765000D03*
D18*
X30410000Y22225000D03*
X30410000Y19685000D03*
X48190000Y19685000D03*
X48190000Y22225000D03*
D20*
X48190000Y24765000D03*
D18*
X48190000Y27305000D03*
X48190000Y29845000D03*
X48190000Y32385000D03*
X48190000Y34925000D03*
D20*
X48190000Y37465000D03*
D18*
X48190000Y40005000D03*
X48190000Y42545000D03*
X48190000Y45085000D03*
X48190000Y47625000D03*
D20*
X48190000Y50165000D03*
D18*
X48190000Y52705000D03*
X48190000Y55245000D03*
X48190000Y57785000D03*
X48190000Y60325000D03*
D20*
X48190000Y62865000D03*
D18*
X48190000Y65405000D03*
X48190000Y67945000D03*
%TD*%
D15*
%TO.C,MOD1*%
X24309522Y21209000D03*
X21769522Y21209000D03*
X24309522Y23749000D03*
X21769522Y23749000D03*
X24309522Y26289000D03*
X21769522Y26289000D03*
X9069522Y21209000D03*
X6529522Y21209000D03*
X9069522Y23749000D03*
X6529522Y23749000D03*
X9069522Y26289000D03*
X6529522Y26289000D03*
D21*
X22785521Y16383000D03*
X22785521Y31115000D03*
X8053522Y16383000D03*
X8053522Y31115000D03*
%TD*%
D22*
%TO.C,J1*%
X41050000Y78740000D03*
D23*
X37550000Y78740000D03*
%TD*%
%TO.C,J2*%
X19770000Y78740000D03*
D22*
X23270000Y78740000D03*
%TD*%
D24*
%TO.C,H2*%
X41900000Y97405000D03*
%TD*%
D25*
%TO.C,D1*%
X15170000Y57925000D03*
D23*
X25330000Y57925000D03*
%TD*%
D26*
%TO.C,C5*%
X8820000Y79515000D03*
D18*
X12320000Y79515000D03*
%TD*%
D27*
%TO.C,TP1*%
X21520000Y46495000D03*
%TD*%
D24*
%TO.C,H4*%
X41900000Y1905000D03*
%TD*%
D18*
%TO.C,C3*%
X5050000Y36941551D03*
X10050000Y36941551D03*
%TD*%
%TO.C,C4*%
X15170000Y38875000D03*
D28*
X15170000Y36875000D03*
%TD*%
D18*
%TO.C,L1*%
X13900000Y42685000D03*
X6280000Y42685000D03*
%TD*%
D27*
%TO.C,TP6*%
X21520000Y41415000D03*
%TD*%
D24*
%TO.C,H1*%
X13900000Y97405000D03*
%TD*%
%TO.C,H3*%
X13900000Y1905000D03*
%TD*%
D27*
%TO.C,TP9*%
X34220000Y3175000D03*
%TD*%
%TO.C,TP2*%
X31680000Y14605000D03*
%TD*%
D18*
%TO.C,C6*%
X17750000Y63005000D03*
X22750000Y63005000D03*
%TD*%
D29*
%TO.C,F1*%
X18980000Y70155000D03*
X24080000Y68555000D03*
%TD*%
D27*
%TO.C,TP3*%
X21520000Y51575000D03*
%TD*%
%TO.C,TP8*%
X27870000Y4445000D03*
%TD*%
%TO.C,U2*%
X7550000Y49035000D03*
X10090000Y49035000D03*
D30*
X12630000Y49035000D03*
%TD*%
D27*
%TO.C,TP7*%
X40570000Y14605000D03*
%TD*%
D31*
%TO.C,U1*%
X6280000Y70625000D03*
X8820000Y70625000D03*
D32*
X11360000Y70625000D03*
%TD*%
D27*
%TO.C,TP10*%
X21520000Y3175000D03*
%TD*%
D26*
%TO.C,C2*%
X5897349Y59195000D03*
D18*
X9397349Y59195000D03*
%TD*%
%LPD*%
M02*
