%TF.GenerationSoftware,KiCad,Pcbnew,10.0.2*%
%TF.CreationDate,2026-06-25T00:19:03+02:00*%
%TF.ProjectId,Untitled,556e7469-746c-4656-942e-6b696361645f,rev?*%
%TF.SameCoordinates,PX5ae77c0PY8c7ecc0*%
%TF.FileFunction,Copper,L1,Top*%
%TF.FilePolarity,Positive*%
%FSLAX46Y46*%
G04 Gerber Fmt 4.6, Leading zero omitted, Abs format (unit mm)*
G04 Created by KiCad (PCBNEW 10.0.2) date 2026-06-25 00:19:03*
%MOMM*%
%LPD*%
G01*
G04 APERTURE LIST*
G04 Aperture macros list*
%AMRoundRect*
0 Rectangle with rounded corners*
0 $1 Rounding radius*
0 $2 $3 $4 $5 $6 $7 $8 $9 X,Y pos of 4 corners*
0 Add a 4 corners polygon primitive as box body*
4,1,4,$2,$3,$4,$5,$6,$7,$8,$9,$2,$3,0*
0 Add four circle primitives for the rounded corners*
1,1,$1+$1,$2,$3*
1,1,$1+$1,$4,$5*
1,1,$1+$1,$6,$7*
1,1,$1+$1,$8,$9*
0 Add four rect primitives between the rounded corners*
20,1,$1+$1,$2,$3,$4,$5,0*
20,1,$1+$1,$4,$5,$6,$7,0*
20,1,$1+$1,$6,$7,$8,$9,0*
20,1,$1+$1,$8,$9,$2,$3,0*%
%AMFreePoly0*
4,1,37,0.603843,0.796157,0.639018,0.796157,0.711114,0.766294,0.766294,0.711114,0.796157,0.639018,0.796157,0.603843,0.800000,0.600000,0.800000,-0.600000,0.796157,-0.603843,0.796157,-0.639018,0.766294,-0.711114,0.711114,-0.766294,0.639018,-0.796157,0.603843,-0.796157,0.600000,-0.800000,0.000000,-0.800000,0.000000,-0.796148,-0.078414,-0.796148,-0.232228,-0.765552,-0.377117,-0.705537,
-0.507515,-0.618408,-0.618408,-0.507515,-0.705537,-0.377117,-0.765552,-0.232228,-0.796148,-0.078414,-0.796148,0.078414,-0.765552,0.232228,-0.705537,0.377117,-0.618408,0.507515,-0.507515,0.618408,-0.377117,0.705537,-0.232228,0.765552,-0.078414,0.796148,0.000000,0.796148,0.000000,0.800000,0.600000,0.800000,0.603843,0.796157,0.603843,0.796157,$1*%
%AMFreePoly1*
4,1,37,0.000000,0.796148,0.078414,0.796148,0.232228,0.765552,0.377117,0.705537,0.507515,0.618408,0.618408,0.507515,0.705537,0.377117,0.765552,0.232228,0.796148,0.078414,0.796148,-0.078414,0.765552,-0.232228,0.705537,-0.377117,0.618408,-0.507515,0.507515,-0.618408,0.377117,-0.705537,0.232228,-0.765552,0.078414,-0.796148,0.000000,-0.796148,0.000000,-0.800000,-0.600000,-0.800000,
-0.603843,-0.796157,-0.639018,-0.796157,-0.711114,-0.766294,-0.766294,-0.711114,-0.796157,-0.639018,-0.796157,-0.603843,-0.800000,-0.600000,-0.800000,0.600000,-0.796157,0.603843,-0.796157,0.639018,-0.766294,0.711114,-0.711114,0.766294,-0.639018,0.796157,-0.603843,0.796157,-0.600000,0.800000,0.000000,0.800000,0.000000,0.796148,0.000000,0.796148,$1*%
G04 Aperture macros list end*
%TA.AperFunction,ComponentPad*%
%ADD10C,1.700000*%
%TD*%
%TA.AperFunction,ComponentPad*%
%ADD11R,1.700000X1.700000*%
%TD*%
%TA.AperFunction,ComponentPad*%
%ADD12RoundRect,0.200000X-0.600000X-0.600000X0.600000X-0.600000X0.600000X0.600000X-0.600000X0.600000X0*%
%TD*%
%TA.AperFunction,ComponentPad*%
%ADD13C,1.600000*%
%TD*%
%TA.AperFunction,ComponentPad*%
%ADD14FreePoly0,0.000000*%
%TD*%
%TA.AperFunction,ComponentPad*%
%ADD15FreePoly1,0.000000*%
%TD*%
%TA.AperFunction,ComponentPad*%
%ADD16RoundRect,0.250001X0.949999X0.949999X-0.949999X0.949999X-0.949999X-0.949999X0.949999X-0.949999X0*%
%TD*%
%TA.AperFunction,ComponentPad*%
%ADD17C,2.400000*%
%TD*%
%TA.AperFunction,ComponentPad*%
%ADD18RoundRect,0.250001X-0.949999X-0.949999X0.949999X-0.949999X0.949999X0.949999X-0.949999X0.949999X0*%
%TD*%
%TA.AperFunction,ComponentPad*%
%ADD19RoundRect,0.250000X-0.550000X-0.550000X0.550000X-0.550000X0.550000X0.550000X-0.550000X0.550000X0*%
%TD*%
%TA.AperFunction,ComponentPad*%
%ADD20C,1.500000*%
%TD*%
%TA.AperFunction,ComponentPad*%
%ADD21RoundRect,0.250000X0.550000X-0.550000X0.550000X0.550000X-0.550000X0.550000X-0.550000X-0.550000X0*%
%TD*%
%TA.AperFunction,ComponentPad*%
%ADD22C,1.270000*%
%TD*%
%TA.AperFunction,ComponentPad*%
%ADD23R,1.500000X1.500000*%
%TD*%
%TA.AperFunction,ComponentPad*%
%ADD24C,1.800000*%
%TD*%
%TA.AperFunction,ComponentPad*%
%ADD25R,1.800000X1.800000*%
%TD*%
%TA.AperFunction,Conductor*%
%ADD26C,0.400000*%
%TD*%
%TA.AperFunction,Conductor*%
%ADD27C,1.000000*%
%TD*%
%TA.AperFunction,Conductor*%
%ADD28C,0.300000*%
%TD*%
%TA.AperFunction,Conductor*%
%ADD29C,0.250000*%
%TD*%
G04 APERTURE END LIST*
D10*
%TO.P,PICO1,43,RS485_G_43*%
%TO.N,GND*%
X41840000Y60315000D03*
%TO.P,PICO1,42,RS485_B_42*%
%TO.N,/RS485_B*%
X39300000Y60315000D03*
D11*
%TO.P,PICO1,41,RS485_A_41*%
%TO.N,/RS485_A*%
X36760000Y60315000D03*
D12*
%TO.P,PICO1,1,GPIO0_1*%
%TO.N,/D {slash} DI*%
X30410000Y67945000D03*
D13*
%TO.P,PICO1,2,GPIO1_2*%
%TO.N,/R {slash} RO*%
X30410000Y65405000D03*
D14*
%TO.P,PICO1,3,GND_3*%
%TO.N,GND*%
X30410000Y62865000D03*
D13*
%TO.P,PICO1,4,GPIO2_4*%
%TO.N,/{slash}RE*%
X30410000Y60325000D03*
%TO.P,PICO1,5,GPIO3_5*%
%TO.N,/DE*%
X30410000Y57785000D03*
%TO.P,PICO1,6,GPIO4_6*%
%TO.N,unconnected-(PICO1-GPIO4-Pad6)*%
X30410000Y55245000D03*
%TO.P,PICO1,7,GPIO5_7*%
%TO.N,unconnected-(PICO1-GPIO5-Pad7)*%
X30410000Y52705000D03*
D14*
%TO.P,PICO1,8,GND_8*%
%TO.N,GND*%
X30410000Y50165000D03*
D13*
%TO.P,PICO1,9,GPIO6_9*%
%TO.N,unconnected-(PICO1-GPIO6-Pad9)*%
X30410000Y47625000D03*
%TO.P,PICO1,10,GPIO7_10*%
%TO.N,unconnected-(PICO1-GPIO7-Pad10)*%
X30410000Y45085000D03*
%TO.P,PICO1,11,GPIO8_11*%
%TO.N,unconnected-(PICO1-GPIO8-Pad11)*%
X30410000Y42545000D03*
%TO.P,PICO1,12,GPIO9_12*%
%TO.N,unconnected-(PICO1-GPIO9-Pad12)*%
X30410000Y40005000D03*
D14*
%TO.P,PICO1,13,GND_13*%
%TO.N,GND*%
X30410000Y37465000D03*
D13*
%TO.P,PICO1,14,GPIO10_14*%
%TO.N,/ADXL INT1*%
X30410000Y34925000D03*
%TO.P,PICO1,15,GPIO11_15*%
%TO.N,/ADXL DRDY*%
X30410000Y32385000D03*
%TO.P,PICO1,16,GPIO12_16*%
%TO.N,/ADXL SDO*%
X30410000Y29845000D03*
%TO.P,PICO1,17,GPIO13_17*%
%TO.N,/ADXL CS*%
X30410000Y27305000D03*
D14*
%TO.P,PICO1,18,GND_18*%
%TO.N,GND*%
X30410000Y24765000D03*
D13*
%TO.P,PICO1,19,GPIO14_19*%
%TO.N,/ADXL SCLK*%
X30410000Y22225000D03*
%TO.P,PICO1,20,GPIO15_20*%
%TO.N,/ADXL SDI*%
X30410000Y19685000D03*
%TO.P,PICO1,21,GPIO16_21*%
%TO.N,unconnected-(PICO1-GPIO16-Pad21)*%
X48190000Y19685000D03*
%TO.P,PICO1,22,GPIO17_22*%
%TO.N,unconnected-(PICO1-GPIO17-Pad22)*%
X48190000Y22225000D03*
D15*
%TO.P,PICO1,23,GND_23*%
%TO.N,GND*%
X48190000Y24765000D03*
D13*
%TO.P,PICO1,24,GPIO18_24*%
%TO.N,unconnected-(PICO1-GPIO18-Pad24)*%
X48190000Y27305000D03*
%TO.P,PICO1,25,GPIO19_25*%
%TO.N,unconnected-(PICO1-GPIO19-Pad25)*%
X48190000Y29845000D03*
%TO.P,PICO1,26,GPIO20_26*%
%TO.N,unconnected-(PICO1-GPIO20-Pad26)*%
X48190000Y32385000D03*
%TO.P,PICO1,27,GPIO21_27*%
%TO.N,unconnected-(PICO1-GPIO21-Pad27)*%
X48190000Y34925000D03*
D15*
%TO.P,PICO1,28,GND_28*%
%TO.N,GND*%
X48190000Y37465000D03*
D13*
%TO.P,PICO1,29,GPIO22_29*%
%TO.N,unconnected-(PICO1-GPIO22-Pad29)*%
X48190000Y40005000D03*
%TO.P,PICO1,30,RUN_30*%
%TO.N,unconnected-(PICO1-RUN-Pad30)*%
X48190000Y42545000D03*
%TO.P,PICO1,31,GPIO26_ADC0_31*%
%TO.N,unconnected-(PICO1-GPIO26_ADC0-Pad31)*%
X48190000Y45085000D03*
%TO.P,PICO1,32,GPIO27_ADC1_32*%
%TO.N,unconnected-(PICO1-GPIO27_ADC1-Pad32)*%
X48190000Y47625000D03*
D15*
%TO.P,PICO1,33,AGND_33*%
%TO.N,unconnected-(PICO1-AGND-Pad33)*%
X48190000Y50165000D03*
D13*
%TO.P,PICO1,34,GPIO28_ADC2_34*%
%TO.N,unconnected-(PICO1-GPIO28_ADC2-Pad34)*%
X48190000Y52705000D03*
%TO.P,PICO1,35,ADC_VREF_35*%
%TO.N,unconnected-(PICO1-ADC_VREF-Pad35)*%
X48190000Y55245000D03*
%TO.P,PICO1,36,3V3_36*%
%TO.N,/3V3_Pico*%
X48190000Y57785000D03*
%TO.P,PICO1,37,3V3_EN_37*%
%TO.N,unconnected-(PICO1-3V3_EN-Pad37)*%
X48190000Y60325000D03*
D15*
%TO.P,PICO1,38,GND_38*%
%TO.N,GND*%
X48190000Y62865000D03*
D13*
%TO.P,PICO1,39,VSYS_39*%
%TO.N,/5V*%
X48190000Y65405000D03*
%TO.P,PICO1,40,VBUS_40*%
%TO.N,unconnected-(PICO1-VBUS-Pad40)*%
X48190000Y67945000D03*
%TD*%
D10*
%TO.P,MOD1,12,MOSI/SDA_12*%
%TO.N,/ADXL SDI*%
X24309522Y21209000D03*
%TO.P,MOD1,11,MISO/SDA_11*%
%TO.N,/ADXL SDO*%
X21769522Y21209000D03*
%TO.P,MOD1,10,SCLK/VSSIO_10*%
%TO.N,/ADXL SCLK*%
X24309522Y23749000D03*
%TO.P,MOD1,9,V1P8DIG_9*%
%TO.N,unconnected-(MOD1-V1P8DIG-Pad9)*%
X21769522Y23749000D03*
%TO.P,MOD1,8,CS/SCL_8*%
%TO.N,/ADXL CS*%
X24309522Y26289000D03*
%TO.P,MOD1,7,V1P8ANA_7*%
%TO.N,unconnected-(MOD1-V1P8ANA-Pad7)*%
X21769522Y26289000D03*
%TO.P,MOD1,6,DRDY_6*%
%TO.N,/ADXL DRDY*%
X9069522Y21209000D03*
%TO.P,MOD1,5,GND_5*%
%TO.N,GND*%
X6529522Y21209000D03*
%TO.P,MOD1,4,INT2_4*%
%TO.N,unconnected-(MOD1-INT2-Pad4)*%
X9069522Y23749000D03*
%TO.P,MOD1,3,VDD_3*%
%TO.N,/3V3_ADXL*%
X6529522Y23749000D03*
%TO.P,MOD1,2,INT1_2*%
%TO.N,/ADXL INT1*%
X9069522Y26289000D03*
%TO.P,MOD1,1,VDDIO_1*%
%TO.N,/3V3_ADXL*%
X6529522Y26289000D03*
%TD*%
D16*
%TO.P,J1,1,Pin_1_1*%
%TO.N,/RS485_B*%
X41050000Y78740000D03*
D17*
%TO.P,J1,2,Pin_2_2*%
%TO.N,/RS485_A*%
X37550000Y78740000D03*
%TD*%
%TO.P,J2,2,Pin_2_2*%
%TO.N,/12VIN*%
X19770000Y78740000D03*
D16*
%TO.P,J2,1,Pin_1_1*%
%TO.N,GND*%
X23270000Y78740000D03*
%TD*%
D18*
%TO.P,D1,1,K_1*%
%TO.N,Net-(D1-K)*%
X15170000Y57925000D03*
D17*
%TO.P,D1,2,A_2*%
%TO.N,GND*%
X25330000Y57925000D03*
%TD*%
D19*
%TO.P,C5,1*%
%TO.N,Net-(D1-K)*%
X8820000Y79515000D03*
D13*
%TO.P,C5,2*%
%TO.N,GND*%
X12320000Y79515000D03*
%TD*%
D20*
%TO.P,TP1,1,1_1*%
%TO.N,/5V*%
X21520000Y46495000D03*
%TD*%
D13*
%TO.P,C3,1,1_1*%
%TO.N,/3V3_ADXL*%
X5050000Y36941551D03*
%TO.P,C3,2,2_2*%
%TO.N,GND*%
X10050000Y36941551D03*
%TD*%
%TO.P,C4,2*%
%TO.N,GND*%
X15170000Y38875000D03*
D21*
%TO.P,C4,1*%
%TO.N,/3V3_ADXL*%
X15170000Y36875000D03*
%TD*%
D13*
%TO.P,L1,1,1_1*%
%TO.N,Net-(U2-OUT)*%
X13900000Y42685000D03*
%TO.P,L1,2,2_2*%
%TO.N,/3V3_ADXL*%
X6280000Y42685000D03*
%TD*%
D20*
%TO.P,TP6,1,1_1*%
%TO.N,/3V3_ADXL*%
X21520000Y41415000D03*
%TD*%
%TO.P,TP9,1,1_1*%
%TO.N,/ADXL CS*%
X34220000Y3175000D03*
%TD*%
%TO.P,TP2,1,1_1*%
%TO.N,GND*%
X31680000Y14605000D03*
%TD*%
D13*
%TO.P,C6,1,1_1*%
%TO.N,Net-(D1-K)*%
X17750000Y63005000D03*
%TO.P,C6,2,2_2*%
%TO.N,GND*%
X22750000Y63005000D03*
%TD*%
D22*
%TO.P,F1,1,1_1*%
%TO.N,Net-(D1-K)*%
X18980000Y70155000D03*
%TO.P,F1,2,2_2*%
%TO.N,/12VIN*%
X24080000Y68555000D03*
%TD*%
D20*
%TO.P,TP3,1,1_1*%
%TO.N,Net-(D1-K)*%
X21520000Y51575000D03*
%TD*%
%TO.P,TP8,1,1_1*%
%TO.N,/ADXL SCLK*%
X27870000Y4445000D03*
%TD*%
%TO.P,U2,3,IN_3*%
%TO.N,/5V*%
X7550000Y49035000D03*
%TO.P,U2,2,GND_2*%
%TO.N,GND*%
X10090000Y49035000D03*
D23*
%TO.P,U2,1,OUT_1*%
%TO.N,Net-(U2-OUT)*%
X12630000Y49035000D03*
%TD*%
D20*
%TO.P,TP7,1,1_1*%
%TO.N,/3V3_Pico*%
X40570000Y14605000D03*
%TD*%
D24*
%TO.P,U1,3,Positive_Output_3*%
%TO.N,/5V*%
X6280000Y70625000D03*
%TO.P,U1,2,Common_(Ground)_2*%
%TO.N,GND*%
X8820000Y70625000D03*
D25*
%TO.P,U1,1,Positive_Input_1*%
%TO.N,Net-(D1-K)*%
X11360000Y70625000D03*
%TD*%
D20*
%TO.P,TP10,1,1_1*%
%TO.N,/ADXL DRDY*%
X21520000Y3175000D03*
%TD*%
D19*
%TO.P,C2,1*%
%TO.N,/5V*%
X5897349Y59195000D03*
D13*
%TO.P,C2,2*%
%TO.N,GND*%
X9397349Y59195000D03*
%TD*%
%TO.N,/3V3_Pico*%
D26*
X40570000Y14605000D02*
X41840000Y15875000D01*
X41840000Y15875000D02*
X41840000Y52235000D01*
X41840000Y52235000D02*
X47390000Y57785000D01*
X47390000Y57785000D02*
X48190000Y57785000D01*
%TO.N,/12VIN*%
D27*
X24080000Y68555000D02*
X24060000Y68575000D01*
X24060000Y68575000D02*
X24060000Y71120000D01*
X24060000Y71120000D02*
X19770000Y75410000D01*
X19770000Y75410000D02*
X19770000Y78740000D01*
%TO.N,/RS485_B*%
X39300000Y60315000D02*
X39300000Y76990000D01*
X39300000Y76990000D02*
X41050000Y78740000D01*
%TO.N,/RS485_A*%
X36760000Y60315000D02*
X36760000Y77950000D01*
X36760000Y77950000D02*
X37550000Y78740000D01*
%TO.N,/ADXL SDI*%
D28*
X24309522Y21209000D02*
X25833522Y19685000D01*
X25833522Y19685000D02*
X30410000Y19685000D01*
%TO.N,/ADXL SDO*%
X21769522Y21209000D02*
X23109522Y22549000D01*
X23109522Y26786057D02*
X26168465Y29845000D01*
X23109522Y22549000D02*
X23109522Y26786057D01*
X26168465Y29845000D02*
X30410000Y29845000D01*
%TO.N,/ADXL SCLK*%
X25833522Y22225000D02*
X30410000Y22225000D01*
X36760000Y20320000D02*
X34855000Y22225000D01*
X34855000Y22225000D02*
X30410000Y22225000D01*
X27870000Y4445000D02*
X36760000Y13335000D01*
X36760000Y13335000D02*
X36760000Y20320000D01*
X24309522Y23749000D02*
X25833522Y22225000D01*
%TO.N,/ADXL INT1*%
X9069522Y26289000D02*
X18975522Y36195000D01*
X27235000Y36195000D02*
X28505000Y34925000D01*
X28505000Y34925000D02*
X30410000Y34925000D01*
X18975522Y36195000D02*
X27235000Y36195000D01*
%TO.N,/R {slash} RO*%
D29*
X30410000Y66040000D02*
X30410000Y65405000D01*
%TO.N,/ADXL DRDY*%
D28*
X21520000Y3175000D02*
X21520000Y8758522D01*
%TO.N,/ADXL CS*%
X36760000Y27305000D02*
X30410000Y27305000D01*
X39300000Y8255000D02*
X39300000Y24765000D01*
X34220000Y3175000D02*
X39300000Y8255000D01*
X25325522Y27305000D02*
X30410000Y27305000D01*
X39300000Y24765000D02*
X36760000Y27305000D01*
X24309522Y26289000D02*
X25325522Y27305000D01*
%TO.N,/ADXL DRDY*%
X20250000Y34925000D02*
X25330000Y34925000D01*
X25330000Y34925000D02*
X27870000Y32385000D01*
X27870000Y32385000D02*
X30410000Y32385000D01*
X9069522Y21209000D02*
X17075000Y29214478D01*
X17075000Y29214478D02*
X17075000Y31750000D01*
X17075000Y31750000D02*
X20250000Y34925000D01*
X21520000Y8758522D02*
X9069522Y21209000D01*
%TO.N,/5V*%
D27*
X5897349Y53655000D02*
X5897349Y50687651D01*
%TO.N,Net-(U2-OUT)*%
X12630000Y49035000D02*
X12630000Y43955000D01*
%TO.N,Net-(D1-K)*%
X18980000Y70155000D02*
X16010000Y70155000D01*
X16010000Y70155000D02*
X14180000Y70155000D01*
X15170000Y69165000D02*
X14180000Y70155000D01*
X17750000Y63005000D02*
X17750000Y68415000D01*
%TO.N,/5V*%
X5897349Y50687651D02*
X7550000Y49035000D01*
X5897349Y70242349D02*
X6280000Y70625000D01*
X5897349Y59195000D02*
X5897349Y70242349D01*
%TO.N,Net-(U2-OUT)*%
X12630000Y43955000D02*
X13900000Y42685000D01*
%TO.N,Net-(D1-K)*%
X21520000Y51575000D02*
X15170000Y57925000D01*
X15170000Y57925000D02*
X15170000Y69165000D01*
X17750000Y68415000D02*
X16010000Y70155000D01*
%TO.N,/3V3_ADXL*%
X16980000Y36875000D02*
X15170000Y36875000D01*
%TO.N,Net-(D1-K)*%
X8820000Y73165000D02*
X11360000Y70625000D01*
X8820000Y79515000D02*
X8820000Y73165000D01*
%TO.N,/3V3_ADXL*%
X6529522Y23749000D02*
X5050000Y25228522D01*
X13360000Y36875000D02*
X10390000Y39845000D01*
X5050000Y36941551D02*
X5050000Y27768522D01*
X6280000Y39845000D02*
X6280000Y38171551D01*
X5050000Y27768522D02*
X6529522Y26289000D01*
X10390000Y39845000D02*
X6280000Y39845000D01*
X5050000Y25228522D02*
X5050000Y27768522D01*
X6280000Y42685000D02*
X6280000Y39845000D01*
X6280000Y38171551D02*
X5050000Y36941551D01*
X15170000Y36875000D02*
X13360000Y36875000D01*
%TO.N,Net-(D1-K)*%
X14180000Y70155000D02*
X11830000Y70155000D01*
X11830000Y70155000D02*
X11360000Y70625000D01*
%TO.N,/5V*%
X14360000Y53655000D02*
X5897349Y53655000D01*
X48190000Y65405000D02*
X49512742Y65405000D01*
X49512742Y65405000D02*
X51390000Y67282258D01*
X51390000Y67282258D02*
X51390000Y82030000D01*
X21520000Y46495000D02*
X14360000Y53655000D01*
%TO.N,/3V3_ADXL*%
X21520000Y41415000D02*
X16980000Y36875000D01*
%TO.N,/5V*%
X5897349Y59195000D02*
X5897349Y53655000D01*
X51390000Y82030000D02*
X41205000Y92215000D01*
X41205000Y92215000D02*
X15517968Y92215000D01*
X15517968Y92215000D02*
X6280000Y82977032D01*
X6280000Y82977032D02*
X6280000Y70625000D01*
%TD*%
M02*
