%TF.GenerationSoftware,KiCad,Pcbnew,10.0.2*%
%TF.CreationDate,2026-06-25T00:19:03+02:00*%
%TF.ProjectId,Untitled,556e7469-746c-4656-942e-6b696361645f,rev?*%
%TF.SameCoordinates,PX5ae77c0PY8c7ecc0*%
%TF.FileFunction,Profile,NP*%
%FSLAX46Y46*%
G04 Gerber Fmt 4.6, Leading zero omitted, Abs format (unit mm)*
G04 Created by KiCad (PCBNEW 10.0.2) date 2026-06-25 00:19:03*
%MOMM*%
%LPD*%
G01*
G04 APERTURE LIST*
%TA.AperFunction,Profile*%
%ADD10C,0.050000*%
%TD*%
G04 APERTURE END LIST*
D10*
X54555000Y86432359D02*
X54555000Y20315000D01*
X46195200Y11960200D02*
X54555000Y20320000D01*
X8832614Y6593680D02*
G75*
G02*
X9711267Y4472359I-2121314J-2121280D01*
G01*
X1850000Y79912359D02*
G75*
G02*
X2728660Y82033700I3000000J41D01*
G01*
X9711294Y90258935D02*
G75*
G02*
X8832631Y88137599I-2999994J-35D01*
G01*
X53676321Y88553679D02*
G75*
G02*
X54554971Y86432359I-2121321J-2121279D01*
G01*
X47643480Y94586520D02*
G75*
G02*
X46764829Y96707841I2121320J2121280D01*
G01*
X47643480Y94586520D02*
X53676321Y88553679D01*
X46764800Y99275200D02*
X46764800Y96707841D01*
X9711294Y4472359D02*
X9711294Y745200D01*
X43191294Y-2254800D02*
X12711294Y-2254800D01*
X8832614Y6593680D02*
X1850000Y13576294D01*
X46191294Y11965000D02*
X46191294Y745200D01*
X46191294Y745200D02*
G75*
G02*
X43191294Y-2254800I-3000001J1D01*
G01*
X12711294Y102275200D02*
X43764800Y102275200D01*
X12711294Y-2254800D02*
G75*
G02*
X9711294Y745200I1J3000001D01*
G01*
X2728680Y82033680D02*
X8832615Y88137615D01*
X1850000Y13580000D02*
X1850000Y79912359D01*
X43764800Y102275200D02*
G75*
G02*
X46764800Y99275200I-1J-3000001D01*
G01*
X9711294Y99275200D02*
G75*
G02*
X12711294Y102275200I3000001J-1D01*
G01*
X9711294Y99275200D02*
X9711294Y90258935D01*
M02*
