%TF.GenerationSoftware,KiCad,Pcbnew,10.0.2*%
%TF.CreationDate,2026-06-25T00:19:03+02:00*%
%TF.ProjectId,Untitled,556e7469-746c-4656-942e-6b696361645f,rev?*%
%TF.SameCoordinates,PX5ae77c0PY8c7ecc0*%
%TF.FileFunction,Soldermask,Top*%
%TF.FilePolarity,Negative*%
%FSLAX46Y46*%
G04 Gerber Fmt 4.6, Leading zero omitted, Abs format (unit mm)*
G04 Created by KiCad (PCBNEW 10.0.2) date 2026-06-25 00:19:03*
%MOMM*%
%LPD*%
G01*
G04 APERTURE LIST*
G04 Aperture macros list*
%AMRoundRect*
0 Rectangle with rounded corners*
0 $1 Rounding radius*
0 $2 $3 $4 $5 $6 $7 $8 $9 X,Y pos of 4 corners*
0 Add a 4 corners polygon primitive as box body*
4,1,4,$2,$3,$4,$5,$6,$7,$8,$9,$2,$3,0*
0 Add four circle primitives for the rounded corners*
1,1,$1+$1,$2,$3*
1,1,$1+$1,$4,$5*
1,1,$1+$1,$6,$7*
1,1,$1+$1,$8,$9*
0 Add four rect primitives between the rounded corners*
20,1,$1+$1,$2,$3,$4,$5,0*
20,1,$1+$1,$4,$5,$6,$7,0*
20,1,$1+$1,$6,$7,$8,$9,0*
20,1,$1+$1,$8,$9,$2,$3,0*%
%AMFreePoly0*
4,1,37,0.603843,0.796157,0.639018,0.796157,0.711114,0.766294,0.766294,0.711114,0.796157,0.639018,0.796157,0.603843,0.800000,0.600000,0.800000,-0.600000,0.796157,-0.603843,0.796157,-0.639018,0.766294,-0.711114,0.711114,-0.766294,0.639018,-0.796157,0.603843,-0.796157,0.600000,-0.800000,0.000000,-0.800000,0.000000,-0.796148,-0.078414,-0.796148,-0.232228,-0.765552,-0.377117,-0.705537,
-0.507515,-0.618408,-0.618408,-0.507515,-0.705537,-0.377117,-0.765552,-0.232228,-0.796148,-0.078414,-0.796148,0.078414,-0.765552,0.232228,-0.705537,0.377117,-0.618408,0.507515,-0.507515,0.618408,-0.377117,0.705537,-0.232228,0.765552,-0.078414,0.796148,0.000000,0.796148,0.000000,0.800000,0.600000,0.800000,0.603843,0.796157,0.603843,0.796157,$1*%
%AMFreePoly1*
4,1,37,0.000000,0.796148,0.078414,0.796148,0.232228,0.765552,0.377117,0.705537,0.507515,0.618408,0.618408,0.507515,0.705537,0.377117,0.765552,0.232228,0.796148,0.078414,0.796148,-0.078414,0.765552,-0.232228,0.705537,-0.377117,0.618408,-0.507515,0.507515,-0.618408,0.377117,-0.705537,0.232228,-0.765552,0.078414,-0.796148,0.000000,-0.796148,0.000000,-0.800000,-0.600000,-0.800000,
-0.603843,-0.796157,-0.639018,-0.796157,-0.711114,-0.766294,-0.766294,-0.711114,-0.796157,-0.639018,-0.796157,-0.603843,-0.800000,-0.600000,-0.800000,0.600000,-0.796157,0.603843,-0.796157,0.639018,-0.766294,0.711114,-0.711114,0.766294,-0.639018,0.796157,-0.603843,0.796157,-0.600000,0.800000,0.000000,0.800000,0.000000,0.796148,0.000000,0.796148,$1*%
G04 Aperture macros list end*
%ADD10C,1.700000*%
%ADD11R,1.700000X1.700000*%
%ADD12RoundRect,0.200000X-0.600000X-0.600000X0.600000X-0.600000X0.600000X0.600000X-0.600000X0.600000X0*%
%ADD13C,1.600000*%
%ADD14FreePoly0,0.000000*%
%ADD15FreePoly1,0.000000*%
%ADD16C,2.700000*%
%ADD17RoundRect,0.250001X0.949999X0.949999X-0.949999X0.949999X-0.949999X-0.949999X0.949999X-0.949999X0*%
%ADD18C,2.400000*%
%ADD19C,3.200000*%
%ADD20RoundRect,0.250001X-0.949999X-0.949999X0.949999X-0.949999X0.949999X0.949999X-0.949999X0.949999X0*%
%ADD21RoundRect,0.250000X-0.550000X-0.550000X0.550000X-0.550000X0.550000X0.550000X-0.550000X0.550000X0*%
%ADD22C,1.500000*%
%ADD23RoundRect,0.250000X0.550000X-0.550000X0.550000X0.550000X-0.550000X0.550000X-0.550000X-0.550000X0*%
%ADD24C,1.270000*%
%ADD25R,1.500000X1.500000*%
%ADD26C,1.800000*%
%ADD27R,1.800000X1.800000*%
G04 APERTURE END LIST*
D10*
%TO.C,PICO1*%
X41840000Y60315000D03*
X39300000Y60315000D03*
D11*
X36760000Y60315000D03*
D12*
X30410000Y67945000D03*
D13*
X30410000Y65405000D03*
D14*
X30410000Y62865000D03*
D13*
X30410000Y60325000D03*
X30410000Y57785000D03*
X30410000Y55245000D03*
X30410000Y52705000D03*
D14*
X30410000Y50165000D03*
D13*
X30410000Y47625000D03*
X30410000Y45085000D03*
X30410000Y42545000D03*
X30410000Y40005000D03*
D14*
X30410000Y37465000D03*
D13*
X30410000Y34925000D03*
X30410000Y32385000D03*
X30410000Y29845000D03*
X30410000Y27305000D03*
D14*
X30410000Y24765000D03*
D13*
X30410000Y22225000D03*
X30410000Y19685000D03*
X48190000Y19685000D03*
X48190000Y22225000D03*
D15*
X48190000Y24765000D03*
D13*
X48190000Y27305000D03*
X48190000Y29845000D03*
X48190000Y32385000D03*
X48190000Y34925000D03*
D15*
X48190000Y37465000D03*
D13*
X48190000Y40005000D03*
X48190000Y42545000D03*
X48190000Y45085000D03*
X48190000Y47625000D03*
D15*
X48190000Y50165000D03*
D13*
X48190000Y52705000D03*
X48190000Y55245000D03*
X48190000Y57785000D03*
X48190000Y60325000D03*
D15*
X48190000Y62865000D03*
D13*
X48190000Y65405000D03*
X48190000Y67945000D03*
%TD*%
D10*
%TO.C,MOD1*%
X24309522Y21209000D03*
X21769522Y21209000D03*
X24309522Y23749000D03*
X21769522Y23749000D03*
X24309522Y26289000D03*
X21769522Y26289000D03*
X9069522Y21209000D03*
X6529522Y21209000D03*
X9069522Y23749000D03*
X6529522Y23749000D03*
X9069522Y26289000D03*
X6529522Y26289000D03*
D16*
X22785521Y16383000D03*
X22785521Y31115000D03*
X8053522Y16383000D03*
X8053522Y31115000D03*
%TD*%
D17*
%TO.C,J1*%
X41050000Y78740000D03*
D18*
X37550000Y78740000D03*
%TD*%
%TO.C,J2*%
X19770000Y78740000D03*
D17*
X23270000Y78740000D03*
%TD*%
D19*
%TO.C,H2*%
X41900000Y97405000D03*
%TD*%
D20*
%TO.C,D1*%
X15170000Y57925000D03*
D18*
X25330000Y57925000D03*
%TD*%
D21*
%TO.C,C5*%
X8820000Y79515000D03*
D13*
X12320000Y79515000D03*
%TD*%
D22*
%TO.C,TP1*%
X21520000Y46495000D03*
%TD*%
D19*
%TO.C,H4*%
X41900000Y1905000D03*
%TD*%
D13*
%TO.C,C3*%
X5050000Y36941551D03*
X10050000Y36941551D03*
%TD*%
%TO.C,C4*%
X15170000Y38875000D03*
D23*
X15170000Y36875000D03*
%TD*%
D13*
%TO.C,L1*%
X13900000Y42685000D03*
X6280000Y42685000D03*
%TD*%
D22*
%TO.C,TP6*%
X21520000Y41415000D03*
%TD*%
D19*
%TO.C,H1*%
X13900000Y97405000D03*
%TD*%
%TO.C,H3*%
X13900000Y1905000D03*
%TD*%
D22*
%TO.C,TP9*%
X34220000Y3175000D03*
%TD*%
%TO.C,TP2*%
X31680000Y14605000D03*
%TD*%
D13*
%TO.C,C6*%
X17750000Y63005000D03*
X22750000Y63005000D03*
%TD*%
D24*
%TO.C,F1*%
X18980000Y70155000D03*
X24080000Y68555000D03*
%TD*%
D22*
%TO.C,TP3*%
X21520000Y51575000D03*
%TD*%
%TO.C,TP8*%
X27870000Y4445000D03*
%TD*%
%TO.C,U2*%
X7550000Y49035000D03*
X10090000Y49035000D03*
D25*
X12630000Y49035000D03*
%TD*%
D22*
%TO.C,TP7*%
X40570000Y14605000D03*
%TD*%
D26*
%TO.C,U1*%
X6280000Y70625000D03*
X8820000Y70625000D03*
D27*
X11360000Y70625000D03*
%TD*%
D22*
%TO.C,TP10*%
X21520000Y3175000D03*
%TD*%
D21*
%TO.C,C2*%
X5897349Y59195000D03*
D13*
X9397349Y59195000D03*
%TD*%
M02*
