M48
; DRILL file KiCad 10.0.2 date 2026-06-25T00:19:01
; FORMAT={-:-/ absolute / metric / decimal}
; #@! TF.CreationDate,2026-06-25T00:19:01+02:00
; #@! TF.GenerationSoftware,Kicad,Pcbnew,10.0.2
; #@! TF.FileFunction,MixedPlating,1,2
FMAT,2
METRIC
; #@! TA.AperFunction,Plated,PTH,ComponentDrill
T1C0.700
; #@! TA.AperFunction,Plated,PTH,ComponentDrill
T2C0.710
; #@! TA.AperFunction,Plated,PTH,ComponentDrill
T3C0.800
; #@! TA.AperFunction,Plated,PTH,ComponentDrill
T4C1.000
; #@! TA.AperFunction,Plated,PTH,ComponentDrill
T5C1.200
; #@! TA.AperFunction,NonPlated,NPTH,ComponentDrill
T6C2.700
; #@! TA.AperFunction,NonPlated,NPTH,ComponentDrill
T7C3.200
%
G90
G05
T1
X21.52Y51.575
X21.52Y46.495
X21.52Y41.415
X21.52Y3.175
X27.87Y4.445
X31.68Y14.605
X34.22Y3.175
X40.57Y14.605
T2
X18.98Y70.155
X24.08Y68.555
T3
X5.05Y36.942
X5.897Y59.195
X6.28Y42.685
X7.55Y49.035
X8.82Y79.515
X9.397Y59.195
X10.05Y36.942
X10.09Y49.035
X12.32Y79.515
X12.63Y49.035
X13.9Y42.685
X15.17Y38.875
X15.17Y36.875
X17.75Y63.005
X22.75Y63.005
T4
X6.28Y70.625
X6.53Y26.289
X6.53Y23.749
X6.53Y21.209
X8.82Y70.625
X9.07Y26.289
X9.07Y23.749
X9.07Y21.209
X11.36Y70.625
X21.77Y26.289
X21.77Y23.749
X21.77Y21.209
X24.31Y26.289
X24.31Y23.749
X24.31Y21.209
X30.41Y67.945
X30.41Y65.405
X30.41Y62.865
X30.41Y60.325
X30.41Y57.785
X30.41Y55.245
X30.41Y52.705
X30.41Y50.165
X30.41Y47.625
X30.41Y45.085
X30.41Y42.545
X30.41Y40.005
X30.41Y37.465
X30.41Y34.925
X30.41Y32.385
X30.41Y29.845
X30.41Y27.305
X30.41Y24.765
X30.41Y22.225
X30.41Y19.685
X36.76Y60.315
X39.3Y60.315
X41.84Y60.315
X48.19Y67.945
X48.19Y65.405
X48.19Y62.865
X48.19Y60.325
X48.19Y57.785
X48.19Y55.245
X48.19Y52.705
X48.19Y50.165
X48.19Y47.625
X48.19Y45.085
X48.19Y42.545
X48.19Y40.005
X48.19Y37.465
X48.19Y34.925
X48.19Y32.385
X48.19Y29.845
X48.19Y27.305
X48.19Y24.765
X48.19Y22.225
X48.19Y19.685
T5
X15.17Y57.925
X19.77Y78.74
X23.27Y78.74
X25.33Y57.925
X37.55Y78.74
X41.05Y78.74
T6
X8.054Y31.115
X8.054Y16.383
X22.786Y31.115
X22.786Y16.383
T7
X13.9Y97.405
X13.9Y1.905
X41.9Y97.405
X41.9Y1.905
M30
